<?xml version="1.0" encoding="utf-8"?>
<!-- Generator: Adobe Illustrator 25.0.1, SVG Export Plug-In . SVG Version: 6.00 Build 0)  -->
<svg version="1.1" id="Layer_1" xmlns="http://www.w3.org/2000/svg" xmlns:xlink="http://www.w3.org/1999/xlink" x="0px" y="0px"
	 viewBox="0 0 750 750" style="fill: #128573; enable-background:new 0 0 750 750;" xml:space="preserve">
<g>
	<g>
		<path d="M463.3,337.5c5.9,3.8,11.5,6.1,15.1,10.2c4.8,5.4,7.9,12.3,12,18.8c-4.3-0.3-6.6-2.9-8.4-6.1c-1.5-2.6-2.4-5.6-4.1-8.1
			c-1.4-2-3.5-3.6-5.3-5.3c-0.5,0.4-1.1,0.8-1.6,1.2c1.5,3.8,2.6,7.8,4.6,11.3c5.7,10.3,11.8,20.5,17.8,30.6c1,1.7,2.5,3.1,3.9,4.6
			c5.6,6.1,11.5,12,16.7,18.5c2.3,2.9,3.4,6.8,4.9,10.3c1.8,4.4,3.9,8.1,8.6,10.2c2.8,1.2,5,3.7,7.3,5.8c2,1.8,3.7,4.1,5.7,5.9
			c5.3,4.9,5.3,9.4,0.2,14.5c-0.6,0.6-0.9,2.3-0.5,3c4.6,7.4,9.1,15,14.3,22.1c4.8,6.6,11.1,12.1,15.6,18.9
			c3.5,5.3,5.1,11.8,7.8,17.7c0.7,1.5,2,2.8,2.6,4.3c1.2,2.3,2.4,4.5,3.6,6.8c0.6,1.2,1.3,2.3,1.7,3.5c2.4,8.4,7.9,13.4,16,16.5
			c4.6,1.8,7.6,0,10.3-2.8c3.9-4.1,7.3-8.6,10.8-13c2.4-3,4.4-6.3,6.9-9.2c4.6-5.5,10.5-4.2,13.2,2c3.4,7.9,7.9,15.4,11.4,23.2
			c1.8,4,3.1,8.5,3.4,12.8c0.1,2.2-2.2,5.6-4.3,6.6c-4,2-8.7,2.8-13.4,4.1c2,2.6,4.4,4.7,8.1,4.5c4.2-0.2,8.3-0.5,12.5-0.7
			c2.7-0.2,3-1.6,2.8-4.1c-0.6-6.8-1.1-13.6-1-20.3c0-2.7,1.4-5.6,2.9-8c0.8-1.2,3.2-2.1,4.8-2c1.2,0.1,3.1,1.8,3.3,3.1
			c1.3,6.5,2.1,13.1,3.2,19.6c0.9,5.4,2.5,10.7,2.9,16.1c0.2,2.2-1.6,4.9-3.2,6.9c-1.5,1.9-1.5,2.8-0.1,4.8c1.3,1.8,2.8,4.5,2.4,6.4
			c-0.7,3.3-3.9,2.6-6.5,2.1c-0.7-0.1-1.3-0.3-2.6-0.5c0.6,1.7,1.1,2.8,1.4,4c0.7,3,2.2,2.4,4.1,1.1c5.6-4,10-8.9,12.5-15.6
			c4-10.6,8.6-21,12.6-31.7c3-8.1,5.5-16.3,7.9-24.5c0.8-2.6,2-4,4.5-3.3c3.4,0.9,3.5-1.3,4-3.5c0.7-2.7,1.1-5.8,2.6-8
			c1-1.5,3.7-2.4,5.7-2.6c0.8-0.1,2.6,3,2.4,4.4c-0.7,4.2-2.1,8.2-3.5,12.3c-0.7,2.1-1.9,4-3.1,6.7c2.9,0,4.9,0.2,6.9,0
			c4.8-0.6,7.4,2,5.9,6.8c-1.6,4.9-3.8,9.7-6,14.4c-4.2,9-8.4,18-9.7,28.1c-0.3,2.4-1.3,4.8-2.5,6.8c-0.6,1-2.6,2.1-3.5,1.8
			c-1.6-0.5-2.8-2.1-4.4-3.4c0,0-0.8,0.7-0.9,1.5c-0.4,4.7-1.4,9.6-0.8,14.1c0.7,4.8,2,6.1-0.5,10.3c-2.6,4.3,0.5,8.1,0,12.1
			c-0.4,3.2-0.2,6.4-0.7,9.6c-1,6.5-2.2,13-3.4,19.5c-2.8,14.4-8.9,27.7-15.1,40.9c-2,4.3-4.4,8.4-6.9,12.5
			c-1.6,2.6-3.9,3.2-6.4,0.8c-0.6-0.6-1.7-1.2-2.4-1c-8,2.5-13-3-18.6-6.9c-7.1-4.9-14-10.1-21.3-14.7c-1.6-1-4.7-0.8-6.7,0
			c-12.6,5.2-25.4,7.8-39.1,6.4c-12.6-1.3-25.3-1.3-37.9-2.3c-7.6-0.6-15.6-0.4-21.6-6.7c-0.4-0.4-1.3-0.5-2-0.4
			c-4.2,0.2-8.3,0.5-12.5,0.6c-3.9,0.1-7.8,0-12.3,0c-0.5,1.4-1.3,4-2.6,7.7c6.4,0.1,12.8,0.4,19.1,0.1c4.4-0.2,8.8-1.3,13.3-1.7
			c0.9-0.1,2,1,3,1.5c-0.8,0.8-1.6,2.1-2.5,2.2c-9.9,0.7-19.8,1.2-29.8,1.6c-9.3,0.3-18.7,0.7-27.9,0.3c-4.2-0.2-8.4-1.9-12.4-3.5
			c-1.3-0.5-1.9-2.6-2.9-4c1.7-0.5,3.5-1.6,5.1-1.4c5.4,0.7,10.7,2.2,16.2,2.6c4.1,0.3,8.4-0.2,12.4-1.2c1.5-0.4,2.9-3.3,3.2-5.2
			c0.6-3.7-0.5-7.7,5.6-7.9c2.7-0.1,5.4-2.9,8.1-4.5c-5.1-3.2-10.1-3.4-15.8-2.1c-16.9,3.9-34,6.3-51.4,7.8c-14,1.2-28,3.9-42,5.4
			c-8,0.9-16.1,0.6-24.2,1.2c-10.8,0.9-21.5,2.8-32.3,3.1c-8.2,0.3-16.4-1.2-24.6-1.8c-2.1-0.1-4.8-1.5-5.6,2.1
			c-0.1,0.3-1,0.6-1.4,0.5c-0.4-0.1-1.1-0.9-1-1.1c1.5-2.9-0.8-2.6-2.4-2.9c-2.6-0.4-5.3-0.8-8.7-1.3c2.6,3.1,7.7,0.5,9.1,3.9
			c-0.3,0.4-0.5,0.9-0.8,1.3c-7.7-1.7-15.5-3.2-23.2-5.2c-9.4-2.5-18.7-5.5-28.1-8.4c-14.5-4.5-28.9-9.1-43.4-13.6
			c-2.9-0.9-5.8-1.7-8.8-2.4c-2.8-0.7-5.4-1.9-7.8,1.9c-1.2,1.9-4,1.9-7.1,0c-4.5-2.8-10.2-3.7-16-5.7c0.3,1.6,0.2,2,0.4,2.1
			c7.3,4.5,14.7,8.9,21.9,13.5c1.4,0.9,3.4,3,3.1,4c-0.5,1.8-2.2,3.6-3.8,4.8c-1.4,1-3.5,1-4.8,1.4c2.1,3,3.9,5.9,6,8.7
			c0.8,1,2.2,1.7,3.5,2.2c6.2,2.3,12.4,4.7,18.7,6.5c1.8,0.5,4.4-0.1,6.2-1.1c1.6-0.9,3-2.8,3.7-4.6c0.5-1.2,0.1-3.1-0.5-4.4
			c-0.8-1.5-2.2-2.7-3.6-3.8c-2.5-1.9-3.2-3.7,0.2-6.1c-6.7-0.5-12.9-0.9-19-1.3c-2.5-0.1-4.6-1.1-4.1-3.7c0.2-1,3.1-2.3,4.6-2.2
			c10.6,1.2,21.1,2.6,31.7,4.2c1.6,0.2,3.2,1.3,4.6,2.3c0.9,0.7,2.1,2.1,1.9,2.8c-0.4,1.3-1.5,3.1-2.6,3.4c-4.2,1-6.2,3.1-6.4,7.6
			c-0.1,2.1-2.2,4.2-3.6,6.1c-2,3-4,5.9-6.1,8.8c-0.5,0.7-1.3,1.7-1.8,1.6c-7.1-1.3-12.1,4.5-18.4,5.2c-4,0.5-8.2,0.1-12.2-0.3
			c-1-0.1-1.8-2.2-2.6-3.4c1.2-0.6,2.3-1.5,3.6-1.8c5.8-1.2,11.6-2.2,17.4-3.4c1.2-0.2,2.2-1.2,4.1-2.3c-7.8-3.6-14.7-6.5-22.6-4
			c-3,1-6,1.5-8.5-0.8c-2.5-2.3-1.8-4.5,1.5-5.3c4.6-1.2,5.1-2.6,1.8-6.1c-7.4-7.6-17.2-8.9-26.3-3.3c-4.2,2.6-6.7,14.7-4.2,18.7
			c0.7,1,2.5,1.6,3.8,1.9c1.1,0.2,2.3-0.1,3.4-0.4c2.1-0.6,4.8-1.4,5.1,1.6c0.3,2.3-0.3,5.4-4.1,5.4c-0.4,0-0.8,0.3-1.4,0.6
			c4,5,9.2,7.2,15.1,8.4c4.4,0.9,8.7,2.1,12.9,3.6c1,0.4,1.4,2.6,2,4c-1.4,0.6-3,2-4.2,1.8c-2.8-0.5-5.4-2.4-8.1-2.7
			c-6.6-0.7-13.2-1-19.8-0.9c-5.3,0.1-10.7,1.3-16,1.2c-2.4-0.1-5.6-1.6-6.7-3.5c-0.8-1.3,0.9-4.9,2.4-6.5c2.6-2.8,5.9-5,9.1-7.5
			c-13.6-2.1-22.3-9.8-22.8-23.9c-0.2-4.7,2.4-10.3,5.4-14.1c2.8-3.7,7.5-7,11.9-8c4.7-1,10.1,0.9,15.5,1.5
			c-1.1-5.8-9.7-7.1-6.6-14.5c-2.5-0.7-5.5-1.5-9.5-2.7c-0.4,2.5-0.7,4.7-1.2,7.8c-3.4,0.6-7.9,1.4-12.4,2.3
			c-11.5,2.4-22.9,4.8-34.4,7.2c-8.2,1.7-13.3-0.8-17.4-8c-0.6-1.1-2.4-1.5-3.4-2.5c-1.4-1.3-2.5-2.7-3.8-4.1
			c1.5-0.8,2.9-1.8,4.5-2.4c2.6-1,5.4-1.6,8.1-2.4c-1.9-4.9-4.9-7-9.5-6.9c-8.7,0.1-17.3,0-26,0c-9,0.1-17.9-0.2-26.5-3
			c-5.5-1.7-10.5-9.6-9-14.7c0.3-1.1,1.9-2.1,3.2-2.6c19.5-8.5,40-12,61.1-13.5c0.4,0,0.8-0.3,0.9-0.3c-0.6-2.3-2.2-5.1-1.4-6.6
			c1.1-2.1,3.8-3.8,6.2-4.9c8.6-3.8,17.3-3.5,26.1,0c2.1,0.9,6.2,1.1,7,0c1.9-2.8,3.6-6.7,0.6-10c-3.4-3.6-6.9-7.3-11-10.1
			c-6.2-4.2-13-7.4-19.4-11.3c-1.8-1.1-3.4-2.7-4.6-4.4c-1.7-2.3-0.3-6.5,2.3-6.6c3.3-0.1,7.3,0.1,9.8,1.8
			c6.6,4.7,12.5,10.6,18.9,15.6c9.9,7.7,12.9,18.5,14.7,30.1c1.1,7.1,2.5,14.1,4.5,21c0.8,2.7,3.4,4.9,5,7.4
			c1.2,1.9,3.3,4.1,2.9,5.7c-0.4,1.6-3.2,3-5.2,3.7c-3.7,1.4-5.2,2.6-6.3,7.5c5.4-1.7,10.6,1.4,15.7-4.1c3.2-3.5,3.2-5.5,1.8-9.1
			c-0.8-2.1-0.7-4.5-1.2-6.7c-0.3-1.3-0.7-2.7-1.6-3.6c-4.7-5-10.1-9.3-12.8-15.9c-0.6-1.5-1-3.2-1.4-4.8c-0.7-2.9,0.3-6,3-6.2
			c2.2-0.1,4.8,2,6.7,3.7c1.3,1.2,1.8,3.4,2.2,4.1c0.8-12.6,1.5-25.8,2.7-39c0.2-2.2,2.3-5.1,4.2-5.8c1.8-0.6,4.7,0.9,6.7,2.1
			c1.7,1.1,2.7,1.7,3.6-0.5c3.3-8.8,6.8-17.6,9.8-26.5c2.9-8.7,5-17.7,8-26.4c1.9-5.4,5.1-10.3,7-15.6c2.5-6.9,4.1-14.1,6.7-20.9
			c5.3-13.8,7.4-28.9,16.1-41.5c3.5-5,4.6-11.5,7.3-17.1c2.8-5.8,5.9-11.6,9.6-16.9c9.5-13.9,14.3-29.3,16.9-45.8
			c0.9-5.7,3-11.2,4.7-16.7c0.3-1,1.2-2,2-2.7c4.3-3.3,8.8-6.5,13.1-9.9c1.9-1.5,3.5-3.4,5.3-5.3c0.3,0.6,0.7,2.2,1.3,2.4
			c1.6,0.3,3.3,0,5-0.1c-0.4-1.6-0.3-4-1.4-4.6c-3.7-2.2-7.9-3.7-11.6-5.8c-5.4-3.2-11-6.1-14.7-11.6c-5.7-8.5-11.5-16.8-17.4-25.2
			c-0.7-1-1.7-2.1-2.8-2.7c-8.7-5.5-13.6-14.3-19.5-22.2c-6.9-9.2-12.8-19.2-19.2-28.7c-2.2-3.3-3.1-8-8.1-8.9
			c-0.7-0.1-1.2-2.2-1.5-3.4c-2.1-9.7-8.2-16.8-14.9-23.4c-1.2-1.2-4-1.6-5.6-1.1c-8.1,2.6-17.1-0.7-21.2-8.2
			c-1.2-2.3-2-4.8-3.3-7.1c-0.7-1.3-1.7-2.9-2.9-3.5c-3.2-1.5-3.8-4.2-5-7.1c-6.1-15.3-2.3-31.2-2.4-46.7c0-5.6,3.9-11.2,6.1-16.9
			c0.3-0.8,0.8-1.5,1.2-2.3c2.8-6.7,2.8-6.8,9.6-4.9c3,0.8,4.1-0.2,4.3-3c0.1-1.2,0.2-2.3,0.3-3.5c0.1-1,0.2-1.9,0.5-3.8
			c2,1.5,3.5,2.6,4.8,3.6c5.9-1,11.7-1.6,17.4-3.1c6.7-1.7,13.2-4,19.7-6.2c4.2-1.4,7.4-0.5,10.1,3.1c0.6,0.7,2.2,1.2,3.2,1
			c6.3-1.4,12.6-2.9,18.9-4.6c5.5-1.5,11.4-2.4,16.2-5.1c5-2.9,8.8-7.7,13.4-11.8c6.4,1.9,6.6,3.3,0.5,11.4
			c7.9-0.6,14.8-1.1,22.1-1.7c-2.1-3.9-4.1-7.1-5.6-10.5c-0.6-1.4-0.7-3.4-0.4-5c2.6-11.7,12.9-15.5,22.1-19.2
			c12-4.8,24.7-7.5,37.2-11.1c4.7-1.4,9.4-3.4,14.1-3.8c13.6-1.2,27.3-2.1,41-2.5c6.8-0.2,13.5,1.2,19.9,4.8c2.7,1.5,7,0.9,10.4,0.3
			c2.5-0.4,3.7-0.3,5.5,1.7c6.1,6.9,8.4,14.5,6.4,23.6c-0.2,0.9,0.8,2,1.2,3c1.7,3.9,3.2,7.8,5,11.6c0.6,1.3,2,3.1,3,3.1
			c11.2-0.1,22.1,1.1,33.2,2.7c9.3,1.3,19,0.3,28.5,0.4c3.1,0,6.3,0,8.5,0c2.7-2.4,5-4.5,8.2-7.3c1.7,7.7,6.4,10.6,11.6,13
			c3.5,1.6,5.5,3.8,3.7,8.2c-1.3,3.2,2.3,10.8,6.8,13.9c-0.5-2.5-0.7-4.2-1.2-5.8c-1-3.2-2.3-6.2-3.2-9.4c-0.2-0.8,0.4-2.3,1.1-2.9
			c0.5-0.4,2.1-0.2,2.7,0.3c2.6,2.5,5,5.2,7.8,8.3c1.7-1.2,2.1-3.2,1.6-5.8c-0.3-1.3-0.5-3.5,0.1-4c1.4-0.9,3.8-1.8,5-1.2
			c2.3,1.2,4,3.5,6,5.2c1.3,1.1,2.6,2.5,4.1,2.9c2.6,0.8,5.3,0.9,4.4,4.8c-0.1,0.5,0,1.2,0.3,1.7c5,11.4,8.9,23.1,12.5,35
			c1.5,4.9,1.3,10.3,1.8,15.5c0.5,4.4,0.8,8.8,1.4,13.2c0.5,3.5-1.3,5.7-3.6,7.9c-0.4,0.4-1,0.7-1.5,0.9c-7.3,2.5-14.7,5-22.2,7.6
			c3.1,4.6,2.9,7.6,0.2,11.2c-2.9,3.9-5.5,7.9-8.1,12c-3.3,5.4-6.8,10.7-9.6,16.3c-2.8,5.7-5,11.7-7.3,17.6
			c-4.1,10.8-8.1,21.6-12.1,32.4c-6,16-11.5,32.3-18.3,48c-4.2,9.7-10.2,18.7-15.9,27.7C469.7,333.1,466.3,335,463.3,337.5z
			 M206.5,85.7c-3.2,0-6.3,0-10,0c3.4,4.5,16.3,7.2,21.7,5c-2.2-0.8-4.2-1.4-6.1-2.3c-1.9-0.8-3.8-1.9-5.7-2.8
			c3.5-0.1,6.9-0.2,7.4-5.7c-2.3,0.2-4.2,0.1-6,0.5c-2.1,0.4-4.1,1.2-6.1,1.8C203.2,83.4,204.9,84.6,206.5,85.7z M564.7,611.3
			c-1,0.8-1.9,2-3,2.4c-8.4,2.8-12.7,9.7-17.4,16.5c-0.5,0.8-0.6,1.9-1.2,3.9c4.6-2.4,8-4,11.4-5.9c3-1.7,6.7-2.9,6.1-7.7
			c-0.1-1.1,1.5-2.4,2.4-3.5c1.7-2.1,3.4-4.1,5.1-6.1c-0.2-0.2-0.3-0.5-0.5-0.7c-1,0.4-2,0.7-3,1.1c1-1,1.9-2.2,3.1-2.9
			c3.6-1.9,2.2-4.9,1.9-7.6c-0.1-0.8-2-2.1-2.2-2c-1.8,1.3-3.6,2.9-5.2,4.5c-2.1,2.1-4.1,4.4-6.1,6.6c1.5-2.3,2.9-4.7,4.5-7.1
			c-1.8-0.6-3.1-1-5.3-1.8c4-2.7,7.2-5,10.5-7.2c-0.3-0.3-0.5-0.6-0.8-0.9c-9.7,2.8-19.4,5.5-29.2,8.3c0.3-1.2,0.9-1.8,1.6-2
			c9.5-2.9,19-5.9,28.6-8.5c5.6-1.6,10.8-7.2,10.5-11.8c-1.8,0.8-3.7,1.9-5.7,2.3c-4.2,0.8-8.6,0.8-12.7,2
			c-8.5,2.4-16.8,5.4-25.1,8.1c-3.8,1.2-7.7,2.3-11.5,3.6c-7.3,2.4-14.4,5.7-21.9,7.2c-16.7,3.4-33.4,6.4-50.4,7.8
			c-13.2,1.1-26.2,3.9-39.4,5.8c-7.1,1-14.3,1.7-21.5,2.2c-10,0.7-20.1,1.6-30.2,1.6c-9.8-0.1-19.5-1.4-29.3-1.9
			c-12.1-0.6-24.2-0.5-36.3-1.4c-20.7-1.5-41.5-2.9-62.1-5.3c-10.5-1.2-21-3.8-31.2-6.9c-11.5-3.6-22.6-8.5-34.7-13.1
			c1.5,4.1,1.8,9.6,4.7,12.2c4.5,4,10.4,7,16.3,8.6c8,2.2,16.5,2.6,24.8,3.8c1,0.1,2,0.3,2.9,0.4c-15.1,2.7-29.1-1-42.8-7
			c2.2,2.1,4.9,3.1,7,4.9c4.2,3.7,7.9,7.9,11.6,11.6c-2.5-0.4-6-1.6-8.5,3c7.4,0,14.3,0,20.9,0c-0.8-2.4-6.8-1.1-4.9-6
			c18.1,5.8,36,11.5,54.4,17.3c-1,0.2-1.5,0.5-2,0.4c-4-0.7-7.9-1.7-11.9-2.3c-1.2-0.2-3.3,0.2-3.6,0.9c-2.4,6.4-7.7,8.4-13.6,9.7
			c-6,1.4-12.1,2.7-19.2,4.2c2.3,1.1,3.7,2.2,5.3,2.5c3.9,0.7,8.1,0.5,11.8,1.7c5.5,1.7,10.8,1.5,16.3,0.5c4.1-0.7,8.3-1.4,12.4-1.8
			c1.6-0.2,3.3,0.4,5,0.6c0,0.5,0.1,1.1,0.1,1.6c-3.8,0.9-7.6,1.7-11.4,2.6c0.1,0.5,0.1,1,0.2,1.5c5.1,0,10.2,0,15.3,0
			c17.9-0.1,35.8-0.5,53.6-0.1c16.2,0.3,32.4,0.8,48.5,2.5c17.7,1.9,35.1,2.4,52.2-3.3c4-1.3,8.3-1.4,12.5-2.1
			c0.1,0.4,0.2,0.9,0.3,1.3c-1.4,0.6-2.8,1.5-4.3,1.9c-6.1,1.7-12.3,3.1-18.4,4.8c-1.6,0.4-3,1.6-4.4,2.5c0.2,0.4,0.3,0.7,0.5,1.1
			c26.4,2.1,52.9,4.5,79.2-0.1c0.1-0.7,0.2-1.3,0.3-2c-4.2-0.9-8.4-1.9-12.6-2.8c0-0.4,0.1-0.7,0.1-1.1c3.8,0.5,8,0.2,11.3,1.7
			c3.4,1.6,6.1,1.2,9-0.3c7.8-4.1,15.5-8.3,23.2-12.6c6.8-3.8,13.2-8.7,20.4-11.3c9.8-3.6,16.1-9.6,19.7-19.5
			c-0.9,0-1.7-0.1-2.6-0.1l0.1,0.1c4.1-2.3,7.5-5.3,9.5-9.8c0.5-1,1.7-1.7,2.6-2.6c-0.5,1.6-1,3.2-1.8,5.6
			C558.5,613.8,561.6,612.5,564.7,611.3z M486.6,243.3c-0.5,1.9-1.1,3.8-1.4,5.8c-0.1,1,0.4,2.1,0.6,3.2c0.4-0.1,0.9-0.1,1.3-0.2
			c0.7-4.1,1.4-8.2,2.1-12.3c-0.4-0.1-0.7-0.2-1.1-0.2c-0.5,1.3-1.1,2.6-1.6,3.9c0.1-1.7-0.1-3.5,0.3-5.2
			c2.1-10.7,4.3-21.4,6.4-32.1c0.2-1.1-0.1-2.3-0.2-3.4c-0.7-0.4-1.3-0.8-2-1.2c-0.6,1.2-1.2,2.4-1.7,3.6c-2,5.8-4.5,11.5-2.5,18
			c1.4,4.6-2.6,12.1-6.4,12.3c-3.9,0.2-5.8,3.7-3.7,7.9c1.4-2.2,2.7-4.1,4-6.1c0.4,0.1,0.8,0.2,1.3,0.3c0.3,3.3,0.6,6.6,0.9,9.8
			C484.2,246,485.4,244.7,486.6,243.3z M630.2,612.5c1.4,1.1,2.9,2.1,4.1,3.4c1.4,1.6,2.4,3.5,3.7,5.2c0.8,1,1.7,1.9,2.5,2.9
			c-1.5,0.9-3,2.3-4.6,2.4c-2.2,0.1-4.5-0.7-6.8-1.2c-5.6-1.1-10.7,0-16,3.4c3.5,2.6,6.6,4.9,9.6,7.2c0.1-0.4,0.1-0.8,0.2-1.3
			c1.9-0.2,3.7-0.5,5.6-0.7c0.2,2.6,0.6,5.3,0.3,7.9c0,0.4-3.6,1.3-4.8,0.6c-6.8-3.8-13.3-8-19.5-11.7c-1.1,3.8-2.1,7.3-3,10.7
			c-0.2,1-0.1,2.4,0.5,3.1c3.3,3.7,3,7.7,0.8,11.6c-1.9,3.2-4.3,6.1-6.5,9c8.3,1.7,16.8,3.5,25.2,5.2c0.6,0.1,1.6-0.2,1.9-0.6
			c2.2-3.1,4.3-6.3,6.6-9.8c-7.1-0.9-8.1-2.3-5.3-6.1c3.8-5.2,7.7-10.4,11.5-15.7c1.9-2.6,3.5-5.5,5.4-8.1c3.8-5,6.1-11.4,13.2-13.7
			c2.1-0.7,4-4.1,4.6-6.6c1.1-4.6,0.1-5.6-4.6-4.7c-4.8,1-9.5,2.4-14.2,3.8C637.1,609.9,633.7,611.4,630.2,612.5
			c-2.2,0.1-4.6,0.5-6.8,0.1c-1.5-0.3-2.7-1.7-4-2.6c1.1-1,2-2.6,3.3-2.9c9.7-2.6,19.5-4.9,29.2-7.4c1.6-0.4,3.1-1.6,5.5-2.9
			c-4.8-3.1-8.5-5.8-12.5-8.1c-3.9-2.3-8-4.5-12.1-6.3c-6.3-2.7-12.8-5-19.2-7.5c-1.3-0.5-2.6-0.8-4.3-1.3c0.2,1.4,0.2,2.1,0.5,2.7
			c2.8,9,5.2,18,3.9,27.5c-0.9,6.8,3,15-5.1,19.9c-0.9,0.6-1.9,1.1-2.9,1.6c8.7-0.6,16.6-1.9,24.4-3.4c0.5-0.1,1.1-2.2,0.8-3.2
			c-0.2-0.7-1.7-1.1-3-1.8C628.7,615.3,629.5,613.9,630.2,612.5z M481.2,128.7L481.2,128.7c1.5-2.7,2.9-5.1,6.5-6.1
			c1.9-0.5,3.1-3.8,4.7-5.8c-0.3-0.4-0.7-0.8-1-1.2c-1.5,0.1-3,0.3-4.5,0.4c-2.3,0.1-4.6,0.6-6.9,0.3c-1.2-0.2-3.3-1.9-3.2-2.6
			c0.3-1.4,1.5-2.9,2.8-3.9c0.7-0.6,2.1-0.2,3.2-0.3c0.2,0.3,0.4,0.6,0.6,0.9c-1.1,0.5-2.1,1-3.5,1.7c5.4,2.8,7.1,1.5,8.3-8.2
			c-14.2,0-28.4-0.7-42.4,0.2c-14.2,0.9-28.3,3.4-42.5,5c-6.7,0.7-13.5,0.5-20.2,1.1c-14.4,1.4-28.7,3.1-43,4.5
			c-4,0.4-8-0.1-11.9,0.5c-7.3,1.1-14.4,2.7-21.7,4.1c-0.1-0.3-0.2-0.6-0.3-0.9c0.8-0.8,1.7-1.6,2.9-2.7c-6.8-1-13.1-1.9-19.4-2.8
			c-0.8,3.8,0.8,5,3.9,5c3.2,0,6.5,0,9.7,0c0,0.6,0,1.1,0,1.7c-5.7,0-11.3-0.2-17,0c-12.1,0.6-24.2,1.4-36.3,2.3
			c-1.9,0.1-4.1,0.6-5.7,1.6c-3.2,2-5.6,1.1-6.9-3.3c1.1-0.3,2.2-0.7,3.2-0.8c10.5-0.3,21-0.5,31.6-1c3.8-0.2,7.6-0.9,11.3-1.9
			c1.3-0.3,2.2-2,4.3-3.9c-6.2-0.5-10.9-1.3-15.6-1.2c-10.7,0.4-21.3,1.6-32,1.7c-12.3,0.1-24.8,0.8-36.8-3.6
			c-3.9-1.4-8-2.1-12.1-3.1c-7.5-1.8-14.9-3.6-22.4-5.3c3.9,8.2,11.7,11.7,19.8,13.3c8.5,1.8,17.4,1.6,26.2,2.1
			c5.4,0.3,5.9,0.7,5.9,5.9c2.2,0,4.4,0,6.6,0c0,0.4,0,0.9,0,1.3c-7.6-1.9-15.3,6.7-22.9-1.2c-0.2-0.2-0.5-0.2-0.8-0.2
			c-6.9-0.7-13.7-1.5-20.6-2.1c-1.2-0.1-2.5,0.8-4.5,1.5c1.5,0.5,1.9,0.7,2.3,0.8c6.1,2.1,13.7,0.2,18.3,6.7
			c0.1,0.1,0.3,0.1,0.4,0.1c8.8,1.8,17.6,3.9,26.6,5.3c10.1,1.5,20.2,2.5,30.4,3.4c13.5,1.2,27,1.3,40.5-0.8
			c0.9-0.1,1.7-0.5,2.6-0.8c0-0.4,0-0.9,0.1-1.3c-5.1-0.9-10.2-1.8-15.2-2.7c0.1-0.5,0.2-0.9,0.3-1.4c7.2,0.8,14.4,1.5,21.6,2.5
			c1.3,0.2,2.4,1.6,3.7,2.4c-1.3,0.9-2.5,2.5-3.8,2.7c-9.5,0.9-19,1.9-28.5,2.2c-20.8,0.7-41.5-1.2-62-4.9
			c-10.1-1.8-20.2-3.4-28.9-9.7c-2.2-1.6-6.1-1-9.2-1.4c-0.2,0.6-0.3,1.1-0.5,1.7c6.3,3.4,12.6,6.8,19,10.3
			c-0.1,0.4-0.3,0.8-0.4,1.2c-7.1-0.3-12.6-6-20.5-7.4c1.3,3.5,2.3,6.2,3.3,9c1.6-1.2,2.6-2,3.4-2.6c1.8,1.4,3.2,3.1,5,3.7
			c9.6,3,19.3,6,29.1,8.4c14.9,3.6,30.1,4.8,45.3,6c23.2,1.8,46.3,4.5,69.4,6.3c7.7,0.6,15.5,0,23.2,0c4.9,0,9.7,0,14.6,0
			c0,0.2,0,0.4,0,0.7c-1.4,0.6-2.8,1.1-4.2,1.7c44,2.3,87.2-0.7,129.5-13.3c-8.3-6-17.1-8.4-26.9-4.4c-1.7,0.7-3.7,1.2-5.4,0.8
			c-1.1-0.2-2.7-2.1-2.6-3.1c0.2-3.5,5.2-6.3,8.4-5.1C473,141,480.8,135.3,481.2,128.7z M472.3,256.9c3.8-1.7,3.4-4.6,3.3-7.5
			c-0.2-4.7-4.5-1.7-6.5-3.6c0.7-3-0.7-4.7-3.7-6.1c-2-0.9-2.4-3.2,0.2-4.7c2.6-1.5,5.2-3,7.8-4.6c4-2.4,4.7-5.7,3-10.9
			c-1.5-4.8-4.5-3-7.6-2.5c-1.4,0.2-3.1-0.9-4.3-1.8c-0.4-0.3,0.1-2.6,0.8-3.2c3.4-2.6,4.9-7.2,9.4-8.6c0.5-0.2,0.9-2.6,0.4-3.6
			c-1.3-3,0.5-7,3.5-7.4c5.5-0.7,11-1.5,16.4-2.4c0.8-0.1,2-1,2.2-1.7c1.4-5.2,2.6-10.4,3.9-16.1c-6.2,1.1-12.4,2.1-18.5,3.4
			c-14.4,3-28.7,6.2-43.1,9.2c-7.7,1.6-8,1.8-6.8,9.3c0.2,1.3,0.1,2.6,0.4,3.9c0.2,0.9,0.8,1.9,1.5,2.3c2.4,1.4,4.8,2.8,7.3,3.6
			c2.7,0.9,3.5,2.5,2.8,4.9c-1.1,3.6-2.9,7-3.5,10.6c-1.9,10.2-3.4,20.5-4.8,30.8c-0.4,3,0.3,6.1-0.2,9c-1.3,7.4-2.8,14.8-4.6,22.1
			c-2.3,9.7-5,19.2-7.4,28.9c-2.2,9-4.6,17.9-4.3,27.3c0.1,3.6-0.1,7.5-1.5,10.7c-4.1,8.9-2,17.9-1.6,27.2c4.2-0.6,5.9,1.8,7,5
			c1.1,3.3,2.2,6.6,3.4,9.8c3.8,10.4,7.6,20.8,11.6,31.1c1.5,3.9,3.6,7.5,5.3,11.3c1.3,3.1,2.7,6.3,3.5,9.5c0.6,2.6,0.1,5.4,0.6,8.1
			c0.8,4.3,1.6,8.6,3,12.6c3.5,9.8,7.4,19.5,11.3,29.1c1.7,4.2,5.6,8.1,1.1,12.9c-0.4,0.4-0.1,1.7,0,2.5c1.7,10.8,3.4,21.7,5.2,32.5
			c0.7,4.3,2,8.5,2.9,12.8c0.2,1,0.1,2.5-0.5,3.3c-6.9,9.8-14.2,19.3-26.4,23.1c-3.8,1.2-7.4,2.8-11.7,4.5c1.7,2.5,3.3,4.4,4.3,6.6
			c0.4,0.8-0.4,3.1-1,3.2c-4.9,1.1-9.8,2.7-14.7,2.5c-10.5-0.4-20.9-2.5-31.3-2.6c-7.1,0-9-5.3-13.6-8.9c3.5-2.3,6.3-4.1,9.1-5.9
			c-6.3,0-13.1,1.2-19.1-0.3c-5.9-1.5-11.5-5.1-15.2-10.1c-0.9,0.4-1.1,0.4-1.2,0.5c-0.4,0.6-0.8,1.2-1.3,1.7
			c-4.1,5-7.8,10.1-15.3,10.7c-3.2,0.2-7.2,2.5-9.1,5.1c-3.4,4.5-6.8,4.1-11.3,2.7c-1.9-0.6-5.5-0.7-5.9,0.2
			c-2.1,4.1-4.8,2.9-7.9,2.1c-1.8-0.4-3.7,0-5.6,0.1c-2.1,0.1-4.2,0.6-6.3,0.4c-3.4-0.4-6.8-1-10-2c-4.3-1.3-8.8-2.3-11.4-6.6
			c-1.1-1.8-1.8-3.5,0.6-5.2c2-1.4,3.5-3.3,5.5-5.2c-5.1-1.5-9.3-2.7-13.7-3.9c-1.3,4.3-1.3,8,1.4,11.6c0.5,0.7,0.3,2.7-0.1,3
			c-1.4,0.7-3.2,1.2-4.8,1.1c-0.8,0-2.3-1.4-2.2-2.1c0.6-5.4,1.3-10.8,2.3-16.1c1.2-6,6.1-9.3,10.5-12.8c5.8-4.5,6.7-6.9,4.9-13.7
			c-0.4-1.6-0.2-3.8,0.7-5.1c5.7-8.2,9.6-17.9,19-24.4c-2.1-1.2-3.6-2.4-5.4-3.2c-6.9-3-9.7-8.9-7.2-15.8c0.9-2.5,2.3-4.9,3.6-7.3
			c1.3-2.4,2.4-4.5,1.3-7.7c-1.4-4.2-1.5-8.8-2-13.2c-0.1-0.8,0.5-2.1,1.1-2.4c2-1,4.2-2.3,6.3-2.5c3.6-0.3,4.6-2.2,4.9-5.3
			c0.5-4.8,0.2-10,2-14.3c2.1-5,2.1-9-0.7-13.3c-1.1-1.7-2-3.6-3.1-5.2c-2.4-3.3-2.1-5.9,1.1-8.6c1.6-1.4,2.7-3.5,3.8-5.5
			c2-3.8,2.7-8.1,7.7-9.9c2.7-1,1.9-3.3-0.3-4.9c-1.6-1.2-3.5-2.2-4.4-3.8c-2.3-3.9-4.1-8-6.1-12c-0.3-0.6-0.2-1.3-0.3-2.1
			c1.9-0.5,3.5-1,5.2-1.4c1.8-0.4,3.6-0.8,5.8-1.2c-0.4-1.4-0.6-2.6-1.1-3.5c-2-3.9-0.6-6.4,3.2-8.5c3.1-1.7,7.6-4.8,7.6-7.3
			c0-5.6-2.4-11.3-4-17.8c-1.5,1.7-2.3,2.6-3.1,3.6c-2.1,2.9-3.9,6-6.2,8.7c-3.4,4-8.3,3-10.3-1.6c4-4.7,8-9.2,11.8-13.9
			c0.7-0.9,0.4-2.6,0.6-3.9c-1.4-0.2-3-0.7-4.3-0.5c-2.1,0.4-4,2-6,2c-7.1,0.1-13.9,1.5-20.2,4.4c-4.6,2.1-8.5,5.5-9.1,11.6
			c-0.3,3-1.9,6-3.5,8.6c-2.1,3.4-5.1,6.3-7.1,9.8c-5.3,9.2-10.6,18.4-15.3,28c-7.7,15.5-13.9,31.7-16.7,48.9
			c-0.4,2.4-0.7,4.9-1.6,7.2c-3.1,8.2-6.5,16.3-9.7,24.5c-1.8,4.6-3,9.4-5,13.9c-2.4,5.7-5.9,11-7.9,16.7
			c-4.8,13.7-9.3,27.6-13.5,41.5c-1.5,4.8-1.7,10.1-2.4,15.1c-0.4,3.2,0,6.7-0.7,9.8c-2.3,9.7-1.6,11.1,7.8,14.5
			c6.9,2.5,13.9,4.5,21.3,5.4c6.2,0.7,12.2,2.5,18.3,3.9c-0.1,0.5-0.2,1.1-0.3,1.6c-5-1.1-10.1-2.2-15.1-3.3
			c-0.1,0.5-0.2,1.1-0.3,1.6c7.4,1.4,14.7,2.9,22.1,4.3c0.2,0,0.7-0.1,0.8-0.3c2.3-3.1,4.6-0.9,6.9-0.1c1.3,0.4,2.6,1.2,3.9,1.6
			c4.4,1.1,8.8,2.4,13.3,3c9.1,1.3,18.3,2.4,27.5,3.1c10.7,0.8,21.5,0.9,32.3,1.4c0,0.5,0,1-0.1,1.5c-12.6-0.7-25.2-1.4-37.8-2.1
			c4.3,1.1,8.5,1.7,12.8,2.2c14.6,1.4,29.3,3.5,43.9,3.7c9.4,0.2,18.9-2.2,28.2-3.9c17.2-3,34.5-2.7,51.8-3.1
			c7.3-0.2,14.6-1.6,21.9-2.6c9-1.3,17.9-2.9,27-4c14-1.7,27-7,40.2-11.5c11-3.8,21.9-8,32.9-11.9c4.6-1.6,9.3-3,13.9-4.5
			c0.3-0.1,0.5-0.6,0.7-0.9c-0.7-1.1-1.4-2-2.4-3.4c3.3-0.6,6.1-1.1,9.8-1.8c-3.5-2-18.1-1.9-21.8-0.9c-3.8,1-7.8,1.5-11.8,2.1
			c-2.2,0.3-4.9-0.6-6.5,0.4c-3.5,2.1-5.8-0.1-7.5-1.9c-1-1.1-0.2-3.9-0.2-6.2c-1.1-1.1-2.7-2.7-4.7-4.8
			c10.2-3.3,10.2-3.3,16.8-12.8c1.2,0.4,2.4,0.9,3.8,1.4c-1.7,2.5-3.2,4.7-4.6,6.8c0.2,0.3,0.5,0.6,0.7,0.9c2.7-0.6,5.5-1.3,8.4-1.9
			c-2.4-5.5-4.2-9.7-10.8-9.5c-4.6,0.2-5.9-3.6-3.7-7.7c1.3-2.5,2.5-5,3.3-6.7c-2.4-2.1-5.4-3.6-5.3-4.9c0.1-1.9,2.3-3.7,3.7-5.5
			c1-1.2,2.1-2.3,3.2-3.5c-1.2-0.4-2.5-0.8-3.7-1.3c-1-0.4-2-1-2.9-1.5c0.6-1,1.1-2.2,1.9-3c2.1-2.1,4.6-4,6.6-6.2
			c1.5-1.6-1.7-9-3.8-9.1c-0.7,0-1.8,0.9-2,1.6c-2.5,6.2-4.8,12.6-7.2,18.8c-0.2,0.6-1,1.1-1.6,1.3c-2.9,1.1-3.5,2.5-2.7,5.9
			c0.7,2.9-0.1,7.1-1.9,9.4c-2.2,2.7-9.5,1.7-11.5-0.8c-0.8-1-0.8-2.5-1.2-3.8c1.4-0.4,2.9-0.9,4.3-1c1.2-0.1,2.4,0.5,4.4,0.9
			c-0.7-2-0.8-3.4-1.6-4.1c-2.7-2.7-2.1-5.1-0.2-8c2-3,3.6-6.4,4.7-9.8c1.2-3.8,1.7-7.8,2.6-11.6c-1.7,1-3.8,2.6-6.1,3.6
			c-1.5,0.6-3.7,1.1-4.8,0.4c-2.2-1.4-1.2-3.4,0.3-5.1c2.5-2.7,1.1-4.5-1.7-5.4c-1.3-0.4-2.8-0.2-4.2-0.2c-3.7,0.1-7.6,0.7-11.1,0.1
			c-2.2-0.4-4.8-2.5-5.7-4.4c-0.6-1.4,1-4.1,2-5.9c2.1-3.7,4.5-7.2,7.3-11.5c-3.9-1.2-6.6-2.1-9.4-2.8c-2.4-0.6-5.5-0.8-5.5-3.8
			c0-1.5,2.2-3.3,3.7-4.5c4.1-3.2,4.7-7.7,1.3-11.6c-1.5-1.7-3.4-3.2-4.7-5c-1.4-1.9-2.6-2.6-5.1-1.7c-1.3,0.5-3.9-0.2-4.8-1.2
			c-4.3-5.3-4.7-11.4-3.2-18c1-4.4,1.6-9,2.2-13.5c0.2-2-0.7-3.1-3-2.1c-0.7,0.3-1.5,0.3-2.7,0.5c0.2-1.7,0.2-3,0.4-4.2
			c0.9-4.5-0.2-5.9-4.6-5.6c-3.2,0.3-5.6-2.1-4.6-5.1c1.5-4.5,3.6-8.9,6-14.7c1.7,2.9,3.4,5,4.2,7.3c1.6,5,5,7.3,9.8,9.2
			c4,1.6,8.1,4.6,10.3,8.2c2.8,4.3,3.8,9.8,5.3,14.9c0.3,1-0.6,2.3-1,3.5c-1.1-0.6-2.5-0.9-3.4-1.8c-1.1-1.1-1.9-2.7-2.7-4.1
			c-0.3,0.2-0.6,0.4-0.9,0.6c1.4,2.8,2.7,5.7,4.1,8.5c2.5,5.2,5.9,8.7,12.4,6.4c1.1-0.4,3.4,0.3,3.7,1c0.6,1.3,0.5,3.3-0.1,4.7
			c-0.9,2.4-2.8,4.5-3.5,6.9c-0.3,1.1,1,2.7,1.5,4.1c3.4-1.5,6.9-2.8,10.1-4.7c0.2-0.1-1.5-3.8-2.4-5.8c-0.2-0.4-0.4-0.8-0.5-1.2
			c-4.3-13.7-10-26.6-19.3-37.7c-2.3-2.7-5.2-4.8-7.6-7.4c-1.5-1.7-2.9-3.5-4-5.5c-1.2-2.3-1.9-4.8-3.1-7.1
			c-0.5-0.9-1.9-1.8-2.9-1.8c-3.7-0.2-7.3-0.1-10.7-0.1c-1.3-3.5-2.6-7.1-4-10.7c0.1,3.8-1.4,4.9-5,4.2c-1.6-0.3-3.4,0.3-5,0.9
			c-0.9,0.4-2.1,1.5-2.2,2.4c-0.1,0.7,1.1,1.7,1.9,2.4c1.3,1.1,3.2,1.7,4.2,3c0.9,1.1,1.6,3.3,1.1,4.4c-0.6,1.4-3,3.3-3.9,2.9
			c-3.5-1.3-7-3-9.8-5.4c-2.3-2.1-1.4-16.8,0.5-19.1c0.4-0.4,0.9-0.8,1.3-1.1c2.2-1.4,4.5-2.7,6.7-4.3c2.9-2,7.4-3.9,10.8-4.2
			c0.9-0.1,1.7-0.3,2.5-0.5c-1.5-1.1-3.7-2-3.8-3c-0.1-1.6,0.9-3.9,2.2-4.8c7.3-5.1,7.1-11.7,4.3-19c-2.4-6.4-4.1-13-2.8-19.8
			c0.7-3.8,2.2-7.5,3.3-11.2c0.5,0.1,1.1,0.2,1.6,0.3c-2.3,8.9-5,17.9,0.8,26.9c4.4-6.3,4.9-11.1,1.9-15.7c3.2-1.5,3.4-3.6,2.2-7
			c-0.8-2.3,0.2-5.3,0.4-8c0-0.3,0.6-0.5,0.9-0.7c0.8,0.8,1.6,1.5,2.4,2.2c0.3-0.1,0.7-0.3,1-0.4c-1-3.6-2.1-7.2-3.1-10.8
			c0.3-0.1,0.6-0.2,1-0.3c1.3,2.5,2.5,4.9,3.8,7.4c0.5,0,1,0,1.5,0.1c0.5-2.6,1.9-5.5,1.2-7.7c-0.7-2.2-3.5-3.9-5.6-5.6
			c-0.2-0.2-1.7,1.2-2.4,1.7c-1.4-4.7-0.7-6.7,2.5-5.7c2.9,0.9,4.6-0.2,6.5-2c1.1-1,2.6-1.4,4.5-2.4
			C472.3,253,472.3,254.7,472.3,256.9z M368.1,215.7c-0.6,4.9-1.2,9.7-1.7,14.6c-1,9.3-2.4,18.6-2.8,28c-0.4,9.6,0.2,19.3,0.5,28.9
			c0.1,3.3,0.4,6.6,0.8,9.8c1.1,9.2,2.9,18.3,3.2,27.5c0.3,9.3-1,18.6-1.7,27.8c-0.1,1-0.4,2-0.8,2.9c-1.4,3.2-4,6.3-4.2,9.5
			c-0.8,9.4-1.2,19-0.7,28.4c0.6,12.4,1.8,24.8-1,37.1c-2.1,9.4-4.5,18.8-5.6,28.3c-1.5,12.6-1.5,25.4-2.9,38
			c-1.7,14.5-0.8,29-0.5,43.5c0.1,5.6,0.6,11.2,0.5,16.8c-0.1,4.4,3.1,9.9,7.2,11.6c3,1.3,5.9,2.8,8.8,4.2c2.2,1.1,3.3,1,4.4-1.8
			c1.4-3.7-0.7-5.4-2-8.2c-2.1-4.3-3-9.3-4.4-14c-2.1-7.2-3.5-14.7-6.5-21.4c-3.7-8.3-5.6-16.9-6.2-25.8c-0.2-2.9,0.6-6.1,1.6-8.9
			c0.4-1.1,2.6-1.5,4-2.3c0.1,1.5,0.4,3.1,0.1,4.5c-0.6,3.6-2.2,7.2-2,10.8c0.2,4,1.6,8,2.7,12c2.9,10.3,5.6,20.6,8.8,30.8
			c1.5,4.9,3.8,9.6,5.7,14.4c1.7-1.9,2.1-3.7,2.9-5.2c3.4-6.6,3.1-8.4,10.5-7.5c3.1,0.4,6.4-0.3,9.6-0.5c0.1-0.4,0.1-0.8,0.2-1.3
			c-1.4-0.6-2.7-1.2-4.1-1.9c-3.3-1.7-3.6-3.6-0.9-6c3.8-3.2,7.8-6.1,12-9.4c-1.8-0.5-3.5-0.8-5.1-1.5c-2.7-1.3-6-2.6-5-6.5
			c0.9-3.3-0.9-5-2.7-7.2c-4.5-5.6-8.9-11.3-13.1-17.1c-6.4-8.9-1.4-25.7,6.2-31.9c2.6-2.1,4.5-5,6.6-7.7c3.1-3.9,4.8-9.7,11.5-8.3
			c0.4-3.1,0.9-5.8,1-8.5c0-1.2-1-3.2-1.8-3.3c-1.9-0.2-4.3-0.1-5.6,1c-1.4,1.2-1.3,3.3,1,4.6c0.9,0.5,1.7,2.1,1.5,3
			c-0.2,0.9-1.6,1.8-2.6,2.3c-1.1,0.6-2.5,0.8-3.7,1.1c0.1,1.2,0.2,2.4,0.2,3.4c-2.8-0.4-5.5-1.5-7.7-0.9c-3.6,1.1-5.6-0.5-7.7-2.7
			c0.3-0.5,0.4-0.9,0.6-1c1.6-0.5,3.3-1,4.9-1.3c6.2-1.2,6.9-1.9,8-8.1c1-5.7,5.3-8.6,10.8-6.8c2,0.7,2.8,0.6,4-1.4
			c2.4-3.9-0.6-6.9-1.1-10.3c-0.6-3.9-3-5.2-6.9-4.4c-1.6,0.3-3.3,0.1-5,0c-1.7-0.2-3.4-0.7-5.1-1c-2.7-0.5-5.7-0.3-8-1.5
			c-1.9-1-4.4-3.6-4.4-5.4c0.2-5,5.8-7.4,10.1-4.9c1.4,0.8,2.9,1.6,4.5,2.4c0.2-0.7,0.5-1.2,0.4-1.5c-2-5.2-4-10.4-6-15.6
			c-0.4-1-0.8-2.1-0.9-3.2c-0.3-9.6-0.5-19.1-1-28.7c-0.2-3.7-1.1-7.3-1.7-11c0.2,0,0.4-0.1,0.6-0.1c0.6,1.4,1.2,2.7,2.1,4.8
			c2.6-3.7,4.7-6.7,7-9.9c-5.9-2.6-5.9-2.6-5.1-7c5.8-1.5,11.5-9,11.3-15.9c-0.3-8.9-1-17.9-2.2-26.8c-0.3-2.1-2.3-4.9-4.2-5.8
			c-5.8-2.5-8.2-7.4-10.1-12.8c-0.9-2.4-1.5-5.1-2.9-7.1c-3.9-5.7-4.4-12-2.8-18.2c1.6-5.9,2.6-12.6,10.1-14.8
			c1.2-0.3,2.6-2.1,2.7-3.3c0-1-1.5-2.6-2.7-3.1c-2-0.8-3.1-1.6-2.7-4c0.4-2.8,0.1-5.6,0.1-9.8C377.3,220.6,372.6,216,368.1,215.7z
			 M185.4,195.2c1.9,1.2,3.6,1.8,4.6,3c4.7,5.8,9.8,11.4,13.8,17.7c5.6,8.9,10.6,18.1,15.3,27.5c4.9,9.8,9.1,19.9,13.5,29.8
			c5.5,12.1,14,21.5,25.3,28.4c6.6,4,12.9,8.6,21.2,8.7c2.8,0,5.6,1,8.5,1.4c2.5,0.3,5.2,0.8,7.5,0.2c6.8-1.8,11.3,0.6,13.3,7.5
			c0.3,1.1,0.9,2.2,1.4,3.5c7.6-7.7,10.1-21.4,5.5-29.5c-2.9,3.7-6.3,2.2-9.6,0.8c-3.3-1.4-6.9-2.4-10-4.2c-1.8-1-4.1-3.5-3.9-5
			c0.2-1.6,2.9-3.3,4.8-4.3c2.3-1.2,5-1.8,7.5-2.7c-1.2-1.4-2.5-2-3.8-2.3c-2.5-0.6-5.5-0.5-7.5-1.8c-1.9-1.2-3.6-3.7-4.1-5.9
			c-0.3-1.3,2.1-3.1,3.2-4.7c1-1.5,2.8-3.1,2.7-4.6c-0.2-3.5-0.4-7.2-4.3-9.4c-1.5-0.8-2.9-2.9-3-4.6c-0.3-3.5-2.7-3.8-5.2-4.8
			c-1.7-0.8-3.7-2.5-4.3-4.2c-1.3-3.9-1.8-8-2.6-12.1c-1.3-6.8-1.4-13.3,4-18.8c0.8-0.8,1.6-2.5,1.3-3.2c-0.4-0.9-2-1.6-3.2-1.7
			c-6.6-0.9-13.1-1.8-19.7-2.4c-3.8-0.3-7.7-0.1-11-0.1c1.9,3.3,4.4,6.3,5.3,9.6c1.8,6.9,2.9,14.1,3.9,21.2
			c1.5,11,4.3,21.4,10.9,30.6c1,1.3,1.4,3.2,1.8,4.8c1.1,4.3,1.4,9,3.2,13c3.8,8.7,8.2,17.1,12.4,25.6c1.2,2.5-0.5,5.7-3,5
			c-4.1-1.2-8-3.1-11.6-5.4c-1.3-0.8-1.7-3.5-2.1-5.3c-1.5-6.6-1.7-6.9-8.4-7.2c-0.9,0-1.7-0.2-2.6-0.3c-4-0.8-5.1-3.4-2.3-6.4
			c2.2-2.4,1-3.4-0.5-5.3c-4.7-6.2-9.6-12.3-13.3-19c-2.9-5.2-4.3-11.3-5.9-17.1c-2.1-7.8-4-15.8-5.6-23.7c-0.5-2.6-1.2-4.4-4.1-4.7
			c-1.6-0.1-3.2,0-4.7-0.4c-1.8-0.5-3.5-1.5-5.2-2.2c0.7-1.4,1.3-2.8,2.2-4.8c-1.7-0.3-3.5-0.5-5.1-1c-1.2-0.4-2.2-1.3-3.3-2
			c0.6-1,1.1-2.3,2-2.8c2.5-1.5,5.1-2.7,7.7-4C207.6,193.5,196.9,189.2,185.4,195.2z M343.8,335.5c-0.5,0.1-1,0.1-1.5,0.2
			c0.3,1.1,0.6,2.3,0.8,3.4c0.3,1.5,1.2,3,0.9,4.4c-1.1,5.1-3,10.1-3.8,15.2c-2.4,15.7-1.6,31.4,0.1,47.1c0.3,2.7,0,5.5,0,9
			c2.7-1.1,4.4-1.9,6.2-2.4c0.7-0.2,1.6,0,2.4,0.1c-0.2,0.9,0,2-0.5,2.6c-0.8,1-2.3,1.3-3,2.3c-1.3,1.8-2.9,3.9-3.1,5.9
			c-0.7,8.3-0.7,16.7-1.2,25.1c-0.7,11.9-1.7,23.9,1.7,35.4c2.6,8.7,3.2,17.2,1.9,26c-0.4,2.6,0.5,5.4,0.8,8.2c1-4.5,1.3-9,1.6-13.4
			c0.9-12.6,1.8-25.2,2.9-37.8c0.8-9,2-18,3.2-27c1.4-10.4,3.6-20.8,4.3-31.2c0.6-9.4-0.8-19-0.9-28.5c0-9.7,0.6-19.4,0.9-29
			c0.1-3,0.8-5.5,2.2-8.3c2.3-5,4.3-10.7,4.2-16.1c-0.2-10.9-1.9-21.7-3-32.6c-0.1-1.4,0-2.9,0.1-4.3c0.1-5.2,0.2-10.4,0.4-15.5
			c0.2-9.6,0.4-19.3,0.8-28.9c0.4-10.2,1.1-20.4,1.7-30.6c0.3-4.2,0.6-8.5,1-12.7c0.5-0.2,1.1-0.3,1.6-0.5c1.5,2.2,3,4.3,4.6,6.6
			c0.1,0,0.9-0.1,1.1-0.5c1.2-2.1,2.4-4.3,3.5-6.5c-1.9-0.7-3.7-2-5.6-2.1c-4.8-0.1-9.5,0.3-14.3,0.5c-4.5,0.2-9,0.4-13.4,0.6
			c0,0.4-0.1,0.8-0.1,1.2c2,0.4,4.1,0.6,6,1.2c1.4,0.4,3.4,1.2,3.7,2.3c1.3,4.8,3.2,9.9,2.7,14.7c-1,10.5-3.2,20.8-5.2,31.2
			c-1.3,6.8-3.3,13.5-4.5,20.3c-1,5.7-1.8,11.6-1.6,17.4c0.2,7.1,1.3,14.2,2.2,21.2c0.2,1.6,0.8,3.3,1.7,4.7
			c1.2,1.8,2.8,3.4,3.7,4.4c-1.8,2.1-3.7,3.4-3.6,4.5c0.3,3.1,0.4,7.7,2.3,8.9c5.4,3.3,3.4,7.3,2.5,11.3c-2.1,9.7-4.4,19.3-6.9,29
			c-0.7,2.7-2,5.3-3,7.9c-0.5-0.2-0.9-0.3-1.4-0.5c0.1-1.1,0.1-2.2,0.3-3.3c1.8-10.1,3.5-20.1,5.4-30.2
			C347.4,342.1,346.3,338.6,343.8,335.5z M694,671.9c-2.4-0.8-4.5-3.4-6.8,0c-2.8,4.2-5.3,8.5-8.3,12.4c-2.5,3.3-5.3,6.6-8.6,9.1
			c-1.6,1.2-4.6,0.8-6.8,0.3c-0.5-0.1-0.9-3.6-0.4-5.3c1.2-3.8,2.7-7.6,4.5-11.2c5.4-10.8,11-21.4,16.5-32.1
			c3.1-6.1,6-12.3,9.3-18.3c2.1-3.8,5.8-7,6.6-11c0.8-4.1-0.9-8.8-1.5-13.2c-0.2-1.1-0.5-2.3-0.3-3.5c0.4-3.4,0.5-7,1.7-10.1
			c2.1-5.5,5-10.7,7.6-16c1.3-2.7,2.6-5.5,3.9-8.2c-1.5-0.2-2.1,0-2.3,0.4c-2.8,5-5.8,9.9-8.3,15c-1.5,3.1-2.3,6.5-3.6,9.7
			c-2.7,6.8-5.6,13.4-8.3,20.2c-0.6,1.4,0,3.6-0.9,4.6c-3.4,3.6-7.3,6.2-12.5,3.4c-0.6,2.9-0.7,5.6-1.7,7.9
			c-0.5,1.1-2.4,2.1-3.8,2.3c-1.2,0.2-2.6-0.7-3.9-1.1c0.8-1.2,1.6-2.3,2.3-3.6c0.7-1.1,1.2-2.4,1.8-3.5c-0.3-0.5-0.7-0.9-1-1.4
			c-2.9,1.4-6.7,2-8.6,4.3c-4.6,5.6-8.5,11.8-12.5,17.9c-6.7,10.2-13.5,20.3-19.8,30.8c-1.4,2.4-3.2,6.3-0.1,9.1
			c5.2,4.5,10.3,9.2,16.1,12.9c3.6,2.3,4,4.3,2,7.7c4,3.2,7.7,6.4,11.6,9.3c2.4,1.7,5.6,4.3,7.9,3.8c3.8-0.8,7.4-3.4,10.5-5.9
			c2.5-2.1,4.5-5,6.2-7.8C687.9,692,691.9,682.5,694,671.9z M474.8,170c11.1-3.3,21.9-5.9,31.5-12.1c-2.9-3.3-5.4-4.1-9-3.3
			c-9.5,2.3-19.2,4-28.8,6.1c-22.3,4.8-44.9,7.6-67.8,7.7c-15.2,0.1-30.3,0.3-45.4,0.6c-10.6,0.2-21.2,0.9-31.8,1.2
			c-12.2,0.4-24.4,0.9-36.6,1.1c-10.3,0.2-20.6,0-31.5,0c2.9,1.1,5.7,1.9,8.3,3.1c9.7,4.5,19.9,6.9,30.5,7
			c19.2,0.1,38.4,0.6,57.5-0.6c17.3-1,34.6-4.1,51.9-6.1c9.4-1.1,18.9-1.7,28.3-2.4c5.7-0.4,11.4-0.7,17-1c0.7,0.8,1.5,1.8,2.5,2.6
			c0.2,0.2,1.8-0.7,1.9-1.2c0.4-3.2,3-3.6,5.2-4.4c3.7-1.2,7.4-2.3,11.2-3.2c1.4-0.3,3-0.1,4.6-0.1C474.4,166.9,474.5,168,474.8,170
			z M302.7,58.9c0.1,0.5,0.3,1.1,0.4,1.6c1.5,0.1,3.1,0.3,4.6,0.2c17.5-0.8,35-2.8,52.6-1.1c3.7,0.4,7.5,0.5,11.2,0.8
			c4.5,0.4,5.4-0.5,4.9-5c-0.4-3.7-0.7-7.5-1.5-11.1c-0.4-2-1.4-4.1-2.7-5.7c-3.9-4.7-15.3-7-20.6-4.4c-0.9,0.4-1.5,1.6-1.9,2.6
			c-2.7,6.9-8,7.9-11.9,4.2c-5.1-4.7-10.8-3.6-16.7-2.5c-2.5,0.5-3,1.9-2,4.1c1.1,2.4,2,4.8,3,7.2c1.3,3.3-0.5,7.5-3.8,7.8
			c-4.1,0.3-8.2-0.1-12.3,0C304.9,57.6,303.8,58.4,302.7,58.9z M627.9,576.8c2.1-2.4,3.1-4.7,4.6-5.1c4.4-1.2,9.1-1.4,13.6-2.2
			c4.7-0.8,6.7-3,5.2-7.6c-3.1-9.1-6.6-18.1-11-26.7c-2.9-5.7-6.5-5.2-10.4,0.1c-2,2.8-4,5.6-6.3,8.2c-5.6,6.6-11.3,13.1-17.4,20.2
			C608.5,569.7,622.2,577.9,627.9,576.8z M219.9,186.7c0,0.7,0,1.4,0,2.2c15.8,4.6,32.5,2.5,48.6,5.3c16.5,2.8,33,2.9,49.6,1.9
			c16.7-1,33.4-2.2,50.1-2.7c16.6-0.6,32.6-3.8,48.6-7.9c-2.1-0.5-4.2-0.6-6.3-0.5c-17.3,1.1-34.5,2.5-51.8,3.2
			c-16.9,0.7-33.7,0.7-50.6,0.8c-8.8,0.1-17.6,0.1-26.4-0.4c-15.3-0.8-30.5-2.2-45.8-2.9C230.6,185.2,225.2,186.2,219.9,186.7z
			 M78.4,622.9c-3.7-1.1-8-2.4-12.2-3.5c-2.1-0.5-4.3-0.8-6.4-0.7c-13.9,0.4-27,4-39.2,10.6c-1.1,0.6-2.5,2.2-2.3,3
			c0.3,1.6,1.2,3.9,2.5,4.5c3.4,1.6,7,3.3,10.6,3.4c14,0.4,28,0.2,41.4,0.2C74.5,634.9,76.5,628.9,78.4,622.9z M329.8,473.5
			c-0.5,0-1,0-1.4,0c-1.1,7.5-2.6,14.9-3.3,22.4c-1.1,11.4-1.4,23-2.7,34.4c-1,9.1-3.4,18-4.6,27.1c-0.6,4.6-0.1,9.3-0.1,13.8
			c3.6,0,6.4,0,9.4,0c1.3-3.1,3.5-6.1,3.9-9.4c1.9-14,3.6-28,4.8-42.1c0.5-5.4-0.1-10.9-0.9-16.2c-0.8-5.6-2.6-11-3.6-16.5
			C330.5,482.5,330.2,478,329.8,473.5z M480.3,443.2c-1.2,1.8-2.3,3.5-3.7,5.6c2.4,1,4.1,1.7,5.8,2.3c6.2,2.2,7.2,6.7,2.7,11.6
			c-2,2.2-3.9,4.6-5.7,7.1c-2.3,3.3-1.5,4.9,2.6,5.2c3.3,0.3,6.6,0.1,9.9,0.4c4.2,0.4,8.8,0.2,11,5.1c0.2,0.5,1.2,0.8,1.8,0.8
			c6.3,0,7.9-2.4,5.5-8.7c-3.5,0-7.1,0.3-10.6-0.1c-1.4-0.2-3-1.7-3.6-3c-0.3-0.7,1.1-2.7,2.2-3.4c5.5-3.5,10.6-7.9,17.4-9
			c0.3-0.1,0.9-2.8,0.3-3.5c-2.3-3.1-5-6-7.7-9.2c-0.1,0-0.6,0.4-1.1,0.5c-2.1,0.5-4.2,1-6.3,1.6c0-2.3-0.2-4.7,0-7
			c0.1-1.9,0.7-3.7,1.3-6.3c-3.2,1-5.6,1.6-7.8,2.4c-2.6,1-4.8,2.4-5,5.8c-0.3,4.2-1.7,4.9-5.7,3.4
			C482.6,444.4,481.6,443.8,480.3,443.2z M412,573.6c-2.2-5.5-0.2-8.3,3.1-11.1c3.3-2.8,6.7-5.8,7.9-11.4c-6,0.3-11.4,0.4-16.8,1
			c-5.6,0.6-11.1,1.5-16.7,2.3c2.4,3.8-0.5,4.7-4,4.8c-4.3,0-6.6,1.8-7,6.1c-0.1,1.7-0.4,3.4-0.6,5.2c1.9,0.1,3.9,0.4,5.8,0.2
			c1.2-0.1,2.2-1.3,3.4-1.6c1.6-0.4,3.5-0.8,5-0.4c0.8,0.2,1.6,2.1,1.7,3.3c0.3,2.5,0.1,5,0.1,7.9c0.7,0.2,1.9,1,2.9,0.7
			c7.8-2,15.5-4.3,23.3-6.2c3-0.8,6.3-1.6,9.2-1.2c4.9,0.6,6-2.9,9-5.9c-5.4,0.3-9.7,0.6-14,0.7c-3,0.1-5.5,0.8-7.6,3.3
			C415.8,572.4,413.8,572.8,412,573.6z M184.5,687.3c-3.7-5.1-9.3-6.2-14.6-8c-9.2-3.3-18.5-5.8-27.7,0.1c-0.7,0.5-1.6,0.6-2.5,0.8
			c-4.6,1.4-7,4.9-8.5,9.1c-3.5,9.5,6.1,20.1,14,22.2c1.2,0.3,2.6-0.1,4-0.2c-1.3-10.4,3.1-21.5,8.8-24.7
			C167.1,681.4,175.7,683.3,184.5,687.3z M308.3,503.2c4.2-4.8,12.8-54.7,11.1-65.9c-5.9,14.4-10.1,28.9-7.1,44.8
			c-3.3,0.3-5.3-0.5-5.1-3.2c0.5-5.9,1.3-11.7,1.9-17.5c0.1-1.3,0-2.6,0-4.9c-1.6,2.3-2.6,3.5-3.5,4.8c-2.8,4.2-5.4,8.4-8.3,12.5
			c-0.8,1.1-3,2.6-3.5,2.2c-1.4-0.9-2.8-2.5-3.3-4.1c-0.6-2.1-0.4-4.4-0.5-6.7c-4.1,1.2-4,1.2-4.1,4.5c-0.1,4.4,1.7,7.4,5.9,9.1
			c1.1,0.4,1.8,1.9,2.7,2.9c-1.1,0.7-2.1,2.1-3.2,2.1c-5-0.1-7.3,3.6-9,7c-1.5,2.9-2.5,6.8-0.3,9.5c2.1-2.7,4.2-5.4,6.3-8.1
			c-0.4-0.1-0.7-0.2-1.1-0.2c0.5-1.5,0.5-4,1.4-4.4c3.8-1.6,7.8-2.8,11.8-3.7c1-0.2,3,0.6,3.4,1.5c0.4,0.9-0.4,3.1-1.2,3.5
			c-4.4,2-2.6,6.3-3.7,9.4c-0.1,0.4,0.8,1.5,1.5,1.8C302.9,501.1,305.4,502,308.3,503.2z M171.8,630.9c3,4.4,5.6,8.2,8.2,11.9
			c0.3,0.4,1,0.5,1.5,0.8c14.5,8.3,29.2,3.4,43.8,0.2c1.4-0.3,2.3-2.9,3.4-4.5c-1.4-0.7-2.8-1.5-4.2-2.2c-0.4-0.2-0.8-0.3-1.2-0.5
			c-9.1-3.7-18-7.2-28.3-6C187.3,631.7,179.5,630.9,171.8,630.9z M562.9,627.7c-4.4,2.3-8.4,4.4-12.4,6.5c-3.6,2-7,4.4-10.8,5.9
			c-5,2.1-10.5,2.9-15.3,5.4c-10,5.2-19.7,11-29.6,16.6c-2.2,1.3-4.3,2.8-6.4,4.2c0.2,0.5,0.5,1,0.7,1.5c6.3-1.5,12.7-2.5,18.7-4.7
			c7-2.6,13.6-6.2,20.4-9.3c10.1-4.6,20.5-8.6,30.3-13.7C565.6,636.3,565.3,635.8,562.9,627.7z M307.4,221.5
			c-0.4-0.2-0.8-0.4-1.3-0.6c-1.5,0.8-3.4,1.2-4.5,2.4c-0.8,0.8-1.3,2.9-0.8,3.9c1.4,3.2,3.3,6.3,5.1,9.3c3.6,6,7.3,12,11.1,17.9
			c2.6,4.1,2.8,8.5,1.3,12.9c-0.4,1.1-1.8,2.7-2.7,2.7c-1.3-0.1-2.7-1.3-3.5-2.4c-2.5-3.1-4.7-6.5-7.2-9.5c-0.6-0.8-2.4-0.6-3.6-0.9
			c-0.3,1.3-1.2,3.2-0.7,3.9c3.2,4.6,3.3,12.3,11.4,12.4c0.9,0,2.2,1.1,2.5,2c0.2,0.7-0.5,2.4-1.3,2.7c-3.5,1.6-2.3,4.2-1.1,6.2
			c0.7,1.2,2.8,1.6,4.4,1.9c0.4,0.1,1.8-1.7,1.7-2.3c-1.3-4.6,1.9-8,3.1-11.9c0.7-2.4,2.1-2.5,3.7-0.5c0.6,0.7,1.7,1,2.6,1.4
			c0.2-1,0.7-2.1,0.7-3.1c0-5-0.1-10.1-0.2-15.1c0-1.2-0.2-2.4-0.3-3.9c-5.5,3.3-5.5,3.4-6.2-2.3c-0.3-2.3-0.4-4.6-0.7-6.9
			c-0.6-6.3-1.5-7-7.5-6.2c-0.4,0.1-0.9,0.1-1.3,0.1c-5.8,0.3-8.7-4-6.3-9.3C306.5,224.9,306.9,223.2,307.4,221.5z M502.9,70.6
			c0.1-0.6,0.3-1.1,0.4-1.7c-1.4-0.6-2.7-1.6-4.1-1.7c-6.9-0.2-13.8-0.2-20.7-0.2c-11,0-21.8,0.2-32.7-2.4c-7.1-1.7-14.6-2.1-22,0.6
			c1.9,1.1,3.8,1.9,5.9,2.3c15.9,3.3,31.9,6.5,47.9,9.7c1.1,0.2,3.1-0.1,3.5-0.8c1.1-1.9,2.4-3.3,4.3-2.1c1.6,1.1,3.4,2.8,3.8,4.6
			c1.3,4.8,1.9,5.3,6.2,3.2c0.9-0.4,1.8-1.4,2.7-1.4c1.3,0,3,0.3,3.7,1.1c0.8,0.9,1.3,2.9,0.9,3.9c-0.4,0.8-2.4,1.3-3.7,1.2
			c-1.9-0.2-3.7-1-6.1-1.7c4.9,5.6,10.3,6.3,16.3,2.6c-2.6-10.6-5.2-12.7-15.5-12.9c-1.1,0-2.3-1-3.4-1.6c1.1-0.9,2.1-2.5,3.3-2.6
			C496.7,70.3,499.8,70.6,502.9,70.6z M119.6,639.5c-2.5-1.7-4.7-2.5-5.7-4.1c-0.7-1.1-0.2-3.4,0.4-4.9c3.1-7.3,7.4-14.1,7-22.5
			c-0.2-4-1.4-4.9-4.7-3c-3.6,2-6.9,1.6-10.4,0.2c-2-0.8-4.1-1.8-6.1-2c-1.3-0.1-3.5,0.9-4,2c-2.1,4.6-1.1,9.4,1.9,13.1
			c2.6,3.2,4.9,5.7,6.5,9.9c1.8,4.9,7.1,8.9,11.5,12.3c1.6,1.2,5.6,0.3,8-0.8c1.1-0.5,1.9-3.6,1.6-5.3c-0.4-2.3-1.9-4.5-3-6.7
			c-0.4,0.1-0.7,0.1-1.1,0.2C121,631.3,120.5,634.5,119.6,639.5z M263.9,677.5c23.2,12.3,103.5,17.5,115,7.6
			c-0.8-0.2-1.5-0.5-2.1-0.5c-10.6-0.2-21.3,0-31.9-0.7c-17.2-1.1-34.4-2.9-51.6-4.3C283.8,678.9,274.4,678.3,263.9,677.5z
			 M542.5,150.7c-0.3-0.3-0.6-0.7-1-1c0.9-2.8,1.1-6.4,2.9-8.1c9.3-8.8,8.6-19.9,7.1-30.8c-0.8-5.8-4.1-11.3-6.4-16.9
			c-0.3-0.8-2.2-1.8-2.4-1.6c-1.8,1.6-4.7,3.3-4.9,5.1c-0.5,6-3.1,12.2,0.4,18.2c1.3,2.3,2.4,4.9,2.9,7.5c0.4,2.3,0.8,5.7-0.4,7
			c-6.2,6.8-1.5,14-2.4,21.5C540.3,151.3,541.4,151,542.5,150.7z M181.8,96.9c0.7,1.3,1.3,3.6,2.3,3.9c5.7,1.6,11.4,2.8,17.2,3.8
			c2.1,0.4,4.4-0.7,6.4-0.2c11.6,3.4,23.5,4.1,35.5,3.6c7.6-0.3,15.2-0.8,23.1-1.2c-0.4-1.4-0.4-1.6-0.5-1.6c-0.5-0.2-1-0.4-1.6-0.6
			c-8.6-2.2-17.4-2.5-26.1-4.8c-11.2-2.9-23.4-2.4-35.1-3C196.3,96.6,189.4,96.9,181.8,96.9z M332.1,165.4c0-0.5,0.1-0.9,0.1-1.4
			c-27.8-2.2-55.6-4.4-83.6-6.6c0.2,4.1-2.5,4.5-5.8,4.4c-2.8-0.1-5.7,0-8.5,0C266.8,168.1,299.4,168.5,332.1,165.4z M581.7,690
			c-12.6-3.1-8.2-12.1-7-19.8c-8.6-0.5-26.8,4.5-28.7,7.4c4,7.2,11,10.8,17.5,14.9C569.4,696.3,578,695.1,581.7,690z M699.6,624.2
			c-6.2,5.8-7.9,9-12.1,18.7c-5,11.6-10.7,23-15.7,34.6c-1.5,3.5-4.3,7.1-3,11.7C682.3,681.3,697.1,647.4,699.6,624.2z M525.9,669.1
			c1.1,1,2.7,2,3.6,3.5c3.2,4.9,4.2,5.3,9.2,2.8c0.7,0.9,1.3,1.8,2,2.7c0.5-0.9,1.4-1.8,1.5-2.7c0.2-2.7,1.6-3.8,4-4.4
			c1.9-0.5,3.8-1.2,5.6-1.8c-0.3-0.2-0.7-0.5-1-0.7c0.5-1.9,0.5-5.2,1.5-5.5c3.9-1.4,4.8,2.1,5.8,5c5.5-1,10.6-1.9,15.9-2.9
			c-3.7-4.1-6.7-7.7-10-11.1c-0.7-0.7-2.6-1-3.5-0.6c-4.4,2.1-8.5,4.7-13,6.7C540.3,663.3,533,666.2,525.9,669.1z M283.8,107.7
			c0,0.3,0.1,0.7,0.1,1c2.1,0.3,4.2,0.5,6.3,1c13.7,3.1,27.5,2.9,41.2,0.2c15.8-3.2,31.8-3,47.8-4c10.6-0.6,21.3-1.1,31.9-1.8
			c2.2-0.1,4.3-0.8,6.4-1.2c0-0.4-0.1-0.7-0.1-1.1c-1.4-0.1-2.7-0.3-4.1-0.3c-9.4,0.5-18.7,1.2-28.1,1.6c-9.8,0.4-19.5,0.9-29.3,0.6
			c-9.8-0.3-19.3,0.5-28.9,2.1c-8.2,1.4-16.5,1.5-24.9,1.9C296,107.9,289.9,107.7,283.8,107.7z M452.1,491c-7.4,3-7.7,3.2-4.7,8.9
			c5.1,9.5,4.7,20,6.2,30.2c1,7.2,1,14.6,2.1,21.8c0.3,2,2.8,3.6,4.2,5.4c1.2-1.9,2.7-3.7,3.6-5.8c0.5-1,0.1-2.5-0.1-3.8
			c-1.9-11.6-3.5-23.2-5.7-34.6C456.2,505.7,454,498.5,452.1,491z M378.3,263.6c2.3-5.8,2.3-5.8,3.7-4.8c0,3.4-1,6.8,0.2,8.2
			c1.9,2.1,5.4,2.8,7.8,4c1.3-5.1,2.3-9,3.2-12.9c0.5-0.1,1.1-0.2,1.6-0.3c1,2,2.1,4.1,3.7,7.1c-1.7-1.2-2.4-1.7-4.1-3.1
			c0,3.1-0.4,6.8,0.1,7c3.6,1,7.4,1.2,11.1,1.7c0.3-0.5,0.6-0.9,0.9-1.4c-1.9-3.3-3.1-7.3-5.7-9.8c-4.6-4.5-10.2-8-15-12.3
			c-1.8-1.6-2.7-4.4-4.1-6.6C375.5,244.1,373.5,254.1,378.3,263.6z M503.3,187.9c3.8,1.6,4.7,3.3,1.7,6.8c-4,4.8-4.7,10.4-5.6,16
			c-0.8,5-1.5,10-2.6,14.9c-2.3,10.3-4.9,20.5-7.2,30.8c-0.9,4.2-1.3,8.5-2,12.8c0.5,0.1,1,0.2,1.5,0.3c1.6-4.7,3.6-9.3,4.6-14.1
			c1.4-6.6,5.4-12.9,2.5-20.1c-0.4-0.9,0.4-2.5,0.9-3.6c2.2-5.1,5.3-10,6.7-15.3c3.6-14,6.6-28.2,9.7-42.4c0.3-1.2,0.2-2.4,0.4-4.1
			c-3.4,0.8-6.1,1.4-8.9,2c0.4,0.2,0.9,0.5,1.3,0.7C505.5,177.5,504.4,182.4,503.3,187.9z M583,642.8c-4.8,2.1-9.7,4.1-14.3,6.5
			c-0.5,0.2-0.5,3,0.1,3.6c5,4.6,10.3,9,16.9,11.4c0.8,0.3,2.3,0.1,2.8-0.4c3.4-3.7,6.7-7.4,9.8-11.3c0.6-0.7,0.2-3.3-0.4-3.5
			C593.2,646.8,588.4,645,583,642.8z M307.3,70.3c4.6,7.7,19.5,11.6,26,7.5c1.1-0.7,2.6-0.8,4-0.8c10.2-0.7,20.4-1.2,30.6-1.9
			c0.3,0,0.7,0,0.8-0.1c0.9-1.3,1.8-2.6,2.7-3.9c-1.1-0.4-2.3-1.4-3.4-1.2c-11,1.9-22.2-1-33.2,2.3c-4.4,1.3-9.7-0.2-14.5-0.5
			C316.1,71.2,312,70.7,307.3,70.3z M412.7,98.3c0-0.8,0-1.6,0-2.4c-6.7,0-13.5,0.1-20.2,0c-15.9-0.1-31.7-0.3-47.6-0.6
			c-8.2-0.1-16.4-0.5-24.7-0.7c-4.2-0.1-6.5,3-9.6,5.4c17.5,0,34.4,0.2,51.2-0.1C378.8,99.7,395.7,98.9,412.7,98.3z M446.2,476.6
			c0.4-0.3,0.8-0.6,1.2-0.9c-2.1-5.1-4.3-10.2-6.4-15.4c-3.4-8.2-3.6-17.5-8.8-25.2c-3.2-4.7-5.9-9.8-8.8-14.8
			c-0.9-1.6-1.8-3.2-2.6-4.7c0.6,3.7,1.3,7.2,1.7,10.8c0.6,5.4,1,10.9,1.5,16.4c0.5-0.5,1.1-0.9,1.6-1.4c2.8,0.6,6.2,0.4,8.1,2
			c3.4,2.8-0.2,5.6-1.9,7.7c-2.8,3.4-1.8,6,0.5,8.8c2.2,2.8,4.1,5.9,6.4,8.6C441.1,471.4,443.7,473.9,446.2,476.6z M428.1,483.3
			c-2.3,5.6-6.2,10.4-5.8,14.8c0.8,9.3,5.3,17.6,13.1,23.6C439.6,508,435.4,496.2,428.1,483.3z M310.9,519.4
			c0.5,0.2,0.9,0.4,1.4,0.6c4-4.7,9.1-8.7,9.2-15.9c0.1-3.3,0.5-6.6,0.8-9.8c1.5-15.3,6-30.4,4.6-46c-0.5-5.3-1-10.6-1.5-15.9
			c-2,15.6-2.7,31.1-4.2,46.5c-0.7,7.2-2.5,14.4-4.3,21.5C315.2,506.8,312.9,513.1,310.9,519.4z M579.1,602.3
			c-0.2-0.2-0.3-0.5-0.5-0.7c1.3-1.1,3.1-1.9,3.7-3.3c1.1-2.5,1.5-5.3,2.2-7.9c-1.9-0.5-4-1.7-5.6-1.3c-3.5,0.9-6.7,2.6-9.6,3.9
			c2,4.4,5.1,8.2,4.9,11.9c-0.2,4-2.8,8.3-5.3,11.8c-2.3,3.1-3.9,5.5-1.2,8.9c8.7-2.3,15.2-13.9,13.8-24.2
			C580.7,601.6,579.9,601.9,579.1,602.3z M306.3,673.6c0,0.1,0,0.3-0.1,0.4c8.4,0.8,16.7,1.7,25.1,2.4c8.3,0.7,16.7,1.5,25,1.5
			c8.5-0.1,17-1.3,25.5-1.8c8.3-0.5,16.6-0.7,24.9-1c0-0.5,0-1,0-1.5C373.3,673.6,339.8,673.6,306.3,673.6z M326.1,205.6
			c1,1.9,1.3,3.5,1.9,3.6c4.2,1.1,3,4.1,3,6.9c-0.1,4.6,0,9.2,0.3,13.8c0.1,1.2,1,2.6,2,3.4c4.1,3.6,4.5,6.9,1.4,11.2
			c-0.9,1.2-1.5,2.8-1.6,4.2c-0.1,4.6,0.2,9.2,0.4,13.8c0,1,0.3,2,0.5,3c1.8-2,2.2-4.4,3.6-6.2c3-4,2.7-8.2,2.2-12.8
			c-1-8.4-2.1-16.9-2-25.4C337.8,211.2,337.2,209.6,326.1,205.6z M83.9,623.5c-0.7,0.2-1.4,0.3-2.1,0.5c-0.8,4.6-1.8,9.1-2.4,13.7
			c-0.3,2.5,1.2,3.9,3.9,4.2c7.5,0.7,14.9,1.5,22.4,2.1c1,0.1,2.2-0.5,3.2-0.7C100.3,636.4,92.1,630,83.9,623.5z M313.8,51.9
			c-0.9-4.2-1.3-7.8-2.4-11.1c-0.4-1.1-2.6-2.4-3.9-2.4c-4.6,0.2-9.2,0.7-13.7,1.6c-1.6,0.3-4,2.6-3.9,3.7c0.9,5.6,2.5,11,3.9,16.5
			c0.4,0,0.8,0,1.2-0.1c0.5-1.3,1-2.5,1.5-3.8c2.7-6.3,3.8-6.8,10.6-5.4C309.2,51.3,311.3,51.5,313.8,51.9z M261.5,561.7
			c0.4,0.5,0.9,0.9,1.3,1.4c0.8-0.5,2.3-1,2.4-1.7c1-4.5,4-3.3,6.7-2.5c2.1,0.6,3.9,2,6,2.4c3.2,0.5,6.5,0.8,9.7,0.5
			c1.1-0.1,2.4-2.2,2.8-3.7c0.2-0.7-1.4-1.9-2.2-2.9c-1-1.3-2.3-2.4-2.9-3.8c-2.7-6.2-5.1-12.4-7.7-18.7c-1.1,2-1.8,4.3-1.3,6.3
			c2,7.9,1,10.6-6.1,15.1c-1.3,0.8-2.9,1.4-4.1,2.4C264.5,558.2,263,560,261.5,561.7z M502,467c0.2,0.6,0.5,1.1,0.7,1.7
			c2.2,0.1,4.5,0.2,6.7,0.3c9.9,0.4,12.4,2.6,13.4,12.7c3.3-1.8,6.3-3.5,10.2-5.7c-2.8-4.6-5.4-8.6-7.7-12.8c-2-3.6-4.9-4.7-8.7-3.6
			c-2.8,0.8-5.6,1.5-8.2,2.8C506.1,463.7,504.1,465.5,502,467z M587.6,690.5c0,0.3,0,0.6,0.1,1c1.7,0.3,3.4,0.5,5.1,0.8
			c2.1,0.3,4.8,0,6.1,1.1c1.3,1.1,1.1,3.8,1.7,6.2c7.2-1.7,15.2-1.3,22.4-5.3c-3.2-3.7-4.1-3.6-8-0.7c-1.4,1-3.8,0.7-5.7,1
			c0.1-1.4,0.3-2.8,0.1-4.1c-0.3-1.5-0.7-3.2-1.6-4.4c-2.9-4-2.6-5.6,1.6-8.3c1.6-1,3.1-2.3,4.6-3.4c-0.1-0.5-0.3-1-0.4-1.5
			c-2,0-4,0.1-6,0c-5.1-0.4-5.3-0.2-3.9,4.9c1.5,5.9-0.9,9.5-6.9,10.7C593.7,689,590.7,689.8,587.6,690.5z M322.9,334.3
			c0.6,0.8,1.6,2.2,2.9,3.9c2.2-2.4,3.5-6.2,7.6-3.4c0.5-8-7.4-29.7-11.4-31.2c-0.7,3.8-1.5,7.6-2.1,11.4c-0.6,3.9-0.9,7.8-1.3,10.8
			c3.2,0.4,5.3,0.7,7.5,0.9C325.2,329,324.2,331.3,322.9,334.3z M393.5,509c0.6-0.1,1.1-0.3,1.7-0.4c-0.9-3.3-1.3-6.7-2.7-9.7
			c-1.5-3.4-2-6.3,0.3-9.7c2.9-4.1,5.5-8.5,7.5-13.1c1.3-3.2,1.3-6.9,1.9-10.4C385.7,476.3,381.1,496.5,393.5,509z M362.8,668
			c-29.7-3.5-59.5-2.9-89.3-2.8C303.1,669.3,332.9,669.4,362.8,668z M588.6,684.1c0,0.2,0,0.3,0.1,0.5c1.9-0.6,4-0.9,5.7-1.8
			c1.7-0.9,4.4-2.7,4.3-3.7c-0.3-2.4-1.7-4.9-3.4-6.7c-1.4-1.4-3.9-1.6-5.7-2.7c-3.4-2-6.5-1.3-8.4,2.2c-0.7,1.4-1.3,2.9-2,4.3
			c-2.1,4.1,0.3,8.2,4.8,8.1C585.5,684.1,587,684.1,588.6,684.1z M393.7,220.5c-1.6,3.1-2.9,5.3-3.7,7.6c-0.4,1.1,0.1,3.5,0.5,3.6
			c1.7,0.3,4.2,0.6,5.2-0.4c5.6-5.4,10.9-11.2,16.9-17.5c-4.2-1-7.2-1.9-10.3-2.3c-2.2-0.2-5.6-0.5-6.7,0.8
			C393.6,214.6,391.5,217.8,393.7,220.5z M460.2,78c0-0.4,0.1-0.9,0.1-1.3c-0.7-0.3-1.4-0.9-2.2-1c-11-2.1-22.1-4.3-33.1-6.2
			c-1.4-0.2-3,0.9-4.6,1.5c1.1,1.4,2,3.5,3.4,4c4.3,1.6,9,2,13.2,3.8C445.1,82.2,452.5,79.4,460.2,78z M175.8,146.6
			c0.4-0.4,0.8-0.8,1.2-1.3c-0.4-1.2-0.6-2.5-1.2-3.6c-1.4-2.9-3.1-5.6-4.5-8.5c-1.4-3-2.5-6.2-4.1-9.1c-1.8-3.3-5.5-3.7-9.4-1.5
			c-3.3,1.9-2.3,4.6-0.8,6.6c3,3.9,6.2,7.7,9.8,11.1C169.5,142.9,172.8,144.6,175.8,146.6z M400.6,243.4c3.6,8.6,6.8,16.6,10.4,24.5
			c0.4,1,2.7,1.1,4.1,1.7c0.4-1.3,1.3-2.6,1.1-3.8c-1.3-6.9-2.8-13.8-4.5-20.6c-0.3-1-1.9-2.2-3-2.3
			C406.5,242.6,404.2,243.1,400.6,243.4z M154.5,581.2c-1.1,4.9-2.1,9.4-3.2,13.9c-0.5,2-1.9,3.9-1.8,5.8c0.1,2.8,1.2,5.6,1.8,8.5
			c1.4,0.3,2.7,0.5,4.2,0.8c-0.7,2.3-1.6,4.3-2,6.4c-0.2,0.9,0.2,2.7,0.7,2.9c2.5,1,5.2,1.6,7.9,2.4c1-5.6,0.7-6.6-3-9.9
			c-3.7-3.4-6.5-7.3-6.2-13.1c3.3,0.3,5.4-1.1,5.5-4.7C158.6,589.6,160.8,584.4,154.5,581.2z M476,417.4c-4.9-7.6-9.4-14.5-14.3-22
			c-1.1,5.8-2.4,10.8-2.9,15.9c-0.4,3.3,0.1,6.8,0.6,10.1c0.5,2.9,2.5,3.1,4.1,2.3c0.9-4.1,1.6-7.5,2.6-10.9
			c0.2-0.7,1.4-1.1,2.1-1.6c0.4,0.7,1,1.4,1.1,2.1c0.2,1.7,0,3.5,0.3,5.2c0.1,0.7,1.2,1.2,1.9,1.8c0.6-0.7,1.4-1.3,1.7-2
			c0.2-0.7-0.2-1.6-0.4-2.9C474,416,474.7,416.5,476,417.4z M417.1,226.9c2.4,0.1,6.4-3.1,6,2.2c-0.3,4.4-1.8,8.8-3.1,13
			c-1.2,3.6-0.2,10.7,2.4,13.5c4.5-10.7,5.4-21.9,3.6-33.5c-6.1,1.3-3.9-6.7-8.7-8.2C418.4,218.5,413,222.3,417.1,226.9z
			 M552.7,520.1c2.6-1.4,5.3-2.3,3.7-6.3c-1.4-3.5-2.3-7.3-3.5-10.9c-0.8-2.5-1.8-4.9-2.8-7.4c-0.3-0.2-0.7-0.5-1-0.7
			c-1,7.6-7.7,5.4-12,8C542.4,508.6,547.5,514.3,552.7,520.1z M485.7,136.3c0.4-0.4,0.7-0.8,1.1-1.2c1,0.6,2.3,0.9,3.1,1.8
			c3.9,4.3,8.6,7.1,14.3,8c1.5,0.2,3.1-0.4,4.6-0.6c-0.7-1.3-1.1-3.2-2.2-3.8c-6.4-3.3-12.9-6.4-19.4-9.4c-0.7-0.3-2-0.2-2.5,0.2
			c-2.7,2.7-5.3,5.6-8.8,9.5c5.9,1.3,10.1,2.2,14.4,3.2c0.2-0.5,0.5-0.9,0.7-1.4C489.3,140.5,487.5,138.4,485.7,136.3z M290.4,504.4
			c-0.3,0.3-0.7,0.6-1,0.9c5.7,2.5,7,6.1,3.8,10.8c-0.1,0.1,0,0.3,0,0.4c-0.9,3-1.7,5.9-2.7,8.9c-0.5,1.6-1.3,3.2-2,5.1
			c5.2,1.6,5.9-2.1,7.5-4.6c2.1-3.3,4.7-6.3,6.5-9.8c1.3-2.5,2.6-5.7,2.2-8.3c-0.2-1.4-4-2.6-6.3-3.1
			C295.8,504,293.1,504.4,290.4,504.4z M486.2,258.2c-4.5,1.1-5.9,3.4-6.3,6.2c-0.7,4.4-0.8,8.9-1.9,13.2c-0.7,2.7-2.6,5.2-4.5,7.3
			c-1.7,1.7-4.2,2.6-6.1,3.7c0.8,2.2,2.2,4.2,1.8,5.5c-1.5,4.5,1.7,6.3,4.4,9.7C477.8,288.4,481.8,273.8,486.2,258.2z M381.3,51.6
			c2.8-4.8,5.1-8.5,7.3-12.3c1-1.7,2.1-3.7,2.2-5.6c0.1-1.6-0.9-4.2-2.1-4.7c-2.8-1.3-6.1-2.3-9.1-2.1c-1.6,0.1-2.9,3.1-4.7,5.3
			C380.9,37,379.8,44.1,381.3,51.6z M178.1,540.3c-0.4-0.2-0.8-0.3-1.2-0.5c-6.6,7.6-10.2,16.5-11.1,26.6c-0.1,1.3,0.1,2.6-0.3,3.8
			c-1.6,5.3-1.1,6.3,5.9,7.4c0.6-6.9,1-13.6,1.8-20.4c0.4-3,1.4-5.9,2.3-8.9C176.3,545.6,177.2,542.9,178.1,540.3z M531.7,139.6
			c-0.1-0.9-0.3-1.8-0.4-2.6c-0.2-2.6,0.5-6.4-0.9-7.5c-1.7-1.3-5.2-0.5-7.9-0.3c-1.6,0.1-4.4,0.4-4.5,1c-0.3,1.9,0,4.1,0.8,5.9
			c1.1,2.4,1.4,4.1-1.5,5.1c-2.6,0.9-3,2.6-1.8,5.5C520.8,144.3,526,142.1,531.7,139.6z M307.3,409.2c0.7,0.2,1.5,0.4,2.2,0.5
			c-0.6,3.4-1.2,6.7-1.8,10.1c-0.5,3.4-1,6.8-1.5,11.1c7-5.3,7.8-18.8,2.3-23.6c-0.9-0.7-2.9-1-3.9-0.5c-2.1,1.1-4.2,2.5-5.8,4.3
			c-3.8,4.1-1.7,12.2,3.4,13.8C303.9,419.7,305.6,414.4,307.3,409.2z M402.4,318.8c0.6-8.3,1.2-16.6,1.6-24.8
			c0.1-1.3-0.3-2.6-0.5-3.8c-0.6-2.9-2.5-3.7-5.2-3c-2.6,0.7-3.2,2.3-2.9,4.9c0.6,4.4,0.8,8.9,1.5,13.3
			C397.8,310.2,396.9,315.6,402.4,318.8z M154.8,106.3c7.7-2.9,8.9-2.3,11.3,3.8c0.3,0.7,0.6,1.3,0.9,2c2.1,4.7,5.6,5.7,8,4.4
			c-2.6-3.5-5.4-7.6-8.5-11.6c-4.8-6.2-4.8-7.7,0.4-13.1c0.4-0.4,0.7-0.9,1-1.3c-0.2-0.4-0.5-0.8-0.7-1.3c-3.7,1.8-8.3,2.8-10.8,5.7
			C154.5,97.2,155.4,101.8,154.8,106.3z M369.4,91.3c0.2-0.5,0.4-1,0.5-1.4c-3-1.7-5.8-4.1-9-4.9c-4-1-8.3-0.9-12.4-1
			c-1.3,0-3,0.2-3.9,1c-2,1.9-3.6,4.2-5.3,6.3C349,91.3,359.2,91.3,369.4,91.3z M180.9,144.7c0.4,4.6,4,5.3,7.1,5.8
			c11.4,2.2,22.9,4.1,34.4,6c2.4,0.4,5,0.1,7.5,0.1c0-0.4-0.1-0.7-0.1-1.1C213.7,151.9,197.5,148.4,180.9,144.7z M326.4,379.1
			c4.4-9.8,7.2-25.8,5.5-30.4C323.2,356.5,320,373.2,326.4,379.1z M489.1,126.9c-0.2,0.8-0.5,1.5-0.7,2.3c2.6,1.5,5.1,3.3,7.9,4.4
			c3,1.3,6.3,2,9.4,2.9c2.1,0.6,4.7,2.3,5.7-1.2c0.8-2.9,0.6-6.6-2.9-7.1C502.2,127.3,495.6,127.3,489.1,126.9z M479.7,83.1
			c-4.8-4.9-9.8-5.3-14.7-5.7c0,2.6,0,4.8,0,6.9c-3,0.2-5.4,0.2-7.9,0.4c-2.4,0.3-4.9,0.7-7.2,1.2c-2.2,0.5-4.3,1.2-6.5,1.7
			C455.3,86.8,467.4,88.9,479.7,83.1z M320.5,516c-2.8,3.5-5,6.2-7.1,8.9c-0.5,0.7-1.2,1.5-1.2,2.2c-0.1,5.6-0.1,11.2-0.1,16.8
			c0.6,0.1,1.3,0.1,1.9,0.2C319.7,535.9,320.2,526.4,320.5,516z M425.1,520.4c0.3-0.2,0.6-0.4,1-0.6c-2.8-6.9-5.5-13.9-8.5-20.7
			c-0.2-0.5-3.8-0.2-3.9,0.2c-0.8,3.4-2.7,8.1-1.2,10.1C415.8,513.7,420.8,516.8,425.1,520.4z M671.8,588c0.6-0.1,1.2-0.2,1.8-0.3
			c-1.1-10-2.2-20-3.5-29.9c-0.1-1.1-1.4-2.1-2.2-3.2c-0.7,1.3-1.7,2.4-2,3.8C663.6,569.1,669.6,578.2,671.8,588z M396.5,542.2
			c0.2,0.5,0.5,1.1,0.7,1.6c3.4,0.6,6.7,1.5,10.1,1.7c5.5,0.2,6.4-1.1,5.1-6.5c-0.6-2.4-1.1-4.9-1.8-8
			C406,534.7,401.3,538.5,396.5,542.2z M204.6,159.2c-4.8-1.3-9.3-2.9-13.9-3.7c-4.6-0.8-9.5-3.5-13.8,0.5
			c5.7,2.4,11.5,4.7,17.2,7.2C198.5,165,201.7,164,204.6,159.2z M130,100.7c-3.6,9.9-6.8,19-4.3,29c1-1.7,1.4-3.6,1.4-5.5
			c0-3,0.1-5.7,3.8-6.8c1.2-0.4,2.9-2.2,2.9-3.4C133.7,109.7,133.8,105.1,130,100.7z M164.4,728.5c0.2-0.6,0.4-1.1,0.6-1.7
			c-3.8-2-7.8-5.8-11.5-5.6c-4.1,0.3-9.3,2.6-11.7,8.9C149.9,729.5,157.1,729,164.4,728.5z M454,96.1c-0.1-0.5-0.1-1-0.2-1.5
			c-3-0.3-6.2,0.2-8.9-0.9c-6.5-2.6-12.9-2.5-19.5-1.4c-1.2,0.2-2.2,1.5-3.3,2.3c1.3,0.8,2.6,2.3,3.9,2.3c6.8,0.2,13.5,0,20.3-0.2
			C448.9,96.7,451.5,96.3,454,96.1z M512.3,198.9c0.3,0.2,0.6,0.4,0.9,0.6c0.9-1.3,2.1-2.4,2.8-3.8c3.8-7.5,7.6-15.1,11.2-22.8
			c0.4-1-0.1-2.4-0.1-3.5c-1.5,0.1-3.1-0.1-4.4,0.4c-0.8,0.4-1.3,1.8-1.6,2.9c-2.3,6.9-4.6,13.9-6.8,20.8
			C513.5,195.3,512.9,197.1,512.3,198.9z M546.9,525.3c-2.1-2.4-3.8-6-6.3-6.7c-2.8-0.7-6.5,0.7-9.3,2.1c-3.1,1.6-4.1,4.6-1.7,7.7
			C535.4,527.5,541,526.4,546.9,525.3z M556.5,151.9c4.4,1.4,6.2-0.1,6.1-5.2c-0.2-5.6,0-11.2-0.3-16.8c-0.2-3.8-0.9-7.5-1.3-11.3
			c-0.1,0.1-0.3,0.1-0.4,0.2C559.2,129.7,557.9,140.5,556.5,151.9z M383.7,502c-3-10.2-0.2-19.1,5.2-27.4c-4.3-1.5-5-1.2-7.8,3.3
			C376.5,485.5,377.5,495.8,383.7,502z M243.6,234c-4.3,5.2-4.1,9.8-0.7,13.5c2.8,3.1,5.2,6.4,7.8,9.7c0.8,1.1,1.6,2.2,2.5,3.3
			c0.4-0.2,0.8-0.4,1.3-0.7C250.9,251.4,247.3,243,243.6,234z M510,440.3c1.4,1.6,2.9,2.7,3.7,4.2c1.9,3.9,3,8.4,8.4,9.2
			c-0.4-5.7-13.6-26.6-17.3-28.3C506.5,430.3,508.3,435.5,510,440.3z M312.3,219.6c2.9-2.7,5.9-5.3,8.8-8c0.6-0.6,1.3-1.8,1.1-2.4
			c-0.2-0.7-1.4-1.5-2.2-1.6c-3.1-0.1-6.4-0.5-9.4,0.2c-1.9,0.5-3.3,2.7-5,4.1C310.6,213,310.6,213,312.3,219.6z M308.2,250.6
			c0.5-0.4,0.9-0.8,1.4-1.2c-1.9-7-5.5-12.9-10.8-18.4c-1.1,2.9-2.1,5.1-2.8,7.4c-0.9,3.1,0.6,4.5,3.8,4.6c1.2,0,2.5,1.2,3.4,2.1
			C305,246.8,306.5,248.7,308.2,250.6z M387.2,244.5c5.4,4.7,10.1,8.8,15.2,13.3C404.2,245.8,398.6,240.7,387.2,244.5z M242.5,359.5
			c0.4,0.2,0.8,0.5,1.2,0.7c1.3-1.8,2.9-3.4,3.7-5.4c1.8-4.8,3.1-9.8,4.7-14.7c0.2-0.7,0.6-1.8,1-1.9c3.6-0.8,2.8-3.6,3.5-6.9
			C245.8,338.7,244.4,349.2,242.5,359.5z M579.6,627.6c5.4-3,12.9-1.7,14-9.4c-1.5-0.8-2.8-1.2-3.7-2.1c-1.1-1-1.8-2.3-2.9-3.7
			C584.7,617.6,579.3,620.7,579.6,627.6z M404.4,498.5c2.7-2.3,5.9-3.6,6.4-5.7c1.3-5.2,3-10.7,0.9-17
			C407.2,482.8,404,489.4,404.4,498.5z M539.3,682.9c-7.6-0.8-15-1.7-23.1-2.6c5.9,6.2,11.9,9.2,19.3,7.7
			C536.4,686.7,537.6,685.1,539.3,682.9z M222.6,171.5c9.5,2.4,18.9,5.1,29.6,5.4C247.7,171.7,228.6,168.3,222.6,171.5z
			 M433.5,470.6c1.4,5.1,2.6,9.3,3.7,13.6c0.6,2.2,0.5,4.7,3.8,4.8c3.2,0.1,5.1-1.4,5.7-4C442.4,480.3,438.3,475.8,433.5,470.6z
			 M410.3,407.8c2-8,0-16.1-5.6-21.1c0,5.3,0,10.1,0,14.9C404.6,405.3,406.5,407.2,410.3,407.8z M342.4,239.4c0.5,0.1,1,0.1,1.4,0.2
			c0.3-0.4,0.9-0.8,0.9-1.3c0.3-8.8,0.6-17.6,0.5-26.3c0-1.4-2.1-2.9-3.2-4.3c-0.3,5.9,0.2,11,0.3,16.1
			C342.5,229,342.4,234.2,342.4,239.4z M255.8,257.2c0.2,0,0.3-0.1,0.5-0.1c-0.1-0.7-0.1-1.4-0.3-2c-2-8.1-4.6-16.2-6-24.4
			c-0.8-4.7-2.7-5.7-6.6-4.8C247.7,236.4,251.8,246.8,255.8,257.2z M520,105.7c0.7,4.8,0.8,8.6,2,12c0.5,1.3,3.5,1.7,5.4,2.5
			c0.3-1.4,1.2-3,0.9-4.3c-0.9-3.6-2.2-7.1-3.7-10.5c-0.4-0.9-2.3-2.1-2.9-1.9C520.7,104.1,520.1,105.6,520,105.7z M309.2,292.8
			c0.3-0.4,0.7-0.8,1-1.2c-1.2-2.9-2-5.9-3.6-8.5c-0.6-0.9-3-1.6-4.1-1.2c-2.4,0.9-4.5,2.6-6.7,3.9c0.6,0.7,1,1.8,1.7,2.2
			C301.4,289.7,305.3,291.2,309.2,292.8z M211.1,241.3c-3.3-12.7-10.7-22.7-18.4-32.6c-0.6,0.4-1.1,0.7-1.7,1.1
			C197.7,220.3,204.4,230.8,211.1,241.3z M442.8,519.6c-4.2,7.9-1.6,19.9,4.7,25.3C446.6,536.2,446.6,527.9,442.8,519.6z
			 M382.7,58.8c0.3,0.4,0.5,0.8,0.8,1.2c1.6-0.7,4-1,4.8-2.2c3.3-5.6,6.1-11.4,8.9-17.3c0.5-1-0.2-2.6-0.3-3.9
			c-3.4,3.9-5.7,7.5-7.9,11.2C386.8,51.4,384.8,55.1,382.7,58.8z M396,364.7c0.5-7.8,0.9-14.6,1.3-21.5c-0.4-0.1-0.9-0.3-1.3-0.4
			c-2.1,2.6-4.3,5.1-6.4,7.8C394.7,353.8,389.2,361.4,396,364.7z M179.1,202.4c-0.7,6.3,11.3,24.9,17.9,27.3
			C191,220.6,185,211.5,179.1,202.4z M701.1,598.1c0.4,0.2,0.8,0.3,1.2,0.5c2-5.2,3.6-10.5,6-15.5c5.8-12.3,6-12.2,4.1-15.3
			C706.9,577.4,702.6,587.3,701.1,598.1z M420.4,490.2c5.4-2.8,5.7-12.5,0.8-18.6C416,477.5,418.7,483.7,420.4,490.2z M526.3,437.4
			c-0.3,0.3-0.5,0.6-0.8,0.8c3.4,5.4,6.8,10.7,10.1,16.1c2,3.2,3.8,1.8,5.5,0C537.6,447,532.9,441.4,526.3,437.4z M600.4,598
			c5.5-10.7,3.5-25.6-2.8-27.2c0.9,4.4,2.3,8.8,2.7,13.3C600.7,588.7,600.4,593.4,600.4,598z M294.4,471
			c9.4-10.1,15.7-19.1,8.8-28.2c0.2,1.5,0.6,2.9,1.2,4.2c1.5,3.3,0.8,7.7-1.9,9.8c-1.7,1.3-3.5,2.5-5.2,3.7
			C293,463.4,292,466.5,294.4,471z M108.6,578c0.2-0.3,0.4-0.7,0.7-1c-2.7-2.1-5.5-4.1-8.2-6.2c-3.8-2.9-7.4-5.9-11.3-8.6
			c-1.1-0.8-3.1-0.4-4.6-0.6c0.7,1.3,1.1,3.1,2.2,3.7C94.3,569.7,101.5,573.8,108.6,578z M312.7,398.3c-0.9,2.9-2.4,5.2-1.9,6.8
			c1.6,5,4,9.7,6.4,15.1C318.9,412.3,318.6,405.4,312.7,398.3z M86.5,665.5c0.1,0.7,0.1,1.4,0.2,2.1c9.9,0.8,19.2-2.5,28.6-4.4
			c-0.1-0.6-0.2-1.3-0.3-1.9C105.5,662.7,96,664.1,86.5,665.5z M240.6,249.8c1.1,9.2,7.9,14.6,13.6,20.8
			C251.1,262.8,247.6,255.2,240.6,249.8z M380.9,80.7c-0.1,0.4-0.2,0.9-0.3,1.3c6,1.6,12,3.2,18,4.8c0.3,0.1,0.7,0,0.8-0.1
			c0.8-0.6,1.5-1.3,2.3-2c-0.8-0.5-1.5-1.1-2.3-1.4c-1.2-0.4-2.8-0.2-3.6-1C391.1,77.6,385.9,80.7,380.9,80.7z M537.1,499.8
			c2.5-1.5,4.6-2.7,6.7-3.9c-1.4-1.6-2.7-3.2-4.1-4.7c-0.2-0.2-0.4-0.5-0.7-0.5c-1.4-0.4-2.7-0.8-4.1-1.2c-0.6,2.3-1.7,4.5-1.7,6.8
			C533.3,497.2,535.4,498.3,537.1,499.8z M260.1,66.5c-5.2,0.6-10.3,1.1-15.3,1.8c-0.6,0.1-1.5,1.2-1.4,1.9c0,1.6,0.5,4.6,0.8,4.7
			c2.2,0.1,4.7,0,6.4-1C253.8,72,256.6,69.3,260.1,66.5z M168,614.7c1.6,1.5,2.3,2.2,3.1,2.9c-0.4-0.1-0.8-0.2-1.2-0.3
			c-0.6,1.5-1.9,3-1.7,4.4c0.3,2.6,2.1,4.1,5,3.3c2-0.5,5,0.6,5-3.1C178.2,618.7,174.6,615.9,168,614.7z M417.3,279.3
			c-0.2-1.4-0.1-3.1-0.7-4.4c-0.3-0.7-2.5-1.4-3.1-1c-2.2,1.7-2.8,10.8-0.9,13c0.6,0.7,1.9,1.3,2.8,1.2c0.5,0,1.3-1.4,1.4-2.2
			C417.2,283.7,417.2,281.6,417.3,279.3z M365.8,63.6c-7.4-2.5-34.3-2.8-39.7,0C339.2,63.6,352.2,63.6,365.8,63.6z M527.1,156.2
			c-8.2-5.2-15.9-5.8-19.3-2c2.9,0.7,6.4,0.4,8.2,2.1C519.9,159.8,522.8,157.5,527.1,156.2z M392.3,284.1
			c0.7-11.1-2.6-11.4-9.5-10.5C383.4,278.9,387.2,283.1,392.3,284.1z M283.5,534.7c-0.4,0.1-0.9,0.1-1.3,0.2
			c1.6,3.9,3.1,7.8,4.8,11.6c0.2,0.5,2.1,0.8,2.2,0.6c1-1.7,2.5-3.4,2.6-5.2c0.1-1.4-1.4-3.3-2.6-4.3
			C287.5,536.4,285.4,535.7,283.5,534.7z M299.8,574.5c-0.2-0.6-0.4-1.3-0.6-1.9c-7-0.3-13.9-0.6-20.9-1c-0.1,0.4-0.1,0.9-0.2,1.3
			c3.1,0.7,6.2,1.3,9.3,2.2c1.8,0.5,3.5,1.4,5.2,2.1c0,0.4-0.1,0.8-0.1,1.3C294.9,577.1,297.3,575.8,299.8,574.5z M536.8,542.6
			c4.1-3.3,7.8-6.2,11.6-9.2c-5.1,0.2-9.7,1-14.2,2.2c-0.5,0.1-1.2,2.2-0.8,3C533.9,539.9,535.3,540.9,536.8,542.6z M334.8,28.5
			c0,0.6,0.1,1.2,0.1,1.8c10.6-1.3,21.3-2.6,31.9-3.9c0-0.4-0.1-0.8-0.1-1.1C355.9,24.5,345.4,27.2,334.8,28.5z M321.4,409.4
			c1.3-6.6,2.4-12.8,3.8-19.8c-2.6,1.7-4.1,3.1-5.8,3.6c-2.3,0.8-2.4,1.8-1.7,3.9C319,400.9,320,404.8,321.4,409.4z M334.4,572.8
			c0.5,0.1,1,0.2,1.5,0.2c3.6-10.3,3.2-21.2,3.3-32C337.5,551.6,336,562.2,334.4,572.8z M408.3,442.4c-0.5-0.1-0.9-0.2-1.4-0.2
			c-1.1,6.5-2.3,13-3.4,19.5c0.5,0.1,0.9,0.1,1.4,0.2C411.1,456.2,407.8,449,408.3,442.4z M283.6,63.3c0.8-0.4,1.5-0.8,2.3-1.2
			c-1.1-4.4-2.1-8.8-3.3-13.7c-3.6,2.8-4.1,6.2-3.2,9.3C279.9,59.8,282.1,61.4,283.6,63.3z M288,236.1c0.2-6.6-2.7-15.9-5.3-17.1
			C280.5,224.5,283.7,234.8,288,236.1z M400.8,178c0,0.5,0.1,1,0.1,1.5c9.7-1.1,19.4-2.2,29.1-3.3c-0.1-0.7-0.2-1.4-0.3-2
			C420.1,175.5,410.4,176.7,400.8,178z M314.9,431.9c-9.6,6.4-10.4,8.8-5.5,14.4C311.4,441.3,313.2,436.6,314.9,431.9z M232.6,87.2
			c-1.6-2.1-2.8-3.2-3.3-4.5c-1.6-3.5-4.6-4.4-7.7-2c-2.2,1.8-2,4,0.7,4.7C225.5,86.2,228.7,86.5,232.6,87.2z M237.3,73.7
			c0-0.6-0.1-1.3-0.1-1.9c-1.2-0.6-2.6-1.9-3.6-1.6c-2.2,0.5-4.2,1.6-6.2,2.8c-0.8,0.5-1.2,1.8-1.7,2.7c1.1,0.4,2.3,0.9,3.4,1
			c1.4,0.1,3,0.1,4.3-0.4C234.9,75.7,236,74.5,237.3,73.7z M655.2,587.8c4.6,2.7,8.2,4.9,11.9,7C664,585.2,662.7,584.5,655.2,587.8z
			 M114.9,656.2c4,3.1,15.7,2.1,19.6-2.1C128.2,654.8,122,655.4,114.9,656.2z M408.2,410.4c-0.5,0.1-1.1,0.2-1.6,0.2
			c1.8,6.4,3.6,12.7,5.5,19.1C411.8,423,413.6,415.8,408.2,410.4z M405.8,479.2c2.4-4.7,7.1-8.5,5.8-14.9
			C407.6,465.8,404.6,473.2,405.8,479.2z M497.8,114.4c0.6,3.8,1,6.7,1.5,9.9c0.7,0.1,2,0.2,3.2,0.3c0.9-2.8,1.7-5.3,2.6-8.1
			C502.5,115.7,500.3,115.1,497.8,114.4z M386.5,76.1c2.1-1.6,4.1-2.7,5.3-4.3c0.3-0.4-1.8-2.7-2.9-4c-1.9,1.7-3.9,3.5-5.8,5.2
			C384,73.8,384.9,74.6,386.5,76.1z M322.1,231.4c0-5,0-9.3,0-14.1C316.4,222,316.4,227.3,322.1,231.4z M263.7,83
			c-2.6-5.3-6.9-5.6-12.3,0C255.8,83,259.6,83,263.7,83z M412.5,514c0,2.9-0.1,4.7,0.1,6.5c0.1,1.3,0.4,3.3,1.2,3.6
			c0.9,0.4,3.1-0.2,3.7-1.1c0.7-1.1,1.1-3.3,0.4-4.2C416.8,517.1,414.9,516,412.5,514z M322.2,297c2.3,4.1,4.6,8.1,7.2,12.8
			C330.9,302.4,328.9,298.5,322.2,297z M265.6,276c0.5-0.2,1-0.3,1.5-0.5c-1.7-5.1-3.3-10.1-5-15.2c-0.6,0.2-1.2,0.4-1.8,0.6
			C261.8,266.1,260.3,272.2,265.6,276z M199.9,240c-0.5,0.4-0.9,0.7-1.4,1.1c4.5,5.8,8.9,11.6,13.4,17.3c0.5-0.4,1.1-0.8,1.6-1.2
			C208.9,251.5,204.4,245.8,199.9,240z M558.5,554.5c4.5-1.1,8.1-1.9,12.4-2.9c-1.7-2.5-3-4.5-4.2-6.2
			C563.9,548.4,561.6,551,558.5,554.5z M586.9,565.8c-0.6,0.1-1.2,0.2-1.8,0.2c0.2,3.8,0.3,7.7,0.6,11.5c0.1,0.6,1.3,1.1,2,1.7
			c0.4-0.9,1.3-1.8,1.3-2.7c0-2.3-0.2-4.5-0.6-6.7C588.2,568.4,587.5,567.1,586.9,565.8z M407.9,328.9c1.7-6.5,3.2-12.1,5-18.9
			C407.5,315.3,405.5,322.9,407.9,328.9z M537.4,169.2c-4.9,4.5-6.3,9.6-7.1,15.6C533.6,183,536.5,176.3,537.4,169.2z M429,525.1
			c-0.7,0.2-1.3,0.4-2,0.6c0,2.5-0.2,5,0.1,7.4c0.1,1.2,0.9,2.3,1.4,3.4c1.1-0.9,3.2-2,3.1-2.7C431.1,530.8,429.9,528,429,525.1z
			 M398,235.7c2.9,3.3,6,2,8.7,1.6c1.1-0.2,1.9-1.8,2.8-2.7c-1.4-0.6-2.9-1.9-4.1-1.7C403.2,233.3,401,234.5,398,235.7z
			 M434.7,553.4c-0.1,0.7-0.2,1.3-0.3,2c1.5,0.6,3.3,2.2,4.3,1.7c2.3-1,6-1,5.6-6.3C440.8,551.8,437.7,552.6,434.7,553.4z
			 M400.1,484.5c-3.5,3.5-5.6,10.1-4.2,12.9C399.3,495.1,401.7,487.8,400.1,484.5z M387.7,362.8c-1.6,5.2-0.3,9.7,2.8,14.6
			c1.4-1.8,2.5-3.1,4.3-5.3C386.4,372.4,390.5,365.7,387.7,362.8z M403.6,282.4c2.9-2.3,3-4.8,1.3-7c-1.9-2.4-4.4-1.7-8.4,0.8
			c1.9,1,3.3,1.5,4.3,2.4C401.8,279.5,402.4,280.9,403.6,282.4z M573.5,530.2c-5.3,5.5-5.1,7.4,1.1,12.4
			C574.2,538.2,573.9,534.7,573.5,530.2z M389.4,413.4c0.1-0.4,0.2-0.8,0.4-1.2c-2.7-1.7-5.4-3.4-8.5-5.4c-0.8,1.2-1.5,2.5-2.3,3.7
			c1.3,0.8,2.5,1.9,3.9,2.3C384.9,413.4,387.2,413.3,389.4,413.4z M198.4,455.9c0.6,0.2,1.3,0.5,1.9,0.7c2.9-6.1,5.8-12.2,8.7-18.3
			c-0.5-0.2-0.9-0.4-1.4-0.6C204.6,443.8,201.5,449.9,198.4,455.9z M504.9,689.1c4.6,0,9.2,0,14.3,0
			C514,685,509.8,684.9,504.9,689.1z M581.8,574.2c0-4.1,0-6.8,0-10.5c-2.5,1.9-4.4,3.4-6.7,5.2
			C576.9,570.3,578.8,571.8,581.8,574.2z M590.1,635.8c0.1,0.6,0.2,1.2,0.2,1.8c1.9,1.2,3.6,4.1,6.1,1.1c0.9-1.1,0.8-3.2,1.1-4.8
			C595,634.5,592.5,635.1,590.1,635.8z M325.7,246.7c0.6,0,1.2,0,1.9,0.1c0.1-2.8,0.4-5.6,0.2-8.4c-0.1-0.8-1.6-1.5-2.4-2.2
			c-0.5,0.9-1.6,1.8-1.5,2.6C324.2,241.4,325,244,325.7,246.7z M529.3,126.1c0.1-0.8,0.3-1.5,0.4-2.3c-2.7-0.6-5.4-1.3-8.2-1.7
			c-0.5-0.1-1.6,1.3-1.7,2c0,0.6,1,1.9,1.6,1.9C524.1,126.3,526.7,126.1,529.3,126.1z M317.5,347.5c0.7,0.2,1.4,0.4,2.1,0.6
			c0.9-2.2,2.2-4.3,2.6-6.6c0.1-0.9-1.9-2.1-2.9-3.2c-0.4,0.2-0.9,0.4-1.3,0.6C317.8,341.8,317.6,344.7,317.5,347.5z M719.8,537.1
			c0.6,0.1,1.1,0.2,1.7,0.3c1.4-3.6,5.1-6.7,2.6-11.3c-0.5-0.1-1-0.2-1.5-0.4C721.6,529.6,720.7,533.4,719.8,537.1z M88.7,604.3
			c-0.5-0.5-0.9-1-1.4-1.5c-1.8,1.3-3.9,2.3-5.4,4c-0.3,0.3,1.6,2.7,3.1,5C86.7,608.4,87.7,606.3,88.7,604.3z M140.3,93.6
			c-4.6,3.8-5.1,6.9-2.2,12C138.9,101,139.6,97.3,140.3,93.6z M309.5,257.9c1.3,1.6,2.2,2.9,3.2,4c0.8,0.8,1.9,1.3,2.8,1.9
			c0.4-1.3,1.3-2.7,0.9-3.8C315.6,256.8,313.2,256.2,309.5,257.9z M395.8,275.7c-0.5,0.1-1,0.2-1.5,0.2c0.2,2.5,0.2,5,0.7,7.4
			c0.1,0.6,1.8,0.8,2.8,1.2c0.3-0.9,1.2-2.1,0.9-2.8C398,279.6,396.8,277.7,395.8,275.7z M208.8,75c6.4,2.8,9.4,2.1,12.5-2.2
			C216.9,73.6,212.8,74.3,208.8,75z M158.8,153.8c-1,6.9,0.4,8.3,7.4,8.2C163.6,159,161.5,156.8,158.8,153.8z M173.4,94.6
			c-0.2,0.5-0.5,0.9-0.7,1.4c2.1,1.5,4.2,3,6.3,4.5c0.4-0.3,0.7-0.5,1.1-0.8c-0.5-2.3-1.1-4.6-1.7-7.2
			C176.2,93.4,174.8,94,173.4,94.6z M558.4,574.3c0.2,0.4,0.4,0.7,0.6,1.1c13.7-3.9,13.7-3.9,12.8-6.9
			C567.3,570.5,562.9,572.4,558.4,574.3z M275,77.4c-0.3,0.4-0.7,0.8-1,1.1c1.3,1.3,2.4,3.2,4,3.8c1.1,0.4,2.9-0.8,4.3-1.3
			c-0.9-0.9-1.7-2.1-2.8-2.6C278.1,77.7,276.5,77.7,275,77.4z M402.2,366.7c0.4,0.1,0.9,0.2,1.3,0.3c0.7-1.7,1.8-3.4,1.9-5.2
			c0.1-2.4-0.6-4.8-1-7.2c-0.2-1.3-0.4-2.7-0.6-4c-0.3,0.1-0.6,0.1-0.9,0.2C402.7,356.1,402.5,361.4,402.2,366.7z M418.7,539.5
			c-0.7,0.6-1.4,1.1-2,1.7c0.8,1.7,1.7,3.3,2.5,5c1.5-1.1,2.9-2.2,4.4-3.3C421.9,541.7,420.3,540.6,418.7,539.5z M393.2,58.6
			c0.7,0.3,1.4,0.6,2.1,0.9c1.9-4.5,3.8-9.1,5.7-13.6c-0.5-0.2-1-0.4-1.5-0.7C397.4,49.7,395.3,54.2,393.2,58.6z M142,151.1
			c0.3-0.3,0.6-0.5,0.9-0.8c-1.7-7-2.9-8.3-8.1-7.6C137.5,145.9,139.7,148.5,142,151.1z M475.6,421.5c1.3,3.4,2.4,6.3,3.9,10.2
			C482.2,425.4,481.1,422.9,475.6,421.5z M409.9,289.1c0,3.5,0,7,0,11.2C413.2,296.1,413.3,292.2,409.9,289.1z M499.9,104.1
			c-7.4,2.2-9,4.4-6.3,8.6C495.6,110,497.4,107.5,499.9,104.1z M94.8,647.6c-4.3-0.5-7.4-0.9-11.5-1.3
			C86.7,651,89.4,651.3,94.8,647.6z M309.5,562.8c0.7,0,1.4,0.1,2.2,0.1c-0.2-3.6-0.4-7.2-0.5-10.8c-0.5,0-1.1,0-1.6,0
			C309.5,555.6,309.5,559.2,309.5,562.8z M317.6,26.4c0.1,0.6,0.2,1.2,0.3,1.8c4.4-0.8,8.8-1.6,13.2-2.4c-0.1-0.5-0.2-1.1-0.3-1.6
			C326.4,25,322,25.7,317.6,26.4z M323.5,349.9c-0.6-0.2-1.2-0.3-1.8-0.5c-2.1,2.7-4.6,5.4-1.7,10.7
			C321.5,356,322.5,352.9,323.5,349.9z M547.1,695.1c-4.4,0-7.4-5-12.3-3C538.1,696.1,542.9,694.4,547.1,695.1z M416.5,582.5
			c0.2,0.5,0.4,0.9,0.5,1.4c3.3-1.5,6.7-3,10-4.4c-0.3-0.7-0.7-1.4-1-2.2C422.9,579,419.7,580.8,416.5,582.5z M482.6,211.3
			c-5,1.7-5.3,5-1.1,9.2C481.9,217.4,482.2,214.5,482.6,211.3z M242.2,206.8c-0.6,6.5,0.5,8.1,6.4,9.3
			C246.4,213,244.6,210.4,242.2,206.8z M395.1,388.5c0.4-0.1,0.8-0.1,1.2-0.2c-0.2-3-0.5-6-0.8-9.9
			C391.8,382.2,391.9,383.2,395.1,388.5z M94.9,652.8c4.9,1.7,9.7,0.1,11.4-3.4C102.2,650.6,98.5,651.7,94.9,652.8z M553.6,692.1
			c-3.9-6.6-4.8-6.9-7.6-2.8C548.6,690.3,551.1,691.2,553.6,692.1z M423.9,564.1c2.7-0.7,5.4-1.4,8.8-2.2
			C428.6,558.7,427.2,559,423.9,564.1z M522.8,675.3c0.1-0.5,0.1-1,0.2-1.5c-3.6-3-7.3-0.2-11-0.3c0,0.4,0,0.8-0.1,1.3
			C515.5,674.9,519.1,675.1,522.8,675.3z M327.1,285.9c0.4-0.3,0.9-0.7,1.3-1c-0.3-2.1-0.7-4.2-1-6.3c-0.4-0.1-0.9-0.2-1.3-0.3
			c-0.7,1.2-2.2,2.6-1.9,3.6C324.5,283.4,326,284.6,327.1,285.9z M312.7,392.9c2.3-4.6,0.9-6.6-4.9-6.9
			C309.7,388.6,311.1,390.6,312.7,392.9z M307.3,572.3c0.5,0.7,0.9,1.4,1.4,2.1c1.5-1.1,3-2.1,4.3-3.4c0.2-0.2-0.8-1.7-1.3-2.6
			C310.2,569.7,308.7,571,307.3,572.3z M455.8,344.7c2.1,0.3,4.2,0.5,7,0.8c-0.5-1.6-0.9-2.7-1.2-3.8c-2.3,0.9-4.8,1.6-7,2.7
			c-0.7,0.3-0.8,1.8-1.2,2.8c0.3,0.1,0.7,0.3,1,0.4C454.9,346.8,455.3,345.8,455.8,344.7z M272.3,44.9c0.3,0.4,0.6,0.8,0.9,1.2
			c2.1-1.6,4.3-3.2,6.3-4.9c0.3-0.3,0.2-1.7-0.1-1.8c-0.7-0.3-1.8-0.4-2.2,0C275.5,41,273.9,43,272.3,44.9z M504.4,235.4
			c0.3,0.1,0.7,0.2,1,0.3c1.7-4.9,3.3-9.8,5-14.7c-0.5-0.1-0.9-0.3-1.4-0.4C507.5,225.5,505.9,230.5,504.4,235.4z M489.1,235.7
			c0.5,0.1,1,0.3,1.5,0.4c1.1-4.8,2.1-9.7,3.2-14.5c-0.3-0.1-0.6-0.1-0.9-0.2C491.6,226.1,490.4,230.9,489.1,235.7z M667.5,613.4
			c0.6-0.4,1.2-0.8,1.8-1.2c-1.4-2.2-2.9-4.4-4.3-6.5c-0.6,0.4-1.1,0.7-1.7,1.1C664.7,609,666.1,611.2,667.5,613.4z M575.1,585.8
			c0.2,0.2,0.3,0.5,0.5,0.7c2.1-0.6,4.1-1.2,6.7-2c-1-1.5-1.7-2.6-2.8-4.1C577.8,582.5,576.4,584.2,575.1,585.8z M300,557.3
			c0.6,0.3,1.1,0.7,1.7,1c4-1.2,1.6-5.2,1.8-8.1C302.3,552.6,301.2,555,300,557.3z M141.8,179.2c-2.6-3.4-5.3-6.9-8-10.5
			C134.5,174.2,138.3,178.9,141.8,179.2z M196.2,595.2c-0.1,0.5-0.2,1-0.3,1.5c4.6,0.7,9.2,1.5,13.9,2.2c0.1-0.3,0.1-0.6,0.2-0.9
			C205.4,597,200.8,596.1,196.2,595.2z M531.7,148.4c-0.4-0.3-0.8-0.6-1.2-0.9c-1.8,0.7-3.6,1.4-5.3,2c0,0.4-0.1,0.9-0.1,1.3
			c1.4,0.6,3.3,2.1,4.1,1.7C530.5,151.9,530.9,149.9,531.7,148.4z M416.8,55.1c-0.7-0.1-1.4-0.3-2.1-0.4c-0.5,1.7-1,3.5-1.3,5.3
			c0,0.2,1.8,0.7,2.8,1C416.4,59,416.6,57,416.8,55.1z M587.3,696.2c-0.1,0.5-0.2,1.1-0.2,1.6c2.9,2.2,6.1,0.7,9.3,0.2
			C593.4,697.4,590.3,696.8,587.3,696.2z M511.9,422.2c0.5-0.4,1-0.7,1.5-1.1c-1.6-2.4-3.1-4.8-4.7-7.2c-0.5,0.3-1,0.7-1.6,1
			C508.8,417.4,510.3,419.8,511.9,422.2z M309.5,229.5c-0.1,0.6-0.2,1.3-0.3,1.9c2.4,0.2,4.7,0.4,7.9,0.7
			C314.6,226.9,311.7,230.5,309.5,229.5z M510.3,122.7c2.4,1.1,3.6,2.1,4.8,2c0.7,0,1.3-1.7,1.9-2.7c-0.8-0.5-1.7-1.4-2.5-1.4
			C513.4,120.8,512.4,121.6,510.3,122.7z M298,265c-2.6,4.9-1.8,6.1,3.6,6C300.5,269.1,299.4,267.3,298,265z M590.5,599.4
			c-0.5,0.1-0.9,0.1-1.4,0.2c0.2,3.3,0.4,6.5,0.5,9.8c0.6-0.1,1.3-0.1,1.9-0.2C591.2,606,590.9,602.7,590.5,599.4z M466.8,318.5
			c-0.4-0.2-0.8-0.5-1.2-0.7c-1.4,2.6-5,4.4-2.4,9.6C464.6,323.8,465.7,321.1,466.8,318.5z M267.7,96.5c0.1-0.5,0.2-1,0.3-1.5
			c-3.4-0.6-6.8-1.3-10.2-1.9c-0.1,0.6-0.2,1.1-0.3,1.7C260.9,95.4,264.3,95.9,267.7,96.5z M298.5,535.3c0.7,0.4,1.3,0.8,2,1.1
			c0.8-1.5,1.7-3.1,2.4-4.7c0.1-0.2-1.2-0.9-1.8-1.3C300.2,532,299.4,533.7,298.5,535.3z M528.7,503.4c1.6,1.1,2.7,2,3.9,2.7
			c1.1,0.6,2.3,1.1,3.5,1.6C533.9,505.9,533.8,500.7,528.7,503.4z M461,305.4c0.3,0.3,0.6,0.5,0.9,0.8c4.8-2.4,4.8-2.4,3.8-6.5
			C463.9,301.9,462.5,303.7,461,305.4z M163.2,631.7c-0.3,0.4-0.7,0.8-1,1.2c2.2,1.9,4.3,3.9,6.5,5.8c0.4-0.4,0.8-0.8,1.1-1.3
			C167.6,635.5,165.4,633.6,163.2,631.7z M324.1,288.3c-0.6,0.4-1.2,0.8-1.8,1.2c1.5,1.9,3,3.8,4.6,5.7c0.5-0.4,1-0.7,1.5-1.1
			C326.9,292.1,325.5,290.2,324.1,288.3z M397.2,686.1c-0.1-0.4-0.2-0.8-0.2-1.2c-2.8,0.3-5.6,0.5-8.4,0.8c0.1,0.5,0.1,1.1,0.2,1.6
			C391.6,686.9,394.4,686.5,397.2,686.1z M392.3,393.4c-0.7,0.1-1.3,0.1-2,0.2c0.2,2.3,0.3,4.6,0.5,7c0.5,0,1-0.1,1.5-0.1
			C392.3,398,392.3,395.7,392.3,393.4z M504.5,102.8c-1.3,2.2-2.4,4.1-3.9,6.4C505.4,108.7,506.2,107.3,504.5,102.8z"/>
		<path d="M65.5,682c7,1.7,13.2,3.2,19.2,4.9c0.9,0.3,1.3,2.1,1.9,3.3c-1.2,0.4-2.5,1.3-3.6,1.2c-5.5-0.8-11-1.7-16.4-3.1
			c-1.3-0.3-2.4-2.5-3.1-4.1C63.3,683.7,65.1,682.4,65.5,682z"/>
		<path d="M73.8,696.4c-0.5,1.3-1.2,2.3-1.3,3.4c-0.1,1.8,0.1,3.6,0.3,5.5c0.1,1.4,0.9,3.7,0.4,3.9c-1.5,0.8-3.9,1.7-4.9,1
			c-1.7-1.1-3.9-3.6-3.6-5.2c0.6-3.5,2.4-6.9,4.1-10.1c0.4-0.8,2.5-0.9,3.9-0.9C73.1,694,73.5,695.6,73.8,696.4z"/>
		<path d="M352.7,698.3c-12.7,2.9-25.4,0.7-38.1-0.3c0-0.5,0-0.9,0-1.4C327.3,697.2,340,697.8,352.7,698.3z"/>
		<path d="M599.5,837.5c-5.9,0.3-11.8,0.7-17.7,1c0-0.2,0-0.4,0-0.6c5.9-0.4,11.8-0.8,17.7-1.2C599.5,837,599.5,837.3,599.5,837.5z"
			/>
		<path d="M456.1,845.1c-6.1,0.3-12.3,0.7-18.4,1c0-0.2,0-0.3,0-0.5c3-0.2,6.1-0.6,9.1-0.7c3.1-0.1,6.2,0,9.3,0
			C456.1,845,456.1,845,456.1,845.1z"/>
		<path d="M239.9,445.5c-1.2,1.4-2.5,2.7-3.6,4.2c-1.4,1.9-3.4,2.9-5,1c-0.9-1-0.8-3.5-0.2-5c2.7-6.6,6.1-13,8.6-19.7
			c1.6-4.4,1.9-9.2,2.9-13.8c0.2-0.8,0.3-1.9,0.9-2.2c7.7-5.2,9.4-13.9,12.6-21.7c0.5-1.2-0.8-3.7-1.9-5c-2.1-2.4-3.3-3.8-1.1-7.3
			c5.4-8.6,10-17.8,15.1-26.8c4.2,1.4,5.4-0.8,6-4.4c0.3-1.8,1.2-3.5,2.2-5c0.4-0.5,2.2-0.5,3-0.1c0.6,0.3,1.2,2.2,0.9,2.5
			c-6.4,6.9-3,15.5-4.2,23.3c-1.1,7.4-1.2,15-2,22.4c-0.3,3.2-1.7,6.3-1.9,9.5c-0.3,6-0.1,12-0.5,18.2c-0.7-2.8-1.4-5.7-2.2-8.5
			c-0.2,0-0.4,0-0.6,0c-0.9,12.8-1.5,25.6-2.7,38.4c-1.3,13.4-2.8,26.9-5.1,40.2c-1,5.7-4,11-6.1,16.5c-0.5,1.3-0.9,2.8-1.1,4.2
			c-1.1,8.2-2.5,16.5-3,24.8c-0.3,4.5,0.4,9.2,1.4,13.7c1.2,5.6-0.7,11.3-5.6,14.5c-1.7,1.1-2.9,3.1-4.7,4.2c-3,1.9-6.2,3.5-9.4,5.1
			c-3.1,1.5-6.2,3.2-9.4,4.3c-2.9,1-6.4,0.6-9.2,1.8c-8.7,3.8-14-0.9-19.4-6.6c-3.8-4-3.2-4.9,0-9c4-5.1,6.9-11.1,9.4-17.1
			c0.7-1.8-1.1-5.4-2.7-7.3c-2.5-2.9-2.7-6.2,0.7-8.3c5-3.1,10.1-6.2,15.1-9.3c0.8-0.5,1.4-1.2,2.7-2.4c-3.1-1.1-5.6-1.7-7.9-2.7
			c-4.3-1.7-4.9-4.1-1.9-7.6c2.8-3.3,6.2-6.1,8.4-9.7c1.8-3,2.2-6.9,3.5-10.2c1.2-2.9,0.6-6.9,5-8.2c0.7-0.2,1.5-4.4,0.7-5.1
			c-4-3.5-1.2-5.7,1.2-7.6c5.3-4.3,9-9.6,11.6-15.8c0.2-0.5,0.3-1,0.4-1.6C240.4,445.8,240.2,445.6,239.9,445.5z M235.4,473
			c-0.5-0.1-0.9-0.2-1.4-0.3c-1.5,2.9-3.9,5.7-4.4,8.8c-1.2,6.1-5.1,13,3,17.9c0.8,0.5,1.4,2.9,0.9,3.7c-0.5,0.9-2.5,1.4-3.7,1.1
			c-1.4-0.2-2.8-1.2-3.9-2.2c-3-2.7-6.3-2.1-7.2,1.8c-0.4,1.7,0.5,4.2,1.7,5.6c4.5,5.4,3.8,9.9-2.5,12.8c-2.2,1-4.5,1.9-6.7,3.1
			c-6.8,3.6-7.1,3.7-4.1,10.9c3.4,8,0.9,13.6-5.3,18.9c-3.6,3.1-3.8,5-0.6,8.5c2.8,3.1,5.9,4.6,10.3,3.6c3.6-0.8,7.4-0.8,11.1-1.2
			c-3-5.4-7.2-7.1-12-7.7c-1.2-0.2-2.3-1.6-3.4-2.5c1-0.8,1.9-2.3,2.9-2.4c5.6-0.8,9.6-3.8,12.4-8.6c2.5-4.2,5.3-8.2,7.7-12.5
			c1.8-3.2,4.1-6.4,4.7-9.9c0.9-5.8,0.6-11.8,0.8-17.7c0.2-3.9,0.5-7.8,0.8-11.7c0.5,0,1,0,1.5,0c0.2,1.4,0.4,2.8,0.5,4.2
			c0.1,5.5-0.3,11,0.2,16.4c0.9,9.3-1.7,17.2-7.5,24.4c-2.1,2.6-3.1,6.2-4.6,9.4c0.4,0.4,0.7,0.8,1.1,1.2c4-1.6,7.9-3.3,11.7-4.8
			c0-2.2-0.5-4.3,0.1-5.9c4.2-11.5,6.4-23.3,6.7-35.6c0.1-2.9,0.8-6.2-3.3-7.4c-0.7-0.2-1-1.9-1.4-3c-0.5-1.4-0.8-2.9-1.4-5
			c-0.8,1.3-1.2,1.9-1.6,2.5C242.3,483,235.1,478.8,235.4,473z M250.7,471.3c1.1-14.3,7.6-27.9,5.9-42.7
			C254.2,442.8,247.3,456.3,250.7,471.3z M238.7,549.7c-6.3,2.5-12,4.7-17.8,7c2.9,3.9,8.7,6.8,11.5,6
			C239,560.7,237.7,555,238.7,549.7z M242.2,441c7-9.4,8.6-17.9,4.5-21.7c-0.8,2.4-1.4,4.7-2.3,7.1c-1.2,3.3-2.9,6.5-3.8,10
			C240.2,437.5,241.4,439.1,242.2,441z M261.8,383.1c-0.6,2.4-0.9,3.7-1.1,5c-0.9,5.8,1.4,12.2-2.9,17.5c-0.3,0.3,0.3,1.4,0.5,2.1
			c0.7-0.5,2-0.9,2.1-1.5c1.1-6.6,2.1-13.2,3-19.9C263.5,385.7,262.7,385,261.8,383.1z M242.6,556.3c6-2.8,6.4-4.4,4.7-14.7
			C245.8,546.3,244.3,550.9,242.6,556.3z M269.1,359.3c-0.4-0.1-0.8-0.3-1.3-0.4c-1.5,3.9-3,7.7-4.7,12.3
			C270.6,368.9,268,363.3,269.1,359.3z M223.9,494.5c0.4-4.6,0.8-9.1,1.1-13.6C221,490.2,220.8,492.7,223.9,494.5z M255.8,486.9
			c0.4,0.2,0.8,0.4,1.1,0.6c1-3.8,2-7.5,3-11.3c-0.5-0.1-1-0.2-1.5-0.4C257.6,479.5,256.7,483.2,255.8,486.9z"/>
		<path d="M253.2,639.3c1.8,0.3,3.5,0.7,5.3,1c9.6,1.6,19.3,3.2,28.9,4.7c2,0.3,4.1-0.2,5.9,0.3c1.1,0.3,2.1,1.6,2.8,2.7
			c0.2,0.4-0.8,2.1-0.9,2c-1.1-0.2-2.2-0.8-3.3-1.3c-1.6-0.7-3.2-1.7-4.9-2c-5.6-1.2-11.2-2.4-16.9-3.3c-4.2-0.7-8.5-0.9-12.7-1.5
			c-1.5-0.2-3-1-4.5-1.5C252.9,640.1,253,639.7,253.2,639.3z"/>
		<path d="M489.7,610.2c-3.5,2.4-6.9,4.8-10.4,7.2c7.8,1.3,14-3.2,21-4.9c0.1,0.4,0.2,0.7,0.4,1.1c-6.7,2.6-13.4,5.4-20.2,7.7
			c-1.1,0.4-2.8-0.7-4.2-1.1c0.5-1.3,0.7-3.2,1.7-3.9c3.5-2.7,7.2-4.9,10.9-7.4C489.1,609.4,489.4,609.8,489.7,610.2z"/>
		<path d="M544.1,622c-0.6,0.9-1.1,2.4-1.9,2.7c-6.3,2.2-12.6,4.3-19,6.1c-4.2,1.2-8.5,1.9-12.9,2.1c11.3-3.6,22.6-7.2,33.9-10.8
			C544.3,622.1,544.1,622,544.1,622z"/>
		<path d="M484.6,633.3c-7.8,0.4-15.5,0.8-23.3,1.1c-0.4,0-0.8-1-1.7-2.1c8.7-2.6,16.8,1,24.9-0.1
			C484.5,632.5,484.5,632.9,484.6,633.3z"/>
		<path d="M370.8,161.4c5.3-0.8,9.6-0.9,13.5-2.1c8.9-2.7,17.7-5.8,26.4-9.1c2.1-0.8,3.7-3,5.4-4.8c2-2.1,1.3-4.1-1.8-4.6
			c-3.4-0.5-6.8-0.7-11.3-1.1c1.6-1,2.4-1.8,3-1.8c3.4,0.3,6.8,0.7,10.2,1.5c1.1,0.3,2.7,1.8,2.7,2.7c-0.1,1.9-0.6,4.3-1.9,5.4
			c-11.9,10.1-26.3,13.5-41.3,15.2c-0.9,0.1-1.7,0.1-2.6,0C372.8,162.8,372.5,162.4,370.8,161.4z"/>
		<path d="M481.2,128.7c-7.3,1.7-14.5,3.5-21.8,4.9c-2.3,0.4-5.6,1.4-6.2-2.8c6.2-0.5,12.1-1,18-1.5
			C474.5,129.1,477.9,128.9,481.2,128.7C481.2,128.7,481.2,128.7,481.2,128.7z"/>
		<path d="M394.3,300.1c-5,11.7-10,23.4-15.5,36c-1.4-4.5,8.7-29.2,14-36.6C393.3,299.8,393.8,299.9,394.3,300.1z"/>
	</g>
</g>
</svg>
