<svg enable-background="new 0 0 100 100" viewBox="0 0 100 100" xmlns="http://www.w3.org/2000/svg"><path d="m56.58 24.76c1.21.62 2.55.95 3.89.95 1.78 0 3.56-.55 5.03-1.66 1.56-1.18 2.64-2.79 3.09-4.57l3.18-9.94c.33-1.02.06-2.12-.7-2.88s-1.86-1.02-2.88-.69l-9.93 3.21c-.01 0-.03.01-.04.01-1.39.39-2.67 1.13-3.7 2.16-1.69 1.69-2.59 4.04-2.45 6.43.11 1.91.88 3.71 2.15 5.13l-3.26 4.53-3.83-3.86c.36-.69.58-1.45.63-2.24.09-1.56-.49-3.09-1.6-4.19-.67-.67-1.5-1.16-2.41-1.41h-.01l-5.7-1.84c-.81-.26-1.7-.05-2.3.55-.61.6-.82 1.49-.56 2.3l1.8 5.64c.31 1.22 1.01 2.26 2.03 3.03.96.72 2.12 1.08 3.28 1.08.97 0 1.93-.26 2.77-.75l4.59 4.62v6.88h-13.87c-.83 0-1.5.67-1.5 1.5s.67 1.5 1.5 1.5h1.71v3c-3.35.69-5.88 3.67-5.88 7.23v36.93c0 4.07 3.31 7.38 7.38 7.38h23.91c4.07 0 7.38-3.31 7.38-7.38v-36.93c0-3.6-2.59-6.61-6.01-7.25v-2.97h.88c.83 0 1.5-.67 1.5-1.5s-.67-1.5-1.5-1.5h-12.52v-7.02zm4.7 15.5v2.84h-2.39c-.83 0-1.5.67-1.5 1.5s.67 1.5 1.5 1.5h3.25c.11 0 .21-.01.32-.04.1.02.21.04.32.04h.13c2.42 0 4.38 1.97 4.38 4.38v36.93c0 2.42-1.97 4.38-4.38 4.38h-23.91c-2.42 0-4.38-1.97-4.38-4.38v-36.93c0-2.42 1.97-4.38 4.38-4.38h6.81c.83 0 1.5-.67 1.5-1.5s-.67-1.5-1.5-1.5h-5.31v-2.84h9.13v32.55c-.01.08-.01.15 0 .23v10.59c0 .83.67 1.5 1.5 1.5s1.5-.67 1.5-1.5v-7.06l3.05 3.05c.29.29.68.44 1.06.44s.77-.15 1.06-.44c.59-.59.59-1.54 0-2.12l-5.17-5.17v-32.07zm-4.65-26.78c.64-.64 1.43-1.11 2.29-1.36.05-.01.1-.02.15-.04l9.74-3.15-3.11 9.73c-.31 1.2-1 2.24-2.02 3-1.92 1.45-4.69 1.41-6.58-.09-1.24-.98-1.97-2.39-2.06-3.95-.07-1.54.5-3.05 1.59-4.14zm-15.83 9.55c-.47-.35-.79-.83-.95-1.46l-1.4-4.38 4.43 1.43.12.03c.39.12.74.33 1.03.62.5.5.76 1.19.72 1.9-.04.72-.38 1.36-.95 1.81-.86.7-2.12.72-3 .05z"/><path d="m39.71 58.81c-.83 0-1.5.67-1.5 1.5v20.25c0 .83.67 1.5 1.5 1.5s1.5-.67 1.5-1.5v-20.25c0-.83-.67-1.5-1.5-1.5z"/></svg>
