<svg xmlns:dc="http://purl.org/dc/elements/1.1/" xmlns:cc="http://creativecommons.org/ns#" xmlns:rdf="http://www.w3.org/1999/02/22-rdf-syntax-ns#" xmlns:svg="http://www.w3.org/2000/svg" xmlns="http://www.w3.org/2000/svg" xmlns:sodipodi="http://sodipodi.sourceforge.net/DTD/sodipodi-0.dtd" xmlns:inkscape="http://www.inkscape.org/namespaces/inkscape" viewBox="0 0 100 100" version="1.1" x="0px" y="0px"><g transform="translate(0,-270.54165)"><path style="color:#000000;font-style:normal;font-variant:normal;font-weight:normal;font-stretch:normal;font-size:medium;line-height:normal;font-family:sans-serif;font-variant-ligatures:normal;font-variant-position:normal;font-variant-caps:normal;font-variant-numeric:normal;font-variant-alternates:normal;font-feature-settings:normal;text-indent:0;text-align:start;text-decoration:none;text-decoration-line:none;text-decoration-style:solid;text-decoration-color:#000000;letter-spacing:normal;word-spacing:normal;text-transform:none;writing-mode:lr-tb;direction:ltr;text-orientation:mixed;dominant-baseline:auto;baseline-shift:baseline;text-anchor:start;white-space:normal;shape-padding:0;clip-rule:nonzero;display:inline;overflow:visible;visibility:visible;opacity:1;isolation:auto;mix-blend-mode:normal;color-interpolation:sRGB;color-interpolation-filters:linearRGB;solid-color:#000000;solid-opacity:1;vector-effect:none;fill:#000000;fill-opacity:1;fill-rule:nonzero;stroke:none;stroke-width:1.05833328;stroke-linecap:round;stroke-linejoin:round;stroke-miterlimit:4;stroke-dasharray:none;stroke-dashoffset:0;stroke-opacity:1;paint-order:stroke fill markers;color-rendering:auto;image-rendering:auto;shape-rendering:auto;text-rendering:auto;enable-background:accumulate" d="m 13.687907,272.65832 c -5.1517706,0 -9.4897548,3.51427 -10.7440467,8.27804 L 2.6508549,280.42787 A 0.5292196,0.5292196 0 0 0 2.16613,280.15605 0.5292196,0.5292196 0 0 0 1.7325647,280.95703 l 0.9358602,1.61903 a 0.5292196,0.5292196 0 0 0 0.7224365,0.19327 l 1.6210896,-0.93535 a 0.5292196,0.5292196 0 1 0 -0.5291666,-0.91622 l -0.519348,0.30024 c 1.1285696,-4.31641 5.0482364,-7.50135 9.7244706,-7.50135 0.883593,0 1.73907,0.11257 2.554366,0.32608 a 0.5292196,0.5292196 0 1 0 0.269751,-1.0232 c -0.901798,-0.23617 -1.849611,-0.36121 -2.824117,-0.36121 z"/><path style="color:#000000;font-style:normal;font-variant:normal;font-weight:normal;font-stretch:normal;font-size:medium;line-height:normal;font-family:sans-serif;font-variant-ligatures:normal;font-variant-position:normal;font-variant-caps:normal;font-variant-numeric:normal;font-variant-alternates:normal;font-feature-settings:normal;text-indent:0;text-align:start;text-decoration:none;text-decoration-line:none;text-decoration-style:solid;text-decoration-color:#000000;letter-spacing:normal;word-spacing:normal;text-transform:none;writing-mode:lr-tb;direction:ltr;text-orientation:mixed;dominant-baseline:auto;baseline-shift:baseline;text-anchor:start;white-space:normal;shape-padding:0;clip-rule:nonzero;display:inline;overflow:visible;visibility:visible;opacity:1;isolation:auto;mix-blend-mode:normal;color-interpolation:sRGB;color-interpolation-filters:linearRGB;solid-color:#000000;solid-opacity:1;vector-effect:none;fill:#000000;fill-opacity:1;fill-rule:nonzero;stroke:none;stroke-width:1.05833328;stroke-linecap:round;stroke-linejoin:round;stroke-miterlimit:4;stroke-dasharray:none;stroke-dashoffset:0;stroke-opacity:1;paint-order:stroke fill markers;color-rendering:auto;image-rendering:auto;shape-rendering:auto;text-rendering:auto;enable-background:accumulate" d="m 20.236345,274.82046 a 0.5292196,0.5292196 0 0 0 -0.529167,0.52917 v 1.8712 a 0.52942503,0.52942503 0 0 0 1.05885,0 v -0.57516 c 3.169603,3.13616 3.967744,8.12128 1.630908,12.16877 -0.441796,0.76522 -0.968066,1.44965 -1.560628,2.04897 a 0.5292196,0.5292196 0 1 0 0.751892,0.74414 c 0.65543,-0.6629 1.23719,-1.42 1.724443,-2.26395 2.581078,-4.47052 1.697944,-9.99787 -1.817977,-13.46481 h 0.612882 a 0.52929998,0.52929998 0 0 0 0,-1.05833 z"/><path style="color:#000000;font-style:normal;font-variant:normal;font-weight:normal;font-stretch:normal;font-size:medium;line-height:normal;font-family:sans-serif;font-variant-ligatures:normal;font-variant-position:normal;font-variant-caps:normal;font-variant-numeric:normal;font-variant-alternates:normal;font-feature-settings:normal;text-indent:0;text-align:start;text-decoration:none;text-decoration-line:none;text-decoration-style:solid;text-decoration-color:#000000;letter-spacing:normal;word-spacing:normal;text-transform:none;writing-mode:lr-tb;direction:ltr;text-orientation:mixed;dominant-baseline:auto;baseline-shift:baseline;text-anchor:start;white-space:normal;shape-padding:0;clip-rule:nonzero;display:inline;overflow:visible;visibility:visible;opacity:1;isolation:auto;mix-blend-mode:normal;color-interpolation:sRGB;color-interpolation-filters:linearRGB;solid-color:#000000;solid-opacity:1;vector-effect:none;fill:#000000;fill-opacity:1;fill-rule:nonzero;stroke:none;stroke-width:1.05833328;stroke-linecap:round;stroke-linejoin:round;stroke-miterlimit:4;stroke-dasharray:none;stroke-dashoffset:0;stroke-opacity:1;paint-order:stroke fill markers;color-rendering:auto;image-rendering:auto;shape-rendering:auto;text-rendering:auto;enable-background:accumulate" d="m 3.4709598,286.03321 a 0.5292196,0.5292196 0 0 0 -0.5177978,0.67748 c 0.2463728,0.89907 0.6108713,1.78121 1.0981243,2.62516 2.5796004,4.46804 7.8028077,6.46736 12.5609897,5.16041 l -0.293522,0.50746 a 0.5292196,0.5292196 0 1 0 0.915707,0.52969 l 0.93586,-1.62109 a 0.5292196,0.5292196 0 0 0 -0.19327,-0.72296 l -1.62109,-0.93534 a 0.5292196,0.5292196 0 0 0 -0.302824,-0.0744 0.5292196,0.5292196 0 0 0 -0.226859,0.99012 l 0.522966,0.30179 c -4.308565,1.19312 -9.0401165,-0.60811 -11.3822515,-4.66484 -0.441797,-0.76521 -0.7715144,-1.56428 -0.9942544,-2.37711 a 0.5292196,0.5292196 0 0 0 -0.5017783,-0.39636 z"/><path style="color:#000000;font-style:normal;font-variant:normal;font-weight:normal;font-stretch:normal;font-size:medium;line-height:normal;font-family:sans-serif;font-variant-ligatures:normal;font-variant-position:normal;font-variant-caps:normal;font-variant-numeric:normal;font-variant-alternates:normal;font-feature-settings:normal;text-indent:0;text-align:start;text-decoration:none;text-decoration-line:none;text-decoration-style:solid;text-decoration-color:#000000;letter-spacing:normal;word-spacing:normal;text-transform:none;writing-mode:lr-tb;direction:ltr;text-orientation:mixed;dominant-baseline:auto;baseline-shift:baseline;text-anchor:start;white-space:normal;shape-padding:0;clip-rule:nonzero;display:inline;overflow:visible;visibility:visible;opacity:1;isolation:auto;mix-blend-mode:normal;color-interpolation:sRGB;color-interpolation-filters:linearRGB;solid-color:#000000;solid-opacity:1;vector-effect:none;fill:#000000;fill-opacity:1;fill-rule:nonzero;stroke:none;stroke-width:1.05833328;stroke-linecap:butt;stroke-linejoin:round;stroke-miterlimit:4;stroke-dasharray:none;stroke-dashoffset:0;stroke-opacity:1;color-rendering:auto;image-rendering:auto;shape-rendering:auto;text-rendering:auto;enable-background:accumulate" d="m 18.282614,278.74025 c -0.107118,-0.0986 -0.25049,-0.14825 -0.395738,-0.13776 0,0 -2.693741,0.18244 -5.173074,1.38599 -1.239672,0.60178 -2.446475,1.46786 -3.2122999,2.73727 -0.7658165,1.26941 -1.0500649,2.93298 -0.5068174,4.9604 0.048952,0.1826 0.1915828,0.32523 0.3741776,0.37418 2.0274217,0.54325 3.6909987,0.259 4.9604047,-0.50682 1.269413,-0.76582 2.135492,-1.97262 2.737269,-3.21229 1.203547,-2.47934 1.385991,-5.17308 1.385991,-5.17308 0.01162,-0.16108 -0.05095,-0.31866 -0.169913,-0.42789 z m -0.985502,1.01766 c -0.09054,0.75412 -0.326858,2.3585 -1.18246,4.12106 -0.544599,1.12189 -1.304095,2.14819 -2.332032,2.76833 -0.834316,0.50334 -1.865498,0.74578 -3.18818,0.5631 l 2.312663,-2.31267 1.651276,3.7e-4 c 0.482932,0.007 0.721928,-0.58366 0.370157,-0.91462 -0.100421,-0.0948 -0.233577,-0.14702 -0.371622,-0.14506 H 13.96642 l 1.52704,-1.52704 c 0.214203,-0.20799 0.21402,-0.55189 -3.72e-4,-0.75968 -0.209481,-0.20383 -0.544725,-0.19872 -0.748348,0.011 l -2.83849,2.83849 3.68e-4,-0.59453 c 0.002,-0.1434 -0.05433,-0.28146 -0.156034,-0.38257 -0.336877,-0.3368 -0.912417,-0.0919 -0.903281,0.3844 l 3.66e-4,1.65128 -1.0026839,1.00268 c -0.183177,-1.3236 0.05916,-2.3553 0.5627309,-3.19001 0.620144,-1.02794 1.646448,-1.78743 2.768328,-2.33203 1.76256,-0.85561 3.366946,-1.09192 4.121068,-1.18246 z"/></g></svg>
