<svg xmlns="http://www.w3.org/2000/svg" xmlns:xlink="http://www.w3.org/1999/xlink" version="1.1" x="0px" y="0px" viewBox="0 0 100 100" enable-background="new 0 0 100 100" xml:space="preserve"><g><path d="M3.299,90.485c0.643,0,1.285-0.246,1.775-0.736L30.73,64.097v16.738c0,1.387,1.125,2.514,2.512,2.514   s2.512-1.127,2.512-2.514V58.034c0-1.387-1.125-2.512-2.512-2.512H10.439c-1.387,0-2.512,1.125-2.512,2.512   s1.125,2.514,2.512,2.514h16.734L1.521,86.196c-0.98,0.98-0.98,2.57,0,3.553C2.012,90.239,2.656,90.485,3.299,90.485z"/><path d="M89.881,1.399c-0.98-0.982-2.57-0.982-3.553,0l-25.65,25.648V10.311c0-1.387-1.127-2.512-2.514-2.512   s-2.512,1.125-2.512,2.512v22.801c0,1.387,1.125,2.512,2.512,2.512h22.799c1.387,0,2.514-1.125,2.514-2.512S82.35,30.6,80.963,30.6   H64.23l25.65-25.648C90.863,3.969,90.863,2.379,89.881,1.399z"/><path d="M89.881,86.196L64.23,60.548h16.732c1.387,0,2.514-1.127,2.514-2.514s-1.127-2.512-2.514-2.512H58.16   c-1.387,0-2.512,1.125-2.512,2.512v22.801c0,1.387,1.125,2.514,2.512,2.514c1.389,0,2.514-1.127,2.514-2.514V64.097l25.654,25.652   c0.49,0.49,1.135,0.736,1.777,0.736s1.285-0.246,1.775-0.736C90.863,88.767,90.863,87.177,89.881,86.196z"/><path d="M7.924,33.112c0,1.387,1.125,2.512,2.514,2.512h22.801c1.387,0,2.514-1.125,2.514-2.512V10.311   c0-1.387-1.127-2.512-2.514-2.512s-2.512,1.125-2.512,2.512v16.736L5.074,1.399c-0.98-0.982-2.57-0.982-3.553,0   c-0.98,0.98-0.98,2.57,0,3.553L27.174,30.6H10.438C9.049,30.6,7.924,31.725,7.924,33.112z"/></g></svg>
