<svg xmlns="http://www.w3.org/2000/svg" xmlns:xlink="http://www.w3.org/1999/xlink" version="1.1" x="0px" y="0px" viewBox="0 0 100 100" style="enable-background:new 0 0 100 100;" xml:space="preserve"><g><path d="M39.5,78.8H21.2c-2.6,0-5-1.4-6.3-3.6c-1.3-2.3-1.3-5,0-7.3l8.2-14.2l4.5,2.7c1.4,0.8,3-0.4,2.7-1.9l-2.5-10.5   c-0.2-1-1.2-1.5-2.1-1.3l-10.5,2.5c-1.5,0.4-1.9,2.4-0.5,3.2l4.1,2.5l-8.3,14.3c-2.3,3.9-2.3,8.6,0,12.6C12.7,81.7,17,84,21.5,84   h18c1.4,0,2.6-1.2,2.6-2.6v0C42.2,79.9,41,78.8,39.5,78.8z"/><path d="M89.6,65.2l-9.7-16.8c-0.9-1.5-2.9-1.8-4.1-0.5l0,0c-0.8,0.8-1,2.1-0.4,3.2l9.7,16.8c1.3,2.3,1.3,5,0,7.2   c-1.3,2.3-3.9,3.7-6.6,3.7H63.8l0-4.9c0-1.6-1.9-2.4-3-1.3l-7.6,7.6c-0.7,0.7-0.7,1.8,0,2.5l7.6,7.6c1.1,1.1,3,0.3,3-1.3l0-5.1h15   c4.5,0,8.6-2.3,10.8-6.3C91.9,73.8,91.9,69.1,89.6,65.2z"/><path d="M56.3,17.9l7.1,12.2l-4,1.9c-1.4,0.7-1.4,2.7,0.1,3.3L69.6,39c0.9,0.3,1.9-0.1,2.3-1.1l3.7-10.1c0.5-1.5-1-2.9-2.4-2.2   L68.1,28l-7.3-12.6c-2.3-3.9-6.3-6.3-10.8-6.3c-4.5,0-8.6,2.3-10.8,6.3l-8.3,14.4c-0.6,1-0.4,2.3,0.4,3.2v0   c1.2,1.2,3.3,0.9,4.1-0.5l8.3-14.3c1.3-2.3,3.7-3.6,6.3-3.6C52.6,14.3,55,15.7,56.3,17.9z"/></g></svg>
