<?xml version="1.0" encoding="utf-8"?>
<!-- Generator: Adobe Illustrator 25.0.1, SVG Export Plug-In . SVG Version: 6.00 Build 0)  -->
<svg version="1.1" xmlns="http://www.w3.org/2000/svg" xmlns:xlink="http://www.w3.org/1999/xlink" x="0px" y="0px"
	 viewBox="0 0 1103.6 217.6" style="enable-background:new 0 0 1103.6 217.6;" xml:space="preserve">
<style type="text/css">
	.st0{fill:#FCFAFA;stroke:#FCFCFC;}
	.st1{fill:#FCFCFC;}
	.st2{fill:#FCFAFA;}
</style>
<g id="Layer_1">
	<g>
		<path class="st0" d="M77.8,28.2c0.2,0.2,0.4,0.8,0.4,1.8v22.2c0,1.6-0.5,2.9-1.4,3.9c-0.9,1-2.2,1.5-3.8,1.5
			c-0.6,0-2.4-0.3-5.2-0.9c-4.2-0.8-6.5-1.2-6.8-1.2c-1.3,0-2.8,0.1-4.6,0.4c-1.8,0.2-3.3,0.4-4.6,0.6c-1.4,3.1-2.1,6.8-2.1,10.9
			c0,6.1,0.5,12.5,1.4,19.2c0.9,6.7,1.5,10.6,1.7,11.7c1.7,10.1,2.8,18.6,3.1,25.5c0.3,1.4,1.5,2.1,3.5,2.1c1.4,0,3.1-0.2,5.1-0.7
			c2-0.5,3.5-0.7,4.6-0.7c2.4,0,3.9,1.1,4.5,3.3c0.6,2.2,0.9,5,0.9,8.5c0,9.9-1,14.9-3.1,14.9h-5.2c-8,0-14.7-0.4-20.1-1.3
			c-5.4-0.9-10.6-2.8-15.8-5.8c-5.5-3.1-9.6-8.5-12.2-16.2c-2.6-7.6-3.9-15.3-3.9-23c0-2.2,0.2-5.5,0.5-9.9c0.3-4.4,0.5-7.7,0.5-9.9
			c0-4.1-0.2-8-0.7-11.8c-0.3-5-0.5-8.9-0.5-11.6l0.2-4c-0.8-0.2-1.5-0.7-2.1-1.8c-0.6-1-1.2-1.5-1.7-1.5c-3.6,2.7-6.5,4-8.5,4
			c-0.8,0-1.2-0.7-1.2-2.1c0-2.7,0.7-4.6,2.1-5.9c-1.6-0.5-2.4-3.2-2.4-8.3l0.2-11.1c1.4-0.9,2.9-1.5,4.5-1.8
			c1.6-0.2,3.5-0.4,5.9-0.4c1.1,0,2.3,0.2,3.7,0.5c1.3,0.3,2.4,0.5,3.2,0.5l-0.2-10.6c-0.3-4.7-0.5-8.3-0.5-10.6
			C17.3,5.9,17.8,4,19,3c1.2-1,3.9-1.5,8.1-1.5c1.9,0,3.8,0.2,5.7,0.7C35,2.5,36.8,2.6,38,2.6c0.3,0,1-0.4,2-1.1
			c1-0.7,1.8-1.1,2.5-1.1c4.6,0,7.4,0.7,8.5,2.2c1.1,1.5,1.7,4.1,1.7,7.9c0,1.1,0.2,2.8,0.5,5c0.5,1.9,0.7,3.9,0.7,6.1l-0.5,7.1
			l23.1-0.9C77.1,27.9,77.6,28,77.8,28.2z M6.4,49.9c0.2,0.2,0.5,0.4,1.2,0.4c1.4,0,4.5-2.1,9.2-6.4c4.7-4.2,7.2-6.8,7.3-7.8
			c-1.9,1.3-4.2,1.9-6.8,1.9V35H6.9c-0.2,0.3-0.4,1-0.6,2.1c-0.2,1.1-0.4,2.1-0.4,3.1c0,0.6,0.2,1.7,0.6,3.2C6.9,44.8,7.1,46,7.1,47
			c0,1.1-0.4,1.9-1.2,2.4C6.1,49.5,6.2,49.7,6.4,49.9z M19.3,53.6c0.4,0.9,0.7,1.6,0.8,1.9l11.3-4c1.3-1.7,4.2-3.2,8.7-4.5
			c2.7-0.8,4.9-1.6,6.6-2.5c1.7-0.9,3.1-2,4-3.4h-3.1l-23.6,6.1l-0.7-0.9c-0.5,1.4-1.3,2.1-2.4,2.1c-0.6,0-1.9-0.4-3.8-1.2l-7.1,5h8
			C18.5,52.2,18.9,52.7,19.3,53.6z M27.4,57.4c-2.7,0.3-4.6,0.9-5.8,1.8c-1.2,0.9-1.8,2.9-1.8,6c0,1.4,0.1,2.6,0.2,3.5
			c1.6-2.4,3.2-4.1,4.8-5.3c1.7-1.2,3.8-2.5,6.5-3.9c2.8-1.1,5.2-2.4,7.1-4h-2.8C33.8,56.4,31,57.1,27.4,57.4z M29.5,99.1
			c-2.7,0.6-4.6,1.5-5.8,2.6c-1.2,1.1-2.4,3.7-3.7,7.8c3.8-1.9,7.7-4.2,11.7-7.1c4-2.8,6.6-4.6,7.9-5.4v-1.2
			C36.4,97.4,33,98.5,29.5,99.1z M22.6,89.7c-1,1.4-1.5,3.2-1.5,5.4l0.2,1.9l16.3-9.2c-1.7,0-3.6,0.4-5.7,1.2
			c-0.5,0.2-1.3,0.4-2.4,0.7c-1.1,0.3-2.2,0.5-3.3,0.5l-2.1-0.2l1.2-0.9l17.2-6.1v-6.1c-2,0.2-4.9,1.5-8.5,4.1
			c-3.6,2.6-5.9,4.2-6.8,4.8C25.1,87,23.6,88.3,22.6,89.7z M29.5,68.1c-5.4,1.8-8.1,2.6-8.3,2.5v6.1h0.9c1.4,0,5-1.8,10.9-5.3
			c5.8-3.5,8.7-5.9,8.7-7l-0.2-0.7C38.9,64.9,34.9,66.3,29.5,68.1z M24.2,79c-1.3,0.9-2.3,1.8-2.9,2.7c0.8,0.2,1.2,0.9,1.2,2.4
			l-0.2,1.9l4-4.2c0,0.3,0.1,0.6,0.4,0.8c0.2,0.2,0.5,0.4,0.8,0.4c0.3,0,0.7-0.1,1.1-0.4c0.4-0.2,0.7-0.5,1.1-0.8
			c1.9-1.3,4.1-2.8,6.6-4.7c2.5-1.9,4.3-3.3,5.4-4.2l-13.2,5C26.9,77.7,25.6,78.1,24.2,79z M22.2,117.6l14.2-6.1V110
			c-1.7,0.3-4.5,1.1-8.4,2.4c-3.9,1.3-5.8,2-5.8,2.1V117.6z M23.2,26.9c0.2,0.2,0.4,0.4,0.6,0.8c0.2,0.4,0.4,0.7,0.4,1.1
			c1.7,0,3.9-0.5,6.5-1.4c2.6-0.9,4.3-2.1,5.1-3.5l-4-0.2C26,23.6,23.2,24.7,23.2,26.9z M23.4,10.6c0.3,0.5,0.5,0.9,0.7,1.4
			c0.2,0.5,0.4,0.9,0.7,1.2c0.3,0.3,0.8,0.5,1.4,0.5c1.6,0,3.8-0.6,6.6-1.9c2.5-1.4,4.8-2.1,6.8-2.1C40,9.5,40.8,9.2,42,8.5
			c1.3-0.6,2.1-1.3,2.6-1.9c-0.9,0.2-2.3,0.2-4,0.2c-2.8,0-5.6-0.2-8.3-0.7c-0.9,0-2.3-0.1-4-0.4c-1.7-0.2-3.4-0.4-5-0.4V10.6z
			 M23.9,125.9c0.3,1.2,1.1,1.8,2.4,1.8c0.8,0,3.9-1.9,9.3-5.7c5.4-3.8,8.5-6,9.1-6.6c-0.8,0-1.5,0.1-2.2,0.2
			c-0.7,0.2-1.3,0.2-1.8,0.2c-1.6,0-4.8,0.7-9.8,2c-5,1.3-7.4,2.6-7.4,3.7C23.4,123.3,23.5,124.8,23.9,125.9z M45.8,97l-1.2-0.9
			c-1.3,1.7-2.9,3.3-5,4.7c-2,1.4-4.1,2.8-6.1,4c-3.8,2.2-6.5,4.1-8.3,5.7c2,0,4.2-0.5,6.5-1.4c2.3-0.9,3.7-1.5,4.1-1.7
			c4.1-2,7.4-3.1,9.9-3.1V97z M26.5,66.8c0.8,0,2.1-0.3,4-0.8c1.9-0.5,3.2-1.1,4-1.5c0.2-0.8,0.6-1.4,1.4-1.8
			c0.8-0.4,1.7-0.7,2.6-1.1c1.7-0.6,3-1.3,3.9-2c0.9-0.7,1.3-1.8,1.3-3.4c-1.7,0-4.8,1.3-9.2,4c-4.4,2.7-7.3,4.7-8.7,6.1
			C25.8,66.7,26,66.8,26.5,66.8z M45.7,16.9c0.7-1.3,1.4-3.4,2-6.3c-2,0-3.9,0.5-5.7,1.4c-1.7,0.9-3.7,2.3-5.9,4
			c-1.9,1.6-3.6,2.8-5.1,3.7C29.6,20.6,28,21,26.2,21v1.7c2,0,5-0.6,8.7-1.9c3.5-1.3,6.1-1.9,8-1.9C44.1,18.9,45,18.2,45.7,16.9z
			 M38.3,31.7c-2.2,0.9-4.5,1.8-6.8,2.6c-2.4,0.8-4.1,1.4-5.2,1.9v4.5L44.6,30v-2.1C42.6,29.5,40.5,30.7,38.3,31.7z M48.4,35.5
			c-0.5-0.4-0.7-0.9-0.8-1.7c-0.1-0.7-0.6-1.1-1.5-1.1c-1.6,1.7-4.7,3.5-9.4,5.4c-5,2-8.5,4.1-10.4,6.1l9.4-2.1l0.7-1.2l1.2,1.2
			c1.3-1.1,3.7-2,7.3-2.6c2.5-0.6,4.3-1.2,5.3-1.7c1-0.5,1.5-1.1,1.5-1.9C50,36.1,48.9,35.9,48.4,35.5z M29.5,134.9
			c0.8,0.7,1.6,1.1,2.4,1.1c1.6,0,4.8-1.5,9.8-4.6c5-3.1,7.4-5.4,7.4-7h-1.4l-18.2,7.3c-0.8,0.3-1.2,0.6-1.2,0.9
			C28.3,133.4,28.7,134.2,29.5,134.9z M32.2,31.7c1.5-0.5,2.6-0.7,3.4-0.7l9.9-5c0-0.3,0.2-0.8,0.7-1.5c0.5-0.7,0.7-1.3,0.7-1.8
			c-1.6,0-5,1.3-10.1,3.9c-5.2,2.6-7.8,4.5-7.8,5.8C29.7,32.4,30.7,32.1,32.2,31.7z M44.9,91.1c0-2.2-0.5-3.3-1.4-3.3l-13.9,7.3
			c1.6,0,3.6-0.5,6.1-1.7c0.5-0.2,1.3-0.5,2.6-0.9c1.3-0.5,2.5-0.7,3.8-0.7c1.6,0,2.4,0.5,2.6,1.4L44.9,91.1z M42.9,135.5
			c-6.1,2.5-9.6,4.3-10.5,5.4h15.3c5.3-5.3,8-8.1,8-8.3v-0.9h-1.9C52.6,131.7,48.9,133,42.9,135.5z M40.4,121c-2.7,2-5,4.2-6.8,6.7
			c1.6-0.5,3.4-1.3,5.4-2.6c2-1.3,5.3-3.5,9.9-6.8c0-0.6-0.1-1.2-0.2-1.7C45.8,117.6,43.1,119,40.4,121z M46.8,109.3l-8.5,3.8
			l1.4,0.5c4.7-0.6,7.1-1.3,7.1-2.1V109.3z M72,39.2c-5,1.1-10.4,2.8-16,5.2c-5.7,2.4-9.1,4.7-10.4,7.1l2.1-0.2
			c1.1,0,2.1,0.3,3.1,0.9c2,0,5.3-0.3,9.7-0.9c4.7-0.6,8.3-0.9,10.6-0.9L72,39.2z M49.6,142.8h1.2c1.3,0,3.3-0.7,6.1-2
			c2.8-1.3,5.4-2.9,7.7-4.8c2.3-1.9,3.4-3.6,3.4-5.2L49.6,142.8z M58.2,34.4c-3.1,0.9-4.6,1.6-4.6,2.2c0,0.2,0.3,0.6,0.9,1.3
			c0.6,0.7,1.1,1.3,1.4,1.8l-2.1,3.5l17-9.2c-0.6-0.6-2-0.9-4-0.9C64.1,33.1,61.3,33.5,58.2,34.4z M65.2,144.8
			c1.3-0.7,1.9-2.7,1.9-6l-13.2,6.1c0.5,0.2,1.1,0.4,1.9,0.6c0.8,0.2,1.5,0.4,2.1,0.4C61.5,145.9,63.9,145.5,65.2,144.8z"/>
		<path class="st0" d="M312,115.8c0.3,3.9,0.5,6.7,0.7,8.6c1.1,8.8,1.7,16.4,1.7,22.9c0,3.3-0.7,5-2.1,5c-2.4,0-5.6-0.2-9.7-0.5
			c-4.4-0.3-7.7-0.5-9.9-0.5c-1.1,0-2.8,0.2-5.2,0.5c-2.4,0.3-4.2,0.5-5.7,0.5c-0.5,0-0.9-0.1-1.4-0.4c-0.5-0.2-0.7-0.4-0.7-0.6
			v-41.8c-0.9-1.7-1.5-4.1-1.7-7.2c-0.2-3.1-0.3-5.1-0.5-6c-1.3-5.7-2.7-10.7-4.4-15.2c-1.7-4.5-3.9-8.9-6.7-13.3
			c-2.5-3.9-8.6-5.9-18.2-5.9c-2.7,0-4.6,1.4-5.7,4.1c-1.1,2.8-1.7,5.8-1.7,9.1c0,0.8,0.5,1.3,1.4,1.5c0.9,0.2,1.6,0.5,1.9,0.8
			c0,0.3-0.3,0.9-0.9,1.7c-0.6,0.8-1.1,1.5-1.4,2.1c0,1.3,0.2,2.6,0.5,3.9c0.3,1.3,0.5,2.6,0.7,3.7c0.6,3.1,0.9,5,0.9,5.7v4
			c0.2,2.8,0.4,6.7,0.6,11.7c0.2,5,0.4,8.9,0.4,11.7v1.7c0,8-0.2,14.5-0.7,19.4c-0.5,4.9-1.6,7.3-3.3,7.3l-7.6-0.2
			c-3.5-0.3-6.1-0.5-7.8-0.5c-3.5,0-7.2,0.4-11.1,1.1c-3.9,0.7-6,1.1-6.1,1.1c-2.4,0-3.8-0.5-4.4-1.4c-0.6-0.9-0.8-3.4-0.8-7.3V135
			c0-2.4,0.2-6.6,0.7-12.7c0.3-2.8,0.5-5,0.5-6.6c0-0.3-0.1-0.7-0.4-1.2c-0.2-0.5-0.4-0.8-0.6-0.9v-71l1.9-11.6
			c9.9,0,17.4-0.3,22.4-0.9c0.3,1.1,0.6,2.8,0.9,5.2c0.3,2.4,0.5,3.9,0.7,4.5c3.9-2.7,8.7-5.1,14.4-7.3c5.7-2.2,10.9-3.3,15.6-3.3
			c14.9,0,26.1,3.5,33.5,10.5c7.4,7,12.2,15.7,14.4,26.1c2.2,10.4,3.5,23.7,4,39.9C311.5,108.5,311.7,111.9,312,115.8z M209.5,41.7
			c-0.2,2-0.4,3.7-0.4,5.1c0,3,0.5,5,1.4,5.9c2.2-0.9,4.6-2.5,7.3-4.7c2.7-2.2,4.6-3.7,5.7-4.5v-1.2c-0.9,0.3-2.7,1-5.2,2.1
			c-2.5,1.1-4.2,1.7-5,1.7c-0.3,0-0.6-0.1-0.7-0.4c-0.2-0.2-0.2-0.5-0.2-0.8c0-0.8,3.1-3.3,9.4-7.6h-12
			C209.8,38.3,209.7,39.7,209.5,41.7z M216.9,60.4c-4.9,1.6-7.3,2.8-7.3,3.5v5c0.3-0.5,2.6-2.1,6.8-4.8c4.2-2.8,7.7-4.8,10.4-6.3
			l-1.2-0.2l-0.9,0.2C224.4,58,221.8,58.9,216.9,60.4z M211.5,107.6c0.6,0,3.7-1.2,9.2-3.7c5.5-2.4,8.5-4,9-4.6
			c-1.9,0-4.6,0.8-8,2.4c-3.5,1.3-5.8,1.9-7.1,1.9c-0.6,0-0.9-0.8-0.9-2.4l21.5-12l0.7-0.9c-2.2,0.3-5,1.1-8.3,2.4
			c-4.9,1.7-8.7,2.6-11.6,2.6c-0.2,0-0.4-0.1-0.8-0.2c-0.4-0.2-0.6-0.4-0.6-0.7c0-1.7,0.6-3,1.9-3.9c1.3-0.9,3.1-1.7,5.7-2.5
			c3.6-0.9,5.9-2.2,6.8-3.8c-1.7,0-4.2,0.6-7.3,1.9c-3.1,1.4-5.8,2.1-8,2.1c-1.4,0-2.1-0.3-2.1-0.9c0-0.9,3.7-3.7,11.1-8.1
			c7.4-4.5,11.6-6.9,12.5-7.2c-1.9,0-3.9,0.5-5.9,1.4c-2,0.9-3.2,1.5-3.5,1.7c-3.8,2-6.8,3.1-9,3.1c-0.6,0-1.2-0.2-1.7-0.6
			c-0.5-0.4-0.7-0.7-0.7-1.1c0.2-0.2,1.7-1.1,4.5-2.7s8.3-4.6,16.3-8.9l0.7-0.9c-2.2,0-4.3,0.4-6.4,1.2c-2,0.8-4.6,2-7.6,3.5
			c-1.7,0.9-3.6,1.9-5.7,2.8c-2,0.9-3.9,1.5-5.7,1.7c0,4.9-0.2,10.8-0.5,17.7c-0.3,6.6-0.5,11.9-0.5,15.8
			C209.6,106.6,210.2,107.6,211.5,107.6z M218.8,53c-5.7,3.1-8.5,5-8.5,5.8c0,0.6,0.1,0.9,0.2,0.9c0.9-0.6,2-0.9,3.1-0.9l16-9.2
			v-1.2C228.1,48.4,224.5,49.9,218.8,53z M214.8,131.4c-0.3-0.4-0.5-0.7-0.5-1.1c0-0.2,1.5-1.1,4.4-3c2.9-1.8,9-5,18.3-9.6l0.9-1.2
			l-17.2,5.2c-1.1,0-2.4,0.2-3.8,0.5c-1.4,0.3-2.5,0.5-3.3,0.5c-1.4,0-2.1-0.3-2.1-0.9c0-0.6,0.4-1.4,1.2-2.2
			c0.8-0.9,1.4-1.5,1.9-1.8l15.1-8.3c0.2,0.2,0.4,0.2,0.7,0.2c0.6,0,1.1-0.4,1.4-1.2c-1.7,0-4.1,0.4-7,1.1c-2.9,0.7-4.8,1.1-5.8,1.3
			c-3.8,1.1-6.3,1.7-7.6,1.7l-0.9,3.1v21.7l17.2-7.3v-1.4c-1.9,0-3.8,0.6-5.7,1.7c-0.3,0.2-1.1,0.5-2.4,0.9
			c-1.3,0.5-2.5,0.7-3.8,0.7C215.5,132,215.1,131.8,214.8,131.4z M236.6,142.8c0.7-0.8,1.1-1.4,1.3-1.9c0-1.3-0.3-2.1-0.9-2.5
			c-0.6-0.4-1.5-0.6-2.6-0.6H233c-1.6,0-5.5,0.8-11.7,2.4c-6.2,1.6-9.8,2.8-10.7,3.8h24.5C235.4,144,235.9,143.6,236.6,142.8z
			 M237,100.1l-19.4,7.3l3.5,0.2c2.2,0,5.3-0.6,9.4-1.9c0.9-0.2,2.1-0.4,3.4-0.7c1.3-0.3,2.3-0.5,3-0.5V100.1z M233,135.6
			c3.5-1,5.2-3.3,5.2-7c-0.6,0-1,0.1-1.2,0.2c-1.6,0.8-3.8,1.7-6.6,2.6c-2.5,0.8-4.6,1.6-6.4,2.4c-1.7,0.8-3.5,1.9-5.4,3.3h1.2
			C225.1,137.1,229.5,136.6,233,135.6z M224.2,117.8c9.3-1.9,13.9-3.5,13.9-4.7c0-2.4-0.8-3.5-2.4-3.5l-15.1,8.3l-1.2,0.9
			L224.2,117.8z M236.5,83.1l-0.9-0.2c-1.4,0-3.9,0.9-7.6,2.6c-3.6,1.7-5.4,2.7-5.4,2.8c1.7,0,4.1-0.3,7.1-0.8
			c3-0.5,4.8-1.3,5.4-2.2L236.5,83.1z M235,95.8c0.9-0.8,1.3-1.7,1.3-2.6c-0.9,0-5.1,1.6-12.5,4.7l8.7-0.9
			C233.3,97,234.1,96.6,235,95.8z M231.4,78.4c1.2-0.6,2-1,2.5-1.2V76c-3.1,0.8-5.2,1.8-6.1,3.1l1.2,0.2
			C229.4,79.3,230.2,79,231.4,78.4z M234.7,125c2.6-0.9,3.9-1.4,3.9-1.5l-0.7-2.8c-1.1,0.6-2.7,1.6-4.8,2.9
			c-2.1,1.3-3.3,2.2-3.4,2.7C230.4,126.3,232.1,125.9,234.7,125z M230.8,52.7l2.1,0.9c-0.2-0.9,2.6-2.6,8.3-4.8
			c5.7-2.3,9.2-3.4,10.6-3.4s3.2-0.6,5.4-1.8c2.2-1.2,4.2-2.6,6.1-4.1c-3.3,0-6.4,0.6-9.3,1.7c-2.9,1.1-5.7,2.3-8.4,3.7
			c-2.7,1.3-4.6,2.2-5.7,2.7l-0.7,0.2c0-0.2-0.4-0.4-1.1-0.8c-0.7-0.4-1.1-0.8-1.3-1.3C236,47.5,234,49.8,230.8,52.7z M245.8,37.7
			c-7.2,2.4-11.7,4.2-13.6,5.3c4.4-0.5,8.3-1.2,11.6-2.1c3.3-0.9,5.3-1.5,5.9-1.7c6.6-1.9,12.3-3,17.2-3.3c-0.6-0.3-1.5-0.7-2.5-1.1
			c-1-0.4-1.9-0.7-2.5-0.8C258.4,34,253,35.2,245.8,37.7z M246.6,54.2c7.7-3.1,13.6-5.6,17.7-7.7l-1.7-0.2c-3.5,0-8.8,1.5-15.9,4.4
			c-7.2,2.9-11.8,5.6-13.8,8.1h1.4C234.8,58.8,238.9,57.3,246.6,54.2z M256.3,54.5c5.2-0.8,10.6-2,16.2-3.8c5.6-1.7,8.9-2.8,9.8-3.1
			l6.6-2.1c-2.4-1.4-5.1-2.1-8.3-2.1l-11.6,4.7c-1.6,0.6-4.2,1.7-7.9,3.1c-3.7,1.4-6.3,2.2-7.9,2.4c0,0.5,0.2,1,0.5,1.5
			c0.3,0.6,0.6,0.8,0.9,0.8C255.8,55.5,256.3,55,256.3,54.5z M263.6,59.1c1.7,0.6,2.8,1,3.1,1.3l13-8.7l-1.2-0.2
			c-0.9,0-4,0.7-9.1,2.1c-5.1,1.4-8.1,2.4-9.1,3.1C260.8,57.8,261.9,58.6,263.6,59.1z M276.7,38.7c-0.6-0.3-1.4-0.5-2.5-0.5
			c-1.9,0.2-3.7,0.7-5.5,1.5c-1.8,0.9-3.3,2.1-4.4,3.7c3.8-1.9,8.5-2.8,14.2-2.8C277.9,39.7,277.3,39,276.7,38.7z M273.5,65.9
			c0.3,0,3.6-1.5,9.8-4.4c6.2-2.9,9.4-4.5,9.6-4.8h-7.1c-0.8,0-2.6,0.8-5.4,2.4c-1.4,0.9-2.9,1.8-4.5,2.5c-1.6,0.7-3.1,1.1-4.5,1.1
			C271.4,64.8,272.1,65.9,273.5,65.9z M277.6,77.4c1.4,2.8,2.4,4.4,3.1,4.7L299,73c-0.5,0-2.6,0.5-6.4,1.4c-4.7,1.1-7.6,1.7-8.5,1.7
			c-0.3,0-0.7-0.3-1.3-0.8c-0.6-0.5-1-1.1-1.3-1.5c0-0.3,0.9-1.1,2.8-2.5c1.9-1.3,4-2.6,6.4-3.7c2.4-1.1,4.4-1.7,6.1-1.7l0.9-0.9
			c-2.8,0-7.3,0.8-13.3,2.5c-6.1,1.7-9.1,3.1-9.1,4.4C275.4,72.7,276.1,74.6,277.6,77.4z M283.2,89.2c1.3,0,3.3-0.7,6.1-2
			c2.8-1.3,4.6-2.2,5.2-2.5c2.4-1.4,4.2-2.3,5.4-2.6V81c-3,0-6.8,0.5-11.4,1.4c-4.6,0.9-7,2-7,3.3C281.6,88.1,282.1,89.2,283.2,89.2
			z M293.8,50.2c-0.5-0.4-1.1-0.6-1.9-0.6c-1.3,0-3,0.6-5.2,1.8c-2.2,1.2-3.3,2.3-3.3,3.4c1.1,0,2.9-0.3,5.4-0.9
			c2-0.8,4.1-1.2,6.1-1.2C294.7,51.4,294.3,50.6,293.8,50.2z M283.7,93.2c1.4,3.9,2.1,12.7,2.1,26.4l14.2-7.1l1.2-0.9
			c-0.9,0-2.5,0.2-4.6,0.5c-2.1,0.3-3.8,0.5-5.1,0.5c-1.1,0-1.7-0.6-1.7-1.9c0-0.3,0.1-0.7,0.4-1.2c0.2-0.5,0.4-0.8,0.6-0.9l13.2-8
			h-16.3c-0.2-0.6-0.4-1.3-0.6-2s-0.4-1.4-0.4-2c0-0.6,0.9-1.1,2.6-1.4c1.7-0.3,3.4-0.7,5-1.2c1.6-0.5,2.8-1.4,3.5-2.8L283.7,93.2z
			 M295.9,63.2c2.3-0.9,3.4-2.2,3.4-3.9c-2.4,0-5,0.4-7.9,1.2c-2.9,0.8-4.8,2-5.5,3.5c0.6,0.3,1.6,0.5,2.8,0.5
			C291.2,64.5,293.6,64,295.9,63.2z M292,122.5c-4.1,0.5-6.1,0.9-6.1,1.4l0.9,18.2c4.2-4.2,10.7-7.9,19.4-11.1v-0.9
			c-1.6,0.2-6.7,1.1-15.3,2.8h-0.9v-2.8c1.3-1.1,3.6-2.7,7.1-4.7c3-1.7,5.3-3.3,7.1-4.7c0.2,0,0.6-0.3,1.2-0.9
			C302.7,120.5,298.2,121.4,292,122.5z M295.5,148.5c1.7-0.2,3.1-0.3,4-0.5c2.8-0.5,5.7-0.7,8.5-0.7l-0.7-1.4h-20.5l2.6,2.6
			c0.3,0.2,0.8,0.2,1.4,0.2C292.2,148.7,293.8,148.6,295.5,148.5z M301.2,67.8c-0.5,0-2.2,0.6-5.3,1.7c-3.1,1.1-5.5,2.1-7.2,3.1
			c1.4,0,3.7-0.4,6.8-1.3c3.1-0.9,5-1.6,5.7-2.2V67.8z M298.1,136.8c-3.3,1.5-5.7,3.3-7.3,5.3c2.7,0,5.3-0.2,7.8-0.7
			c0.9-0.2,2.3-0.3,4-0.5c1.7-0.2,3.3-0.2,4.7-0.2v-6.1C304.5,134.5,301.4,135.3,298.1,136.8z M304,93.2c-3.3,1.6-7.4,2.9-12.3,4
			l3.8,0.2c5.7,0,8.5-0.4,8.5-1.2V93.2z M301.2,75.8c-0.5,0-3.2,1.1-8.3,3.3c1.1,0,3.1-0.1,5.9-0.4s4.2-0.7,4.2-1.3
			C303,76.3,302.4,75.8,301.2,75.8z M299.7,115.7c-0.5,0.2-1.2,0.4-2.1,0.7c-0.9,0.3-1.9,0.5-2.8,0.5c0,0.5,0.2,0.9,0.5,1.3
			c0.3,0.4,0.6,0.6,0.9,0.6c5.7,0,8.5-1.4,8.5-4.2C303.3,114.5,301.6,114.9,299.7,115.7z M306.1,84.8c-2.2,0-4.4,0.4-6.7,1.2
			c-2.3,0.8-3.7,1.9-4.4,3.3h11.1V84.8z M305.9,107.6c-0.2-0.5-0.5-1-0.9-1.7c-0.5-0.6-0.8-1.1-0.9-1.4c-1.1,0.3-2.4,0.9-3.9,1.8
			c-1.5,0.9-2.6,1.6-3.2,2.2c0.3,0,0.9,0.1,1.8,0.2c0.9,0.2,2.2,0.2,3.9,0.2C304.8,109.1,305.9,108.6,305.9,107.6z M300.8,126.4
			c-1.8,0.6-3.1,1.4-3.9,2.5c0.9-0.3,2.4-0.5,4.2-0.6c1.9-0.1,3.5-0.2,5-0.4v-2.4C304.4,125.6,302.6,125.9,300.8,126.4z"/>
		<path class="st0" d="M341.9,214.7c-0.7-0.7-1.1-1.5-1.1-2.5c3.6-10.9,6.7-19.3,9.2-25.3l2.8-7.1l1.4-3.5l4.2-9.7
			c4.4-10.2,7.4-17.2,9-21c0-2.7-1-5.7-3.1-9.2c-0.6-0.9-1.4-2.5-2.4-4.7c-1.9-4.7-4.1-10.7-6.7-17.8c-2.6-7.2-4.8-13.1-6.5-17.8
			c-1.9-2.7-4.2-6.9-6.8-12.7c-2.7-5.8-4.2-9.3-4.7-10.4c-4.6-9.8-8-17-10.4-21.8c-2.4-4.8-4.9-9-7.6-12.6c0-1.6,1.2-2.4,3.5-2.4
			c1.4,0,3.7,0.2,6.8,0.5c3.1,0.3,5.5,0.5,7.1,0.5c2.8,0,5.8-0.4,9-1.2c3.8-0.6,6.5-0.9,8.3-0.9c0.9,0,2.6,2.4,5,7.3
			c0.5,1.1,1.6,3.4,3.4,7c1.8,3.5,3.4,6.3,4.8,8.4c2.2,3.1,4.4,6.8,6.7,11c2.3,4.2,3.4,7.2,3.4,9.1c3.6,8.3,6.1,14,7.3,16.9
			c1.3,2.9,2,4.4,2.1,4.6c0.6,0,1.2-0.2,1.7-0.6c0.5-0.4,0.8-0.9,0.9-1.5l13.5-29.3c0-2.2,1.2-7,3.7-14.5c2.4-7.5,4.5-12.7,6.3-15.7
			c0-1.1,0.4-2,1.3-2.6c0.9-0.6,1.8-0.9,3-0.9h26.4c0.8,0,2.4,0.4,4.7,1.3c2.4,0.9,3.5,1.5,3.5,1.8c0,3.3-0.6,6.6-1.8,10
			c-1.2,3.4-2.9,7.4-5.3,12.2l-2.1,4.5c-6,10.9-11.2,22.5-15.6,34.9c-2.5,6.8-4.5,11.6-5.9,14.6c-1.7,3.9-3.1,6.7-4,8.3
			c-2,3.9-3.6,7.3-4.7,10.1c-1.1,2.8-1.9,5.9-2.4,9.2l-25.5,55.7c-0.2,0.5-0.7,2.5-1.7,6.1c-1.9,9.6-4,14.4-6.4,14.4
			c-0.2,0-1.9-0.5-5.2-1.4h-26.4C343.6,215.7,342.6,215.4,341.9,214.7z M332.5,44.5c0.6,1.3,1.3,2.2,2.1,2.7l9.2-5h-12.3
			C331.6,42.4,331.9,43.2,332.5,44.5z M342,46l-5.2,3.3l0.9,0.2c0.9,0,2.3-0.4,4-1.2c1.7-0.8,2.9-1.2,3.5-1.2c0.9,0,1.4,0.4,1.4,1.2
			l7.3-2.1c-0.2-1.1-0.6-2.2-1.3-3.4s-1.5-1.8-2.2-1.8C348.6,41.9,345.8,43.5,342,46z M337.6,57.4c0.5,0.9,1.5,1.4,2.7,1.4
			c1.4,0,3.3-0.7,5.5-2c2.3-1.3,4.4-2.8,6.4-4.5c2-1.7,3-2.7,3-3.2c-3.3,0-7.2,0.6-11.7,1.7c-4.5,1.1-6.7,2.2-6.7,3.3
			C336.8,55.3,337.1,56.4,337.6,57.4z M348.7,57.7c-4.6,2.3-7.3,3.9-7.9,4.8c2.5,0,6.3-0.4,11.2-1.3c5-0.9,7.7-1.8,8.1-3
			c0-0.2-0.2-0.9-0.5-2.1c-0.3-1.3-1-1.9-2.1-1.9C356.3,54.3,353.4,55.5,348.7,57.7z M342,69.3c0.6,1.2,1.3,2,1.9,2.5
			c1.3-1.1,3.8-2.4,7.6-3.8c4.6-1.7,7.1-3.1,7.6-4.2l-8.5-0.2c-5.8,0-9,1-9.7,3.1C341,67.2,341.4,68.1,342,69.3z M347.4,80
			c0.9,1.3,1.8,1.9,2.6,1.9c0.6,0,3.3-1.2,7.9-3.7c4.6-2.4,7.4-4.1,8.1-5.1c-1.6-0.3-2.9-0.5-4-0.5c-2.5,0-5.8,0.4-9.9,1.3
			c-4.1,0.9-6.1,1.8-6.1,2.7C346,77.7,346.5,78.8,347.4,80z M364.4,210.5c2.2,0,5.5,0.2,9.9,0.5c0.5,0,0.9-1.3,1.4-3.8
			c0.5-2.5,0.7-4.6,0.7-6.4h-0.9l-15.3,7.3l-1.9,0.2c-1.3,0-2-0.5-2.1-1.4c0.8-0.8,2-1.7,3.7-2.8c1.7-1.1,2.8-1.8,3.4-2.1l-4.2-2.4
			l-9,5.2l-2.1,4C351.5,210,357,210.5,364.4,210.5z M350,71.8c2.5,0,4.6-0.2,6.1-0.6c1.6-0.4,3.2-0.9,5-1.7c1.7-0.7,3.1-1.3,4.2-1.8
			c0-1.1-0.4-2.2-1.2-3.3C357.7,67.1,353,69.6,350,71.8z M360.4,82.9c0.5-0.2,1.6-0.5,3.4-1.2c1.8-0.6,3.7-0.9,5.5-0.9l2.4,0.2
			c0-1.7-0.8-3.8-2.4-6.1L352.1,85C354.5,85,357.2,84.3,360.4,82.9z M361.1,197.2c4.4-1.8,6.8-3,7.1-3.4c-3,0.6-6.1,0.9-9.4,0.9
			c-1.7,0-3-0.1-3.8-0.2c1.1-2,3.6-3.1,7.6-3.1c1.4,0,2.6,0.2,3.5,0.5c0.9,0,2.6-0.8,5-2.4c2.4-1.6,6.2-4.2,11.6-8
			c0-0.3-0.1-0.6-0.4-0.7c-0.2-0.2-0.4-0.2-0.6-0.2l-2.1,0.9c-1.1,0.3-3.1,0.6-5.9,0.9c-6.6,0.9-11.8,2.4-15.7,4.4
			c-3.9,2-5.8,5.6-5.8,11v2.1C353.7,199.9,356.7,199,361.1,197.2z M355,93.2c7.4-3.3,12.5-6.8,15.3-10.4c-3.9,0.8-7.8,1.9-11.7,3.3
			c-3.9,1.4-5.8,2.5-5.8,3.3C352.8,90.6,353.6,91.8,355,93.2z M357.1,96.1c0.2-0.2,2.2-0.5,6.1-1.2c8.2-1.1,12.3-2.4,12.3-3.8
			c0-0.8-0.4-2.5-1.2-5.2C366.5,88.6,360.7,92,357.1,96.1z M359,104.3c1.3-1.1,3.6-2.6,7.1-4.5c3.8-2.2,6.2-3.8,7.3-4.7
			c-0.9,0.2-3.5,0.6-7.8,1.4c-4.2,0.8-7.1,1.7-8.5,2.6C357.6,100.1,358.2,101.8,359,104.3z M361.3,179.6c1.3,0,4.4-1.2,9.4-3.5
			c5-2.4,8.7-4.2,10.9-5.7c-2.4,0-6.6,0.8-12.6,2.4c-6.1,1.6-9.1,3.1-9.1,4.7C359.9,178.9,360.4,179.6,361.3,179.6z M360.2,107.2
			c0.2,0.2,0.7,0.2,1.7,0.2c2.5,0,6.1-0.5,10.7-1.5c4.6-1,7.7-1.9,9.1-2.7l-3.3-6.1l-9,4C367.2,103.1,364.1,105.1,360.2,107.2z
			 M364.2,115.4l7.1-4l6.1-4.2c-2,0-5,0.6-8.7,1.8c-3.8,1.2-5.7,2.3-5.7,3.4C363,113.6,363.4,114.6,364.2,115.4z M363.2,168.3
			c1.7-0.5,4.9-1.6,9.4-3.3c4.6-1.7,8.9-3.4,13-5l0.9-0.7l-2.1-0.9l-20.1,7.8L363.2,168.3z M374.4,197.8c0.2,0.8,0.7,1.2,1.3,1.2
			c1.1,0,2.2-1,3.3-3c1.1-2,1.7-3.5,1.7-4.6c-0.6,0-2.2,0.5-4.6,1.4c-2.4,0.9-4.3,1.7-5.5,2.1c-2.2,0.9-4.6,1.9-7.3,2.8
			c1.3,0,2.9-0.2,4.8-0.6c2-0.4,3.4-0.6,4.4-0.6C373.5,196.6,374.2,197,374.4,197.8z M385.4,172.8c-2.5,1.4-6.1,2.8-10.9,4
			c-3.6,0.9-6.3,1.8-7.9,2.6c-1.7,0.8-2.5,1.9-2.5,3.3c2.4-2.2,7.9-3.5,16.8-3.8l4.7-0.5c1.7-0.2,3.6-2.7,5.7-7.6
			c2-4.9,4.3-11.2,6.8-18.9c0.5-1.1,0.8-2.1,1.1-2.9c0.2-0.9,0.5-1.6,0.8-2.2c-0.6,0-2.9,0.9-6.7,2.8c-3.9,1.9-5.8,3.1-5.8,3.5
			l-18.2,6.8c2.2,0,5.7-0.6,10.4-1.9c4.2-1.4,7.9-2.1,10.9-2.1c1.1,0,1.9,0.1,2.4,0.4c0.5,0.2,0.7,0.8,0.7,1.8s-1.6,2.2-4.8,3.7
			c-3.2,1.5-7.9,3.4-14,5.8c-1.1,0.5-2.6,1.1-4.5,1.9c-1.9,0.8-2.9,1.3-3.1,1.4c2.7,0,6.4-0.8,11.1-2.4c0.6-0.2,2.1-0.6,4.4-1.2
			c2.3-0.6,4.4-0.9,6.5-0.9C389.2,169.2,387.9,171.4,385.4,172.8z M367.7,125.8c2.7,0,7-1.7,13-5.2c6-3.5,10-6.2,12-8.3
			c-0.8,0.2-5.4,1.4-13.9,3.7c-8.5,2.3-12.7,4.3-12.7,6C366.1,124.6,366.6,125.8,367.7,125.8z M383.2,147.9c-3.9,1-7.2,2.3-9.9,3.9
			c-2.8,1.6-4.4,3.4-5.1,5.4c8.5-2.2,14.6-4.2,18.4-6.1c1.1-0.6,2.7-2,4.7-4c1.4-1.6,2.6-2.8,3.7-3.5c1-0.8,2.1-1.2,3.2-1.2
			c1.3,0,2.4,0.6,3.5,1.7c2-6.4,5.8-15.3,11.3-26.7c-0.2,0.2-0.9,0.6-2.1,1.2c-1.3,0.6-3.2,1.3-5.9,1.9c-0.2,0.5-0.4,1.1-0.8,1.8
			c-0.4,0.7-0.8,1.2-1.3,1.5l-22.4,11.1l18.4-2.8v1.9l-8.3,5c-0.6-0.2-3.6,1.2-9,4.1c-5.4,2.9-8,4.7-8,5.3l0.7,0.7l13.2-4l3.1,0.9
			C389.5,146.2,387,146.9,383.2,147.9z M372.2,136c0.6-0.5,1.8-1.2,3.4-2.2c1.7-1,3.3-2.1,4.8-3.2c0.8-0.5,2.3-1,4.5-1.7
			c3.9-0.9,6.5-2.4,7.8-4.5c2-3.6,8.7-6.9,20.1-9.9l1.2-1.2c-0.8,0-1.9,0.2-3.3,0.7c-1.4,0.5-2.6,0.7-3.5,0.7
			c-0.9,0-1.5-0.2-1.8-0.5c-0.2-0.3-0.4-1-0.4-2.1l4.5,0.2c3.5,0,5.7-1,6.6-3.1l6.1-13.2c-0.3-0.2-0.6-0.2-0.7-0.2
			c-1.3,0-3.5,0.4-6.8,1.2c-3.3,0.8-6.2,1.8-8.7,3.1c0.5,0,1.5-0.2,3.2-0.5c1.7-0.3,3.3-0.5,4.8-0.5c0.9,0,2.4,0.3,4.2,0.9
			c0,1.6-2.3,3.8-6.8,6.6c-4.6,2.8-7.9,4.2-10.1,4.2c1.1-1.6,4.3-4.2,9.7-7.8l-5.9-0.9c-0.6,1.4-1.8,2.1-3.5,2.1
			c-1.4,0-3.4-0.7-5.9-2.1c3-1.9,7.6-3.7,13.9-5.4c6-1.6,10.2-3.1,12.7-4.7c-1.4,0-3.2,0.2-5.4,0.5c-1.9,0.5-3.9,0.7-5.9,0.7
			c-1.1,0-1.7-0.4-1.9-1.2c1.7-0.9,3.5-1.5,5.3-1.7c1.8-0.2,3.1-0.3,3.9-0.5c3.5-0.3,6.5-2.4,9.1-6.3c2.6-3.9,3.9-7.8,3.9-11.9
			l-14.2,5l-1.9-0.2c-0.5,0-0.9,0.1-1.4,0.4c-0.5,0.2-1,0.5-1.7,0.8c-4.2,1.7-7,3.1-8.1,4.1c-1.2,1-2.4,3-3.7,6
			c-0.2,0.8-1,2.8-2.6,6.1c-0.3,0.9-0.9,2.2-1.9,3.9c-0.9,1.7-1.7,2.7-2.1,3.2l-3.1,1.2c0.5,0.2,0.7,0.4,0.8,0.8
			c0.1,0.4,0.1,0.8,0.1,1.3c0,0.8-0.2,1.8-0.5,3.1c-0.3,1.3-0.5,2.6-0.5,4c0.9-0.6,1.9-1.1,2.8-1.5c0.9-0.4,1.7-0.7,2.1-0.8
			c1.1,0,2.2,0.5,3.3,1.4c-0.8,2.5-2.4,4.4-4.7,5.8c-2.4,1.3-5.8,2.8-10.4,4.4c-3.5,1.1-6.1,2.2-7.9,3.2c-1.8,1-2.7,2.4-2.7,4.1
			c1.4,0,3.1-0.4,5-1.2c0.5-0.2,1.3-0.4,2.4-0.7c1.1-0.3,2.1-0.5,3.1-0.5l-1.9,2.1c-0.6,0-2.8,0.6-6.6,1.8c-3.8,1.2-5.7,1.9-5.7,2.2
			l1.9,4.2H372.2z M384.2,108.8c-1.7,0-4.3,0.9-7.8,2.7c-3.5,1.8-5.2,3-5.2,3.7c0.2,0.2,0.4,0.3,0.8,0.5c0.4,0.2,0.7,0.2,1.1,0.2
			c2,0,4.6-0.7,7.7-2c3.1-1.3,4.6-3,4.6-4.8C385.3,108.9,384.9,108.8,384.2,108.8z M382.6,140c0,0.2,0.2,0.4,0.6,0.6
			c0.4,0.2,0.7,0.4,1.1,0.4c0.6-0.5,1.7-1.5,3.2-3c1.5-1.5,2.2-2.6,2.2-3.4c-1.9,0-5,0.9-9.4,2.6c-4.4,1.7-7.1,3.3-8,4.7l2.1,2.1
			L382.6,140z M380,189.8c1.9,0,3.5-1.7,5-5.2c-1.1,0-2.3,0.3-3.5,0.8c-1.3,0.5-3.1,1.6-5.4,3.2C376.6,189.4,377.9,189.8,380,189.8z
			 M387.5,123.5l4,0.2c-0.2,0.6-0.9,1.1-2.1,1.4c-1.3,0.3-2.2,0.5-2.8,0.5c-0.3,0-0.6-0.1-0.7-0.4c-0.2-0.2-0.2-0.5-0.2-0.8
			C385.6,123.8,386.3,123.5,387.5,123.5z M414.3,79.1c5.1-0.9,8.5-1.4,10-1.4c1.4,0,2.1,0.8,2.1,2.4l-0.2,0.9l-17.2,9
			c-0.8,1.9-2.6,2.8-5.4,2.8c0-1.9,0.8-3.1,2.4-3.8l14.2-7.3H405C406.1,80.9,409.2,80,414.3,79.1z M408.2,67.8
			c-2.3,3.5-3.4,6-3.4,7.6c0,0.8,0.4,1.3,1.2,1.4l5.9-1.2c4.7-0.8,8.7-1.7,11.8-2.7c3.1-1,5.4-2.4,6.8-4.1c-8,0-13.9-0.3-17.7-0.9
			c0.2-1.1,1.1-2.2,2.8-3.4c1.7-1.2,4.3-2.8,7.8-4.8l5-3.1c-1.7,0.6-3.5,0.9-5.2,0.9h-3.1c-1.9,0-3.6,0.5-5.2,1.4
			C412.7,61.3,410.5,64.3,408.2,67.8z M415.9,45.9c-0.9,1.3-1.6,3-2,5c-0.4,2-0.7,3.5-1.1,4.6c2.8-1.3,8.3-3,16.3-5.2
			c5.3-1.4,8.4-2.4,9.2-2.8c-0.6,0.2-1.7,0.2-3.3,0.2c-1.1,0-2.4-0.4-3.8-1.3c-1.4-0.9-2.6-1.3-3.5-1.3c-0.6,0-1.1,0.1-1.4,0.2
			l2.1-2.1l16,1.2c0.5,0,0.9-0.6,1.3-1.8c0.4-1.2,0.7-2,0.8-2.5h-23.8c0.8,1.1,1.2,2,1.2,2.6c0,0.6-0.4,0.9-1.2,0.9
			c-0.6,0-1.2-0.2-1.7-0.5C418.5,43.7,416.8,44.6,415.9,45.9z M424.1,62.2c-3.1,2-5.8,3.4-8,4.4l2.8,0.2c1.1,0,3.4-0.4,6.8-1.2
			c2.4-0.8,4.4-1.2,6.1-1.2c1.6,0,2.8,0.4,3.5,1.2l5-11.3c-1.7,0.5-3.5,1.3-5.2,2.6c-2.8,1.6-4.8,2.4-5.9,2.4v-0.9
			C429,59,427.3,60.2,424.1,62.2z"/>
		<path class="st0" d="M673.9,36.8c2.9,1.9,4.4,4.6,4.4,8c0,6.5-2.8,17.7-8.3,33.9c-5.5,16.1-10.9,30.4-16.3,42.8
			c-0.9,6.1-2.6,12.7-5,19.8c-2.4,7.1-4.9,10.6-7.6,10.6c-1.3,0-3.5-0.7-6.8-2.1h-18.2l-1.9-2.1c-0.5-1.1-1.3-3-2.5-5.7
			c-1.2-2.7-2.2-5.2-2.9-7.6c-0.5-1.3-0.8-3-1.1-5.2c-0.2-2.2-0.4-3.7-0.6-4.5c-0.6-5.5-1.4-9.4-2.4-11.6c-0.6-1.6-1.2-2.9-1.7-4.1
			c-0.5-1.2-0.9-2.2-1.2-3.2c-1.4-5-3.5-9.4-6.1-13c-1.4,1.4-2.1,2.4-2.1,3.1c0.2,0.3,0.5,0.7,0.9,1.2c0.5,0.5,0.9,0.7,1.2,0.7h-3.1
			c-0.2,0-1.9,5.1-5.2,15.3c-0.2,0.6-0.4,1.4-0.6,2.2c-0.2,0.9-0.5,1.9-0.8,3c-2.5,9.9-5.1,18.5-7.8,25.7c-2.7,7.2-5.7,10.9-9,10.9
			l-21-5.4l-6.4,0.2c-2-1.3-4-4.6-5.9-10c-1.9-5.4-3.5-11.2-4.7-17.5c-1.3-6.2-1.9-10.6-1.9-13.1c0-0.9,0.1-1.7,0.2-2.1l-11.3-43.7
			c-0.2-1.6-0.5-4.6-1.1-9c-0.6-4.4-1.4-8.6-2.6-12.6c-1.2-4-2.7-6-4.6-6l-0.9,0.2c0.2-0.8,0.5-1.5,1.2-2.2c0.6-0.7,1.3-1.1,1.9-1.1
			c0.3,0,3.1,0.5,8.3,1.4c5.2,0.9,9.9,1.6,14.2,1.9c0.3,0.2,0.9,1.2,1.7,3.2c0.8,2,1.3,3.3,1.7,4.1c0.6,2,1.3,4,2.1,5.8
			c0.8,1.8,1.4,2.8,1.9,2.9l9,19.6c1.7,18.6,3.4,29.7,5,33.3l3.3-2.8l2.6-5.9c0.9-2,2.7-5.9,5.3-11.6s4-9.4,4.4-11.1
			c-1.1-0.2-1.7-1.3-1.7-3.3c1.3,0,2.3-0.7,3.2-2.2c0.9-1.5,1.3-2.9,1.3-4.1c0-1.4,0.6-3.9,1.9-7.3c1.9-5.7,3.3-11.2,4.2-16.5
			c0-1.7,0.6-3.2,1.8-4.4c1.2-1.2,3.9-1.8,8.1-1.8c6.8,0,11.6,0.7,14.4,2.1c0.6,2.2,1.9,5,3.8,8.3c3.1,5.7,4.7,10,4.7,13
			c0,0.9-0.1,1.7-0.2,2.1l6.1,15.1c-0.2,0.5-0.2,1.4-0.2,2.8c0,2,0.8,7,2.5,15c1.7,7.9,3.3,12.9,4.8,14.8c0.6-1.1,0.9-2.4,0.9-4
			l-0.2-3.1c0-2.2,0.8-3.9,2.4-5c2.5-17.1,7.6-33.8,15.1-50c0-0.8,0.2-2.6,0.6-5.3c0.4-2.8,0.7-4.7,0.8-5.8h15.1
			C666.7,34,671,35,673.9,36.8z M529.6,44.8c-1.9,0.6-3.9,1.1-5.9,1.5c2.4,1.1,4.3,1.9,5.8,2.4c1.5,0.5,3.3,0.7,5.3,0.7
			c-0.8-2.4-1.2-4-1.2-5c0-0.5,0.1-0.9,0.2-1.2C532.9,43.7,531.5,44.2,529.6,44.8z M523.7,53.6c2.2,0,3.9-0.8,5-2.4
			c-1.4-0.6-3.1-0.9-5-0.9V53.6z M525.6,67.8c0.6-1.1,1.3-1.9,2.1-2.4c0.8-0.5,1.8-1,3.1-1.5c1.3-0.5,2.3-1.1,3.1-1.5l-2.1-1.9h-7.3
			c-0.2,0.3-0.2,0.9-0.2,1.9C524.2,64.7,524.6,66.5,525.6,67.8z M537.4,55.6c-1.1-1.3-2-2.5-2.6-3.4c-0.9,0.2-1.9,0.6-2.7,1.2
			c-0.9,0.6-1.5,1-1.8,1.2c-2.2,1.3-3.7,1.9-4.5,1.9c-0.6,0-1-0.1-1.2-0.2v1.2c0,0.2,0.7,0.3,2,0.5c1.3,0.2,2.5,0.3,3.4,0.5l5.9,1.2
			l3.1,0.2C539,58.3,538.5,56.9,537.4,55.6z M532.9,74c1.6-0.4,2.6-0.8,3.1-1.3c-0.9-0.6-2.5-1.2-4.6-1.8c-2.1-0.5-3.7-1.4-4.6-2.5
			c-0.3,0.9-0.5,1.7-0.5,2.1c0,1.4,0.8,2.8,2.4,4C529.9,74.6,531.3,74.4,532.9,74z M531.7,85c0.8-0.3,2-0.6,3.5-0.9
			c1.6-0.3,2.8-0.7,3.5-1.2c-2.2-0.5-4.9-1.2-8-2.1c-0.3,0.3-0.5,0.8-0.5,1.4C530.3,83.6,530.8,84.5,531.7,85z M536.3,64.7
			c-2.1,0.6-4,1.3-5.5,1.9c0.5,0.9,2.3,1.9,5.4,2.8c2,0.6,3.5,1.2,4.5,1.7c0.9,0.5,1.4,1.3,1.4,2.4c0,0.6-1.5,1.5-4.6,2.6
			c-3.1,1.1-5,1.7-5.8,1.7l12.3,3.1l0.9,0.9l1.2-0.9c0-2.2-0.5-5.2-1.5-8.9c-1-3.7-2.4-6.5-4.1-8.4
			C539.8,63.7,538.5,64.1,536.3,64.7z M542,84.5c-1.5,0.6-2.5,1-3,1.2c-2.8,1.3-5,2-6.4,2.1c1.4,0.6,3.6,1.3,6.6,2.1
			c3,0.8,5.3,1.2,6.8,1.2v-7.6C544.9,83.6,543.5,83.9,542,84.5z M538.5,91.6c-1.7-0.5-3.3-0.7-5.1-0.7c0,3,0.5,5,1.4,6.1
			c0.5-1.1,1.5-1.9,3-2.4c1.5-0.5,3-0.7,4.4-0.7C541.3,92.9,540.1,92.1,538.5,91.6z M534.8,100.1c1.4,0.6,3.6,1.1,6.6,1.4
			c3,0.3,5.2,0.9,6.6,1.7l0.2-2.8c0-1.7-0.2-3-0.5-3.9c-0.3-0.9-0.9-1.3-1.7-1.3c-0.8,0-1.6,0.5-2.5,1.4c-0.9,0.9-1.5,1.4-1.8,1.4
			l-3.5-0.2C536.8,97.7,535.6,98.5,534.8,100.1z M544,108.4c-1.9,0-3.4,0.2-4.6,0.6c-1.2,0.4-1.8,1.2-1.8,2.5l0.2,0.9
			c0.2-0.2,0.5-0.4,0.9-0.7c0.5-0.3,0.9-0.5,1.2-0.5c0.6,0,1.9,0.4,3.9,1.2c2,0.8,3.3,1.2,4.1,1.2l0.9-0.2c-0.2,1.1-0.8,2-2,2.6
			c-1.2,0.6-1.9,1.5-2,2.6c0.8,0.2,1.8,0.4,3.1,0.6c1.3,0.2,2.3,0.4,3.1,0.4c0.6,0,1.1-0.2,1.5-0.6c0.4-0.4,0.6-0.9,0.6-1.5
			c-0.6-0.6-2-5-4.2-13.2l-2.8,3.1c0-1.1-0.7-1.8-2.2-2.1c-1.5-0.3-3.4-0.5-5.8-0.5l-2.1,0.2v1.4L544,108.4z M540,114.3l-2.1,0.2
			v2.1c3,0,5-0.4,6.1-1.2C543.1,114.6,541.7,114.3,540,114.3z M570.4,124.4l-17.2-4l-2.1,0.5h-13.2c0.2,0.9,0.7,2.3,1.5,4.1
			c0.9,1.8,1.4,2.7,1.5,2.7L570.4,124.4z M550.6,141.4c2.8,0,8.1-1.2,15.8-3.5c-2.4,0-6-0.3-10.9-0.8c-4.9-0.5-9.1-1.4-12.7-2.5v1.7
			c0,1.1,0.3,2.7,0.9,4.7c0.6,2,1.4,3.1,2.4,3.1c1.4,0,2.1-0.2,2.1-0.7c0-0.3-0.1-0.7-0.4-1.2c-0.2-0.5-0.4-0.9-0.4-1.2
			C548.8,141.2,549.8,141.4,550.6,141.4z M576.6,128.4l-8.7-0.2c-9.1,0-16.8,0.8-22.9,2.4c1.3,0.5,2.4,0.8,3.4,0.9
			c1,0.2,1.8,0.3,2.5,0.5c4.2,1.1,7.1,2,8.5,2.6c0,0.2,0.1,0.4,0.4,0.7c0.2,0.3,0.4,0.5,0.6,0.5l1.9-1.2c1.7,0,3.3,0.2,4.7,0.7
			c0.5,0,1.3,0.1,2.4,0.4c1.1,0.2,2,0.4,2.8,0.4l2.4-0.2L576.6,128.4z M571.5,144.3c0.5-1.7,0.9-2.9,1.1-3.7
			c-2.7,0-6.5,0.5-11.6,1.4c-5,0.9-8,1.9-9,2.8c1.9,0,4.7,0.3,8.5,0.9c4.1,0.6,7.2,0.9,9.2,0.9C570.3,146.8,570.9,146,571.5,144.3z
			 M559.7,110c-0.6,1.7-0.8,3.3-0.8,4.7c1.1,0,2.3-0.7,3.7-2c1.3-1.3,2.3-2.2,2.9-2.5l-0.2,1.7c0,0.6,0.4,1.1,1.2,1.4
			c0.8,0.3,1.8,0.5,3.1,0.5c1.9,0,4-0.3,6.3-0.8c2.3-0.5,3.9-1.1,4.8-1.8c-1.6-0.2-3.3-0.5-5.1-1.1c-1.8-0.5-3.1-0.9-3.9-1.1
			c-4.4-1.3-7.6-1.9-9.4-1.9C561.1,107.3,560.2,108.3,559.7,110z M581.5,115.4c-1.7,0-4.5,0.3-8.3,0.9c-3.8,0.6-6.4,0.9-7.8,0.9
			c-0.3,0-0.6-0.1-0.8-0.4c-0.2-0.2-0.4-0.4-0.4-0.6l-4,2.1c3,0.3,9,2,18.2,5L581.5,115.4z M566.2,100.8l0.2,1.4l12-3.1v-0.9
			c-0.9-0.2-2.6-0.4-5.1-0.8c-2.4-0.4-4.4-0.8-6-1.3C566.6,97.7,566.2,99.2,566.2,100.8z M584.9,104.9c0.4-1.3,0.7-2.2,0.8-2.7
			l-0.2-1.2c-1.9,0.5-4.2,0.9-6.8,1.2c-6,0.6-9.8,1.6-11.3,2.8l16.3,3.3C584.1,107.4,584.6,106.3,584.9,104.9z M571.6,91.1
			c1.6-0.5,3.9-0.9,7.1-1.2c2.7,0,5-0.3,6.8-0.9l-11.8-6.1L571.6,91.1z M588.1,93.7c0-0.9-0.1-1.6-0.2-1.9h-5.2l-1.2,2.1
			c-1.1-0.6-2.1-0.9-3.1-0.9c-1.3,0-2.6,0.3-4,0.9l12.3,4C587.7,97.2,588.1,95.8,588.1,93.7z M596.7,75.2c1.7,0.4,3,0.6,3.9,0.6
			c2.4,0,3.8-1,4.2-3.1l-2.1,0.9h-17.2c-1.4,0-2.1,0.2-2.1,0.7l0.2,1.2c0,0.8-0.7,1.2-2.1,1.3c-1.4,0.1-2.6,0.2-3.7,0.4
			c-1,0.2-1.5,0.9-1.5,2.1c0,0.2,0.4,0.6,1.2,1.4c5.7,3.5,9.7,5.2,12,5.2c0.9,0,1.4-0.7,1.4-2.1c0-0.6-0.2-1.5-0.7-2.6
			c-0.5-1.1-0.7-1.9-0.7-2.4c0-1.1,0.3-2.1,0.9-3c0.6-0.9,1.4-1.3,2.4-1.3C593.8,74.6,595.1,74.8,596.7,75.2z M596.2,65.9
			c-0.9,0.2-3.1,0.6-6.5,1.2c-3.4,0.6-6,1.2-7.9,1.8c-1.9,0.6-3,1.1-3.3,1.8l31.6,1.2c0-3.6-0.9-7.6-2.6-12c-1.7-4.4-3.1-6.6-4-6.6
			c-3.1,0-6.7,0.6-10.7,1.9c-4,1.3-7.8,2.8-11.2,4.5h21l3.5,4C606.1,64,602.8,64.8,596.2,65.9z M582.7,63.3
			c-2.2,0.8-3.3,1.9-3.3,3.3c2.4,0,5.2-0.5,8.5-1.7c0.8-0.2,1.8-0.4,3-0.7c1.2-0.3,2.6-0.5,4.1-0.7l-1.2-1.2l-4.2-0.2
			C587.2,62.1,584.9,62.5,582.7,63.3z M582.2,55l0.9,0.5c1.3-0.3,3.3-0.9,6.3-1.7c2.9-0.8,5.4-1.6,7.4-2.4l-4.5-0.7
			C586.6,50.8,583.2,52.2,582.2,55z M582.7,39c0.2,0.5,0.4,1.7,0.8,3.5c0.4,1.9,1,2.8,1.8,2.8c1.9,0,4.4-0.7,7.6-2
			c3.1-1.3,4.8-2.8,5-4.4H582.7z M602.3,44.5c-0.5-1-1.3-1.5-2.4-1.5l-13.2,6.4c1.4,0,3-0.1,4.7-0.2c1.7-0.2,3.1-0.3,4-0.5
			c2.4-0.5,4.9-0.7,7.6-0.7C603,46.7,602.8,45.5,602.3,44.5z M599.7,86.5c1.4,0.9,3.1,1.3,5,1.3c0.9,0,2.4-0.6,4.5-1.9
			c2-1.3,3.4-2,4-2.1v-0.9c0-0.8-2-1.2-6.1-1.2c-2.4,0-5.7,0.4-10.1,1.2C597.3,84.4,598.3,85.7,599.7,86.5z M602.1,78.9
			c0.8,0.6,1.7,0.9,2.8,0.9c0.6,0,1.8-0.2,3.4-0.6c1.7-0.4,3-0.6,3.9-0.6v-2.1C607.8,76.5,604.4,77.3,602.1,78.9z M603,93.6
			c0.3,0.2,0.9,0.4,1.9,0.4c3.1-0.2,5.6-0.5,7.3-0.9c-2.7-0.9-5-1.4-6.8-1.4c-1.4,0-2.5,0.1-3.3,0.2C602.4,92.8,602.7,93.4,603,93.6
			z M611.7,96.9c-2,0.4-3.9,0.7-5.7,1.1c0.5,0.2,2,0.6,4.6,1.3s4.4,1.1,5.5,1.1v-4.5C615.3,96.2,613.8,96.5,611.7,96.9z M611,105
			c1.6,0,3.3-0.3,5.2-0.9c-1.6-0.3-3.1-0.6-4.6-0.8c-1.5-0.2-2.5-0.4-3-0.4C608.7,104.3,609.4,105,611,105z M610.1,109.3
			c6.8,2,10.2,3.1,10.4,3.3c0-1.3-0.4-3.1-1.2-5.4C614.9,107.2,611.8,107.9,610.1,109.3z M615,121.6c0.8,0,2-0.5,3.7-1.4
			c1.7-0.9,2.6-1.7,2.7-2.1c0-1.9-3.1-2.8-9.4-2.8C612,119.4,613,121.6,615,121.6z M646.9,126.3c-3,0-5.4,0.5-7.3,1.4
			c0.3,0.3,0.5,0.7,0.5,1.2c0,0.6-0.5,1.1-1.5,1.3c-1,0.2-1.7,0.4-2,0.4l6.1,2.1c0,1.1-0.5,2-1.4,2.7c-0.9,0.7-2.4,1.5-4.2,2.4
			c-1.9,0.9-2.8,1.6-2.8,2.2l0.2,1.9h-12c-0.5,0-1.1-0.3-2-0.9c-0.9-0.6-1.3-1.2-1.3-1.7c0-1.4,2.6-2.4,7.8-3.1c3.3-0.6,5-1.2,5-1.7
			c0-0.6-0.8-1.3-2.4-1.9h-12.3c-0.2-1.6-1-2.4-2.6-2.4c0,3,0.9,6.2,2.6,9.7c1.7,3.5,3.5,5.2,5.2,5.2l3.8-0.2c3,0,5.9,0.2,8.6,0.7
			c2.8,0.5,4.4,1.2,4.8,2.1C644.5,137.5,646.9,130.4,646.9,126.3z M629.2,122.5c-1.6,0.2-2.8,0.2-3.8,0.2v-1.7
			c-1.3,0-4.7,1.5-10.4,4.5l9,0.2c3.8,0,6.9-0.5,9.4-1.4c0.2,0.2,0.3,0.4,0.5,0.7c0.2,0.3,0.5,0.5,1.2,0.5c2.8-1.4,5.3-2.1,7.6-2.1
			c-1.7-0.8-4.3-1.2-7.8-1.2C632.7,122.3,630.8,122.4,629.2,122.5z M624.2,129.6c1.4,0.3,2.9,0.6,4.6,0.7c1.7,0.2,2.8,0.2,3.4,0.2
			c0.8,0,1.5-0.3,2.1-0.9H624.2z M629.4,114.5c0.8,0.6,1.9,0.9,3.3,0.9c0.9,0,2.3-0.1,4-0.2c1.7-0.2,3.4-0.4,5-0.7H629.4z
			 M633.2,106.5c6.4,0,10.9-1.1,13.5-3.3h-12.3C633.6,104.3,633.2,105.4,633.2,106.5z M654.7,99.9c1.1-0.8,2.5-3.1,4.2-6.8
			c-3,0-7.5,0.6-13.6,1.7c-6.1,1.1-9.3,2.2-9.8,3.3c0.8,1.1,2.6,1.9,5.3,2.4c2.8,0.5,5.6,0.7,8.6,0.7
			C651.9,101,653.6,100.6,654.7,99.9z M648.8,117.3c-1.7,0-4,0.3-6.7,0.9c-2.8,0.6-4.6,1.1-5.5,1.4l-0.9-0.2l0.9,0.9h12.3V117.3z
			 M639.5,90.7c-2,0.5-3,1.3-3,2.6c1.3,0,3.9-0.4,7.8-1.3c3.9-0.9,6.4-1.5,7.3-2C645.5,89.9,641.4,90.2,639.5,90.7z M652.2,110.1
			c0.5-0.9,0.8-2.2,0.8-3.9c-6.9,0-11.7,0.7-14.4,2.1l-0.9,0.9c2,0.9,3.7,1.5,5.1,1.8c1.3,0.2,3.1,0.4,5.3,0.4
			C650.3,111.4,651.7,111,652.2,110.1z M661.9,85.1c0.5-2,0.9-3.4,1.1-4.4l-24.3,5c6.6,0.9,11.9,1.4,15.8,1.4c2,0,3.5-0.1,4.5-0.2
			c0.5,0.8,0.9,1.2,1.4,1.2C660.8,88.1,661.3,87.1,661.9,85.1z M654.2,79.3c4.2-0.8,7.2-1.3,8.7-1.7c-9.6-1.4-17.4-2.1-23.4-2.1v7.3
			C643.2,81.3,648.1,80.1,654.2,79.3z M641.7,69.9c1.4,0,3.7-0.4,6.8-1.2c3.1-0.8,7.2-1.9,12.3-3.3l0.2-1.2c-3.6,0-6.7-0.2-9.3-0.5
			c-2.6-0.3-4.3-1-5.1-2.1l2.1-2.1l16.3-5.2c-1.4-0.6-3.2-1.1-5.3-1.4c-2.1-0.3-3.4-0.5-3.9-0.7v-0.9l-8.3,0.9
			c-0.6,1.7-1.8,4.6-3.4,8.7c-1.7,4.1-2.5,6.4-2.5,6.8V69.9z M666,68.5c-3.8,0-7.8,0.4-12.2,1.1c-4.3,0.7-8.1,1.8-11.2,3.2l3.1,0.9
			h19.4L666,68.5z M662.9,40.6c3.5-0.3,6.5-0.5,9.2-0.5c-1.3-0.9-2.7-1.5-4.2-1.8c-1.6-0.2-3.6-0.4-6.1-0.4c-1.1,0-2.2,0.2-3.3,0.5
			c-1.1,0.3-2,0.5-2.6,0.5c-0.8,0-2.1-0.2-4-0.6c-1.9-0.4-3.3-0.6-4.2-0.6v1.9c1.6,0,2.4,2.2,2.4,6.6c1.4,0,3.5-0.3,6.3-0.9
			c2.8-0.6,4.7-1.3,5.8-2.1h-6.1v-2.4L662.9,40.6z M671.7,47.2c0.3-2.2,0.5-3.5,0.5-4c-1.3,1.1-2.7,1.9-4.2,2.2
			c-1.6,0.4-3.7,0.7-6.4,1.1c-3.6,0.3-6.5,0.9-8.7,1.9c0.2,0.3,1.4,0.7,3.8,1.1c2.4,0.4,3.9,0.7,4.7,0.8c5,0.6,8.3,1.3,9.9,1.9
			C671.2,51.1,671.4,49.4,671.7,47.2z M669.1,56.9c-1.6,0-4.6,0.6-9.1,1.8c-4.5,1.2-6.9,2.2-7.2,3l4-0.2c1.7,0,3.7,0.2,5.8,0.5
			c2.1,0.3,3.7,0.6,4.6,0.7C668.4,60.7,669.1,58.8,669.1,56.9z"/>
		<path class="st0" d="M789.1,127.7c1.8,0.6,4.2,1,7.2,1.2c2.8,0.2,4.8,0.5,6,1.1c1.2,0.6,1.8,1.9,1.8,3.9c0,0.9-0.2,2.5-0.5,4.6
			c-0.3,2.1-0.5,5.7-0.5,10.7l-0.9,1.2h-11.3c-0.6,0.8-2.3,1.2-5,1.2c-2.4,0-4.4,0-6.1-0.1c-1.7-0.1-3.6-0.4-5.7-1.1
			c-1.7-0.5-4.1-2-7.1-4.7c-0.3-0.3-1-0.9-2.1-1.8c-1.1-0.9-2.1-1.5-3-2c-0.9-0.5-1.8-0.7-2.7-0.7c-2.2,1.9-6,4.1-11.3,6.5
			c-5.4,2.4-9.6,3.7-12.7,3.7c-6.9,0-13.1-0.6-18.6-1.9c-0.9-0.2-3-0.5-6-1.1c-3.1-0.6-5.8-1.4-8.1-2.6s-4-2.7-5-4.6
			c-2.4-4.6-4.1-8.4-5.2-11.6c-1.1-3.1-2-7-2.8-11.6c-0.9-1.3-1.4-2.6-1.4-4c0-6.4,1-11.3,3.1-14.6c2-3.3,5.2-6.7,9.4-10.1
			c2-1.6,4.1-3.4,6.1-5.4c3.9-3.3,8.1-5.6,12.6-7c4.5-1.3,9.6-2,15.2-2l5.4,0.5c2.7,0,4.7,0.2,6.1,0.5v-2.1c0-4.6-0.2-7.9-0.7-10.1
			c-0.5-2.2-1.7-3.9-3.5-5.2c-1.9-1.3-5-1.9-9.4-1.9c-4.7,0-8.9,0.6-12.5,1.8c-3.6,1.2-8.4,3.2-14.4,6c-1.9,1.1-3.2,1.7-4,1.7
			c-0.9,0-1.7-0.4-2.1-1.2l0.2-3.1c0-2-0.3-5.1-0.9-9.2c-0.8-3.5-1.2-6.5-1.2-9.2c0-2.4,1.6-4.3,4.8-5.9c3.2-1.6,6.3-2.5,9.1-2.8
			l18.4-3.8c0.9,0.2,2.1,0.5,3.5,0.9s2.5,0.8,3.3,0.9c1.3,0.2,4,0.6,8.4,1.4c4.3,0.8,8.2,1.8,11.7,3c3.5,1.2,6.9,2.6,10.4,4.4
			c3.9,4.7,7.2,11.4,9.9,20.1c2.7,8.7,4,16.1,4,22.4c0,1.4-0.2,2.9-0.5,4.5c-0.3,1.6-0.6,2.7-0.7,3.3c-0.8,2.7-1.2,5.1-1.2,7.3
			c0,1.9,0.3,3.9,0.8,6c0.5,2.1,1.2,4.2,2,6.3c1.9,5.5,3,9.5,3.3,12C785.8,125.6,787.3,127.1,789.1,127.7z M700.6,120.2
			c2-1.9,3-3.2,3.2-4c-0.8,1.1-2.3,2.2-4.6,3.2c-2.3,1-3.5,1.6-3.7,1.8l0.7,2.1C697.2,123.1,698.6,122,700.6,120.2z M697.4,109.2
			c-0.9,1.7-1.4,2.8-1.4,3.4l0.2,2.4c3.6-1.3,5.4-2.6,5.4-4c-1.6,0-2.4-0.5-2.4-1.4c0-0.5,0.2-0.9,0.7-1.4c0.5-0.5,0.7-0.9,0.7-1.4
			C699.4,106.7,698.3,107.5,697.4,109.2z M702.7,129.4c1.2-1.1,2.8-2.3,4.8-3.5c3-2.2,5-3.9,5.9-5.2h-2.8c2.2-1.1,3.9-2.4,5-3.9
			c1.1-1.5,2.3-3.6,3.5-6.3c0.9-2.2,2.1-4.3,3.5-6.4c1.3-1.7,4.3-4.5,9.2-8.3c-0.5-0.2-0.9-0.4-1.3-0.8c-0.4-0.4-0.7-0.7-0.8-1.1
			c0.6-0.9,2.4-2.9,5.4-5.9c1.4-1.1,2.9-2.5,4.5-4.2c-3.1,0.9-6.7,2.6-10.6,4.8c-3.9,2.3-6.8,4.4-8.5,6.3c-1.3,1.4-3,2.8-5.2,4
			c-2.2,1.4-3.8,2.8-4.7,4c1.4,0,2.4,0.4,2.8,1.2c1.1-1.6,2.5-3,4.2-4.2c1.7-1.3,3.4-1.9,5-1.9c0.2,0,0.4,0.2,0.6,0.6
			c0.2,0.4,0.4,0.7,0.4,1.1c-0.6,0.6-2.4,1.9-5.2,3.8c-3.8,2.8-5.7,4.3-5.7,4.5l-1.4-1.9l-3.8,1.9h2.6c0,0.2,0.1,0.3,0.2,0.5
			c0.2,0.2,0.2,0.4,0.2,0.7c-0.6,0.5-1.4,0.9-2.4,1.4c-0.9,0.5-1.7,1-2.1,1.5c-0.5,0.6-0.7,1.2-0.7,2l4.5-1.9c0.6,0,1.1,0.3,1.4,0.9
			c2.2-2.5,4.2-3.8,5.9-3.8c0,1.1-1,2.5-3.1,4.1c-2,1.7-4.8,3.7-8.3,6c-4.6,3.1-7.4,5.4-8.5,6.6c0.6,0,1.9-0.6,3.9-1.8
			c2-1.2,4.4-2.6,7.2-4.4c0,0.9-0.4,1.8-1.2,2.5c-0.8,0.7-2,1.5-3.5,2.5c-3.3,2-5.1,3.8-5.4,5.2c0,0.2,0.2,0.7,0.6,1.7
			c0.4,0.9,0.9,1.4,1.5,1.4C700.8,131.7,701.5,130.5,702.7,129.4z M699.3,102.9l3.1,1.4c0.6,0,1.7-0.6,3.2-1.8
			c1.5-1.2,2.5-2,2.9-2.5c1.9-1.3,3.4-2.3,4.5-3.2c1.1-0.9,2.1-1.9,3.1-3.2c0.6-0.9,2.1-2.6,4.5-5l0.9,2.1l1.2-5.2
			c-1.9,0-4.7,0.9-8.5,2.6c-3.8,1.7-7.7,3.9-11.8,6.6c0.2,0.6,0.5,0.9,1.2,0.9l1.7-0.2c0,0.8-0.4,2-1.3,3.5c-0.9,1.6-1.9,2.4-3,2.4
			c-0.6,0-1.2-0.2-1.7-0.7V102.9z M702.9,47c0.4,0.3,0.7,0.5,1.1,0.5c0.5,0,2.6-1.1,6.3-3.4c3.7-2.3,5.5-3.9,5.5-4.8
			c-0.8,0-2.9,0.4-6.4,1.3c-3.5,0.9-5.8,1.5-7.1,2c0,0.2,0.1,0.4,0.4,0.6c0.2,0.2,0.5,0.4,0.8,0.4c-0.2,0.2-0.4,0.4-0.7,0.6
			c-0.3,0.2-0.5,0.7-0.5,1.3C702.4,46.1,702.6,46.7,702.9,47z M715.6,137.7c2.8-3.1,4.2-5.5,4.2-7.4c0-0.9-0.6-1.5-1.7-1.7
			c-1.1-0.2-1.7-0.5-1.7-1.2c0-0.2,0.1-0.4,0.4-0.8c0.2-0.4,0.4-0.6,0.6-0.6l-2.1-4l-3.8,3.3c-2.8,2.2-4.2,3.8-4.2,4.7l0.2,1.2
			c0.9-0.5,2-0.9,3.1-1.2c1.1-0.3,2-0.9,2.8-1.9c0,1.3-0.4,2.2-1.3,3c-0.9,0.7-2.1,1.5-3.7,2.2c-1.9,0.9-3.2,1.8-4,2.6
			c-0.8,0.8-1.2,1.9-1.2,3.3l0.2,0.9c0.6,0.5,1.4,0.9,2.4,1.3c0.9,0.4,1.8,0.7,2.6,0.8C710.4,142.3,712.7,140.8,715.6,137.7z
			 M738.7,42.7c-7.9,4.7-12.3,7.1-13.2,7.1h-2.1c-0.5-0.5-0.7-0.9-0.7-1.4c0-0.8,0.6-1.7,1.8-2.8c1.2-1.1,1.9-1.8,2.2-2.1h-1.2
			l-9,5.2l-1.4-0.2c-1.4,0-3.1,0.4-5.2,1.2c-0.5,0.2-1.3,0.4-2.5,0.7c-1.2,0.3-2.2,0.5-3,0.5v9c2.2-0.6,5.2-1.9,9-3.8
			c2.8-1.4,5.2-2.5,7.2-3.2c2-0.7,4.1-1.1,6.5-1.1l2.6,0.2L738.7,42.7z M724.8,80.1c2-0.9,3.1-1.6,3.1-2.2c-3.3,0.5-6,1.3-8,2.5
			c-2,1.2-4.9,3-8.5,5.3l9.9-4C721.5,81.5,722.7,81,724.8,80.1z M723,38.8c-2.1,1-3.9,2.1-5.4,3.2c-1.5,1.1-2.5,2.3-2.9,3.5
			c5-1.4,10.8-4.1,17.2-8c-1.3-0.6-2.7-0.9-4.2-0.9C726.7,37.1,725.1,37.8,723,38.8z M727.7,144.3c0.5-0.5,0.9-1,1.1-1.3
			c0-0.3-0.2-0.6-0.5-0.9c-0.3-0.3-0.5-0.5-0.5-0.7c0.9,0,2.6-1.1,4.8-3.4c2.3-2.3,3.4-3.9,3.4-4.8c-0.5,0-1.2,0.1-2.2,0.4
			c-1,0.2-2.2,0.4-3.4,0.4c0-0.9,0.1-1.4,0.2-1.4c-0.3,0-1.1-0.2-2.4-0.6c-1.3-0.4-2.4-0.6-3.3-0.6c-1.6,0-3.1,0.9-4.6,2.7
			c-1.5,1.8-2.5,3.6-2.9,5.3c1.1-0.6,2.6-0.9,4.5-0.9h2.6c-0.3,0.2-0.9,0.7-1.9,1.7c-0.9,0.9-1.7,1.7-2.1,2.4c0,0.9,0.2,1.5,0.6,1.8
			c0.4,0.2,1.1,0.4,2,0.4c1.6,0,2.8-0.5,3.5-1.4v2.1C726.8,145.2,727.2,144.9,727.7,144.3z M749.6,106.9l0.2-5.7
			c0-4.4-1.3-6.6-4-6.6c-3,0-6.3,1.3-9.8,3.8c-3.5,2.5-6.5,5.6-9,9.3c-2.4,3.7-3.7,7.1-3.7,10.3c0,3.8,0.9,6.2,2.6,7.3
			c1.7,1.1,4.1,1.7,7.1,1.7c3.1,0,6.3-0.6,9.6-1.8c3.2-1.2,5.5-2.9,7-5.3l0.2-6.4L749.6,106.9z M725.5,86.4c0.9,0,2.5-0.6,4.7-1.9
			c3-1.6,5.8-2.8,8.5-3.7c2.7-0.9,6-1.3,9.9-1.3c-3-0.9-6.2-1.4-9.7-1.4C732.3,78.1,727.8,80.9,725.5,86.4z M730.7,41.8
			c-1.7,2.2-2.6,3.8-2.6,4.7c0.8-0.8,2.6-2,5.4-3.8c2.8-1.7,4.5-2.8,5-3.1c-0.3-0.2-0.9-0.4-1.9-0.6c-0.9-0.2-1.7-0.4-2.1-0.6
			C733.7,38.5,732.4,39.6,730.7,41.8z M761.5,131.2c0.5-0.2,0.9-0.4,1.2-0.8c0.2-0.4,0.6-1.1,1.1-2.2c-1.3,0.8-3,1.4-5.2,1.9
			c-2.2,0.5-4.1,0.7-5.7,0.7v-4c-0.6-0.5-1.4-0.7-2.4-0.7c-1.9,0-3.8,0.9-5.8,2.6c-2,1.7-3.8,3.6-5.4,5.5c-1.7,2-2.6,3-2.7,3
			c1.1,0,3.2-1,6.3-3.1c3.1-2,5.3-3.7,6.7-5c0.9,0.3,1.4,1.1,1.4,2.4c-6.1,5.2-12.5,9.8-19.1,13.7l4.7,0.2c3.3,0,6.8-0.7,10.6-2.2
			c3.8-1.5,6.6-3.5,8.5-6c0.6-0.8,1.2-1.6,1.7-2.5c0.5-0.9,1.3-1.7,2.4-2.5C760.3,131.7,760.9,131.4,761.5,131.2z M768.1,61.3
			c-0.6,0.6-2.1,0.8-4.6,0.8c-0.2,0-0.4-0.1-0.7-0.2l0.9-2.1c0-0.2-0.1-0.4-0.4-0.6c-0.2-0.2-0.4-0.4-0.6-0.4
			c-2.4,1.4-4.8,2.3-7.2,2.7c-2.4,0.4-3.7,0.7-3.9,1.1c0,0.9,0.4,2.1,1.1,3.4c0.7,1.3,1.2,2,1.5,2c0.5-0.5,1.5-1.3,3.2-2.5
			c1.7-1.2,2.8-1.8,3.4-1.8c0.3,0.2,0.7,0.4,1.1,0.6c0.4,0.2,0.7,0.4,0.8,0.4c-1.4,0-2.1,0.6-2.1,1.9l0.2,1.2
			c0.8-0.6,1.7-1.2,2.8-1.7c1.1-0.5,2-0.7,2.8-0.7c0.2,0,0.4,0.4,0.7,1.2c0.3,0.8,0.5,1.5,0.5,2.1c-1.6,1.3-3.7,2.9-6.5,4.8
			c-2.8,2-4.8,3.4-6.3,4.4c1.9,0,3.8-0.2,5.7-0.7c2.5-0.3,4.4-0.5,5.7-0.5c1.6,0,2.7,0.4,3.3,1.2c-0.9,1.6-2.3,2.6-4,3.1v-1.4
			c-4.9,0-8.2,0.5-9.9,1.4c-0.5,0.2-1.9,1.3-4.1,3.4c-2.3,2.1-3.7,3.2-4.4,3.2c-0.5,0-0.7-0.2-0.7-0.7c0.2,0,0.4-0.3,0.7-0.8
			c0.3-0.5,0.5-0.9,0.7-1.1c-6.8,2.8-11.5,5.8-14.2,9c4.1-2.7,8.1-4,12-4c0.3,0,0.7,0.1,1.3,0.2c0.5,0.2,1.1,0.4,1.5,0.7
			c1.3-0.2,3.9-1.2,8-3.1c5-2.5,8.5-3.8,10.4-3.8c0.3,0.2,1.3,0.4,3.1,0.6c1.7,0.2,2.6,0.6,2.6,1.1c0,0.9-0.2,1.7-0.7,2.2
			c-0.5,0.6-1.4,1.3-2.7,2.1c-1.3,0.9-2.1,1.9-2.2,2.9c0.3-0.2,0.9-0.2,1.7-0.2c1.4,0,2.4,0.4,3.1,1.2c1.1-1.3,1.8-2.7,2-4.2
			c0.2-1.6,0.4-3.5,0.4-5.9c0-2.8-0.6-7.4-1.7-13.8c-1.1-6.4-2.1-9.6-3.1-9.6C769.1,60.4,768.6,60.7,768.1,61.3z M742.4,51.8
			c0.9-0.5,1.3-1.2,1.3-2c-0.3,0-1.3,0.1-3.1,0.4c-1.7,0.2-2.8,0.8-3.1,1.8c0.5,0.5,1.2,0.7,2.1,0.7S741.5,52.4,742.4,51.8z
			 M752.9,44.6c-0.5,0.3-1.1,1-1.9,2c-0.8,1-1.3,1.8-1.7,2.2c-1.4,2.5-2.6,4-3.5,4.5l0.7,0.5l14.4-6.4c0,0.2,0.1,0.4,0.4,0.7
			c0.2,0.3,0.4,0.5,0.6,0.5c0.3-0.2,0.7-0.4,1.1-0.6c0.4-0.2,0.7-0.4,0.8-0.6c0-0.6-1.9-1.9-5.8-3.9c-3.9-2-6.2-3-7-3h-2.4l-9,5.9
			l-0.9,2.1c1.3-0.9,3.3-1.9,6-2.8c2.8-0.9,4.9-1.4,6.5-1.4L752.9,44.6z M741.5,40.6c-0.9,0.8-1.6,1.7-1.9,2.8l0.9,0.2
			c1.1,0,2-0.5,2.8-1.4c0.8-0.9,1.2-1.9,1.2-2.8C743.5,39.4,742.5,39.8,741.5,40.6z M755.3,55.5c2.6-1.6,4.4-2.8,5.5-3.5l-1.2-0.2
			c-0.9,0-3.2,0.7-6.7,2c-3.5,1.3-5.3,2.3-5.3,3c0,1.4,0.6,2.1,1.9,2.1C750.8,58.2,752.7,57.1,755.3,55.5z M760.2,69.9
			c-0.6,0.2-2.4,0.8-5.3,2c-2.9,1.2-4.4,2.1-4.4,2.7c0,0.3,0.1,0.6,0.4,0.9c0.2,0.3,0.4,0.5,0.6,0.5c1.7,0,4.2-0.9,7.6-2.7
			c3.3-1.8,5.5-3.7,6.6-5.5C765.4,67.9,763.6,68.6,760.2,69.9z M757.2,94.7c1.2-1.1,2.2-1.7,3.2-1.7c0.3,0,0.6,0.3,0.8,0.8
			c0.2,0.6,0.4,0.9,0.6,1.1c0.3-1.1,1-2.3,2.1-3.7c1.1-1.3,2.1-2.2,3.1-2.5c-2.5,0-5.3,0.7-8.4,2.1s-4.6,3.2-4.6,5.4
			C755,96.3,756,95.8,757.2,94.7z M766.2,52.1c-0.4-1-0.8-1.8-1.3-2.2l-2.1,0.7c0.6,0.2,0.9,0.6,0.9,1.4c0,0.5-0.1,0.9-0.2,1.2
			c-0.2,0.3-0.2,0.6-0.2,0.9l-2.4-0.5c-0.2,0.2-1.1,1-2.8,2.5c-1.7,1.5-2.6,2.4-2.6,2.7c1.3-0.3,3.3-1,6.1-2c2.8-1,4.6-1.9,5.4-2.7
			C766.9,53.8,766.6,53.1,766.2,52.1z M763.1,97c-2.1,0.5-3.9,1.1-5.3,1.8s-2.1,1.8-2.1,3.2c0,3.1,0.3,5.5,0.9,7.1L767,98.9l0.7-3.1
			C766.8,96.2,765.2,96.6,763.1,97z M762.9,124.2c1.8-1.1,4-2.8,6.7-5.2c3-2.5,4.6-3.9,4.7-4l-8.3,1.9c-4.6,0.9-7.3,1.7-8.3,2.4
			c-0.9,0.6-1.4,2-1.4,4v2.8C758.9,125.9,761.1,125.3,762.9,124.2z M761.8,110.2c-1.6,0.5-3.3,0.7-5.2,0.7v5.2
			c1.1-1.3,2.3-2.2,3.7-2.8c1.3-0.6,2.7-1.1,4-1.5c1.3-0.4,2.2-0.7,2.7-0.8v-1.2C765.8,109.8,764,109.9,761.8,110.2z M768.3,106.6
			c2.3-0.9,3.4-1.9,3.4-3.2c0-2.7-0.3-4.2-0.9-4.5c-0.5,0-1.2,0.2-2.2,0.6c-1,0.4-1.5,0.9-1.5,1.5c0,0.3,0.2,0.6,0.7,0.9l-5,5.9
			C764.2,107.9,766,107.4,768.3,106.6z M767,136.2c0.9-1.4,1.6-2.4,1.9-3.1c-0.2,0-1.1,0.2-2.7,0.7c-1.7,0.5-2.5,1.3-2.5,2.4
			c0,1.4,0.5,2.1,1.7,2.1C765.5,138.3,766.1,137.6,767,136.2z M767.7,113.1h2.4c1.3,0,2.2-0.2,2.9-0.6c0.7-0.4,1.1-1.2,1.1-2.5
			C771.6,110.5,769.5,111.5,767.7,113.1z M775.4,118.6c-0.7,0.4-1.1,0.6-1.3,0.6l0.7-2.1c-0.8,0.3-2,1.2-3.7,2.6
			c-1.7,1.4-2.8,2.6-3.4,3.5c0.6-0.3,1.6-0.8,2.8-1.4c1.3-0.6,2.4-0.9,3.5-0.9l0.7,0.2l1.2,4.2l-8.3,3.8v0.9
			c0.5-0.2,1.1-0.3,1.9-0.5c0.8-0.2,1.5-0.3,2.1-0.5l2.4,0.2c0,0.3,0.1,0.7,0.4,1.3c0.2,0.6,0.4,1,0.4,1.3c0,0.5-0.7,1.1-2,1.9
			c-1.3,0.8-2,1.5-2,2.1c0.2,0,1.2-0.4,3.1-1.2c1.9-0.8,5.5-2.4,10.9-4.7c-0.8-0.8-1.9-1.8-3.3-3s-2.6-2.4-3.4-3.7
			c-0.9-1.3-1.3-2.6-1.3-4l0.2-1.4C776.6,118,776.1,118.2,775.4,118.6z M774.1,123.2c-0.9,0.2-2.4,1.1-4.5,2.8L774.1,123.2z
			 M774.8,139.3l-5.2,1.9c0.2,0.2,0.5,0.5,0.9,1.1c0.5,0.6,1.2,0.8,2.1,0.8L774.8,139.3z M772.7,107.9v-0.9l-1.9,0.9H772.7z
			 M779.3,138.1c-1.1,1.7-1.7,4.2-1.7,7.3l7.6-7.8c0.5-0.5,0.7-1.1,0.7-1.9c0-0.8-0.2-1.2-0.7-1.2
			C782.4,135.2,780.4,136.4,779.3,138.1z M797.3,140.7c0.4-3,0.7-5.3,0.8-6.8c-1.3,0-4.3,2.3-9.2,6.8c-2.4,2.4-4,3.9-5,4.5h12
			C796.5,145.2,797,143.7,797.3,140.7z M788.7,135.7c-0.3,0.8-0.6,1.5-0.7,2.1c0.3,0,1.1-0.6,2.5-1.8c1.3-1.2,2.2-1.9,2.7-2.2
			c-0.3-0.3-1.1-0.8-2.5-1.4c-1.3-0.6-2.1-1-2.2-1.2c0.5,0.9,0.7,1.8,0.7,2.6C789.2,134.3,789,134.9,788.7,135.7z"/>
		<path class="st0" d="M847.5,80c3.8,2,10,4.5,18.6,7.3c8,2.5,14.6,4.9,19.6,7.2c5,2.3,9.4,5.5,13,9.7c3.6,4.2,5.4,9.6,5.4,16.2
			c0,6.8-2.1,12.9-6.4,18.5c-4.2,5.6-9.7,9.6-16.3,12.2c-1.1,0.5-2.8,1.3-5.2,2.5c-2.4,1.2-4.6,1.8-6.8,1.8c-2.4,0-5.7,0.2-10.1,0.5
			l-10.4,0.2c-3.3,0-6.5-0.4-9.4-1.1c-3-0.7-6.7-1.9-11.1-3.4c-4.1-1.4-7.6-2.5-10.4-3.2s-5.7-1.1-8.7-1.3l-0.9-1.2v-22.4
			c0-0.6,1-0.9,3.1-0.9c3.3,0,8.6,1.5,15.8,4.5c4.4,1.6,8.1,2.8,11,3.7c2.9,0.9,5.7,1.3,8.4,1.3c1.7,0,3.4-0.2,5.1-0.6
			c1.7-0.4,3.5-1,5.5-1.8c-0.2-0.3-0.2-0.8-0.2-1.4c0-1.4,0.5-3.1,1.7-5c1.3-2.5,1.9-4.5,1.9-5.9c0-3.6-1.3-6.2-4-7.8
			c-2.7-1.6-6.6-2.9-11.8-4c-4.7-0.9-8-2-9.9-3.3c-0.9-0.6-2.5-1.6-4.6-2.8c-2.1-1.3-3.9-2.4-5.3-3.5c-1.4-1.1-2.1-2-2.1-2.8
			c-2.4-0.6-4.9-3.1-7.6-7.6c-2.7-4.4-4.6-8.3-5.9-11.8l-0.9-5.9c0-10.1,3.5-18.2,10.4-24.5c6.9-6.3,15.6-9.4,26-9.4
			c1.3,0.2,2.9,0.4,5,0.8c2,0.4,4.2,0.7,6.6,1.1c16,3,26.4,4.5,31.2,4.5c1.4,0,2.7,2.3,3.9,6.8c1.2,4.6,1.8,9.1,1.8,13.7
			c0,6.1-1.1,9.2-3.3,9.2l-0.9-0.2c-1.7-3-4-5.1-6.8-6.3c-2.8-1.2-5.8-2-8.8-2.6c-3.1-0.5-4.6-1-4.6-1.3h-3.3
			c-5.7,0-11,0.8-15.9,2.4c-5,1.6-7.4,4.6-7.4,9.2C841.8,75,843.7,78,847.5,80z M814.5,141.9c4.7-0.8,8.5-2.8,11.3-6.1
			c-0.5,0-0.9-0.1-1.3-0.4c-0.4-0.2-0.7-0.4-0.8-0.4c-1.4,0-3.4,0.5-5.9,1.4c-2.5,0.9-3.9,2.1-4.2,3.5
			C813.5,140.8,813.8,141.4,814.5,141.9z M814.5,68.7h2.1c0.6,0,5-1.7,13.2-5.2c8.2-3.5,14.3-6.1,18.4-8c2.5-1.4,5.7-3.2,9.7-5.4
			c3.9-2.2,7.2-4.1,9.7-5.7c-0.8-0.6-2.7-1.1-5.7-1.4c-0.3,0-1,0-2-0.1c-1-0.1-1.9-0.3-2.5-0.6c-0.6-0.3-1-0.7-1.2-1.2l-20.3,10.1
			c2.2,0,4.4-0.5,6.7-1.4c2.3-0.9,3.7-1.5,4.1-1.7c4.1-2,7.6-3.1,10.4-3.1c0.6,0,1.2,0.2,1.7,0.5c0.5,0.3,0.7,0.7,0.7,1.2
			c0,0.3-9.2,4.6-27.6,12.7h-2.1l-15.3,8.3V68.7z M818.8,58c-2.9,1.8-4.4,3.7-4.4,5.5c7.7-1.9,12.8-4.6,15.3-8l-2.1-0.2
			C824.7,55.3,821.7,56.2,818.8,58z M832.9,64.5c-4.2,1.7-7.8,3.3-10.5,4.8c-2.8,1.5-5.1,3.3-7,5.5c1.9,0,3.9-0.6,5.9-1.8
			c2-1.2,3.3-1.9,3.8-2.2c3.9-2.7,7.1-4,9.4-4c0,0.6-0.7,1.4-2.1,2.4s-2.3,1.6-2.6,1.9c-2.5,1.6-4.2,2.8-5,3.8
			c0.6-0.2,1.8-0.6,3.5-1.3c1.7-0.7,3.5-1.3,5.4-1.8c0.2,0,1.1-1.5,2.7-4.4c1.7-2.9,3.5-4.8,5.5-5.8v-1.2
			C839.5,61.9,836.5,63.2,832.9,64.5z M825.8,45.8c-2.7,1.1-4.8,2.1-6.3,3.1c-1.5,0.9-2.2,2.4-2.2,4.5h1.4c1.9,0,8.1-2.4,18.6-7.1
			l4.7-1.9c-1.6-0.2-2.4-0.4-2.4-0.7c0-0.3,1-1,3.1-2c2-1,3.1-2.1,3.3-3.2c-6.3,0-10.4,0.9-12.3,2.6l-3.1,2.1
			C830.4,44,828.8,44.9,825.8,45.8z M827.6,79.6c2.8-1.7,4.8-3.3,6.3-4.7c-1.9,0.8-4.6,1.5-8,2.1c-3.8,0.6-6.5,1.3-8.3,1.9
			c0.2,2.2,1.2,3.3,3.1,3.3C822.5,82.2,824.8,81.3,827.6,79.6z M820.8,143c3.8,0,12.2-1.4,25.3-4.2c-2.8-2-8.3-3.1-16.3-3.1
			c-1.3,0.9-3.3,2.3-6,4.1c-2.8,1.8-4.1,2.8-4.1,2.9L820.8,143z M826.1,89.5c0.4,0.9,0.7,1.6,1.1,1.9c0.8,0,2.6-1.1,5.5-3.3
			c2.9-2.2,4.4-3.6,4.4-4.2c-0.2-0.2-0.5-0.2-0.9-0.2c-1.3,0-3.3,0.5-6,1.5c-2.8,1-4.5,1.6-5.3,1.8
			C825.3,87.7,825.7,88.5,826.1,89.5z M830.5,146.6c1.9,0.3,3.3,0.5,4.2,0.5l10.1-4.5c-0.2,0-0.4-0.1-0.8-0.4
			c-0.4-0.2-0.7-0.4-1.1-0.4c-2.4,0.3-5.3,0.8-8.7,1.4c-3.5,0.6-6.3,1.2-8.5,1.7C827,145.7,828.6,146.3,830.5,146.6z M834.6,82.3
			c2.4-0.4,3.6-0.8,3.4-1.3l-2.1-3.3l-9.2,5.2h1.7C830.1,82.9,832.2,82.7,834.6,82.3z M831.9,94.8c2,0.9,3.4,1.3,4,1.3l11.1-6.1
			c-0.8,0.2-3.6,0.6-8.5,1.3c-4.9,0.7-8.1,1.3-9.7,1.8C828.9,93.3,829.9,93.9,831.9,94.8z M838.4,86.9c-1.8,0.9-3.3,1.7-4.6,2.1
			l2.1,0.9c0.2-0.3,1.4-0.7,3.8-1.1c2.4-0.4,4.1-0.7,5.2-1.1l1.2-0.9c-0.6-0.3-1.3-0.7-2-1.2s-1.3-0.8-1.8-0.9
			C841.5,85.2,840.2,85.9,838.4,86.9z M846.4,92.5c-2.4,1.1-4.3,2.6-5.5,4.5c4.6,0,11.4-0.9,20.5-2.8l7.1-1.2
			c-5.7-1.4-10.5-2.1-14.6-2.1C851.3,90.9,848.9,91.4,846.4,92.5z M892.3,135c1.1-1.6,1.7-3.1,1.7-4.5c-1.6,0-3.8,0.5-6.6,1.4
			l-9.9,2.8c-21.9,5.2-34.1,9.5-36.6,13c1.9,0,8-1,18.3-2.9c10.3-2,20.2-4,29.6-6C890.1,137.9,891.2,136.6,892.3,135z M860.7,99.9
			c2.7-1.7,5-2.6,6.8-2.6v-1.2c-0.3,0.2-3.5,0.6-9.7,1.2c-5.4,0.3-9.4,0.7-12,1.1c-2.7,0.4-3.9,1-3.8,1.8c5,1.4,9.1,2.1,12.3,2.1
			C856.1,102.2,858.2,101.4,860.7,99.9z M877.5,147.1l-2.8-0.2c-1.1,0-2.7,0.2-4.7,0.5c-2,0.3-3.5,0.5-4.5,0.5
			c0.6,0,0.9-0.6,0.9-1.9l-14.2,4c0.5,0.5,1,0.8,1.5,0.9c0.5,0.2,1.1,0.2,1.8,0.2C862.9,151.1,870.2,149.7,877.5,147.1z M882.7,101
			l-5.9-1.9c-3.6-1.4-5.7-2.1-6.4-2.1c-0.5,0-2.4,1.1-5.7,3.2s-5.1,3.5-5.4,4.1C868.4,104.3,876.2,103.2,882.7,101z M859.3,134.8
			c0.2,0.3,0.5,0.7,0.9,1.2c0.5,0.5,0.9,0.7,1.2,0.7c0.8-2.5,3.7-4.8,8.7-7c5-2.1,12-4.5,20.8-7.2v-1.2c-5.4,1.7-11.2,2.6-17.5,2.6
			c-1.9,0-4.6-0.2-8-0.5C864.5,123.9,862.4,127.7,859.3,134.8z M869.7,44.4c-1.3,0-3.1,1.2-5.4,3.7c-2.4,2.4-3.7,3.8-4,4.1h1.2
			l12.3-7.1C872.7,44.6,871.4,44.4,869.7,44.4z M873.7,108.2c3.3-1.5,5.3-2.8,5.9-3.9c-2.5,0-5.9,0.4-10,1.1c-4.2,0.7-6.3,1.7-6.3,3
			c0,1.4,0.9,2.1,2.6,2.1C867.8,110.5,870.4,109.7,873.7,108.2z M879.6,46.3c-1.3,0-2.6,0.3-4.1,0.9c-1.5,0.6-2.7,1.2-3.5,1.8
			c-0.9,0.6-1.5,0.9-1.8,1.1c-3,1.9-5,3-5.9,3.3c2.4,0.6,4.5,0.9,6.4,0.9C874.2,54.3,877.2,51.6,879.6,46.3z M880.4,112.5
			c-2,0.4-3.4,0.7-4.4,1.1c-3.6,0.6-6.2,1.3-7.7,1.9c-1.5,0.6-2.2,1.8-2.2,3.5l0.2,2.6l24.5-11.1l-1.2-0.2c-0.6,0-1.3,0.1-2,0.4
			s-1.4,0.4-2,0.6C884.2,111.7,882.4,112.1,880.4,112.5z M885.7,105l-16.3,6.1v1.2c1.3-0.2,3.7-0.4,7.4-0.8c3.7-0.4,6.8-0.9,9.2-1.7
			c2.4-0.7,4-1.6,4.8-2.7C889,105.8,887.3,105,885.7,105z M892.8,112.4l-19.1,8l-1.2,1.2c5,0,10.4-0.3,16-0.8
			c5.7-0.5,8.5-1.6,8.5-3.2C897.1,114.1,895.6,112.4,892.8,112.4z M896.7,127.3c0.2-0.5,0.4-1.3,0.4-2.2c0-1.7-0.4-2.6-1.2-2.6
			l-20.3,8v1.4c2.4,0,5.4-0.9,9.2-2.6c0.3-0.2,1.6-0.6,3.8-1.4c2.2-0.8,4.3-1.2,6.4-1.2v1.9C895.9,128.3,896.5,127.9,896.7,127.3z
			 M881.5,47.2c0,1.1-0.5,2.2-1.4,3.4c-0.9,1.2-1.5,1.9-1.7,2.2c0,0.2,0.1,0.4,0.2,0.6c0.2,0.2,0.4,0.4,0.7,0.4c0.5,0,1.4-0.7,2.7-2
			c1.3-1.3,2.2-2.2,2.7-2.5C884.2,47.9,883.1,47.2,881.5,47.2z M886.7,54.1c-1.7,0-3.1,0.1-4.2,0.4c-1.1,0.2-2,0.9-2.8,2
			c2.7,0.8,5,1.2,7.1,1.2V54.1z"/>
		<path class="st0" d="M990.6,28.2c0.2,0.2,0.4,0.8,0.4,1.8v22.2c0,1.6-0.5,2.9-1.4,3.9c-0.9,1-2.2,1.5-3.8,1.5
			c-0.6,0-2.4-0.3-5.2-0.9c-4.2-0.8-6.5-1.2-6.8-1.2c-1.3,0-2.8,0.1-4.6,0.4c-1.8,0.2-3.3,0.4-4.6,0.6c-1.4,3.1-2.1,6.8-2.1,10.9
			c0,6.1,0.5,12.5,1.4,19.2c0.9,6.7,1.5,10.6,1.7,11.7c1.7,10.1,2.8,18.6,3.1,25.5c0.3,1.4,1.5,2.1,3.5,2.1c1.4,0,3.1-0.2,5.1-0.7
			c2-0.5,3.5-0.7,4.6-0.7c2.4,0,3.9,1.1,4.5,3.3c0.6,2.2,0.9,5,0.9,8.5c0,9.9-1,14.9-3.1,14.9h-5.2c-8,0-14.7-0.4-20.1-1.3
			c-5.4-0.9-10.6-2.8-15.8-5.8c-5.5-3.1-9.6-8.5-12.2-16.2c-2.6-7.6-3.9-15.3-3.9-23c0-2.2,0.2-5.5,0.5-9.9c0.3-4.4,0.5-7.7,0.5-9.9
			c0-4.1-0.2-8-0.7-11.8c-0.3-5-0.5-8.9-0.5-11.6l0.2-4c-0.8-0.2-1.5-0.7-2.1-1.8c-0.6-1-1.2-1.5-1.7-1.5c-3.6,2.7-6.5,4-8.5,4
			c-0.8,0-1.2-0.7-1.2-2.1c0-2.7,0.7-4.6,2.1-5.9c-1.6-0.5-2.4-3.2-2.4-8.3l0.2-11.1c1.4-0.9,2.9-1.5,4.5-1.8
			c1.6-0.2,3.5-0.4,5.9-0.4c1.1,0,2.3,0.2,3.7,0.5c1.3,0.3,2.4,0.5,3.2,0.5l-0.2-10.6c-0.3-4.7-0.5-8.3-0.5-10.6
			c0-2.7,0.6-4.5,1.8-5.5c1.2-1,3.9-1.5,8.1-1.5c1.9,0,3.8,0.2,5.7,0.7c2.2,0.3,3.9,0.5,5.2,0.5c0.3,0,1-0.4,2-1.1
			c1-0.7,1.8-1.1,2.5-1.1c4.6,0,7.4,0.7,8.5,2.2c1.1,1.5,1.7,4.1,1.7,7.9c0,1.1,0.2,2.8,0.5,5c0.5,1.9,0.7,3.9,0.7,6.1l-0.5,7.1
			l23.1-0.9C990,27.9,990.4,28,990.6,28.2z M919.2,49.9c0.2,0.2,0.5,0.4,1.2,0.4c1.4,0,4.5-2.1,9.2-6.4c4.7-4.2,7.2-6.8,7.3-7.8
			c-1.9,1.3-4.2,1.9-6.8,1.9V35h-10.4c-0.2,0.3-0.4,1-0.6,2.1c-0.2,1.1-0.4,2.1-0.4,3.1c0,0.6,0.2,1.7,0.6,3.2
			c0.4,1.5,0.6,2.7,0.6,3.7c0,1.1-0.4,1.9-1.2,2.4C918.9,49.5,919.1,49.7,919.2,49.9z M932.1,53.6c0.4,0.9,0.7,1.6,0.8,1.9l11.3-4
			c1.3-1.7,4.2-3.2,8.7-4.5c2.7-0.8,4.9-1.6,6.6-2.5c1.7-0.9,3.1-2,4-3.4h-3.1l-23.6,6.1l-0.7-0.9c-0.5,1.4-1.3,2.1-2.4,2.1
			c-0.6,0-1.9-0.4-3.8-1.2l-7.1,5h8C931.4,52.2,931.7,52.7,932.1,53.6z M940.2,57.4c-2.7,0.3-4.6,0.9-5.8,1.8
			c-1.2,0.9-1.8,2.9-1.8,6c0,1.4,0.1,2.6,0.2,3.5c1.6-2.4,3.2-4.1,4.8-5.3c1.7-1.2,3.8-2.5,6.5-3.9c2.8-1.1,5.2-2.4,7.1-4h-2.8
			C946.6,56.4,943.9,57.1,940.2,57.4z M942.4,99.1c-2.7,0.6-4.6,1.5-5.8,2.6c-1.2,1.1-2.4,3.7-3.7,7.8c3.8-1.9,7.7-4.2,11.7-7.1
			c4-2.8,6.6-4.6,7.9-5.4v-1.2C949.2,97.4,945.8,98.5,942.4,99.1z M935.4,89.7c-1,1.4-1.5,3.2-1.5,5.4l0.2,1.9l16.3-9.2
			c-1.7,0-3.6,0.4-5.7,1.2c-0.5,0.2-1.3,0.4-2.4,0.7c-1.1,0.3-2.2,0.5-3.3,0.5l-2.1-0.2l1.2-0.9l17.2-6.1v-6.1
			c-2,0.2-4.9,1.5-8.5,4.1c-3.6,2.6-5.9,4.2-6.8,4.8C938,87,936.4,88.3,935.4,89.7z M942.4,68.1c-5.4,1.8-8.1,2.6-8.3,2.5v6.1h0.9
			c1.4,0,5-1.8,10.9-5.3c5.8-3.5,8.7-5.9,8.7-7l-0.2-0.7C951.7,64.9,947.7,66.3,942.4,68.1z M937.1,79c-1.3,0.9-2.3,1.8-3,2.7
			c0.8,0.2,1.2,0.9,1.2,2.4l-0.2,1.9l4-4.2c0,0.3,0.1,0.6,0.4,0.8c0.2,0.2,0.5,0.4,0.8,0.4c0.3,0,0.7-0.1,1.1-0.4
			c0.4-0.2,0.7-0.5,1.1-0.8c1.9-1.3,4.1-2.8,6.6-4.7c2.5-1.9,4.3-3.3,5.4-4.2l-13.2,5C939.8,77.7,938.4,78.1,937.1,79z M935.1,117.6
			l14.2-6.1V110c-1.7,0.3-4.5,1.1-8.4,2.4c-3.9,1.3-5.8,2-5.8,2.1V117.6z M936,26.9c0.2,0.2,0.4,0.4,0.6,0.8
			c0.2,0.4,0.4,0.7,0.4,1.1c1.7,0,3.9-0.5,6.5-1.4s4.3-2.1,5.1-3.5l-4-0.2C938.8,23.6,936,24.7,936,26.9z M936.2,10.6
			c0.3,0.5,0.5,0.9,0.7,1.4c0.2,0.5,0.4,0.9,0.7,1.2c0.3,0.3,0.8,0.5,1.4,0.5c1.6,0,3.8-0.6,6.6-1.9c2.5-1.4,4.8-2.1,6.8-2.1
			c0.3-0.2,1.1-0.5,2.4-1.2c1.3-0.6,2.1-1.3,2.6-1.9c-0.9,0.2-2.3,0.2-4,0.2c-2.8,0-5.6-0.2-8.3-0.7c-0.9,0-2.3-0.1-4-0.4
			c-1.7-0.2-3.4-0.4-5-0.4V10.6z M936.7,125.9c0.3,1.2,1.1,1.8,2.4,1.8c0.8,0,3.9-1.9,9.3-5.7c5.4-3.8,8.5-6,9.1-6.6
			c-0.8,0-1.5,0.1-2.2,0.2c-0.7,0.2-1.3,0.2-1.8,0.2c-1.6,0-4.8,0.7-9.8,2c-5,1.3-7.4,2.6-7.4,3.7
			C936.2,123.3,936.4,124.8,936.7,125.9z M958.7,97l-1.2-0.9c-1.3,1.7-2.9,3.3-5,4.7c-2,1.4-4.1,2.8-6.1,4c-3.8,2.2-6.5,4.1-8.3,5.7
			c2,0,4.2-0.5,6.5-1.4c2.3-0.9,3.7-1.5,4.1-1.7c4.1-2,7.4-3.1,9.9-3.1V97z M939.3,66.8c0.8,0,2.1-0.3,4-0.8c1.9-0.5,3.2-1.1,4-1.5
			c0.2-0.8,0.6-1.4,1.4-1.8c0.8-0.4,1.7-0.7,2.6-1.1c1.7-0.6,3-1.3,3.9-2c0.9-0.7,1.3-1.8,1.3-3.4c-1.7,0-4.8,1.3-9.2,4
			c-4.4,2.7-7.3,4.7-8.7,6.1C938.6,66.7,938.8,66.8,939.3,66.8z M958.5,16.9c0.7-1.3,1.4-3.4,2-6.3c-2,0-3.9,0.5-5.7,1.4
			c-1.7,0.9-3.7,2.3-5.9,4c-1.9,1.6-3.6,2.8-5.1,3.7c-1.5,0.9-3.1,1.3-4.8,1.3v1.7c2,0,5-0.6,8.7-1.9c3.5-1.3,6.1-1.9,8-1.9
			C956.9,18.9,957.8,18.2,958.5,16.9z M951.1,31.7c-2.2,0.9-4.5,1.8-6.8,2.6c-2.4,0.8-4.1,1.4-5.2,1.9v4.5L957.5,30v-2.1
			C955.4,29.5,953.3,30.7,951.1,31.7z M961.2,35.5c-0.5-0.4-0.7-0.9-0.8-1.7c-0.1-0.7-0.6-1.1-1.5-1.1c-1.6,1.7-4.7,3.5-9.4,5.4
			c-5,2-8.5,4.1-10.4,6.1l9.4-2.1l0.7-1.2l1.2,1.2c1.3-1.1,3.7-2,7.3-2.6c2.5-0.6,4.3-1.2,5.3-1.7c1-0.5,1.5-1.1,1.5-1.9
			C962.8,36.1,961.7,35.9,961.2,35.5z M942.4,134.9c0.8,0.7,1.6,1.1,2.4,1.1c1.6,0,4.8-1.5,9.8-4.6s7.4-5.4,7.4-7h-1.4l-18.2,7.3
			c-0.8,0.3-1.2,0.6-1.2,0.9C941.2,133.4,941.6,134.2,942.4,134.9z M945.1,31.7c1.5-0.5,2.6-0.7,3.4-0.7l9.9-5
			c0-0.3,0.2-0.8,0.7-1.5c0.5-0.7,0.7-1.3,0.7-1.8c-1.6,0-5,1.3-10.1,3.9c-5.2,2.6-7.8,4.5-7.8,5.8
			C942.5,32.4,943.6,32.1,945.1,31.7z M957.7,91.1c0-2.2-0.5-3.3-1.4-3.3l-13.9,7.3c1.6,0,3.6-0.5,6.1-1.7c0.5-0.2,1.3-0.5,2.6-0.9
			c1.3-0.5,2.5-0.7,3.8-0.7c1.6,0,2.4,0.5,2.6,1.4L957.7,91.1z M955.7,135.5c-6.1,2.5-9.6,4.3-10.5,5.4h15.3c5.3-5.3,8-8.1,8-8.3
			v-0.9h-1.9C965.4,131.7,961.8,133,955.7,135.5z M953.2,121c-2.7,2-5,4.2-6.8,6.7c1.6-0.5,3.4-1.3,5.4-2.6c2-1.3,5.3-3.5,9.9-6.8
			c0-0.6-0.1-1.2-0.2-1.7C958.7,117.6,955.9,119,953.2,121z M959.6,109.3l-8.5,3.8l1.4,0.5c4.7-0.6,7.1-1.3,7.1-2.1V109.3z
			 M984.8,39.2c-5,1.1-10.4,2.8-16,5.2c-5.7,2.4-9.1,4.7-10.4,7.1l2.1-0.2c1.1,0,2.1,0.3,3.1,0.9c2,0,5.3-0.3,9.7-0.9
			c4.7-0.6,8.3-0.9,10.6-0.9L984.8,39.2z M962.4,142.8h1.2c1.3,0,3.3-0.7,6.1-2c2.8-1.3,5.4-2.9,7.7-4.8c2.3-1.9,3.4-3.6,3.4-5.2
			L962.4,142.8z M971,34.4c-3.1,0.9-4.6,1.6-4.6,2.2c0,0.2,0.3,0.6,0.9,1.3c0.6,0.7,1.1,1.3,1.4,1.8l-2.1,3.5l17-9.2
			c-0.6-0.6-2-0.9-4-0.9C977,33.1,974.1,33.5,971,34.4z M978,144.8c1.3-0.7,1.9-2.7,1.9-6l-13.2,6.1c0.5,0.2,1.1,0.4,1.9,0.6
			c0.8,0.2,1.5,0.4,2.1,0.4C974.3,145.9,976.7,145.5,978,144.8z"/>
		<path class="st0" d="M1102.4,91c0.3,0.2,0.5,0.4,0.7,0.4c-1.4,0.6-2.1,1.3-2.1,1.9l0.2,1.4c0,1.6-3.7,3-11.1,4.4
			c-7.4,1.3-23,2.8-46.7,4.4c-0.5,0.2-1.7,0.2-3.8,0.2c-2.2,0-3.5-0.1-3.8-0.2c0.8,5.5,2.9,9.4,6.4,11.8c3.5,2.4,7.7,4.2,12.7,5.4
			c1.3,0.3,2.4,0.7,3.4,1.1c1,0.4,1.6,0.8,1.8,1.3l0.9-0.7h21.5c2.2,0,4.7-0.8,7.6-2.5s4.3-2.8,4.5-3.4c3,0,4.5,2.4,4.5,7.3
			l-0.2,5.9l0.5,8.5l0.9,0.7c-5,5-10,8.3-14.8,9.9c-4.8,1.6-10.8,2.4-18.1,2.4c-6.3,0-11.6-0.4-15.8-1.2c-4.9-0.3-9.4-1.1-13.7-2.5
			s-7.6-3.3-10.1-5.8c-2.2,0-4.8-0.7-7.7-2.2c-2.9-1.5-5.4-3.4-7.6-5.7c-2.1-2.3-3.2-4.6-3.2-7l0.2-0.9c-1.1-1.4-2-3.1-2.7-5
			s-1.3-3.9-1.8-5.9c-1.3-4.4-2.4-7.6-3.5-9.7v-1.9c-0.2-1.1-0.2-2.7-0.2-4.7c0-5,0.2-9.1,0.5-12.2c0.3-3.1,1.1-6.7,2.4-11
			c0.5-1.6,1.2-3.1,2.1-4.7c1.1-1.7,2-3.5,2.6-5.4c1.1-3.8,2.7-6.9,4.8-9.4c2.1-2.5,5.2-5.3,9.1-8.3c0.6-0.6,2.9-2,7-4
			c4-2,8.3-3.9,12.9-5.7c4.6-1.7,8.4-2.6,11.6-2.6c4.1,0,10.2,1.5,18.3,4.4c8.1,2.9,13.9,5.8,17.3,8.6c4.6,3.6,7.7,8.2,9.3,13.8
			c1.7,5.6,3,12.8,3.9,21.6c0,2.5-0.2,4.1-0.6,4.8c-0.4,0.7-0.6,1.3-0.6,1.8C1101.9,90.6,1102.1,90.8,1102.4,91z M1098.4,91.4
			c-0.8-0.2-1.2-0.8-1.2-1.9l0.2-0.9c-1.7,0.9-3.1,1.5-4.2,1.8c-1.1,0.2-2.5,0.4-4.2,0.4l-2.8-0.2l1.9-0.9l-0.7-0.9l-6.6,2.8
			c-0.3-0.6-0.9-0.9-1.9-0.9c-1.6,0-2.9,0.4-3.9,1.3c-1,0.9-3.4,1.7-7.2,2.5l-1.2-1.9c0,0.8-1.3,1.6-3.8,2.5
			c-2.5,0.9-4.6,1.3-6.1,1.3c-1.4,0-2.1-0.5-2.1-1.4c0.2-0.3,2.2-1,6.3-2c4-1,6.3-2.1,7-3.2c-1.3-0.6-2.3-0.9-3.1-0.9
			c-0.6,0-1.4,0.2-2.4,0.5c-0.9,0.3-1.7,0.5-2.1,0.5c-0.9,0-1.4-0.2-1.4-0.5c0-0.3,0.4-0.6,1.2-0.8c0.8-0.2,1.7-0.4,2.8-0.6
			c0.6-0.8,2-1.5,4-2.1c2-0.6,4.2-1.2,6.4-1.7c4.7-0.9,7.2-1.8,7.6-2.6c-5.7,0-10.6,0.6-14.9,1.9c-0.9-0.3-1.4-1.3-1.4-2.8h-4.2
			l-0.9,1.7l1.9,1.2l-0.9,1.9l-11.3,5.4h-3.5c0.6-0.6,1.5-1.2,2.7-1.7c1.2-0.5,2-0.9,2.5-1.2c3.5-1.6,5.7-3.1,6.8-4.5h-2.8
			c0.2-0.3,0.7-0.7,1.5-1.2c0.9-0.5,1.3-0.9,1.3-1.2c0-0.3-0.2-0.6-0.5-0.8c-0.3-0.2-0.5-0.4-0.5-0.6c-1.1,0.6-5.3,0.9-12.5,0.9
			h-6.1c-0.8,0-1.5,0.3-2.2,0.8c-0.7,0.6-1.2,0.8-1.5,0.8c-0.5,0-1.1-0.1-1.9-0.4c-0.8-0.2-1.3-0.4-1.4-0.4
			c-0.5,0.2-2.2,0.4-5.2,0.7c-3,0.3-4.5,0.7-4.5,1.2v1.2c3.6,0,6.4-0.4,8.3-1.2c1.4,0,2.1,0.5,2.1,1.4c0,0.9-0.5,1.8-1.4,2.5
			c-0.9,0.7-1.9,1.1-2.8,1.1c-0.3,0-0.8-0.2-1.4-0.5l-11.3,6.6c-0.3-0.6-0.8-1-1.4-1.1c-0.6-0.1-1.1-0.4-1.4-0.8
			c0.6-0.9,1.6-1.7,3-2.2c1.3-0.5,2.2-0.9,2.7-1.1c2-0.5,3.6-1.2,4.7-2.1l-3.8-0.2c-0.9,0-2.3,0.2-4,0.6c-1.7,0.4-3.1,0.6-4.2,0.6
			c-0.8,0-1.4-0.1-1.9-0.2l-1.9,6.6c0.8,0.3,1.2,0.9,1.3,1.7c0.1,0.8,0.2,1.5,0.4,2c0.2,0.6,0.9,0.8,2.1,0.8c2.4,0,6.4-2,12.3-5.9
			c0.6-0.3,1.9-1.1,3.9-2.2c2-1.2,3.7-2.1,5.1-2.7c1.4-0.6,2.7-0.9,3.8-0.9c1.3,0,2.3,0.4,3.1,1.2c0,0.6-1,1.3-3,2.1
			c-2,0.8-3.5,1.5-4.6,2.1c0.6,0.2,0.9,1,0.9,2.6c0,0.9-1.2,1.8-3.5,2.5c-2.4,0.7-3.7,1.2-4,1.5V98c-1.4,0-2.1,0.6-2.1,1.9l0.2,0.9
			c1.9,0,4.1-0.6,6.6-1.9c1.7-1.1,3.5-1.7,5.2-1.7c0-1.3,0.6-2.2,1.9-2.9c1.3-0.7,2.6-1.1,4-1.1v0.9l2.8-0.9l-0.9-0.9
			c0.2-0.2,0.4-0.4,0.8-0.6c0.4-0.2,0.7-0.4,1.1-0.4c0.2,0,0.4,0.1,0.6,0.4c0.2,0.2,0.4,0.4,0.4,0.6c1.7-0.6,4-1.1,6.8-1.4
			c2.8-0.3,4.9-0.5,6.1-0.5c-2,1.3-5.8,2.5-11.3,3.8c-4.6,1.1-7.3,2-8.3,2.8v1.2c3,0,7.5-0.2,13.5-0.5c4.7-0.5,9.6-0.7,14.6-0.7
			l3.8,0.9c2.2-1.1,3.9-1.8,5.2-2.1c1.3-0.3,2.8-0.5,4.6-0.5c1.8,0,3.4-0.1,4.8-0.2c2-0.2,4.4-0.5,7-0.9c2.6-0.5,4.4-0.8,5.3-0.9
			L1098.4,91.4z M1015.2,106.3c2.3-0.7,3.9-1.3,4.8-1.8l0.9-1.2c-2.2,0.3-3.8,0.6-4.7,0.9c-3.9,0.8-6.4,1.2-7.3,1.2v2.8
			C1010.8,107.7,1012.9,107.1,1015.2,106.3z M1009.6,77.4c1.4-0.8,3.4-1.7,5.9-2.7c2.5-1,4.5-1.8,5.9-2.2c0-1.7-1.8-2.6-5.4-2.6
			c-1.7,0-3.2,0.4-4.5,1.3c-1.3,0.9-1.9,2-1.9,3.4V77.4z M1012.6,123.6c1.3,4,2.8,6,4.4,6c2.2,0,4.6-0.6,7.1-1.8
			c2.5-1.2,4.9-2.5,7.1-3.9c2.2-1.4,3.8-2.4,4.7-2.8c-1.7-0.6-3.9-0.9-6.6-0.9c-1.6,0-3.9,0.2-7.1,0.5c-2.8,0.3-5,0.5-6.6,0.5
			c-1.3,0-1.9-0.4-1.9-1.2c0-1.1,2.6-2.9,7.7-5.3c5.1-2.4,8.4-3.7,9.8-3.7h-15.6l-1.2-1.9c-0.2,0.9-0.8,1.9-2,2.7
			c-1.2,0.9-1.8,1.8-1.8,2.7C1010.6,116.5,1011.2,119.6,1012.6,123.6z M1024.7,72.7c-1.6,0.8-3.5,2-5.9,3.5c-3.8,2.5-6.5,3.9-8,4
			h2.1c3.5,0,5.9-0.1,7.4-0.2c1.5-0.2,3.6-0.7,6.3-1.7l1.9,0.9c0.6-3.1,0.9-5.7,0.9-7.8C1027.9,71.5,1026.3,71.9,1024.7,72.7z
			 M1017.9,61.6c-2,1.1-3.2,2-3.5,2.6l1.9,0.2c0.9,0,2.1-0.5,3.4-1.5c1.3-1,2-2,2-3C1021.2,60,1019.9,60.5,1017.9,61.6z
			 M1029.3,67.3c0.7,0.2,1.3,0.7,1.8,1.7l6.6-6.4c-2.7,0-6.6,0.7-11.9,2.2c-5.3,1.5-8.1,2.6-8.4,3.2l1.9,0.2c0.8,0,1.8-0.2,3.2-0.6
			c1.3-0.4,2.4-0.6,3.2-0.6C1027.4,67.1,1028.6,67.1,1029.3,67.3z M1054.5,138.8c-1.1,0.3-2.6,1-4.6,2c-2,1-3.8,1.5-5.5,1.5v-4.2
			c0.5-0.5,1.7-1.7,3.7-3.7c2-2,3.5-3.9,4.6-5.8c-2.4,1.6-6.1,3.1-11.1,4.5c-2.4,0.5-4.6,1.2-6.6,2.1c0-0.3-0.1-0.6-0.2-0.8
			c-0.2-0.2-0.4-0.4-0.7-0.4l-1.7,1.2c-0.3,0-0.7-0.2-1.2-0.5c-0.5-0.3-0.8-0.6-0.9-0.9c0-1.7,1-3.1,3-4.2c2-1.1,3-1.7,3.2-1.9
			c-2,0-5,0.6-8.9,1.9c-3.9,1.3-6,1.9-6.5,1.9c-0.2,0-0.4-0.1-0.6-0.4c-0.2-0.2-0.4-0.4-0.4-0.6l-0.2,1.4c0,1.6,1.9,3.3,5.7,5.3
			c3.8,2,8,3.7,12.6,5.1c4.6,1.4,7.5,2.1,8.6,2.1C1049.8,144.5,1052.4,142.6,1054.5,138.8z M1020,56.9h1.9l17.7-7.3l0.9-1.2
			c-0.3,0.2-1.3,0.2-2.8,0.2c-1.6,0-2.6-0.4-3.2-1.1c-0.6-0.7-1.1-1.1-1.5-1.1c-0.5,0-1.4,0.7-2.7,2c-1.3,1.3-2.3,2-3,2
			c-0.3,0-0.6-0.1-0.7-0.2L1020,56.9z M1033,112.6l-1.9,1.2v-1.2c-0.9,0.5-2.7,1.3-5.3,2.6c-2.6,1.3-4.5,2.4-5.8,3.3l8.7-0.5
			l7.1-0.5l1.2-0.9L1033,112.6z M1030.8,105c-0.4-1.3-0.6-2.1-0.6-2.6l0.2-0.9c-0.9,0.5-2.4,1.4-4.2,2.7c-1.9,1.3-3.6,2-5.2,2
			l1.9,1.9v0.9c1.3-0.8,3-1.2,5.2-1.2h3.3C1031.3,107.3,1031.1,106.3,1030.8,105z M1050.9,51.9c-4.1,0.9-7.1,1.4-9,1.4
			c-1.4,0-2.2-0.4-2.4-1.2c0,0.8-0.1,1.3-0.4,1.5c-0.2,0.2-0.7,0.4-1.3,0.4c-1.1,0-1.8-0.3-2.1-0.9c0,2.5-2.2,3.8-6.6,3.8l1.2-0.7
			c-1.7,0-3.6,1.2-5.7,3.5c3.8,0,5.7,0.3,5.7,0.9c1.3-0.6,2.6-0.9,4-0.9c0.5,0,0.8,0.1,0.9,0.2c0.3,0.3,0.5,0.6,0.5,0.7
			c-0.2,0.2-0.4,0.4-0.7,0.6c-0.3,0.2-0.7,0.4-1.2,0.4l0.9,0.2c1.3,0,2.9-0.6,5.1-1.9c2.1-1.3,3.3-2.5,3.4-3.8
			c8.2,0,13.8-2,16.8-5.9C1057.6,50.3,1054.5,50.8,1050.9,51.9z M1034.9,123.7c-2.2,0.5-3.9,1-5.2,1.5c-1.3,0.6-2.3,1.4-3.1,2.5
			l0.7,0.2c1.7,0,4.2-1,7.6-3.1v0.9c0.3,0,1.2-0.3,2.6-0.9c1.4-0.6,4-1.5,7.8-2.6c-1.6-0.8-2.5-1.4-2.8-1.9
			C1041.2,121.6,1038.7,122.7,1034.9,123.7z M1046.9,64.1c-3.3,1.2-6.1,2.8-8.5,4.8c-2.4,2-3.5,4.2-3.5,6.6h35.4
			c0-4.4-1.4-7.7-4.2-9.9c-2.8-2.2-6.4-3.3-10.6-3.3C1053.1,62.3,1050.2,62.9,1046.9,64.1z M1052.6,85c0.2-0.2-2.4,0.6-7.6,2.1
			l-5.4,1.4v-0.9c0-0.2,0.9-0.7,2.7-1.8c1.8-1,3.1-1.7,3.9-2l0.7,1.2c0.2-0.9,0.6-1.7,1.4-2.2c0.8-0.5,1.6-0.8,2.4-0.8v1.9h1.9V85z
			 M1051.3,124.4c-0.6-0.2-1-0.2-1.3-0.2c-1.6,0-3.4,0.5-5.4,1.4c-2,0.9-3.4,2-4,3.1l1.9,0.9c1.3,0,3.3-0.7,6-2.2
			c2.8-1.5,4.1-2.3,4.1-2.5C1052.3,124.7,1051.8,124.6,1051.3,124.4z M1046.7,60.4c1.1-0.2,1.8-0.4,2.1-0.7
			c-0.2-0.2-0.6-0.4-1.2-0.6c-0.6-0.2-1.1-0.4-1.4-0.4c-0.3,0-0.7,0.2-1.1,0.7c-0.4,0.5-0.6,0.9-0.6,1.2
			C1044.9,60.7,1045.6,60.6,1046.7,60.4z M1049,40.9c-1.6,0.5-2.5,0.9-2.8,1.2c0.2,0,0.4,0,0.7,0.1c0.3,0.1,0.7,0.1,1.2,0.1
			c3,0,4.8-0.7,5.4-2.1h-0.9h-0.9C1051.5,40.1,1050.6,40.4,1049,40.9z M1059.4,128.2c-2.5,1.1-4.2,1.9-5,2.4c-1.6,3.5-3.5,6-5.7,7.6
			h1.2l11.1-6.6c0.2,0,1.5-0.7,3.9-2.2c2.4-1.5,4-2.3,4.6-2.5c-0.6-0.2-2-0.2-4.2-0.2C1063.9,126.5,1061.9,127.1,1059.4,128.2z
			 M1058,45.8c-3.1,1.4-5.3,2.1-6.4,2.1v1.7l11.3-1.9c0-0.5,0.1-0.9,0.4-1.2c0.2-0.3,0.4-0.5,0.6-0.7c0.2,0,0.4,0.2,0.7,0.5l7.6-0.5
			l-1.9-1.9L1063,42C1062.8,43.1,1061.2,44.4,1058,45.8z M1086,123.9c-2.8,0.6-4.7,1.1-5.8,1.4c-5,1.4-8,2.2-9,2.4
			c-0.5,1.6-1.5,3.1-3.1,4.5c-1.6,1.4-3.3,2.4-5.2,3.1l-1.4-1.9c0,2.7,0.4,4,1.2,4c1.4,0,5.8-2.1,13.2-6.4l4.7-2.6
			c0,0.8-2.7,3.3-8,7.6c-5.4,4.2-8.3,6.4-8.7,6.4c-0.6,0-1.9-0.7-3.9-2c-2-1.3-3.2-2.1-3.7-2.2l0.7,1.9c0,1.4-0.4,2.5-1.2,3.2
			c-0.8,0.7-2.2,1.5-4.2,2.2c0.6,0.8,2.4,1.2,5.4,1.2l5.9-0.2l0.9-1.9c0.2,0.6,0.5,0.9,0.9,0.9l1.7-0.2v1.4c0.3,0,0.7-0.2,1.2-0.6
			c0.5-0.4,0.9-0.6,1.2-0.6c0.5,0,0.9,0.2,1.4,0.5c0.5,0.3,1,0.5,1.7,0.5c2.7,0,5.3-1,7.9-2.9c2.6-2,3.9-4.3,3.9-7
			c-1.9,0-3.5,1.2-5,3.5v-1.2l-1.9,1.9c0-1.3,0.1-2.2,0.4-2.7c0.2-0.5,0.7-1.1,1.5-1.8l0.9,0.9c0.8-1.1,2-2.4,3.5-3.8
			c1.6-1.4,2.9-2.4,4-2.8l0.7,3.5c0,0.8-0.8,2.6-2.5,5.3c-1.7,2.8-2.6,4.4-2.9,5.1l5.4-2.6l-0.7-1.2c1.4-2,4.2-4.9,8.3-8.5
			c-0.3-2.5-1.3-3.8-2.8-3.8c-0.6,0-1.2,0.5-1.7,1.4c-0.5,0.9-1.2,1.5-2.1,1.7v-2.4c0.8,0,1.7-0.6,2.7-1.9c1-1.3,2-2,3-2.4
			c-0.2-0.3-0.4-0.7-0.8-1.1c-0.4-0.4-0.7-0.7-1.1-0.8C1091,123,1088.7,123.3,1086,123.9z M1072.2,55h-0.9l-10.1,1.9
			c-0.5,0.2-1,0.2-1.7,0.2l-1.4-0.2c-0.5,0-1.3,0.3-2.6,0.9c1.4,0.6,3.1,0.9,5.2,0.9h2.1C1067.3,58.8,1070.4,57.5,1072.2,55z
			 M1084,50.1c-3.5-2.4-6.3-3.5-8.5-3.5c-1.3,0-2.4,0.4-3.4,1.2c-1,0.8-2.5,2-4.4,3.5c-1.9,1.9-3.1,2.8-3.8,2.8h0.7
			c0.9,0,2.4-0.5,4.5-1.7c2-1.1,3.2-2,3.5-2.8v2.4h1.4l6.6-1.7c1.3,0,1.9,0.4,1.9,1.2c0,0.6-0.1,1.1-0.2,1.5
			c-0.2,0.4-0.2,0.7-0.2,0.8c-0.2,0-0.5-0.1-0.9-0.4c-0.5-0.2-0.9-0.4-1.4-0.4c-0.3,0-1.2,0.8-2.7,2.4c-1.5,1.6-2.5,2.7-3,3.3
			l6.6-1.9c-0.3,0.5-1.3,1.1-2.8,1.9c2.4,0,4.2-0.5,5.7-1.4c1.4-0.9,2.4-1.4,3.1-1.4c0.8,0,1.3,0.1,1.4,0.2l-0.7,0.7h2.6
			C1089.4,54.7,1087.4,52.4,1084,50.1z M1070.3,61.9c0,0.5,0.3,1.1,0.8,1.9c0.5,0.8,0.9,1.3,1.1,1.7l11.3-5.7h-1.9
			C1075.3,60.7,1071.5,61.4,1070.3,61.9z M1073.1,87.3c-1.9,0.8-2.8,1.5-2.8,2.1l11.6-2.8l-5.7-0.5C1076,86.2,1075,86.6,1073.1,87.3
			z M1075,140c0,1.1-0.4,2-1.1,2.8c-0.7,0.8-1.6,1.3-2.7,1.7C1072,142.9,1073.3,141.4,1075,140z M1076.3,67.4
			c-0.9,0.2-1.6,0.7-2.2,1.5c0,0.3,0.2,0.7,0.7,1.1c0.5,0.4,0.9,0.7,1.2,0.8c0.5,0,1.6-0.5,3.3-1.7c1.7-1.1,2.8-1.7,3.3-1.9
			l-2.8-0.2C1078.3,67.1,1077.2,67.2,1076.3,67.4z M1083,62.8c-2.5,1.1-4.2,1.7-5.2,1.7c-0.5,0-0.8-0.1-0.9-0.2v1.7
			c1.3,0,2.7-0.3,4.2-0.8c1.6-0.5,2.9-0.8,4-0.8c0.3,0,0.5,0.1,0.7,0.4c0.2,0.2,0.2,0.5,0.2,0.8h6.6c-1.3,0.2-4.2,1.4-9,3.7
			c-4.7,2.3-7.1,3.8-7.1,4.6h6.8l-0.9-0.9h0.9c0.3,0,1,0.1,2,0.4c1,0.2,2.2,0.4,3.4,0.6c5.2-1.1,7.8-2.4,7.8-3.8
			c0-4.1-1.7-7.2-5.2-9.4C1089.6,60.4,1086.8,61.2,1083,62.8z M1097.4,78.4c0-0.5-0.3-1.2-0.9-2.2c-0.6-1-0.9-1.8-0.9-2.5
			c-1.7,0.8-3.9,1.7-6.6,2.6c-2.7,0.9-4.8,1.7-6.4,2.1h1.9c2.4,0,3.9-0.3,4.5-0.9c0.3,0,0.7,0.1,1.1,0.2c0.4,0.2,0.7,0.4,0.8,0.7
			c0-0.9,0.2-1.5,0.6-1.8c0.4-0.2,1-0.4,1.8-0.4c0.8,0,1.3,0.1,1.4,0.2l-0.9,0.9c0,0.2,0.2,0.4,0.5,0.7c0.3,0.3,0.5,0.6,0.5,0.7
			l-7.3,2.4c0.2,0,0.5,0,1.1,0.1c0.5,0.1,1.3,0.1,2.2,0.1C1095.1,81.4,1097.4,80.4,1097.4,78.4z M1096,85.5
			c-0.8-0.6-1.3-1.2-1.4-1.7c-0.2,1.1-0.7,1.9-1.8,2.5c-1,0.6-2.3,1-3.9,1.3h4.7c1.1,0,2.4-0.2,4-0.7
			C1097.3,86.6,1096.8,86.1,1096,85.5z M1095.5,140c-0.6-0.6-0.9-1.5-0.9-2.6v-1.2c0,0.6-0.5,1.3-1.4,2.1c-0.9,0.8-1.4,1.3-1.4,1.7
			c0,1.1,0.3,1.7,0.9,1.9C1094,141.2,1094.9,140.6,1095.5,140z"/>
	</g>
</g>
<g id="Layer_2">
	<g>
		<path d="M148,53.5c-5.7,0-11.4,0-17.1,0"/>
		<g>
			<path class="st1" d="M149.4,51.7c-5.7,0-11.4,0-17.1,0c-1.2,0-2.3,0.7-3.1,1.6c-0.4,0.6-0.8,2,0.4,2c5.7,0,11.4,0,17.1,0
				c1.2,0,2.3-0.7,3.1-1.6C150.2,53.1,150.6,51.7,149.4,51.7L149.4,51.7z"/>
		</g>
	</g>
	<g>
		<path class="st2" d="M130.4,53.7c2.9,9.5,4.9,19.3,5.9,29.3c0.4,4.2,0.6,8.4,0.9,12.6c0.8,13.9,1.5,27.8,2.3,41.7"/>
		<g>
			<path class="st1" d="M128.2,54.8c3.1,10.2,5.2,20.8,6.1,31.5c0.9,11.1,1.3,22.2,1.9,33.3c0.3,6.3,0.7,12.6,1,18.9
				c0.1,1.1,1.8,0.6,2.4,0.3c0.9-0.5,2-1.4,1.9-2.6c-0.6-11.2-1.2-22.3-1.8-33.5c-0.6-10.9-1-21.8-2.9-32.6
				c-1.1-5.9-2.5-11.8-4.3-17.5C131.9,50.5,127.7,53.1,128.2,54.8L128.2,54.8z"/>
		</g>
	</g>
	<g>
		<path d="M139.8,138.5c2.8,0.5,5.7,0.1,8.3-1.2"/>
		<g>
			<path class="st1" d="M138.5,140.3c3.4,0.6,6.8-0.1,9.8-1.6c0.5-0.3,1.1-0.7,1.5-1.2c0.2-0.3,0.6-0.9,0.5-1.3
				c-0.3-1.1-1.7-0.7-2.4-0.3c-0.2,0.1-0.4,0.1-0.5,0.2c0.3-0.1,0.4-0.2,0.2-0.1c-0.1,0-0.1,0.1-0.2,0.1c-0.3,0.1-0.6,0.2-0.9,0.3
				c-0.2,0.1-0.4,0.1-0.6,0.2c-0.4,0.1,0.4-0.1,0,0c-0.3,0.1-0.7,0.1-1,0.2c-0.3,0-0.7,0.1-1,0.1c-0.1,0-0.3,0-0.4,0
				c0.2,0,0.3,0,0,0c-0.1,0-0.2,0-0.3,0c-0.7,0-1.3-0.1-2-0.2c-0.5-0.1-1.1,0.2-1.6,0.4c-0.5,0.3-1.1,0.7-1.5,1.2
				C137.6,139,137.3,140.1,138.5,140.3L138.5,140.3z"/>
		</g>
	</g>
	<g>
		<path d="M148.7,137.2c0-27.3,0-54.6,0-81.8"/>
		<g>
			<path class="st1" d="M150.8,136.1c0-21.3,0-42.6,0-63.9c0-6,0-12,0-18c0-1.1-1.9-0.6-2.4-0.3c-1,0.5-1.9,1.4-1.9,2.6
				c0,21.3,0,42.6,0,63.9c0,6,0,12,0,18c0,1.1,1.9,0.6,2.4,0.3C149.9,138.2,150.8,137.3,150.8,136.1L150.8,136.1z"/>
		</g>
	</g>
	<g>
		<path d="M105.6,44.4c23.1-0.6,46.1-2,69.1-4.2"/>
		<g>
			<path class="st1" d="M104.7,46.2c18-0.4,35.9-1.4,53.8-2.9c5.1-0.4,10.2-0.9,15.3-1.4c1.1-0.1,2.4-1,2.9-2.1
				c0.4-1-0.1-1.6-1.1-1.5c-17.9,1.8-35.8,3-53.8,3.8c-5.1,0.2-10.2,0.4-15.3,0.5C104.7,42.7,101.8,46.3,104.7,46.2L104.7,46.2z"/>
		</g>
	</g>
	<g>
		<path d="M103.5,45.9c5.4,34,11.7,67.9,18.9,101.5"/>
		<g>
			<path class="st1" d="M101.4,47c4.2,26.5,9,53,14.3,79.3c1.5,7.4,3,14.8,4.6,22.3c0.4,2,4.7-0.5,4.3-2.3
				c-5.6-26.3-10.7-52.6-15.2-79.1c-1.3-7.5-2.5-14.9-3.7-22.4C105.4,42.8,101.1,45.3,101.4,47L101.4,47z"/>
		</g>
	</g>
	<g>
		<path d="M122.7,148.3c13.3-0.5,26.6-1.3,39.9-2.4"/>
		<g>
			<path class="st1" d="M121.8,150.1c13.3-0.5,26.6-1.3,39.9-2.4c1.1-0.1,2.4-1.1,2.9-2.1c0.4-1-0.1-1.6-1.1-1.5
				c-13.3,1.1-26.6,1.9-39.9,2.4c-1.1,0-2.4,1.1-2.9,2.1C120.2,149.5,120.8,150.1,121.8,150.1L121.8,150.1z"/>
		</g>
	</g>
	<g>
		<path d="M163.3,146.1"/>
		<g>
			<path class="st1" d="M161.9,147.9c1.2,0,2.3-0.7,3.1-1.6c0.4-0.6,0.8-2-0.4-2c-1.2,0-2.3,0.7-3.1,1.6
				C161.2,146.5,160.7,147.9,161.9,147.9L161.9,147.9z"/>
		</g>
	</g>
	<g>
		<path d="M176,40.2c0.8,12.1-1.7,24.1-3.5,36.1c-3.5,23.1-4.3,46.5-5.1,69.9"/>
		<g>
			<path class="st1" d="M173.8,41.3c0.9,14-2.5,27.7-4.3,41.5c-1.8,13.6-2.7,27.3-3.4,41c-0.4,7.8-0.6,15.6-0.9,23.4
				c0,1.1,1.9,0.6,2.4,0.3c1-0.5,1.9-1.4,1.9-2.6c0.5-13.9,1-27.8,2-41.7c0.5-6.8,1.2-13.7,2-20.5c0.9-6.8,2-13.6,3-20.4
				c1.1-7.7,1.9-15.5,1.5-23.3c-0.1-1.1-1.8-0.6-2.4-0.3C174.9,39.2,173.8,40.2,173.8,41.3L173.8,41.3z"/>
		</g>
	</g>
	<g>
		<path d="M121.7,54.5c-2.4,0-4.9,0-7.3,0"/>
		<g>
			<path class="st1" d="M123.1,52.6c-2.4,0-4.9,0-7.3,0c-1.2,0-2.4,0.6-3.1,1.6c-0.2,0.4-0.6,0.9-0.5,1.3c0.1,0.4,0.4,0.7,0.8,0.7
				c2.4,0,4.9,0,7.3,0c1.2,0,2.4-0.6,3.1-1.6c0.2-0.4,0.6-0.9,0.5-1.3C123.8,53,123.5,52.6,123.1,52.6L123.1,52.6z"/>
		</g>
	</g>
	<g>
		<path d="M114.1,55.7c4.1,28.1,8.2,56.3,12.2,84.4"/>
		<g>
			<path class="st1" d="M113.1,56.6c3.2,21.9,6.3,43.8,9.5,65.6c0.9,6.3,1.8,12.5,2.7,18.8c0.1,0.7,0.9,0.4,1.2,0.1
				c0.5-0.5,0.8-1.2,0.7-1.9c-3.2-21.9-6.3-43.8-9.5-65.6c-0.9-6.3-1.8-12.5-2.7-18.8c-0.1-0.7-0.9-0.4-1.2-0.1
				C113.3,55.2,113,55.9,113.1,56.6L113.1,56.6z"/>
		</g>
	</g>
	<g>
		<path d="M132.1,139.8l-5.6,0.3c1.7,0.1,3.4,0,5-0.2C131.7,139.9,131.9,139.8,132.1,139.8z"/>
		<g>
			<path class="st1" d="M132.6,138.4c-1.6,0.1-3.3,0.2-4.9,0.3c-0.2,0-0.5,0-0.7,0c-0.7,0-1.2,0.8-1.4,1.3c-0.1,0.4-0.3,1.4,0.4,1.4
				c1,0.1,1.9,0.1,2.9,0c1,0,2-0.1,3-0.4c0.3-0.1,0.6-0.4,0.8-0.6c0.2-0.3,0.4-0.7,0.5-1.1c0.1-0.5,0-1.2-0.7-1
				c-0.1,0-0.2,0.1-0.3,0.1c0,0-0.1,0-0.1,0c0.1,0,0,0,0,0c-0.2,0-0.5,0.1-0.7,0.1c-0.5,0-0.9,0.1-1.4,0.1c-0.9,0-1.9,0-2.8,0
				c-0.3,0.9-0.7,1.8-1,2.7c1.6-0.1,3.3-0.2,4.9-0.3c0.2,0,0.5,0,0.7,0c0.7,0,1.2-0.8,1.4-1.3C133.1,139.5,133.3,138.4,132.6,138.4z
				"/>
		</g>
	</g>
	<g>
		<path class="st2" d="M122.7,55.8c3.7,12.5,4.6,25.6,5.4,38.6c1,15.1,2,30.3,3,45.4"/>
		<g>
			<path class="st1" d="M121.7,56.7c3,10.4,4.2,21.1,5,31.9c0.8,11,1.5,22.1,2.2,33.1c0.4,6.3,0.8,12.5,1.2,18.8
				c0.1,1.7,2.1-0.3,2-1.3c-0.7-11.2-1.5-22.4-2.2-33.6c-0.7-10.9-1.2-21.9-2.6-32.8c-0.8-6.1-1.9-12.1-3.6-17.9
				C123.3,53.5,121.4,55.7,121.7,56.7L121.7,56.7z"/>
		</g>
	</g>
	<g>
		<path d="M168,52.3c-3.7-0.1-7.4-0.3-11.1-0.4"/>
		<g>
			<path class="st1" d="M168.5,50.9c-3.7-0.1-7.4-0.3-11.1-0.4c-1.1,0-2.2,2.7-1,2.7c3.7,0.1,7.4,0.3,11.1,0.4
				C168.6,53.7,169.7,51,168.5,50.9L168.5,50.9z"/>
		</g>
	</g>
	<g>
		<path d="M156.9,52.2c-0.8,28.1-1.6,56.2-2.4,84.4"/>
		<g>
			<path class="st1" d="M155.9,52.9c-0.6,22-1.3,43.9-1.9,65.9c-0.2,6.2-0.4,12.3-0.5,18.5c0,0.6,0.5,0.8,1,0.6c0.6-0.3,1-1.2,1-1.9
				c0.6-22,1.3-43.9,1.9-65.9c0.2-6.2,0.4-12.3,0.5-18.5c0-0.6-0.5-0.8-1-0.6C156.4,51.4,156,52.2,155.9,52.9L155.9,52.9z"/>
		</g>
	</g>
	<g>
		<path d="M154.7,138.2c2,0,4,0,6,0"/>
		<g>
			<path class="st1" d="M154.2,139.6c2,0,4,0,6,0c0.7,0,1.2-0.8,1.4-1.3c0.1-0.4,0.3-1.4-0.4-1.4c-2,0-4,0-6,0
				c-0.7,0-1.2,0.8-1.4,1.3C153.7,138.5,153.5,139.6,154.2,139.6L154.2,139.6z"/>
		</g>
	</g>
	<g>
		<path class="st2" d="M167.3,53.9c-5.3,27.7-7.9,55.8-7.6,84"/>
		<g>
			<path class="st1" d="M166.4,54.2c-4.2,21.6-6.7,43.5-7.4,65.5c-0.2,6.3-0.3,12.5-0.2,18.8c0,0.6,0.5,0.9,1,0.6
				c0.6-0.3,1-1.2,1-1.9c-0.2-21.9,1.3-43.7,4.5-65.4c0.9-6.1,1.9-12.2,3.1-18.3c0.1-0.5-0.1-1.1-0.7-1
				C167,52.7,166.5,53.6,166.4,54.2L166.4,54.2z"/>
		</g>
	</g>
	<g>
		<g>
			<path class="st1" d="M121.4,55.3c-3.3,0.6-5.9,3.3-6.8,6.4c-0.2,0.7-0.1,1.8,0.9,1.2c2.5-1.5,5.3-2.2,8.2-2.2
				c0.1-0.8,0.2-1.6,0.3-2.4c-2.5,2.4-5,4.7-7.8,6.7c-0.5,0.4-1.8,2.3-0.5,2.6c2.4,0.5,4.8,0.4,7.1-0.4c-0.1-0.7-0.1-1.4-0.2-2.1
				c-1.4,1.6-2.7,3.2-4.1,4.9c-0.4,0.4-1,2,0,2.1c3,0.4,6,0.6,9.1,0.6c0.2-0.9,0.4-1.7,0.5-2.6c-3.3,2-6.7,3.7-10.3,5
				c-0.6,0.2-1,0.9-1.2,1.5c-0.1,0.3-0.2,1.3,0.4,1.2c2.3-0.3,4.4,0.1,6.4,1.3c0.2-0.8,0.3-1.5,0.5-2.3c-1.7,1.9-3.4,3.8-5.2,5.7
				c-0.4,0.4-1.4,2.2-0.3,2.4c2.1,0.4,4.2,0.4,6.4,0.1c0-0.7,0-1.4,0-2.1c-1.3,1.5-2.5,3.1-3.8,4.6c-0.4,0.4-1,1.9,0,2.1
				c1.9,0.3,3.6,0.9,5.3,1.7c0-0.6,0-1.1,0-1.7c-2.1,3.3-4.2,6.7-6.3,10c-0.2,0.4-0.6,1.7,0.2,1.8c1.6,0.1,3.1-0.1,4.6-0.7
				c-0.2-0.3-0.5-0.7-0.7-1c-0.2,1.2-0.7,2.1-1.6,2.9c-0.3,0.3-1.4,2.5-0.3,2.4c1.8-0.2,3.5-0.3,5.3-0.5c-0.1-0.6-0.1-1.2-0.2-1.8
				c-1.4,2.3-2.7,4.7-4.1,7c-0.4,0.7-0.5,2.2,0.7,1.6c0.6-0.3,1.4,0.5,1.6,1c0.3,0.9-0.5,1.6-1,2.2c-1.1,1.3-2.1,2.6-2.4,4.4
				c-0.1,0.3-0.1,1.1,0.5,1c1.6-0.2,3.2-0.5,4.8-0.7c-0.2-0.3-0.3-0.7-0.5-1c-0.9,3.1-2.3,5.9-4.3,8.4c-0.3,0.4-1,2.1,0,2.1
				c1.2,0,2.5,0.1,3.7,0.1c-0.2-0.2-0.3-0.5-0.5-0.7c-0.1,1.4-0.4,2.6-1,3.8c-0.2,0.4-0.6,1.4,0,1.7c1.4,0.6,2.8,0.9,4.4,0.8
				c-0.1-0.5-0.2-0.9-0.4-1.4c-0.5,1.3-1.4,2.3-2.5,3.2c-0.4,0.4-1.3,1.9-0.5,2.3c0.8,0.4,1.5,0.8,2.3,1.3c1,0.5,2.4-2.1,1.5-2.6
				c-0.8-0.4-1.5-0.8-2.3-1.3c-0.2,0.8-0.3,1.5-0.5,2.3c1.7-1.4,2.9-3.1,3.7-5.2c0.1-0.3,0.3-1.5-0.4-1.4c-1.4,0.1-2.7-0.1-3.9-0.7
				c0,0.6,0,1.1,0,1.7c1-1.9,1.5-3.8,1.6-5.9c0-0.3-0.1-0.7-0.5-0.7c-1.2,0-2.5-0.1-3.7-0.1c0,0.7,0,1.4,0,2.1
				c2.4-3.2,4.1-6.7,5.2-10.5c0.1-0.3,0-1.1-0.5-1c-1.6,0.2-3.2,0.5-4.8,0.7c0.2,0.3,0.3,0.7,0.5,1c0.2-1.3,1.4-2.2,2.1-3.2
				c0.7-1,1.3-2.2,1.4-3.5c0.1-2.1-1.7-3.7-3.7-2.7c0.2,0.5,0.5,1.1,0.7,1.6c1.4-2.3,2.7-4.7,4.1-7c0.2-0.3,0.7-1.8-0.2-1.8
				c-1.8,0.2-3.5,0.3-5.3,0.5c-0.1,0.8-0.2,1.6-0.3,2.4c1.6-1.5,2.7-3.4,3.1-5.5c0.1-0.4,0-1.3-0.7-1c-1.3,0.5-2.7,0.7-4.1,0.6
				c0.1,0.6,0.1,1.2,0.2,1.8c2.1-3.3,4.2-6.7,6.3-10c0.2-0.4,0.6-1.4,0-1.7c-1.8-0.9-3.8-1.5-5.8-1.8c0,0.7,0,1.4,0,2.1
				c1.3-1.5,2.5-3.1,3.8-4.6c0.2-0.3,1-2.3,0-2.1c-2.1,0.3-4.2,0.3-6.4-0.1c-0.1,0.8-0.2,1.6-0.3,2.4c1.7-1.9,3.4-3.8,5.2-5.7
				c0.4-0.4,1.3-1.8,0.5-2.3c-2.1-1.2-4.4-1.7-6.8-1.4c-0.3,0.9-0.5,1.8-0.8,2.7c3.8-1.4,7.4-3.1,10.9-5.2c0.5-0.3,1.8-2.6,0.5-2.6
				c-3,0.1-6.1-0.1-9.1-0.6c0,0.7,0,1.4,0,2.1c1.4-1.6,2.7-3.2,4.1-4.9c0.3-0.4,1-2.5-0.2-2.1c-2.2,0.7-4.4,0.8-6.6,0.3
				c-0.2,0.9-0.4,1.7-0.5,2.6c2.9-2.2,5.7-4.6,8.3-7.2c0.3-0.3,1.4-2.4,0.3-2.4c-3.3,0-6.4,0.9-9.2,2.6c0.3,0.4,0.6,0.8,0.9,1.2
				c0.6-2.1,2.4-3.4,4.5-3.8C121.9,57.8,122.8,55.1,121.4,55.3L121.4,55.3z"/>
		</g>
	</g>
	<g>
		<g>
			<path class="st1" d="M143.7,57.4c1.1,0,2.2-2.7,1-2.7C143.7,54.7,142.5,57.4,143.7,57.4L143.7,57.4z"/>
		</g>
	</g>
	<g>
		<g>
			<path class="st1" d="M144.2,54.5c-2.8,1.9-5.4,4.1-7.8,6.5c-0.4,0.4-0.8,1-0.8,1.7c0,0.4,0.3,0.9,0.7,0.7c3.2-1.4,6.5-2.1,10-2.3
				c0.3-0.9,0.5-1.8,0.8-2.7c-4.5,1.7-8.3,4.5-11.5,8.1c-0.3,0.3-1,2.1,0,2.1c3.6,0.1,7.3,0.1,10.9,0.2c0.2-0.9,0.4-1.7,0.5-2.6
				c-3.5,1.9-7.1,3.8-10.6,5.6c-0.7,0.4-1.7,2.8-0.3,2.5c3.6-0.7,7.3-1,11-0.8c0.2-0.9,0.4-1.7,0.5-2.6c-3.7,2.3-7.1,4.8-10.4,7.7
				c-0.4,0.3-1.4,2.4-0.3,2.4c3.2-0.1,6.4,0.1,9.6,0.8c0.1-0.8,0.2-1.6,0.3-2.4c-3.4,2.8-7,5.3-10.7,7.7c-0.4,0.3-1.8,2.7-0.5,2.6
				c2.7-0.3,5.4-0.6,8.2-0.9c-0.1-0.5-0.2-0.9-0.4-1.4c-1,2.6-2.4,5-4.2,7.1c-0.4,0.4-1.4,2.2-0.3,2.4c2.5,0.3,5,0.4,7.6,0.2
				c0.1-0.8,0.2-1.6,0.3-2.4c-2.2,1.9-4.4,3.8-6.5,5.7c-0.4,0.3-1.4,2.4-0.3,2.4c1.5-0.1,3.1-0.1,4.6-0.2c0-0.7,0-1.4,0-2.1
				c-2.1,3.1-4.3,6-6.8,8.7c-0.3,0.3-1.4,2-0.5,2.3c2.7,0.9,5.5,1.1,8.3,0.5c-0.1-0.7-0.1-1.4-0.2-2.1c-3.2,4.7-6.5,9.3-9.9,13.8
				c-0.4,0.5-1,2.4,0.2,2.1c3.2-0.8,6.4-1.2,9.7-1.4c0-0.7,0-1.4,0-2.1c-1.7,2.2-3.3,4.5-5,6.7c-0.3,0.4-1,2.1,0,2.1
				c1.9,0,3.7,0.1,5.6,0.1c0-0.7,0-1.4,0-2.1c-1.5,1.9-3.1,3.8-4.6,5.7c-0.3,0.4-0.8,1.4-0.4,1.9c0.4,0.5,1.1-0.1,1.4-0.4
				c1.5-1.9,3.1-3.8,4.6-5.7c0.3-0.4,1-2.1,0-2.1c-1.9,0-3.7-0.1-5.6-0.1c0,0.7,0,1.4,0,2.1c1.7-2.2,3.3-4.5,5-6.7
				c0.2-0.3,1.1-2.2,0-2.1c-3.4,0.2-6.8,0.7-10.2,1.5c0.1,0.7,0.1,1.4,0.2,2.1c3.5-4.5,6.8-9.1,9.9-13.8c0.3-0.5,1-2.3-0.2-2.1
				c-2.5,0.5-5,0.3-7.4-0.5c-0.2,0.8-0.3,1.5-0.5,2.3c2.6-2.9,5.1-6,7.3-9.3c0.2-0.3,1.1-2.1,0-2.1c-1.5,0.1-3.1,0.1-4.6,0.2
				c-0.1,0.8-0.2,1.6-0.3,2.4c2.2-1.9,4.4-3.8,6.5-5.7c0.4-0.3,1.4-2.4,0.3-2.4c-2.5,0.2-5,0.1-7.6-0.2c-0.1,0.8-0.2,1.6-0.3,2.4
				c2.4-2.7,4.3-5.7,5.5-9c0.1-0.3,0.3-1.5-0.4-1.4c-2.7,0.3-5.4,0.6-8.2,0.9c-0.2,0.9-0.4,1.7-0.5,2.6c3.9-2.5,7.6-5.2,11.2-8.1
				c0.5-0.4,1.3-2.1,0.3-2.4c-3.2-0.7-6.4-0.9-9.6-0.8c-0.1,0.8-0.2,1.6-0.3,2.4c3.1-2.7,6.4-5.1,9.9-7.3c0.5-0.3,1.8-2.5,0.5-2.6
				c-3.9-0.2-7.7,0.1-11.5,0.8c-0.1,0.8-0.2,1.7-0.3,2.5c3.5-1.9,7.1-3.8,10.6-5.6c0.5-0.3,1.8-2.6,0.5-2.6
				c-3.6-0.1-7.3-0.1-10.9-0.2c0,0.7,0,1.4,0,2.1c2.7-3.1,6.1-5.4,10-6.9c0.6-0.2,2.1-2.7,0.8-2.7c-3.6,0.1-7.2,0.9-10.5,2.3
				c0,0.8,0,1.6,0,2.3c2.2-2.3,4.7-4.3,7.3-6.1c0.6-0.4,1-1.1,1-1.9C145.2,54.4,144.8,54.1,144.2,54.5L144.2,54.5z"/>
		</g>
	</g>
	<g>
		<g>
			<path class="st1" d="M166.9,52.1c-3.3,0.3-6.5,1.4-9.3,3.2c-0.5,0.3-1.8,2.5-0.5,2.6c2.7,0.1,5.5,0.3,8.2,0.4
				c0.2-0.9,0.4-1.7,0.5-2.6c-3.4,1.9-6.4,4.2-9.1,6.9c-0.4,0.4-0.8,1-0.8,1.7c0,0.4,0.3,0.9,0.7,0.7c2.3-1,4.6-1.3,7.1-1.1
				c0.1-0.8,0.2-1.6,0.3-2.4c-2.4,2.3-4.8,4.6-7.2,7c-0.3,0.3-1.4,2.5-0.3,2.4c1.9-0.2,3.7-0.5,5.6-0.7c-0.2-0.3-0.3-0.7-0.5-1
				c-0.3,2-1.5,3.7-3.3,4.6c-0.5,0.2-2.1,2.3-1,2.6c1.5,0.4,3,0.8,4.5,1.3c0.1-0.7,0.2-1.4,0.2-2c-1.9,2.5-3.8,5.1-5.8,7.6
				c-0.2,0.3-1,1.7-0.2,2c1.6,0.6,3.3,1,5,1.1c0-0.7,0-1.4,0-2.1c-1.5,2-3.1,4.1-4.6,6.1c-0.3,0.4-1,2.1,0,2.1c1,0,2,0.1,2.9,0.1
				c-0.1-0.6-0.1-1.2-0.2-1.8c-0.9,1.4-2,2.6-3.1,3.7c-0.4,0.4-1.3,1.9-0.5,2.3c0.8,0.4,1.7,0.8,2.5,1.2c0-0.4-0.1-0.9-0.1-1.3
				c-0.1,0.4-0.2,0.7-0.5,1c-0.4,0.4-1.3,1.8-0.5,2.3c0.9,0.6,1.8,0.9,2.8,1c0.2-0.9,0.4-1.7,0.5-2.6c-3.3,2.4-5.5,6.6-6.4,10.5
				c-0.4,1.7-0.3,3.8,1.3,4.8c1.4,0.9,2.9,0.4,3.9-0.8c-0.3-0.5-0.7-1-1-1.5c-1.1,1.7-2.3,3.5-3.4,5.2c-0.3,0.4-0.9,1.6-0.2,2
				c1.2,0.7,2.5,1.5,3.7,2.2c0.1-0.7,0.2-1.4,0.2-2c-1.2,1.6-2.5,3.2-3.7,4.7c-0.3,0.4-0.8,1.4-0.4,1.9c0.7,0.9,1.5,1.5,2.6,1.9
				c-0.1-0.3-0.2-0.7-0.3-1c-0.3,1.4-1,2.7-2.1,3.7c-0.4,0.4-1.4,2.3-0.3,2.4c1,0,1.9,0.4,2.5,1.3c0.5,0.7,0.8,1.8,0,2.4
				c-0.6,0.4-1.1,1.1-1,1.9c0,0.6,0.5,1,1,0.6c1.6-1.2,2.8-3.3,2.5-5.4c-0.3-2-2-3.4-4-3.5c-0.1,0.8-0.2,1.6-0.3,2.4
				c1.8-1.8,3-3.9,3.6-6.4c0.1-0.3,0.1-0.9-0.3-1c-0.9-0.3-1.6-0.8-2.2-1.6c-0.1,0.6-0.3,1.3-0.4,1.9c1.2-1.6,2.5-3.2,3.7-4.7
				c0.3-0.4,0.9-1.6,0.2-2c-1.2-0.7-2.5-1.5-3.7-2.2c-0.1,0.7-0.2,1.4-0.2,2c1.1-1.7,2.3-3.5,3.4-5.2c0.3-0.4,0.8-1.4,0.4-1.9
				c-0.4-0.5-1.1,0.1-1.4,0.4c-0.1,0.2-0.9-0.1-1.1-0.2c-0.4-0.2-0.8-0.5-1-0.8c-0.7-1.2-0.1-2.7,0.3-3.8c0.8-2.2,1.9-4.4,3.9-5.9
				c0.5-0.4,1.8-2.4,0.5-2.6c-0.9-0.1-1.6-0.4-2.4-0.9c-0.2,0.8-0.3,1.5-0.5,2.3c0.8-0.9,1.4-1.8,1.8-3c0.1-0.3,0.3-1.1-0.1-1.3
				c-0.8-0.4-1.7-0.8-2.5-1.2c-0.2,0.8-0.3,1.5-0.5,2.3c1.6-1.5,2.9-3.1,4.1-4.9c0.2-0.4,0.6-1.7-0.2-1.8c-1,0-2-0.1-2.9-0.1
				c0,0.7,0,1.4,0,2.1c1.5-2,3.1-4.1,4.6-6.1c0.3-0.4,1-2.1,0-2.1c-1.6-0.1-3.1-0.4-4.6-1c-0.1,0.7-0.2,1.4-0.2,2
				c1.9-2.5,3.8-5.1,5.8-7.6c0.2-0.3,1-1.8,0.2-2c-1.5-0.4-3-0.8-4.5-1.3c-0.3,0.9-0.7,1.8-1,2.6c3.1-1.5,5.3-4.4,5.8-7.9
				c0-0.3,0.1-1.1-0.5-1c-1.9,0.2-3.7,0.5-5.6,0.7c-0.1,0.8-0.2,1.6-0.3,2.4c2.4-2.3,4.8-4.6,7.2-7c0.4-0.4,1.4-2.3,0.3-2.4
				c-2.6-0.2-5.1,0.2-7.5,1.2c0,0.8,0,1.6,0,2.3c2.6-2.6,5.4-4.8,8.6-6.5c0.5-0.3,1.8-2.5,0.5-2.6c-2.7-0.1-5.5-0.3-8.2-0.4
				c-0.2,0.9-0.4,1.7-0.5,2.6c2.5-1.6,5.3-2.6,8.3-2.9C167,54.7,168.1,52,166.9,52.1L166.9,52.1z"/>
		</g>
	</g>
	<g>
		<g>
			<path class="st1" d="M160.3,103.7c-2.3,0.4-4.3,2.2-5.3,4.3c-0.2,0.3-0.3,0.7-0.3,1c0,0.2,0.1,0.6,0.3,0.7
				c0.6,0.3,1.2-0.5,1.4-0.9c0.1-0.2,0.2-0.4,0.3-0.6c0.1-0.2-0.2,0.3-0.1,0.1c0,0,0.1-0.1,0.1-0.1c0.1-0.1,0.1-0.2,0.2-0.3
				c0,0,0.1-0.1,0.1-0.1c0.1-0.2-0.2,0.2-0.1,0.1c0.1-0.1,0.2-0.2,0.2-0.3c0.1-0.1,0.2-0.1,0.2-0.2c0,0,0.1-0.1,0.1-0.1
				c0.2-0.1-0.2,0.2-0.1,0.1c0.2-0.1,0.4-0.3,0.6-0.4c0.1-0.1,0.2-0.1,0.3-0.2c0.1,0,0.3-0.1,0,0c0,0,0.1,0,0.1-0.1
				c0.4-0.2,0.9-0.3,1.3-0.4c0.3-0.1,0.6-0.4,0.8-0.6c0.2-0.3,0.4-0.7,0.5-1.1c0-0.3,0.1-0.6-0.1-0.8
				C160.8,103.7,160.6,103.7,160.3,103.7L160.3,103.7z"/>
		</g>
	</g>
	<g>
		<g>
			<path class="st1" d="M149.6,28.4c11.3-0.6,22.7-1.1,34-1.3c1.8,0,3.7-4.6,1.7-4.6c-11.4,0.2-22.7,0.7-34,1.3
				c-1.1,0.1-2,1.3-2.3,2.2C148.8,26.7,148.5,28.5,149.6,28.4L149.6,28.4z"/>
		</g>
	</g>
	<g>
		<g>
			<path class="st1" d="M94.9,33c16.1-1.8,32.3-3.2,48.5-4.2c1.1-0.1,2-1.3,2.3-2.2c0.2-0.6,0.5-2.4-0.6-2.3
				c-16.2,1-32.4,2.4-48.5,4.2c-1.1,0.1-1.9,1.2-2.3,2.2C94.1,31.2,93.8,33.1,94.9,33L94.9,33z"/>
		</g>
	</g>
	<g>
		<g>
			<path class="st1" d="M140.2,20c3.6-0.2,7.3-0.2,10.9-0.2c-0.2-0.8-0.4-1.6-0.6-2.3c-1.4,3.2-1.9,6.7-1.5,10.1
				c0.2,1.2,1.5,0.6,2.1,0.1c0.9-0.8,1.4-2,1.2-3.2c0,0-0.1-0.6,0-0.3c0-0.1,0-0.3,0-0.4c0-0.4,0-0.7,0-1.1c0-0.3,0-0.6,0-1
				c0-0.1,0-0.4,0-0.1c0-0.2,0-0.4,0.1-0.6c0-0.3,0.1-0.6,0.2-1c0-0.2,0.1-0.3,0.1-0.5c0.1-0.2,0.1-0.4,0-0.1c0.1-0.7,0.5-1.4,0.8-2
				c0.3-0.6,0.5-2.3-0.6-2.3c-3.6,0-7.3,0-10.9,0.2c-1.1,0.1-2,1.3-2.3,2.2C139.4,18.2,139,20,140.2,20L140.2,20z"/>
		</g>
	</g>
	<g>
		<path d="M102.4,48.4"/>
		<g>
			<path class="st1" d="M101.9,49.8c1.1,0,2.2-2.7,1-2.7C101.8,47.1,100.7,49.8,101.9,49.8L101.9,49.8z"/>
		</g>
	</g>
	<g>
		<path d="M101.3,48.7c7.9,32.5,14,65.4,18.2,98.5"/>
		<g>
			<path class="st1" d="M98.8,50.6c7.9,32.5,14,65.4,18.2,98.5c0.4,3.2,5.3-1.6,5-3.9c-4.2-33.2-10.3-66-18.2-98.5
				C102.9,43.4,98.2,48.3,98.8,50.6L98.8,50.6z"/>
		</g>
	</g>
	<g>
		<path d="M119.9,147.8c15.1,0.1,30.2-0.3,45.2-1.1"/>
		<g>
			<path class="st1" d="M118.5,150.9c15.1,0,30.2-0.3,45.2-1.1c2.5-0.1,5.5-6.3,2.9-6.2c-15.1,0.8-30.2,1.2-45.2,1.1
				C118.9,144.7,115.8,150.9,118.5,150.9L118.5,150.9z"/>
		</g>
	</g>
	<g>
		<path d="M102.2,45.9c24.1,0.2,48.2-0.2,72.3-1.1"/>
		<g>
			<path class="st1" d="M100.7,49c24.1,0.2,48.2-0.2,72.3-1.1c2.5-0.1,5.5-6.3,2.9-6.2c-24.1,0.9-48.2,1.2-72.3,1.1
				C101.1,42.8,98.1,49,100.7,49L100.7,49z"/>
		</g>
	</g>
	<g>
		<path d="M177.4,41.4c-1.9,35.2-5.9,70.3-10,105.3"/>
		<g>
			<path class="st1" d="M174.9,42.7c-1.9,35.2-5.9,70.3-10,105.3c-0.5,3.9,4.7-0.2,5-2.6c4.1-35,8.1-70.1,10-105.3
				C180.1,36.1,175,40.3,174.9,42.7L174.9,42.7z"/>
		</g>
	</g>
	<g>
		<path d="M96.7,31.1c29-1.9,58.1-3.2,87.1-3.9"/>
		<g>
			<path class="st1" d="M95.2,34.1c29-1.8,58.1-3.1,87.1-3.9c2.5-0.1,5.5-6.2,2.9-6.2c-29.1,0.7-58.1,2-87.1,3.9
				C95.6,28.1,92.7,34.3,95.2,34.1L95.2,34.1z"/>
		</g>
	</g>
	<g>
		<path d="M124.1,20.8c0.1,2.3,0.7,4.7,1.9,6.7"/>
		<g>
			<path class="st1" d="M121.6,22.8c0.1,2.6,0.8,5,2,7.3c1.3,2.4,5.8-2.8,4.6-5c-1.1-2-1.6-4-1.7-6.2c-0.1-1.7-2.1-1-2.8-0.4
				C122.4,19.5,121.5,21.1,121.6,22.8L121.6,22.8z"/>
		</g>
	</g>
	<g>
		<g>
			<path class="st1" d="M127.5,22.9c0.4-2.8-0.1-5.5-1.4-8c-1.3-2.4-5.8,2.8-4.6,5c0.9,1.8,1.3,3.6,1,5.6c-0.2,1.5,1,2.1,2.2,1.5
				C126.2,26.2,127.2,24.5,127.5,22.9L127.5,22.9z"/>
		</g>
	</g>
	<g>
		<g>
			<path class="st1" d="M122.3,20.5c9.9,0.2,19.8-0.1,29.7-1.1c2.3-0.2,5.2-6.4,1.8-6.1c-9.5,0.9-19,1.3-28.6,1
				C122.7,14.3,119.6,20.4,122.3,20.5L122.3,20.5z"/>
		</g>
	</g>
	<g>
		<g>
			<path class="st1" d="M151.1,17.2c-0.7,3-1.2,6.1-1.2,9.2c0,1.4,0.8,2.2,2.2,1.5c1.3-0.6,2.8-2.6,2.8-4.1c0-2.6,0.2-5.2,0.9-7.7
				c0.3-1.2,0.1-2.7-1.4-2.5C152.9,13.8,151.4,15.8,151.1,17.2L151.1,17.2z"/>
		</g>
	</g>
	<g>
		<path d="M143.6,17.5"/>
		<g>
			<path class="st1" d="M142.2,20c2.4,0,6.7-4.9,2.7-4.9C142.5,15.1,138.2,20,142.2,20L142.2,20z"/>
		</g>
	</g>
	<g>
		<g>
			<path class="st1" d="M134.1,18.2c-1.7,1-3.4,2.3-4.6,3.9c-0.5,0.7-0.9,1.7,0,2.2c0.7,0.4,1.8,0.2,2.6,0.1
				c1.8-0.3,3.4-1.1,4.9-1.9c1.4-0.8,2.9-1.7,4.5-2c-0.3-0.3-0.7-0.6-1-0.9c-1,3.1-2,6.1-3,9.2c-0.5,1.4,1.8,0.7,2.3,0.4
				c3.7-2.4,7.3-4.7,11-7.1c0.5-0.3,1.5-1.3,1.1-2c-0.4-0.7-1.8-0.1-2.3,0.2c-3.7,2.4-7.3,4.7-11,7.1c0.8,0.1,1.6,0.3,2.3,0.4
				c1-3.1,2-6.1,3-9.2c0.2-0.6-0.4-1-1-0.9c-2.1,0.3-4,1.2-5.9,2.2c-0.9,0.5-1.7,0.9-2.6,1.3c-0.4,0.2-0.8,0.3-1.2,0.4
				c-0.2,0-0.4,0.1-0.5,0.1c-0.1,0-0.2,0-0.3,0c-0.2,0-0.2,0.1,0,0.3c-0.1,0.2-0.3,0.5-0.4,0.7c0.8-1.1,2-1.9,3.1-2.6
				c0.6-0.3,1.5-1.3,1.1-2C135.9,17.2,134.6,17.9,134.1,18.2L134.1,18.2z"/>
		</g>
	</g>
</g>
</svg>
