<?xml version="1.0" encoding="utf-8"?>
<!-- Generator: Adobe Illustrator 25.0.1, SVG Export Plug-In . SVG Version: 6.00 Build 0)  -->
<svg version="1.1" xmlns="http://www.w3.org/2000/svg" xmlns:xlink="http://www.w3.org/1999/xlink" x="0px" y="0px"
	 viewBox="0 0 340.8 66.5" style="enable-background:new 0 0 340.8 66.5;" xml:space="preserve">
<style type="text/css">
	.st0{display:none;}
	.st1{display:inline;}
	.st2{fill:#FFFFFF;}
	.st3{display:inline;fill:none;stroke:#000000;stroke-miterlimit:10;}
	.st4{stroke:#000000;stroke-width:0.25;stroke-miterlimit:10;}
	.st5{font-family:'CabinSketch-Bold';}
	.st6{font-size:72px;}
</style>
<g id="Layer_1" class="st0">
	<g class="st1">
		<path class="st2" d="M-151,4.5c105.7-0.7,211.5-1.3,317.2-2"/>
		<g>
			<path d="M-151,6c41.4-0.3,82.7-0.5,124.1-0.8C14.3,4.9,55.4,4.7,96.6,4.4C119.8,4.3,143,4.1,166.2,4c1.9,0,1.9-3,0-3
				C124.9,1.2,83.5,1.5,42.1,1.8C1,2-40.2,2.3-81.3,2.5C-104.5,2.7-127.7,2.8-151,3C-152.9,3-152.9,6-151,6L-151,6z"/>
		</g>
	</g>
	<line class="st3" x1="-151.2" y1="4.5" x2="-124.2" y2="400.5"/>
	<line class="st3" x1="167.3" y1="3.9" x2="136.1" y2="399.6"/>
</g>
<g id="Layer_8">
	<g>
		<text transform="matrix(1 0 0 1 0.125 44.9487)" class="st4 st5 st6">t  ny waste</text>
	</g>
</g>
<g id="Layer_3">
	<g>
		<path class="st2" d="M32,16.9c3.1,8.9,3.3,18.5,5.1,27.8c0.1,0.4,0.2,0.8,0.5,1.1c0.2,0.2,0.6,0.3,0.9,0.3
			c5.7,0.8,11.5,0.6,17-0.7c0.6-9.5,1.2-19,1.7-28.5c-8.3,0.8-16.6,1.1-24.9,1"/>
		<g>
			<path d="M30.6,17.5c2.8,8,3.2,16.5,4.6,24.8c0.2,1.4,0.2,3.9,1.6,4.7c0.7,0.4,1.8,0.4,2.6,0.5c1,0.1,2.1,0.2,3.1,0.2
				c4.3,0.2,8.7-0.2,12.9-1.2c0.6-0.1,1.5-0.7,1.5-1.4c0.6-9.5,1.2-19,1.7-28.5c0-0.7-0.5-0.9-1.2-0.9c-8.1,0.8-16.3,1.1-24.5,1
				c-0.7,0-1.5,0.5-1.8,1.1c-0.3,0.6,0.1,1.2,0.8,1.2c8.4,0.1,16.8-0.2,25.2-1c-0.4-0.3-0.8-0.6-1.2-0.9c-0.6,9.5-1.2,19-1.7,28.5
				c0.5-0.5,1-0.9,1.5-1.4c-3.9,0.9-7.9,1.3-12,1.2c-1,0-1.9-0.1-2.9-0.2c-0.8-0.1-2,0-2.4-0.7c-0.3-0.7-0.4-1.8-0.5-2.6
				c-0.2-1-0.3-2-0.5-3c-1.1-7.6-1.7-15.2-4.2-22.5C32.8,15,30.2,16.3,30.6,17.5L30.6,17.5z"/>
		</g>
	</g>
	<g>
		<path class="st2" d="M29.4,14.5c9.8-0.3,19.6-1.8,29.4-1.1"/>
		<g>
			<path d="M28.9,15.7c9.8-0.3,19.6-1.8,29.4-1.1c1.3,0.1,2.9-2.2,1-2.3c-9.8-0.7-19.6,0.7-29.4,1.1c-0.7,0-1.5,0.4-1.8,1.1
				C27.9,15.1,28.2,15.7,28.9,15.7L28.9,15.7z"/>
		</g>
	</g>
	<g>
		<path class="st2" d="M41.8,12.9c-0.2-0.9-0.5-1.8-1-2.6c1.8-0.6,3.7-0.8,5.6-0.7c0.2,0,0.4,0,0.5,0.2C47,9.8,47,10,47,10.1
			c0,0.6,0,1.3,0,1.9"/>
		<g>
			<path d="M43.1,12.4c-0.2-1-0.6-2-1.1-2.9c-0.4,0.6-0.7,1.2-1.1,1.8c0.1,0,0.1,0,0,0c0.1,0,0.2-0.1,0.3-0.1c0.2,0,0.3-0.1,0.5-0.1
				c0.3-0.1,0.7-0.1,1-0.2c0.3-0.1,0.7-0.1,1-0.1c0.1,0,0.2,0,0.3,0c0.1,0,0.1,0,0,0c0.2,0,0.4,0,0.5,0c0.3,0,0.7,0,1,0
				c0,0,0.4,0,0.4,0c0,0-0.2-0.1-0.2-0.1c0,0-0.1-0.1-0.1-0.1c0-0.1,0-0.1,0,0c0,0,0,0.2,0,0.1c0-0.1,0,0.1,0,0.1c0,0.2,0,0.4,0,0.5
				c0,0.4,0,0.7,0,1.1c0,0.3,0,0.5,0.3,0.7c0.2,0.2,0.6,0.2,0.9,0.1c0.4-0.1,0.8-0.3,1-0.5c0.2-0.2,0.5-0.5,0.5-0.9
				c0-0.4,0-0.8,0-1.3c0-0.4,0.1-0.9,0-1.3c-0.3-1-1.5-0.9-2.4-0.9c-1.8,0-3.6,0.4-5.3,0.9c-0.7,0.2-1.5,1.1-1.1,1.8
				c0.1,0.2,0.2,0.4,0.3,0.6c0,0.1,0.1,0.2,0.1,0.3c0,0.1,0.1,0.1,0.1,0.2c0-0.1,0-0.1,0,0c0.2,0.4,0.3,0.9,0.4,1.3
				c0.1,0.7,1,0.7,1.5,0.5C42.5,13.7,43.3,13.1,43.1,12.4L43.1,12.4z"/>
		</g>
	</g>
</g>
<g id="Layer_4">
	<g>
		<path class="st2" d="M38.8,21.5c-0.4-0.1-0.9,0-1.3,0.1c-0.1,1.6,0.2,3.3,0.5,4.9c0.9,5.2,1.8,10.4,2.8,15.6
			c0.1,0.6,0.5,1.4,1.1,1.2c0.5-0.2,0.5-0.8,0.5-1.3c-0.7-6.8-1.7-13.6-3.2-20.2"/>
		<g>
			<path d="M39,21.1c-0.5-0.1-1,0-1.5,0.2c-0.2,0-0.4,0.2-0.4,0.4c-0.1,3.1,0.8,6.3,1.3,9.4c0.6,3.2,1.1,6.5,1.7,9.7
				c0.1,0.8,0.2,2.7,1.3,2.9c1,0.2,1.5-0.9,1.4-1.7c-0.1-1.6-0.3-3.2-0.5-4.8c-0.2-1.6-0.4-3.2-0.7-4.8c-0.5-3.6-1.2-7.2-2-10.8
				c-0.1-0.5-1-0.1-0.9,0.4c1.2,5.6,2.1,11.2,2.8,16.9c0.1,0.6,0.1,1.3,0.2,1.9c0,0.4,0.1,0.7,0.1,1.1c0,0.2,0.1,0.7,0,0.9
				c-0.1,0.2,0,0.2-0.2,0.1c-0.1-0.1-0.1-0.2-0.2-0.3c-0.1-0.2-0.2-0.5-0.2-0.7c-0.1-0.8-0.3-1.5-0.4-2.3c-0.5-2.8-1-5.6-1.5-8.4
				c-0.3-1.6-0.6-3.2-0.8-4.7c-0.3-1.6-0.6-3.2-0.5-4.8c-0.1,0.1-0.3,0.3-0.4,0.4c0.4-0.1,0.7-0.1,1.1-0.1
				C39.1,22,39.6,21.2,39,21.1L39,21.1z"/>
		</g>
	</g>
	<g>
		<path class="st2" d="M45.9,21.4c-0.7,0.3-1.9-0.4-2.2,0.4c-0.1,0.2-0.1,0.4,0,0.5c0.5,6.8,1.1,13.6,1.6,20.4c0,0.2,0,0.5,0.2,0.7
			c0.3,0.4,1,0.2,1.3-0.2c0.3-0.4,0.3-1,0.2-1.5c-0.4-6.7-0.6-13.5-0.5-20.2"/>
		<g>
			<path d="M45.9,21c-0.5,0.2-1.1-0.1-1.6,0c-0.4,0.1-0.8,0.4-1,0.8c-0.2,0.7,0,1.7,0.1,2.4c0.1,0.9,0.1,1.8,0.2,2.7
				c0.3,3.6,0.6,7.2,0.9,10.8c0.1,0.9,0.1,1.7,0.2,2.6c0.1,0.9,0.1,1.8,0.2,2.7c0.2,1.2,1.6,1.1,2.2,0.3c0.4-0.5,0.4-1.1,0.4-1.7
				c0-0.9-0.1-1.8-0.1-2.7c-0.1-1.8-0.2-3.6-0.2-5.4c-0.1-4.1-0.2-8.2-0.1-12.3c0-0.6-0.9-0.2-0.9,0.2c-0.1,6.1,0,12.2,0.4,18.2
				c0,0.7,0.1,1.5,0.1,2.2c0,0.3,0.1,0.8-0.1,1.1c-0.3,0.5-0.6,0.1-0.7-0.3c-0.2-0.7-0.1-1.5-0.2-2.2c-0.1-0.8-0.1-1.7-0.2-2.5
				c-0.2-3.1-0.5-6.1-0.7-9.2c-0.1-1.7-0.3-3.5-0.4-5.2c0-0.4-0.1-0.8-0.1-1.2c0,0-0.1-0.4,0-0.5c0-0.1,0.2,0,0.3,0
				c0.5,0,1,0.1,1.6-0.1C46.5,21.5,46.5,20.8,45.9,21L45.9,21z"/>
		</g>
	</g>
	<g>
		<path class="st2" d="M52.3,21.4c-0.7-0.1-1.5,0-2.2,0.1c0.1,7.1,0.2,14.2,0.3,21.3c0.5,0.4,1.3,0,1.6-0.5s0.3-1.2,0.2-1.9
			c-0.4-6.3-0.4-12.6,0-18.8"/>
		<g>
			<path d="M52.4,21c-0.8-0.1-1.5,0-2.3,0.1c-0.3,0-0.5,0.3-0.5,0.6c0.1,6.3,0.2,12.5,0.3,18.8c0,0.7,0,1.5,0,2.2
				c0,0.3,0,0.3,0.2,0.5c0.2,0.1,0.5,0.1,0.7,0.1c1.1-0.1,1.8-1.1,1.8-2.1c0.1-1.4-0.1-2.9-0.2-4.3c-0.1-1.6-0.1-3.1-0.1-4.7
				c0-3.6,0.1-7.2,0.3-10.8c0-0.5-0.9-0.2-0.9,0.2c-0.4,5.5-0.4,11.1-0.1,16.6c0,0.7,0.1,1.3,0.1,2c0,0.6,0.2,1.5-0.2,2.1
				c-0.1,0.1-0.3,0.3-0.5,0.3c-0.2,0-0.2-0.1-0.2-0.3c-0.1-0.3,0-0.7,0-1c0-0.7,0-1.4,0-2.1c0-2.8-0.1-5.6-0.1-8.4
				c0-3.1-0.1-6.3-0.1-9.4c-0.2,0.2-0.3,0.4-0.5,0.6c0.7-0.1,1.4-0.1,2.1-0.1C52.5,21.8,53.1,21,52.4,21L52.4,21z"/>
		</g>
	</g>
	<g>
		<path class="st2" d="M38.9,22.5c-0.1,0.6-0.2,1.2-0.4,1.8c0.4,0,0.7-0.1,1.1-0.1c-0.7,1.2-1.3,2.3-2.1,3.4
			c0.6,0.2,1.3,0.2,1.9-0.1c-0.1,0.5-0.3,1-0.7,1.5c0.6-0.2,1.2-0.3,1.7-0.5c-0.3,0.7-0.6,1.5-1.1,2.1c0.4,0,0.9,0,1.3,0.1
			c-0.2,0.7-0.4,1.3-0.8,1.9c0.1,0.1,0.3,0.2,0.4,0.2c-0.3,0.6-0.7,1.2-1,1.7c0.7,0.4,1.5,0.7,2.3,0.8c-0.3,0.6-0.5,1.2-0.8,1.8
			c-0.2,0.4-0.3,0.8-0.2,1.2c0.1,0.4,0.8,0.5,0.9,0.2c-0.3,1.2-0.7,2.3-1.4,3.3c0.4,0.1,0.7,0.2,1.1,0.3"/>
		<g>
			<path d="M38.4,22.6c-0.1,0.6-0.2,1.1-0.4,1.7c-0.1,0.3,0.1,0.4,0.4,0.4c0.4,0,0.7-0.1,1.1-0.1c-0.1-0.1-0.2-0.3-0.4-0.4
				c-0.6,1.1-1.3,2.2-2,3.3C37,27.6,37,27.9,37.2,28c0.8,0.2,1.5,0.2,2.3-0.1c-0.2-0.1-0.3-0.2-0.5-0.3c-0.1,0.5-0.3,0.9-0.6,1.3
				c-0.2,0.2,0,0.6,0.3,0.5c0.6-0.2,1.2-0.3,1.7-0.5c-0.1-0.1-0.2-0.3-0.4-0.4c-0.3,0.7-0.6,1.4-1,2C39,30.7,39,31,39.3,31
				c0.4,0,0.9,0,1.3,0.1c-0.1-0.1-0.2-0.2-0.3-0.3c-0.2,0.6-0.4,1.2-0.7,1.8c-0.1,0.1,0,0.3,0.1,0.3c0.2,0.2,0.4,0.2,0.6,0.2
				c-0.1-0.1-0.2-0.3-0.3-0.4c-0.3,0.6-0.7,1.2-1,1.7c-0.1,0.1-0.1,0.3,0.1,0.3c0.8,0.4,1.5,0.7,2.4,0.9c0-0.1-0.1-0.3-0.1-0.4
				c-0.3,0.6-0.5,1.2-0.8,1.9c-0.2,0.4-0.3,0.9-0.1,1.4c0.4,0.7,1.3,0.6,1.7,0c-0.3,0-0.5,0-0.8,0c-0.3,1.1-0.7,2.2-1.3,3.1
				c-0.1,0.2-0.2,0.4,0.1,0.5c0.4,0.1,0.7,0.2,1.1,0.3c0.4,0.1,1.1-0.6,0.6-0.7c-0.4-0.1-0.7-0.2-1.1-0.3c0,0.2,0.1,0.3,0.1,0.5
				c0.7-1.1,1.2-2.2,1.5-3.5c0.1-0.5-0.7-0.2-0.8,0c0.2-0.1,0.1-0.2-0.1-0.2c-0.1-0.2-0.1-0.3-0.1-0.5c0-0.2,0.2-0.5,0.3-0.7
				c0.2-0.5,0.4-1,0.7-1.5c0.1-0.1,0-0.3-0.1-0.4c-0.8-0.2-1.5-0.4-2.2-0.8c0,0.1,0,0.2,0.1,0.3c0.3-0.6,0.7-1.2,1-1.7
				c0.1-0.2,0-0.4-0.3-0.4c-0.1,0-0.2-0.1-0.2-0.1c0,0.1,0,0.2,0.1,0.3c0.3-0.6,0.6-1.3,0.8-2c0-0.2-0.1-0.3-0.3-0.3
				c-0.4,0-0.9,0-1.3-0.1c0.1,0.2,0.1,0.3,0.2,0.5c0.4-0.7,0.8-1.4,1.1-2.2c0.1-0.2-0.1-0.5-0.4-0.4c-0.6,0.2-1.2,0.3-1.7,0.5
				c0.1,0.2,0.2,0.3,0.3,0.5c0.4-0.5,0.6-1,0.7-1.7c0.1-0.3-0.3-0.3-0.5-0.3c-0.5,0.2-1.1,0.2-1.6,0.1c0,0.2,0.1,0.3,0.1,0.5
				c0.7-1.1,1.4-2.3,2.1-3.5c0.2-0.3-0.1-0.4-0.4-0.4c-0.4,0-0.7,0.1-1.1,0.1c0.1,0.1,0.2,0.3,0.4,0.4c0.2-0.6,0.4-1.2,0.4-1.9
				C39.4,21.9,38.5,22.2,38.4,22.6L38.4,22.6z"/>
		</g>
	</g>
	<g>
		<path class="st2" d="M45.2,21.8c0,0.5,0,1.1-0.1,1.6c0.2-0.1,0.4,0,0.5,0.1c-0.6,0.6-1.2,1.2-1.9,1.8c0.6,0.1,1.2,0.1,1.7,0
			c-0.1,0.4-0.3,0.8-0.6,1.1c0.4,0.2,0.8,0.5,1.1,0.9c-0.5,0.1-1.1,0.1-1.6-0.1c0.4,0.1,0.8,0.2,1.2,0.2c0.1,0.8-0.1,1.6-0.7,2.2
			c0-0.1,0.3-0.1,0.3,0c0,0.1,0,0.3-0.1,0.4c-0.4,0.5-0.7,1-1.1,1.5c0.5,0.6,1.9-0.2,2.1,0.6c0.1,0.2,0,0.4-0.1,0.6
			c-0.3,0.6-0.6,1.3-0.9,1.9c0.4,0,0.8-0.1,1.3-0.1c-0.5,0.8-1,1.7-1.5,2.6c0.3,0.1,0.6,0.3,0.9,0.4c-0.1,0.5-0.3,1.1-0.6,1.5
			c0.3,0.2,0.6,0.2,0.9,0.1c-0.2,0.5-0.1,1.2,0.3,1.6c-0.4,0.6-0.8,1.2-1.2,1.8"/>
		<g>
			<path d="M44.8,21.9c0,0.5,0,1.1-0.1,1.6c0,0.2,0.2,0.3,0.4,0.3c0.1,0,0.2,0.1,0.2,0.1c0-0.2,0.1-0.4,0.1-0.5
				c-0.6,0.6-1.2,1.2-1.9,1.8c-0.1,0.1-0.3,0.5,0,0.6c0.7,0.1,1.3,0.1,2,0c-0.1-0.1-0.3-0.2-0.4-0.3c-0.1,0.3-0.2,0.6-0.4,0.8
				c-0.1,0.1-0.3,0.4-0.1,0.5c0.4,0.2,0.8,0.5,1.1,0.8c0.2-0.2,0.3-0.4,0.5-0.6c-0.5,0.1-0.9,0.1-1.4,0c-0.2,0.2-0.4,0.5-0.6,0.7
				c0.4,0.1,0.8,0.2,1.2,0.2c-0.1-0.1-0.1-0.1-0.2-0.2c0.1,0.7-0.1,1.3-0.6,1.9c0.3,0,0.5,0.1,0.8,0.1c0,0,0-0.1,0-0.1
				c-0.2,0.1-0.3,0.2-0.5,0.4c-0.2,0.1-0.1,0-0.3,0.2c-0.1,0.1-0.2,0.3-0.3,0.5c-0.2,0.3-0.4,0.6-0.6,0.8c-0.1,0.1-0.1,0.3,0,0.4
				c0.4,0.4,1,0.3,1.6,0.3c0.6,0,0.3,0.6,0.1,1c-0.2,0.5-0.4,1-0.7,1.5c-0.1,0.3,0.1,0.4,0.4,0.4c0.4,0,0.8-0.1,1.3-0.1
				c-0.1-0.2-0.2-0.3-0.3-0.5c-0.5,0.9-1.1,1.8-1.5,2.7c0,0.1-0.1,0.3,0.1,0.3c0.3,0.1,0.6,0.3,0.9,0.4c0-0.1-0.1-0.2-0.1-0.2
				c-0.1,0.5-0.3,1-0.5,1.4c-0.1,0.1-0.1,0.3,0.1,0.3c0.4,0.2,0.8,0.3,1.2,0.2c-0.1-0.1-0.3-0.2-0.4-0.3c-0.2,0.6-0.1,1.3,0.4,1.8
				c0-0.1,0-0.3,0.1-0.4c-0.4,0.6-0.8,1.2-1.2,1.8c-0.4,0.5,0.5,0.6,0.7,0.2c0.4-0.6,0.8-1.2,1.2-1.8c0.1-0.1,0.1-0.3,0.1-0.4
				c-0.4-0.4-0.5-0.9-0.3-1.4c0.1-0.2-0.2-0.3-0.4-0.3c-0.2,0.1-0.4,0-0.6-0.1c0,0.1,0,0.2,0.1,0.3c0.3-0.5,0.5-1.1,0.6-1.6
				c0-0.1,0-0.2-0.1-0.2c-0.3-0.1-0.6-0.3-0.9-0.4c0,0.1,0,0.2,0.1,0.3c0.4-0.9,0.9-1.7,1.4-2.5c0.2-0.3,0-0.5-0.3-0.5
				c-0.4,0-0.8,0.1-1.3,0.1c0.1,0.1,0.2,0.3,0.4,0.4c0.3-0.6,0.5-1.2,0.8-1.8c0.2-0.4,0.3-0.9,0-1.2c-0.5-0.6-1.5,0.1-2-0.4
				c0,0.1,0,0.3,0,0.4c0.3-0.4,0.6-0.9,0.9-1.3c0.2-0.2,0.5-0.6,0.4-0.9c-0.2-0.6-1-0.2-1.2,0.2c-0.3,0.6,0.6,0.4,0.8,0.1
				c0.6-0.7,0.8-1.5,0.7-2.4c0-0.1-0.1-0.2-0.2-0.2c-0.4-0.1-0.8-0.2-1.2-0.2c-0.4-0.1-1.1,0.6-0.6,0.7c0.6,0.2,1.2,0.2,1.8,0.1
				c0.2,0,0.7-0.4,0.5-0.6c-0.4-0.4-0.7-0.7-1.2-1c0,0.2-0.1,0.4-0.1,0.5c0.4-0.4,0.6-0.8,0.7-1.4c0.1-0.2-0.2-0.3-0.4-0.3
				c-0.5,0.1-1,0.1-1.5,0c0,0.2,0,0.4,0,0.6c0.6-0.6,1.2-1.2,1.9-1.8c0.1-0.1,0.3-0.4,0.1-0.5C45.8,23,45.5,23,45.2,23
				c0.1,0.1,0.3,0.2,0.4,0.3c0-0.5,0-1.1,0.1-1.6C45.7,21.2,44.8,21.5,44.8,21.9L44.8,21.9z"/>
		</g>
	</g>
	<g>
		<path class="st2" d="M51.6,21.7c-0.2,0.3-0.4,0.7-0.5,1c0.4,0,0.9,0.1,1.3,0.1c-0.8,1.3-1.7,2.6-2.5,3.9c0.7,0.1,1.4,0,2-0.3
			c-0.5,1-0.8,2.1-0.8,3.2c0.2,0,0.5,0,0.7,0.1c-0.3,0.9-0.7,1.9-1.2,2.7c0.4,0,0.8,0,1.2-0.2c-0.2,0.8-0.5,1.5-1,2.2
			c0.2,0.2,0.5,0.2,0.7,0.2c-0.1,1-0.4,2-0.8,2.9c0.3,0,0.5,0,0.8,0c-0.3,0.6-0.6,1.3-0.9,1.9c0.5,0.1,1,0.1,1.5-0.2
			c-0.3,0.7-0.6,1.3-0.9,2c0.2,0,0.4,0,0.6-0.1c-0.1,0.3-0.2,0.5-0.3,0.8"/>
		<g>
			<path d="M51.1,21.7c-0.2,0.3-0.4,0.7-0.5,1c-0.1,0.2,0,0.4,0.3,0.4c0.4,0,0.9,0.1,1.3,0.1c-0.1-0.2-0.1-0.3-0.2-0.5
				c-0.8,1.3-1.7,2.6-2.5,3.9c-0.1,0.2-0.1,0.5,0.2,0.5c0.8,0.1,1.5-0.1,2.2-0.3c-0.2-0.1-0.3-0.2-0.5-0.4c-0.6,1.1-0.8,2.2-0.8,3.4
				c0,0.1,0.2,0.2,0.3,0.2c0.2,0,0.5,0,0.7,0.1c-0.1-0.1-0.2-0.2-0.3-0.3c-0.3,0.9-0.6,1.7-1.1,2.5c-0.1,0.2-0.1,0.5,0.2,0.5
				c0.5,0,1,0,1.4-0.2c-0.2-0.1-0.3-0.2-0.5-0.3c-0.2,0.7-0.5,1.4-0.9,2c-0.1,0.1-0.2,0.3,0,0.4c0.3,0.2,0.6,0.2,1,0.2
				c-0.1-0.1-0.3-0.2-0.4-0.3c-0.1,1-0.4,1.9-0.8,2.8c-0.1,0.2,0,0.4,0.3,0.4c0.3,0,0.5,0,0.8,0c-0.1-0.1-0.2-0.3-0.3-0.4
				c-0.3,0.6-0.6,1.3-0.9,1.9c-0.1,0.1,0,0.3,0.1,0.4c0.6,0.1,1.2,0.1,1.8-0.2c-0.2-0.1-0.3-0.2-0.5-0.4c-0.3,0.7-0.6,1.3-0.9,2
				c-0.1,0.3,0.1,0.4,0.4,0.4c0.2,0,0.4,0,0.6-0.1c-0.1-0.1-0.2-0.3-0.4-0.4c-0.1,0.3-0.2,0.5-0.3,0.8c-0.2,0.6,0.7,0.4,0.9,0
				c0.1-0.3,0.2-0.5,0.3-0.8c0.1-0.3-0.1-0.4-0.4-0.4c-0.2,0-0.4,0-0.6,0.1c0.1,0.1,0.2,0.3,0.4,0.4c0.3-0.7,0.6-1.3,0.9-2
				c0.2-0.3-0.2-0.5-0.5-0.4c-0.4,0.2-0.7,0.2-1.1,0.1c0,0.1,0.1,0.3,0.1,0.4c0.3-0.6,0.6-1.3,0.9-1.9c0.1-0.2,0-0.4-0.3-0.4
				c-0.3,0-0.5,0-0.8,0c0.1,0.1,0.2,0.3,0.3,0.4c0.4-1,0.7-2,0.8-3c0-0.2-0.2-0.3-0.4-0.3c-0.1,0-0.3-0.1-0.4-0.1c0,0.1,0,0.3,0,0.4
				c0.5-0.8,0.8-1.6,1.1-2.4c0.1-0.3-0.3-0.3-0.5-0.3c-0.3,0.1-0.6,0.1-1,0.1c0.1,0.2,0.1,0.3,0.2,0.5c0.6-0.9,1-1.9,1.3-2.9
				c0.1-0.2-0.1-0.3-0.3-0.3c-0.2,0-0.5,0-0.7-0.1c0.1,0.1,0.2,0.1,0.3,0.2c0-1.1,0.3-2,0.8-3c0.2-0.3-0.2-0.4-0.5-0.4
				c-0.6,0.2-1.1,0.3-1.7,0.2c0.1,0.2,0.1,0.3,0.2,0.5c0.8-1.3,1.7-2.6,2.5-3.9c0.1-0.2,0.1-0.5-0.2-0.5c-0.4,0-0.9-0.1-1.3-0.1
				c0.1,0.1,0.2,0.3,0.3,0.4c0.2-0.3,0.4-0.7,0.5-1C52.3,21.2,51.3,21.3,51.1,21.7L51.1,21.7z"/>
		</g>
	</g>
	<g>
		<path class="st2" d="M42.8,12.5c0.4-0.6,1-0.9,1.6-1c0.4,0.7,0.3,1.6-0.1,2.2c0.6-0.3,1.2-0.7,1.6-1.3"/>
		<g>
			<path d="M43.1,12.6c0-0.1,0.1-0.1,0.1-0.2c0,0,0.1-0.1,0,0c0,0,0,0,0.1-0.1c0,0,0.1-0.1,0.1-0.1c0,0,0.1-0.1,0,0
				c0.1,0,0.1-0.1,0.2-0.1c0,0,0.1,0,0.1,0c0.1,0-0.1,0,0,0c0.1,0,0.1-0.1,0.2-0.1c0.1,0-0.1,0,0,0c0,0,0.1,0,0.1,0
				c0.1,0,0.2,0,0.2,0c-0.1,0-0.2-0.1-0.4-0.1c0.1,0.3,0.2,0.6,0.2,0.9c0,0.2,0,0.3-0.1,0.5c0,0.1-0.1,0.3-0.2,0.4
				c-0.1,0.1-0.1,0.3,0,0.4c0.1,0.1,0.3,0.1,0.5,0c0.8-0.3,1.4-0.8,1.9-1.5c0.1-0.2,0.1-0.4-0.1-0.5c-0.2-0.1-0.5,0.1-0.6,0.3
				c-0.2,0.3-0.3,0.4-0.6,0.6c0,0-0.1,0,0,0c0,0-0.1,0-0.1,0.1c-0.1,0-0.1,0.1-0.2,0.1c0,0-0.1,0-0.1,0.1c0,0-0.1,0.1,0,0
				c-0.1,0-0.2,0.1-0.2,0.1c0.1,0.2,0.3,0.3,0.4,0.5c0.5-0.8,0.6-1.8,0.1-2.6c-0.1-0.1-0.2-0.1-0.4-0.1c-0.8,0.1-1.6,0.6-2.1,1.2
				c-0.1,0.2-0.1,0.4,0.1,0.5C42.7,12.9,43,12.8,43.1,12.6L43.1,12.6z"/>
		</g>
	</g>
</g>
<g id="Layer_5" class="st0">
	<g class="st1">
		<path class="st2" d="M31.8,17c2,8.6,3.4,17.3,4.3,26c0.1,0.7,0.1,1.4,0.6,1.9c0.6,0.7,1.7,0.8,2.6,0.9c4.9,0.2,9.8,0.4,14.7,0.6
			c0.3,0,0.6,0,0.9-0.2c0.3-0.2,0.4-0.6,0.4-1c0.8-5.9,1.1-11.9,1.1-17.9c0-3.8-0.2-7.6,1-11.2c-8.4,0.1-16.8,0.2-25.2,0.3"/>
		<g>
			<path d="M30.9,17.4c1.2,5.4,2.3,10.8,3.1,16.3c0.4,2.7,0.7,5.5,1,8.2c0.2,2.1,0.3,4.2,2.8,4.6c2.6,0.4,5.3,0.3,8,0.4
				c2.7,0.1,5.5,0.5,8.1,0.3c2.5-0.1,2.3-2.9,2.5-4.7c0.3-2.7,0.5-5.5,0.6-8.2c0.1-2.9,0.2-5.9,0.2-8.8c0-3.1,0-6.2,1-9.2
				c0.1-0.4,0-0.8-0.5-0.8c-8.4,0.1-16.8,0.2-25.2,0.3c-0.8,0-1.9,1.6-0.7,1.6c8.4-0.1,16.8-0.2,25.2-0.3c-0.2-0.3-0.3-0.5-0.5-0.8
				c-1.4,4.4-1.1,9-1.1,13.5c-0.1,4.9-0.4,9.8-1,14.7c0,0,0,0.9-0.1,1c-0.3,0.3,0.8,0.1-0.5,0.2c-0.6,0-1.1-0.1-1.7-0.1
				c-1.3-0.1-2.6-0.1-3.9-0.2c-2.5-0.1-5.1-0.2-7.6-0.3c-0.9,0-2.3,0.1-3-0.6c-0.9-0.8-0.7-2.7-0.8-3.8c-0.3-2.4-0.6-4.9-0.9-7.3
				c-0.8-5.6-1.9-11.3-3.2-16.8C32.5,15.7,30.7,16.5,30.9,17.4L30.9,17.4z"/>
		</g>
	</g>
	<g class="st1">
		<path class="st2" d="M39.5,20.5c-0.4,0.1-0.8,0-1.2,0s-0.9,0-1.1,0.4C37.1,21,37,21.3,37,21.5c-0.1,1.9,0.5,3.7,1,5.5
			c0.5,2,0.8,4,1.2,6c0.5,2.8,1,5.7,1.4,8.5c0.1,0.4,0.1,0.8,0.4,1.1c0.3,0.3,0.8,0.4,1.1,0.1c0.2-0.2,0.2-0.5,0.2-0.8
			c-0.3-3.9-0.6-7.8-0.9-11.7c-0.3-3.2-0.5-6.4-1.3-9.6"/>
		<g>
			<path d="M39.6,20.1c-0.7,0.1-1.3-0.2-2,0.1c-0.6,0.2-0.9,0.7-1,1.3c-0.2,1.7,0.4,3.4,0.8,4.9c1,3.5,1.5,7.1,2.1,10.6
				c0.1,0.8,0.3,1.6,0.4,2.4c0.2,0.9,0.2,1.8,0.5,2.7c0.1,0.5,0.4,0.9,0.9,1.1c0.5,0.2,1.1-0.1,1.4-0.6c0.3-0.5,0.1-1.3,0.1-1.8
				c-0.1-1-0.2-1.9-0.2-2.9c-0.1-1.8-0.3-3.7-0.4-5.5c-0.3-4-0.5-8.1-1.5-12c-0.1-0.5-1-0.1-0.9,0.4c0.7,2.9,1,5.9,1.2,8.8
				c0.2,3.1,0.5,6.1,0.7,9.2c0.1,0.7,0.1,1.5,0.2,2.2c0,0.3,0.1,0.8,0.1,1.1c-0.1,0.7-0.6-0.1-0.6-0.4c-0.2-0.6-0.2-1.2-0.3-1.9
				c-0.1-0.8-0.3-1.5-0.4-2.3c-0.5-3-0.9-6-1.6-8.9c-0.3-1.6-0.9-3.2-1.2-4.9c-0.2-0.8-0.4-1.7-0.2-2.5c0.1-0.5,0.3-0.6,0.8-0.5
				c0.4,0,0.7,0.1,1.1,0C39.9,20.8,40.2,20,39.6,20.1L39.6,20.1z"/>
		</g>
	</g>
	<g class="st1">
		<path class="st2" d="M46.7,20.2c-0.9,0.3-2-0.4-2.7,0.2c-0.5,0.4-0.6,1.2-0.5,1.9c0.3,6.2,1.3,12.3,1.4,18.5c0,0.5,0,1,0.3,1.5
			c0.3,0.4,0.8,0.7,1.3,0.5c0.5-0.3,0.5-0.9,0.5-1.4c-0.2-6.8-0.3-13.5-0.5-20.3"/>
		<g>
			<path d="M46.8,19.8c-0.7,0.2-1.3-0.1-2,0c-0.6,0-1.2,0.3-1.5,0.9C43,21.1,43,21.7,43,22.2c0,0.9,0.1,1.8,0.2,2.7
				c0.3,3.7,0.7,7.4,1,11.1c0.1,1.8,0.1,3.5,0.2,5.3c0,0.6,0.2,1.3,0.7,1.6c0.5,0.4,1.1,0.3,1.6,0c0.5-0.3,0.6-0.9,0.7-1.4
				c0-0.8,0-1.6,0-2.4c0-1.9-0.1-3.8-0.1-5.7c-0.1-4.2-0.2-8.4-0.3-12.6c0-0.5-0.9-0.1-0.9,0.4c0.1,6.3,0.3,12.5,0.4,18.8
				c0,0.6,0.2,1.5,0,2.1c-0.1,0.4-0.5,0.4-0.8,0.1c-0.2-0.3-0.3-0.7-0.3-1.1c-0.1-1.5-0.1-3-0.2-4.5c-0.2-3-0.5-6.1-0.8-9.1
				c-0.2-1.7-0.3-3.4-0.4-5.1c0-0.7-0.1-1.8,0.9-1.8c0.6,0,1.2,0.2,1.9,0c0.2-0.1,0.5-0.2,0.5-0.5C47.2,19.9,47,19.7,46.8,19.8
				L46.8,19.8z"/>
		</g>
	</g>
	<g class="st1">
		<path class="st2" d="M52.1,20c-0.8,0-1.6,0.1-2.3,0.1c0.4,7.5,0.5,15.1,0.2,22.6c0.6,0,1.2,0,1.8,0c0.4-7.6,0.5-15.3,0.4-23"/>
		<g>
			<path d="M52.3,19.6c-0.8,0-1.6,0.1-2.3,0.1c-0.3,0-0.6,0.2-0.6,0.6c0.4,7.5,0.5,15,0.2,22.5c0,0.2,0.1,0.3,0.3,0.3
				c0.6,0,1.2,0,1.8,0c0.2,0,0.6-0.2,0.6-0.5c0.4-7.7,0.5-15.4,0.4-23c0-0.5-0.9-0.1-0.9,0.4c0.1,7.6,0,15.2-0.4,22.9
				c0.2-0.2,0.4-0.3,0.6-0.5c-0.6,0-1.2,0-1.8,0c0.1,0.1,0.2,0.2,0.3,0.3c0.2-7.6,0.2-15.1-0.2-22.7c-0.2,0.2-0.4,0.4-0.6,0.6
				c0.8,0,1.6-0.1,2.3-0.1C52.4,20.4,52.9,19.6,52.3,19.6L52.3,19.6z"/>
		</g>
	</g>
	<g class="st1">
		<g>
			<path d="M32.9,18.5c1.4-0.5,2.8-0.9,4.3-1.1C37.1,17.2,37,17,37,16.8c-1.2,1-2.5,2-3.7,3c-0.2,0.1-0.3,0.5,0,0.6
				c1.1,0.3,2-0.6,2.8-1.2c1.1-0.8,2.2-1.6,3.3-2.4c-0.2-0.2-0.3-0.3-0.5-0.5c-1.5,1.4-3.1,2.8-4.6,4.2c-0.4,0.3-0.1,0.7,0.3,0.5
				c1.2-0.4,2.4-1,3.4-1.7c0.5-0.3,0.2-0.9-0.4-0.6c-1.8,1.2-3.3,2.6-4.5,4.4c-0.2,0.3,0,0.5,0.3,0.5c0.9-0.2,1.8-0.4,2.6-0.8
				c-0.1-0.2-0.3-0.3-0.4-0.5c-0.7,1-1.5,2-2.2,2.9c-0.2,0.3,0,0.5,0.3,0.5c0.9-0.1,1.7-0.4,2.6-0.7c-0.1-0.2-0.3-0.3-0.4-0.5
				c-0.6,0.8-1.1,1.6-1.7,2.4c-0.2,0.3,0,0.6,0.3,0.5c1.3-0.3,2.5-0.6,3.8-0.8c-0.1-0.2-0.1-0.4-0.2-0.6c-1.9,1.7-3.8,3.5-5.7,5.4
				c-0.4,0.4,0,0.7,0.5,0.5c1.7-0.9,3.4-1.7,5.1-2.6c-0.2-0.1-0.4-0.3-0.5-0.4c-0.5,0.8-1.1,1.4-1.7,2c-0.3,0.3-0.1,0.7,0.3,0.5
				c0.8-0.4,1.6-0.7,2.4-1.1c-0.1-0.2-0.3-0.3-0.4-0.5c-0.8,1.1-1.8,2.2-2.7,3.2c-0.2,0.2-0.2,0.7,0.2,0.6c0.9-0.2,1.7-0.5,2.6-0.7
				c-0.1-0.2-0.1-0.4-0.2-0.6c-1.1,1.2-2.2,2.4-3.4,3.7c-0.2,0.2-0.3,0.6,0.1,0.6c1-0.1,2-0.3,3-0.6c-0.2-0.1-0.3-0.2-0.5-0.4
				c-0.4,0.8-0.9,1.6-1.4,2.4c-0.3,0.4,0.2,0.6,0.5,0.4c0.6-0.4,1.1-0.7,1.7-1.1c0.2-0.1,0.6-0.5,0.8-0.5c0.3-0.1,0,0.1-0.2,0.2
				c-0.8,1-1.7,1.9-2.5,2.9c-0.3,0.3,0.1,0.6,0.4,0.5c1-0.4,2-1,2.9-1.6c-0.2-0.1-0.4-0.3-0.5-0.4c-0.6,1-1.2,1.9-1.8,2.9
				c-0.3,0.5-0.6,1-0.9,1.5c-0.2,0.3-0.5,0.7-0.5,1.1c0.1,0.7,1,0.4,1.3,0.2c0.4-0.3,0.7-0.7,1-1c0.4-0.4,0.8-0.9,1.2-1.3
				c-0.2,0-0.5-0.1-0.7-0.1c-0.1,0.9-0.3,1.8-0.8,2.6c-0.2,0.3,0.2,0.5,0.5,0.4c0.9-0.4,1.8-1,2.6-1.6c-0.2-0.1-0.4-0.2-0.6-0.3
				c-0.3,0.7-0.6,1.4-1.1,2c-0.3,0.4,0.2,0.6,0.5,0.4c0.4-0.3,0.9-0.6,1.3-0.9c0.5-0.3,0.2-0.9-0.4-0.6c-0.4,0.3-0.9,0.6-1.3,0.9
				c0.2,0.1,0.4,0.3,0.5,0.4c0.5-0.7,0.9-1.4,1.2-2.2c0.2-0.4-0.3-0.5-0.6-0.3c-0.7,0.5-1.5,1-2.3,1.4c0.2,0.1,0.3,0.2,0.5,0.4
				c0.5-0.9,0.8-1.8,0.9-2.8c0-0.4-0.5-0.3-0.7-0.1c-0.5,0.5-1,1.1-1.5,1.6c-0.1,0.1-0.6,0.6-0.6,0.6c0-0.1,0.5-0.9,0.6-1
				c0.8-1.3,1.6-2.6,2.4-3.8c0.3-0.4-0.2-0.6-0.5-0.4c-0.9,0.6-1.7,1.1-2.7,1.5c0.1,0.2,0.3,0.3,0.4,0.5c0.7-0.7,1.3-1.5,2-2.2
				c0.3-0.3,1.4-1.2,1-1.7c-0.3-0.4-0.9-0.2-1.3,0c-0.9,0.5-1.7,1.1-2.6,1.6c0.2,0.1,0.4,0.3,0.5,0.4c0.6-0.8,1.1-1.7,1.5-2.6
				c0.2-0.3-0.2-0.4-0.5-0.4c-0.8,0.3-1.6,0.5-2.5,0.5c0,0.2,0.1,0.4,0.1,0.6c1.1-1.2,2.2-2.4,3.4-3.7c0.2-0.2,0.2-0.7-0.2-0.6
				c-0.9,0.2-1.7,0.5-2.6,0.7c0.1,0.2,0.1,0.4,0.2,0.6c1-1.1,2-2.2,2.9-3.3c0.3-0.3-0.1-0.6-0.4-0.5c-0.8,0.4-1.6,0.7-2.4,1.1
				c0.1,0.2,0.2,0.4,0.3,0.5c0.7-0.7,1.4-1.4,1.9-2.2c0.3-0.4-0.2-0.6-0.5-0.4c-1.7,0.9-3.4,1.7-5.1,2.6c0.2,0.2,0.3,0.3,0.5,0.5
				c1.8-1.8,3.7-3.6,5.7-5.4c0.3-0.2,0.2-0.7-0.2-0.6c-1.3,0.3-2.5,0.6-3.8,0.8c0.1,0.2,0.2,0.3,0.3,0.5c0.6-0.8,1.1-1.6,1.7-2.4
				c0.2-0.3-0.1-0.6-0.4-0.5c-0.8,0.3-1.5,0.5-2.3,0.7c0.1,0.2,0.2,0.3,0.3,0.5c0.7-1,1.5-2,2.2-2.9c0.2-0.3-0.1-0.6-0.4-0.5
				c-0.8,0.4-1.5,0.6-2.4,0.8c0.1,0.2,0.2,0.3,0.3,0.5c1.1-1.6,2.4-3,4.1-4.1c-0.1-0.2-0.2-0.4-0.4-0.6c-1,0.7-2.1,1.2-3.2,1.6
				c0.1,0.2,0.2,0.4,0.3,0.5c1.5-1.4,3.1-2.8,4.6-4.2c0.4-0.4,0-0.8-0.5-0.5c-0.9,0.6-1.7,1.2-2.6,1.9c-0.4,0.3-0.8,0.6-1.2,0.9
				c-0.4,0.3-1,0.9-1.5,0.7c0,0.2,0,0.4,0,0.6c1.2-1,2.5-2,3.7-3c0.3-0.2,0.2-0.7-0.2-0.6c-1.5,0.3-3,0.7-4.5,1.2
				C32.3,18,32.3,18.8,32.9,18.5L32.9,18.5z"/>
		</g>
	</g>
	<g class="st1">
		<g>
			<path d="M40.7,16.9c-0.8,0.8-1.7,1.5-2.5,2.3c-0.3,0.3-0.1,0.7,0.3,0.5c1.8-0.7,3.6-1.5,5.4-2.2c-0.1-0.2-0.2-0.4-0.3-0.5
				c-1.3,1.1-2.7,2.2-4,3.4c-0.4,0.3-0.1,0.7,0.3,0.5c1.6-0.6,3.1-1.3,4.6-2c-0.1-0.2-0.2-0.4-0.3-0.5c-1.1,0.9-2.2,1.9-3.1,3
				c-0.2,0.3,0,0.5,0.3,0.5c0.6-0.1,1.1-0.2,1.7-0.2c-0.1-0.2-0.1-0.4-0.2-0.6c-0.7,0.7-1.3,1.4-1.8,2.2c-0.2,0.2-0.1,0.5,0.2,0.5
				c0.2,0,0.4,0,0.6-0.1c0.1,0,0.2-0.2,0.3-0.1c0.3,0,0.1,0.3,0,0.4c-0.4,0.6-0.8,1.1-1.1,1.7c-0.1,0.1-0.2,0.4,0.1,0.5
				c0.6,0.1,1.3,0.2,1.9,0.3c0-0.2,0-0.4,0-0.6c-0.6,0.7-1.2,1.3-1.8,2c-0.3,0.3-0.1,0.8,0.3,0.5c0.6-0.3,1.1-0.5,1.7-0.8
				c-0.1-0.2-0.3-0.3-0.4-0.5c-0.2,0.3-0.3,0.5-0.5,0.8c-0.1,0.2-0.1,0.5,0.2,0.5c0.4,0,0.7-0.1,1-0.2c-0.2-0.1-0.3-0.2-0.5-0.4
				c-0.4,0.7-0.7,1.4-1.1,2.1c-0.1,0.3,0.1,0.4,0.4,0.4c0.4-0.1,0.8-0.1,1.1-0.2c-0.1-0.2-0.2-0.3-0.3-0.5c-0.5,0.7-1,1.5-1.4,2.2
				c-0.1,0.2-0.1,0.5,0.2,0.5c0.5,0.1,1,0,1.5-0.2c-0.2-0.1-0.3-0.2-0.5-0.4c-0.3,0.6-0.6,1.2-1,1.8c-0.1,0.1,0,0.4,0.1,0.4
				c0.4,0.1,0.8,0.1,1.3,0c-0.1-0.1-0.2-0.3-0.4-0.4c-0.4,0.8-0.8,1.5-1.3,2.2c-0.3,0.4,0.2,0.6,0.5,0.4c0.5-0.3,1-0.5,1.5-0.8
				c-0.2-0.1-0.4-0.2-0.6-0.3c-0.3,0.6-0.7,1.2-1,1.8c-0.1,0.2,0,0.4,0.3,0.4c0.6,0,1.1,0,1.6-0.2c-0.2-0.1-0.3-0.2-0.5-0.3
				c-0.1,0.6-0.3,1.2-0.4,1.8c-0.2,0.6-0.5,1.1-0.6,1.7c-0.2,1.1,1.2,0.8,1.8,0.7c-0.1-0.1-0.2-0.3-0.3-0.4
				c-0.8,1.4-1.8,2.7-2.8,3.9c0.3,0,0.5,0,0.8,0c0.4-1.3,2-1.4,3.2-1.5c-0.1-0.1-0.2-0.3-0.3-0.4c-0.4,0.7-0.8,1.3-1.1,2
				c-0.2,0.4,0.4,0.4,0.6,0.3c0.8-0.5,1.5-1.1,2.2-1.8c-0.2,0-0.5-0.1-0.7-0.1c-0.2,0.7-0.4,1.4-0.6,2.1c-0.1,0.4,0.5,0.3,0.6,0.2
				c0.7-0.4,1.5-0.8,2.2-1.2c-0.2-0.1-0.4-0.1-0.6-0.2c0,0.2,0,0.5,0,0.7c0,0.3,0.3,0.3,0.5,0.3c0.6-0.2,1.2-0.6,1.7-1
				c0.5-0.4-0.2-0.8-0.6-0.4c-0.4,0.3-0.8,0.6-1.3,0.7c0.2,0.1,0.3,0.2,0.5,0.3c0-0.2,0-0.5,0-0.7c0-0.4-0.4-0.3-0.6-0.2
				c-0.7,0.4-1.5,0.8-2.2,1.2c0.2,0.1,0.4,0.1,0.6,0.2c0.2-0.7,0.4-1.4,0.6-2.1c0.1-0.4-0.6-0.3-0.7-0.1c-0.6,0.6-1.2,1.1-2,1.6
				c0.2,0.1,0.4,0.2,0.6,0.3c0.4-0.7,0.8-1.3,1.1-2c0.1-0.2,0-0.4-0.3-0.4c-1.8,0.1-3.9,0.4-4.4,2.4c-0.2,0.5,0.7,0.2,0.8,0
				c1.1-1.3,2.1-2.6,3-4.1c0.1-0.2,0-0.4-0.3-0.4c-0.3,0-1,0.2-1.1,0c-0.2-0.2,0.2-0.9,0.3-1.2c0.2-0.8,0.5-1.6,0.6-2.4
				c0.1-0.3-0.3-0.3-0.5-0.3c-0.4,0.1-0.7,0.1-1.1,0.1c0.1,0.1,0.2,0.3,0.3,0.4c0.3-0.6,0.7-1.2,1-1.8c0.2-0.4-0.4-0.4-0.6-0.3
				c-0.5,0.3-1,0.5-1.5,0.8c0.2,0.1,0.4,0.3,0.5,0.4c0.5-0.8,1-1.6,1.4-2.4c0.1-0.3-0.1-0.5-0.4-0.4c-0.3,0.1-0.5,0.1-0.8,0
				c0,0.1,0.1,0.3,0.1,0.4c0.3-0.6,0.6-1.2,1-1.8c0.2-0.3-0.2-0.4-0.5-0.4c-0.4,0.1-0.7,0.2-1.1,0.1c0.1,0.2,0.1,0.3,0.2,0.5
				c0.5-0.7,1-1.5,1.4-2.2c0.2-0.3,0-0.5-0.3-0.5c-0.4,0.1-0.8,0.1-1.1,0.2c0.1,0.1,0.2,0.3,0.4,0.4c0.4-0.7,0.7-1.4,1.1-2.1
				c0.2-0.4-0.2-0.4-0.5-0.4c-0.2,0.1-0.4,0.1-0.6,0.1c0.1,0.2,0.1,0.3,0.2,0.5c0.2-0.3,0.3-0.5,0.5-0.8c0.2-0.3-0.1-0.6-0.4-0.5
				c-0.6,0.3-1.1,0.5-1.7,0.8c0.1,0.2,0.2,0.4,0.3,0.5c0.6-0.7,1.2-1.3,1.8-2c0.1-0.1,0.3-0.5,0-0.6c-0.6-0.1-1.3-0.2-1.9-0.3
				c0,0.2,0.1,0.3,0.1,0.5c0.4-0.5,0.7-1.1,1.1-1.6c0.2-0.3,0.5-0.7,0.5-1c0-0.3-0.2-0.5-0.5-0.6c-0.5-0.1-0.8,0.3-1.3,0.3
				c0.1,0.2,0.1,0.3,0.2,0.5c0.5-0.7,1.1-1.4,1.7-2c0.2-0.3,0.2-0.6-0.2-0.6c-0.6,0.1-1.1,0.2-1.7,0.2c0.1,0.2,0.2,0.3,0.3,0.5
				c0.9-1,1.9-2,2.9-2.8c0.4-0.3,0.1-0.7-0.3-0.5c-1.5,0.7-3.1,1.4-4.6,2c0.1,0.2,0.2,0.4,0.3,0.5c1.3-1.1,2.7-2.2,4-3.4
				c0.4-0.3,0.1-0.7-0.3-0.5c-1.8,0.7-3.6,1.5-5.4,2.2c0.1,0.2,0.2,0.4,0.3,0.5c0.8-0.8,1.7-1.5,2.5-2.3
				C41.8,16.9,41.1,16.6,40.7,16.9L40.7,16.9z"/>
		</g>
	</g>
	<g class="st1">
		<g>
			<path d="M45,18.4c0.7-0.3,1.5-0.4,2.3-0.3c-0.1-0.2-0.1-0.3-0.2-0.5c-0.5,0.6-0.9,1.1-1.4,1.7c-0.3,0.3,0.1,0.6,0.4,0.5
				c1.8-0.9,3.6-1.8,5.4-2.7c-0.1-0.2-0.2-0.4-0.3-0.5c-0.9,0.7-1.9,1.4-2.8,2.1c-0.5,0.4-1.5,1.1-1,1.8c0.1,0.2,0.3,0.1,0.5,0.1
				c1.8-0.6,3.3-1.7,4.9-2.7c-0.2-0.1-0.4-0.3-0.5-0.4c-0.5,0.8-1.1,1.6-1.8,2.3c-0.4,0.4,0,0.7,0.5,0.5c1.3-0.8,2.7-1.5,4-2.3
				c-0.2-0.1-0.4-0.3-0.5-0.4c-0.7,1.1-1.4,2.2-2.1,3.3c-0.2,0.4,0.1,0.6,0.4,0.5c1.1-0.4,2.1-0.9,3.1-1.5c-0.2-0.1-0.4-0.3-0.5-0.4
				c-0.7,0.8-1.3,1.6-2,2.4c-0.3,0.3,0.1,0.5,0.4,0.5c0.7-0.2,1.5-0.4,2.2-0.7c-0.1-0.2-0.2-0.4-0.3-0.5c-0.7,0.8-1.5,1.5-2.2,2.3
				c-0.3,0.3-0.1,0.7,0.3,0.5c0.7-0.3,1.3-0.6,2-1c-0.2-0.2-0.3-0.3-0.5-0.5c-1.3,1.1-2.3,2.5-2.9,4c-0.1,0.3,0.1,0.4,0.4,0.4
				c0.9-0.2,1.7-0.3,2.6-0.5c-0.1-0.2-0.1-0.4-0.2-0.6c-1,0.9-1.9,1.9-2.9,2.8c-0.2,0.2-0.3,0.6,0.1,0.6c1.3-0.1,2.6-0.3,3.9-0.6
				c-0.1-0.2-0.3-0.3-0.4-0.5c-0.8,1.1-1.6,2.2-2.4,3.2c-0.2,0.3,0,0.6,0.3,0.5c0.7-0.2,1.4-0.4,2.1-0.8c-0.2-0.1-0.4-0.3-0.5-0.4
				c-0.8,1-1.5,2-2.3,3c-0.3,0.4,0.2,0.6,0.5,0.4c0.8-0.4,1.6-0.9,2.4-1.3c-0.2-0.1-0.4-0.3-0.5-0.4c-0.9,1.1-1.9,2.3-2.8,3.4
				c-0.3,0.4,0.2,0.6,0.5,0.4c0.6-0.4,1.2-0.9,1.8-1.3c-0.2-0.1-0.4-0.3-0.5-0.4c-0.7,1-1.4,1.9-2.1,2.9c-0.2,0.3,0.1,0.6,0.4,0.5
				c0.6-0.3,1.3-0.6,1.9-1c-0.1-0.2-0.3-0.3-0.4-0.5c-0.6,0.8-1.3,1.6-1.9,2.4c-0.3,0.4,0.2,0.6,0.5,0.4c0.4-0.2,0.9-0.9,1.4-0.9
				c0.9,0.1-0.4,1.2-0.6,1.5c-1,1-1.9,2.1-2.9,3.1c-0.2,0.2-0.3,0.5,0.1,0.6c1.7,0.2,3.1-0.8,4.3-1.8c-0.2-0.1-0.4-0.3-0.6-0.4
				c-1.3,1.4-2.5,2.7-3.8,4.1c-0.4,0.4,0,0.8,0.5,0.5c1-0.7,2-1.4,3-2.2c-0.2,0-0.4-0.1-0.6-0.1c0.2,0.6-0.5,1.4,0.2,1.8
				c0.5,0.4,1.5,0,2.1-0.2c0.5-0.1,0.8-0.9,0.1-0.8c-0.4,0.1-1.5,0.5-1.6,0c-0.1-0.4,0.2-0.8,0.1-1.2c-0.1-0.3-0.4-0.2-0.6-0.1
				c-1,0.7-2,1.4-3,2.2c0.2,0.2,0.3,0.3,0.5,0.5c1.3-1.4,2.5-2.7,3.8-4.1c0.5-0.5-0.2-0.7-0.6-0.4c-1,0.8-2.1,1.6-3.4,1.4
				c0,0.2,0.1,0.4,0.1,0.6c0.8-0.8,1.6-1.7,2.4-2.5c0.4-0.4,0.8-0.8,1.2-1.3c0.2-0.3,0.5-0.5,0.6-0.9c0.2-0.7-0.4-1.1-1-1.1
				c-0.9,0-1.4,0.7-2.1,1.1c0.2,0.1,0.4,0.3,0.5,0.4c0.6-0.8,1.3-1.6,1.9-2.4c0.3-0.3-0.1-0.6-0.4-0.5c-0.6,0.3-1.3,0.6-1.9,1
				c0.1,0.2,0.3,0.3,0.4,0.5c0.7-1,1.4-1.9,2.1-2.9c0.3-0.4-0.2-0.6-0.5-0.4c-0.6,0.4-1.2,0.9-1.8,1.3c0.2,0.1,0.4,0.3,0.5,0.4
				c0.9-1.1,1.9-2.3,2.8-3.4c0.4-0.4-0.2-0.6-0.5-0.4c-0.8,0.4-1.6,0.9-2.4,1.3c0.2,0.1,0.4,0.3,0.5,0.4c0.8-1,1.5-2,2.3-3
				c0.3-0.4-0.2-0.6-0.5-0.4c-0.5,0.3-1,0.5-1.6,0.6c0.1,0.2,0.2,0.3,0.3,0.5c0.8-1.1,1.6-2.2,2.4-3.2c0.3-0.4-0.1-0.6-0.4-0.5
				c-1.1,0.3-2.3,0.5-3.4,0.6c0,0.2,0.1,0.4,0.1,0.6c1-0.9,1.9-1.9,2.9-2.8c0.2-0.2,0.2-0.7-0.2-0.6c-0.9,0.2-1.7,0.3-2.6,0.5
				c0.1,0.1,0.2,0.3,0.4,0.4c0.6-1.4,1.4-2.7,2.6-3.7c0.4-0.4,0-0.8-0.5-0.5c-0.5,0.4-1.1,0.6-1.7,0.9c0.1,0.2,0.2,0.4,0.3,0.5
				c0.7-0.8,1.5-1.5,2.2-2.3c0.3-0.3,0.1-0.7-0.3-0.5c-0.7,0.2-1.5,0.4-2.2,0.7c0.1,0.2,0.3,0.3,0.4,0.5c0.7-0.8,1.3-1.6,2-2.4
				c0.3-0.4-0.2-0.6-0.5-0.4c-0.9,0.6-1.9,1-2.9,1.4c0.1,0.2,0.3,0.3,0.4,0.5c0.7-1.1,1.4-2.2,2.1-3.3c0.3-0.4-0.2-0.6-0.5-0.4
				c-1.3,0.8-2.7,1.5-4,2.3c0.2,0.2,0.3,0.3,0.5,0.5c0.7-0.8,1.4-1.6,2-2.5c0.3-0.4-0.2-0.6-0.5-0.4c-1.5,1-3,2-4.7,2.6
				c0.2,0,0.3,0.1,0.5,0.1c-0.2-0.4,1.5-1.4,1.7-1.6c0.6-0.5,1.2-0.9,1.8-1.4c0.4-0.3,0.1-0.8-0.3-0.5c-1.8,0.9-3.6,1.8-5.4,2.7
				c0.1,0.2,0.3,0.3,0.4,0.5c0.5-0.6,0.9-1.1,1.4-1.7c0.2-0.2,0.1-0.5-0.2-0.5c-1-0.1-1.9,0-2.8,0.4C44.4,17.9,44.4,18.6,45,18.4
				L45,18.4z"/>
		</g>
	</g>
	<g class="st1">
		<g>
			<path d="M47.3,22.4c0.5-0.4,1-0.6,1.7-0.6c0-0.2-0.1-0.4-0.1-0.6c-1.2,1-2.2,2.2-2.9,3.6c-0.2,0.4,0.4,0.4,0.6,0.3
				c1-0.6,2-1,3.1-1.3c-0.1-0.2-0.3-0.3-0.4-0.5c-0.8,1.2-1.7,2.3-2.6,3.4c-0.2,0.2-0.1,0.5,0.2,0.5c1,0.1,2-0.1,2.9-0.5
				c-0.1-0.2-0.3-0.3-0.4-0.5c-0.6,0.7-1.2,1.4-1.8,2.1c-0.2,0.3,0,0.6,0.3,0.5c0.6-0.1,1.2-0.3,1.7-0.4c-0.1-0.2-0.2-0.3-0.3-0.5
				c-1,1.2-2.1,2.4-3.1,3.6c-0.3,0.3,0.1,0.6,0.4,0.5c1-0.4,1.8-1.1,2.4-2c-0.3,0-0.5-0.1-0.8-0.1c-0.5,1-1,2-1.5,2.9
				c-0.2,0.4,0.4,0.4,0.6,0.3c0.7-0.5,1.4-0.9,2.1-1.4c-0.2-0.1-0.4-0.3-0.5-0.4c-0.3,0.5-0.7,1-1,1.5c-0.4,0.5,0.3,0.5,0.7,0.3
				c0.5-0.4,1.1-0.8,1.6-1.2c-0.2-0.1-0.4-0.2-0.7-0.3c-0.5,0.9-1.2,1.7-1.9,2.5c-0.1,0.1-0.3,0.5,0,0.6c0.6,0.1,1.2,0.1,1.8-0.1
				c-0.1-0.2-0.3-0.3-0.4-0.5c-0.6,1-1.3,1.9-1.9,2.9c-0.2,0.3,0,0.5,0.3,0.5c1-0.2,2-0.4,3-0.8c-0.1-0.2-0.2-0.4-0.3-0.5
				c-0.8,0.9-1.7,1.8-2.5,2.6c-0.2,0.2-0.3,0.6,0.1,0.6c0.7,0,1.3,0,2,0c-0.1-0.2-0.1-0.3-0.2-0.5c-0.6,0.6-1.1,1.3-1.6,2
				c-0.2,0.2-0.1,0.5,0.2,0.5c0.4,0,0.8,0.1,1.1,0.1c-0.1-0.2-0.1-0.3-0.2-0.5c-0.5,0.6-0.9,1.2-1.4,1.8c-0.2,0.3,0,0.5,0.3,0.5
				c0.3,0,0.7-0.1,1-0.1c-0.1-0.2-0.2-0.3-0.3-0.5c-0.4,0.6-0.8,1.1-1.2,1.7c-0.2,0.3,0,0.5,0.3,0.5c1.1-0.1,2.2-0.3,3.2-0.6
				c-0.1-0.1-0.2-0.3-0.4-0.4c-0.1,0.4-0.3,0.7-0.4,1.1c-0.2,0.6,0.7,0.4,0.9,0c0.1-0.4,0.3-0.7,0.4-1.1c0.1-0.3-0.1-0.5-0.4-0.4
				c-1.1,0.3-2.1,0.5-3.2,0.6c0.1,0.2,0.2,0.3,0.3,0.5c0.4-0.6,0.8-1.1,1.2-1.7c0.2-0.3,0-0.5-0.3-0.5c-0.3,0-0.7,0.1-1,0.1
				c0.1,0.2,0.2,0.3,0.3,0.5c0.5-0.6,0.9-1.2,1.4-1.8c0.2-0.2,0.1-0.5-0.2-0.5c-0.4,0-0.8-0.1-1.1-0.1c0.1,0.2,0.1,0.3,0.2,0.5
				c0.5-0.7,1.1-1.3,1.6-2c0.2-0.2,0.1-0.5-0.2-0.5c-0.7,0-1.3,0-2,0c0,0.2,0.1,0.4,0.1,0.6c0.8-0.9,1.7-1.8,2.5-2.6
				c0.3-0.3,0.1-0.7-0.3-0.5c-0.9,0.3-1.8,0.6-2.7,0.7c0.1,0.2,0.2,0.3,0.3,0.5c0.6-1,1.3-1.9,1.9-2.9c0.2-0.4-0.1-0.6-0.4-0.5
				c-0.4,0.1-0.7,0.1-1.1,0.1c0,0.2,0,0.4,0,0.6c0.8-0.8,1.5-1.7,2.1-2.7c0.3-0.5-0.3-0.6-0.7-0.3c-0.5,0.4-1.1,0.8-1.6,1.2
				c0.2,0.1,0.4,0.2,0.7,0.3c0.3-0.5,0.7-1,1-1.5c0.3-0.4-0.2-0.6-0.5-0.4c-0.7,0.5-1.4,0.9-2.1,1.4c0.2,0.1,0.4,0.2,0.6,0.3
				c0.5-1,1-2,1.5-2.9c0.3-0.5-0.6-0.4-0.8-0.1c-0.4,0.7-1,1.2-1.8,1.6c0.1,0.2,0.3,0.3,0.4,0.5c1-1.2,2.1-2.4,3.1-3.6
				c0.2-0.3,0-0.6-0.3-0.5c-0.6,0.1-1.2,0.3-1.7,0.4c0.1,0.2,0.2,0.3,0.3,0.5c0.6-0.7,1.2-1.4,1.8-2.1c0.3-0.3-0.1-0.6-0.4-0.5
				c-0.8,0.4-1.6,0.5-2.4,0.4c0.1,0.2,0.1,0.3,0.2,0.5c0.9-1.1,1.7-2.2,2.6-3.4c0.3-0.4-0.1-0.6-0.4-0.5c-1.2,0.3-2.3,0.8-3.3,1.4
				c0.2,0.1,0.4,0.2,0.6,0.3c0.6-1.3,1.5-2.3,2.6-3.2c0.2-0.2,0.3-0.6-0.1-0.6c-1,0-1.9,0.4-2.6,1C46.2,22.4,46.9,22.7,47.3,22.4
				L47.3,22.4z"/>
		</g>
	</g>
	<g class="st1">
		<g>
			<path d="M31.5,15.1c8.8-0.4,17.7-0.3,26.5,0c0.7,0,1.5-0.5,1.8-1.1c0.3-0.6-0.1-1.2-0.8-1.2c-8.8-0.4-17.7-0.4-26.5,0
				c-0.7,0-1.5,0.4-1.8,1.1C30.5,14.5,30.8,15.1,31.5,15.1L31.5,15.1z"/>
		</g>
	</g>
	<g class="st1">
		<g>
			<path d="M43.6,11.5c-0.1-0.1-0.2-0.3-0.2-0.4c0-0.1-0.1-0.2-0.1-0.2c0.1,0.1,0,0,0-0.1c-0.1-0.3-0.1-0.6-0.1-1
				c-0.5,0.6-1,1.1-1.6,1.7c1.4-0.3,2.9-0.6,4.4-0.8c0.2,0,0.4,0,0.5-0.1c0.1,0,0.2,0,0.2,0c0.4,0-0.2,0,0,0c0.2,0,0.1,0,0,0
				c0.1,0,0,0,0,0c0,0-0.2-0.2-0.1-0.2c0-0.1,0-0.1,0,0.1c0,0,0,0.1,0,0.1c-0.1,0.7-0.2,1.5-0.3,2.2c-0.1,0.7,0.6,1,1.2,0.9
				c0.6-0.1,1.5-0.7,1.5-1.4c0.1-0.8,0.3-1.7,0.3-2.5c0-0.6-0.2-1.1-0.8-1.3c-0.5-0.2-1-0.1-1.4,0c-1.7,0.2-3.4,0.5-5.1,0.9
				c-0.8,0.2-1.5,0.8-1.6,1.7c0,0.8,0.3,1.5,0.7,2.2c0.4,0.6,1.3,0.4,1.8,0.1C43.4,12.8,44,12.1,43.6,11.5L43.6,11.5z"/>
		</g>
	</g>
</g>
</svg>
