<svg enable-background="new 0 0 1103.6 217.6" viewBox="0 0 1103.6 217.6" xmlns="http://www.w3.org/2000/svg"><g stroke="#000"><path d="m77.8 28.2c.2.2.4.8.4 1.8v22.2c0 1.6-.5 2.9-1.4 3.9s-2.2 1.5-3.8 1.5c-.6 0-2.4-.3-5.2-.9-4.2-.8-6.5-1.2-6.8-1.2-1.3 0-2.8.1-4.6.4-1.8.2-3.3.4-4.6.6-1.4 3.1-2.1 6.8-2.1 10.9 0 6.1.5 12.5 1.4 19.2s1.5 10.6 1.7 11.7c1.7 10.1 2.8 18.6 3.1 25.5.3 1.4 1.5 2.1 3.5 2.1 1.4 0 3.1-.2 5.1-.7s3.5-.7 4.6-.7c2.4 0 3.9 1.1 4.5 3.3s.9 5 .9 8.5c0 9.9-1 14.9-3.1 14.9h-5.2c-8 0-14.7-.4-20.1-1.3s-10.6-2.8-15.8-5.8c-5.5-3.1-9.6-8.5-12.2-16.2-2.6-7.6-3.9-15.3-3.9-23 0-2.2.2-5.5.5-9.9s.5-7.7.5-9.9c0-4.1-.2-8-.7-11.8-.3-5-.5-8.9-.5-11.6l.2-4c-.8-.2-1.5-.7-2.1-1.8-.6-1-1.2-1.5-1.7-1.5-3.6 2.7-6.5 4-8.5 4-.8 0-1.2-.7-1.2-2.1 0-2.7.7-4.6 2.1-5.9-1.6-.5-2.4-3.2-2.4-8.3l.2-11.1c1.4-.9 2.9-1.5 4.5-1.8 1.6-.2 3.5-.4 5.9-.4 1.1 0 2.3.2 3.7.5 1.3.3 2.4.5 3.2.5l-.2-10.6c-.3-4.7-.5-8.3-.5-10.6.1-2.7.6-4.6 1.8-5.6s3.9-1.5 8.1-1.5c1.9 0 3.8.2 5.7.7 2.2.3 4 .4 5.2.4.3 0 1-.4 2-1.1s1.8-1.1 2.5-1.1c4.6 0 7.4.7 8.5 2.2s1.7 4.1 1.7 7.9c0 1.1.2 2.8.5 5 .5 1.9.7 3.9.7 6.1l-.5 7.1 23.1-.9c.6.1 1.1.2 1.3.4zm-71.4 21.7c.2.2.5.4 1.2.4 1.4 0 4.5-2.1 9.2-6.4 4.7-4.2 7.2-6.8 7.3-7.8-1.9 1.3-4.2 1.9-6.8 1.9v-3h-10.4c-.2.3-.4 1-.6 2.1s-.4 2.1-.4 3.1c0 .6.2 1.7.6 3.2.4 1.4.6 2.6.6 3.6 0 1.1-.4 1.9-1.2 2.4.2.1.3.3.5.5zm12.9 3.7c.4.9.7 1.6.8 1.9l11.3-4c1.3-1.7 4.2-3.2 8.7-4.5 2.7-.8 4.9-1.6 6.6-2.5s3.1-2 4-3.4h-3.1l-23.6 6.1-.7-.9c-.5 1.4-1.3 2.1-2.4 2.1-.6 0-1.9-.4-3.8-1.2l-7.1 5h8c.5 0 .9.5 1.3 1.4zm8.1 3.8c-2.7.3-4.6.9-5.8 1.8s-1.8 2.9-1.8 6c0 1.4.1 2.6.2 3.5 1.6-2.4 3.2-4.1 4.8-5.3 1.7-1.2 3.8-2.5 6.5-3.9 2.8-1.1 5.2-2.4 7.1-4h-2.8c-1.8.9-4.6 1.6-8.2 1.9zm2.1 41.7c-2.7.6-4.6 1.5-5.8 2.6s-2.4 3.7-3.7 7.8c3.8-1.9 7.7-4.2 11.7-7.1 4-2.8 6.6-4.6 7.9-5.4v-1.2c-3.2 1.6-6.6 2.7-10.1 3.3zm-6.9-9.4c-1 1.4-1.5 3.2-1.5 5.4l.2 1.9 16.3-9.2c-1.7 0-3.6.4-5.7 1.2-.5.2-1.3.4-2.4.7s-2.2.5-3.3.5l-2.1-.2 1.2-.9 17.2-6.1v-6.1c-2 .2-4.9 1.5-8.5 4.1s-5.9 4.2-6.8 4.8c-2.1 1.2-3.6 2.5-4.6 3.9zm6.9-21.6c-5.4 1.8-8.1 2.6-8.3 2.5v6.1h.9c1.4 0 5-1.8 10.9-5.3 5.8-3.5 8.7-5.9 8.7-7l-.2-.7c-2.6 1.2-6.6 2.6-12 4.4zm-5.3 10.9c-1.3.9-2.3 1.8-2.9 2.7.8.2 1.2.9 1.2 2.4l-.2 1.9 4-4.2c0 .3.1.6.4.8.2.2.5.4.8.4s.7-.1 1.1-.4c.4-.2.7-.5 1.1-.8 1.9-1.3 4.1-2.8 6.6-4.7s4.3-3.3 5.4-4.2l-13.2 5c-1.6-.2-2.9.2-4.3 1.1zm-2 38.6 14.2-6.1v-1.5c-1.7.3-4.5 1.1-8.4 2.4s-5.8 2-5.8 2.1zm1-90.7c.2.2.4.4.6.8s.4.7.4 1.1c1.7 0 3.9-.5 6.5-1.4s4.3-2.1 5.1-3.5l-4-.2c-5.8-.1-8.6 1-8.6 3.2zm.2-16.3c.3.5.5.9.7 1.4s.4.9.7 1.2.8.5 1.4.5c1.6 0 3.8-.6 6.6-1.9 2.5-1.4 4.8-2.1 6.8-2.1.4-.2 1.2-.5 2.4-1.2 1.3-.6 2.1-1.3 2.6-1.9-.9.2-2.3.2-4 .2-2.8 0-5.6-.2-8.3-.7-.9 0-2.3-.1-4-.4-1.7-.2-3.4-.4-5-.4v5.3zm.5 115.3c.3 1.2 1.1 1.8 2.4 1.8.8 0 3.9-1.9 9.3-5.7s8.5-6 9.1-6.6c-.8 0-1.5.1-2.2.2-.7.2-1.3.2-1.8.2-1.6 0-4.8.7-9.8 2s-7.4 2.6-7.4 3.7c-.1 1.8 0 3.3.4 4.4zm21.9-28.9-1.2-.9c-1.3 1.7-2.9 3.3-5 4.7-2 1.4-4.1 2.8-6.1 4-3.8 2.2-6.5 4.1-8.3 5.7 2 0 4.2-.5 6.5-1.4s3.7-1.5 4.1-1.7c4.1-2 7.4-3.1 9.9-3.1v-7.3zm-19.3-30.2c.8 0 2.1-.3 4-.8s3.2-1.1 4-1.5c.2-.8.6-1.4 1.4-1.8s1.7-.7 2.6-1.1c1.7-.6 3-1.3 3.9-2s1.3-1.8 1.3-3.4c-1.7 0-4.8 1.3-9.2 4s-7.3 4.7-8.7 6.1c0 .4.2.5.7.5zm19.2-49.9c.7-1.3 1.4-3.4 2-6.3-2 0-3.9.5-5.7 1.4-1.7.9-3.7 2.3-5.9 4-1.9 1.6-3.6 2.8-5.1 3.7-1.4.9-3 1.3-4.8 1.3v1.7c2 0 5-.6 8.7-1.9 3.5-1.3 6.1-1.9 8-1.9 1.2 0 2.1-.7 2.8-2zm-7.4 14.8c-2.2.9-4.5 1.8-6.8 2.6-2.4.8-4.1 1.4-5.2 1.9v4.5l18.3-10.7v-2.1c-2 1.6-4.1 2.8-6.3 3.8zm10.1 3.8c-.5-.4-.7-.9-.8-1.7-.1-.7-.6-1.1-1.5-1.1-1.6 1.7-4.7 3.5-9.4 5.4-5 2-8.5 4.1-10.4 6.1l9.4-2.1.7-1.2 1.2 1.2c1.3-1.1 3.7-2 7.3-2.6 2.5-.6 4.3-1.2 5.3-1.7s1.5-1.1 1.5-1.9c-1.7.2-2.8 0-3.3-.4zm-18.9 99.4c.8.7 1.6 1.1 2.4 1.1 1.6 0 4.8-1.5 9.8-4.6s7.4-5.4 7.4-7h-1.4l-18.2 7.3c-.8.3-1.2.6-1.2.9 0 .8.4 1.6 1.2 2.3zm2.7-103.2c1.5-.5 2.6-.7 3.4-.7l9.9-5c0-.3.2-.8.7-1.5s.7-1.3.7-1.8c-1.6 0-5 1.3-10.1 3.9-5.2 2.6-7.8 4.5-7.8 5.8.7 0 1.7-.3 3.2-.7zm12.7 59.4c0-2.2-.5-3.3-1.4-3.3l-13.9 7.3c1.6 0 3.6-.5 6.1-1.7.5-.2 1.3-.5 2.6-.9 1.3-.5 2.5-.7 3.8-.7 1.6 0 2.4.5 2.6 1.4zm-2 44.4c-6.1 2.5-9.6 4.3-10.5 5.4h15.3c5.3-5.3 8-8.1 8-8.3v-.9h-1.9c-1.2 0-4.9 1.3-10.9 3.8zm-2.5-14.5c-2.7 2-5 4.2-6.8 6.7 1.6-.5 3.4-1.3 5.4-2.6s5.3-3.5 9.9-6.8c0-.6-.1-1.2-.2-1.7-2.9 1-5.6 2.4-8.3 4.4zm6.4-11.7-8.5 3.8 1.4.5c4.7-.6 7.1-1.3 7.1-2.1zm25.2-70.1c-5 1.1-10.4 2.8-16 5.2-5.7 2.4-9.1 4.7-10.4 7.1l2.1-.2c1.1 0 2.1.3 3.1.9 2 0 5.3-.3 9.7-.9 4.7-.6 8.3-.9 10.6-.9zm-22.4 103.6h1.2c1.3 0 3.3-.7 6.1-2s5.4-2.9 7.7-4.8 3.4-3.6 3.4-5.2zm8.6-108.4c-3.1.9-4.6 1.6-4.6 2.2 0 .2.3.6.9 1.3s1.1 1.3 1.4 1.8l-2.1 3.5 17-9.2c-.6-.6-2-.9-4-.9-2.7 0-5.5.4-8.6 1.3zm7 110.4c1.3-.7 1.9-2.7 1.9-6l-13.2 6.1c.5.2 1.1.4 1.9.6s1.5.4 2.1.4c3.6 0 6-.4 7.3-1.1z"/><path d="m312 115.8c.3 3.9.5 6.7.7 8.6 1.1 8.8 1.7 16.4 1.7 22.9 0 3.3-.7 5-2.1 5-2.4 0-5.6-.2-9.7-.5-4.4-.3-7.7-.5-9.9-.5-1.1 0-2.8.2-5.2.5s-4.2.5-5.7.5c-.5 0-.9-.1-1.4-.4-.5-.2-.7-.4-.7-.6v-41.8c-.9-1.7-1.5-4.1-1.7-7.2s-.3-5.1-.5-6c-1.3-5.7-2.7-10.7-4.4-15.2s-3.9-8.9-6.7-13.3c-2.5-3.9-8.6-5.9-18.2-5.9-2.7 0-4.6 1.4-5.7 4.1-1.1 2.8-1.7 5.8-1.7 9.1 0 .8.5 1.3 1.4 1.5s1.6.5 1.9.8c0 .3-.3.9-.9 1.7s-1.1 1.5-1.4 2.1c0 1.3.2 2.6.5 3.9s.5 2.6.7 3.7c.6 3.1.9 5 .9 5.7v4c.2 2.8.4 6.7.6 11.7s.4 8.9.4 11.7v1.7c0 8-.2 14.5-.7 19.4s-1.6 7.3-3.3 7.3l-7.6-.2c-3.5-.3-6.1-.5-7.8-.5-3.5 0-7.2.4-11.1 1.1s-6 1.1-6.1 1.1c-2.4 0-3.8-.5-4.4-1.4s-.8-3.4-.8-7.3v-8.1c0-2.4.2-6.6.7-12.7.3-2.8.5-5 .5-6.6 0-.3-.1-.7-.4-1.2-.2-.5-.4-.8-.6-.9v-71l1.9-11.6c9.9 0 17.4-.3 22.4-.9.3 1.1.6 2.8.9 5.2s.5 3.9.7 4.5c3.9-2.7 8.7-5.1 14.4-7.3s10.9-3.3 15.6-3.3c14.9 0 26.1 3.5 33.5 10.5s12.2 15.7 14.4 26.1 3.5 23.7 4 39.9c.4 2.8.6 6.2.9 10.1zm-102.5-74.1c-.2 2-.4 3.7-.4 5.1 0 3 .5 5 1.4 5.9 2.2-.9 4.6-2.5 7.3-4.7s4.6-3.7 5.7-4.5v-1.2c-.9.3-2.7 1-5.2 2.1s-4.2 1.7-5 1.7c-.3 0-.6-.1-.7-.4-.2-.2-.2-.5-.2-.8 0-.8 3.1-3.3 9.4-7.6h-12c0 1-.1 2.4-.3 4.4zm7.4 18.7c-4.9 1.6-7.3 2.8-7.3 3.5v5c.3-.5 2.6-2.1 6.8-4.8 4.2-2.8 7.7-4.8 10.4-6.3l-1.2-.2-.9.2c-.3.2-2.9 1.1-7.8 2.6zm-5.4 47.2c.6 0 3.7-1.2 9.2-3.7 5.5-2.4 8.5-4 9-4.6-1.9 0-4.6.8-8 2.4-3.5 1.3-5.8 1.9-7.1 1.9-.6 0-.9-.8-.9-2.4l21.5-12 .7-.9c-2.2.3-5 1.1-8.3 2.4-4.9 1.7-8.7 2.6-11.6 2.6-.2 0-.4-.1-.8-.2-.4-.2-.6-.4-.6-.7 0-1.7.6-3 1.9-3.9s3.1-1.7 5.7-2.5c3.6-.9 5.9-2.2 6.8-3.8-1.7 0-4.2.6-7.3 1.9-3.1 1.4-5.8 2.1-8 2.1-1.4 0-2.1-.3-2.1-.9 0-.9 3.7-3.7 11.1-8.1 7.4-4.5 11.6-6.9 12.5-7.2-1.9 0-3.9.5-5.9 1.4s-3.2 1.5-3.5 1.7c-3.8 2-6.8 3.1-9 3.1-.6 0-1.2-.2-1.7-.6s-.7-.7-.7-1.1c.2-.2 1.7-1.1 4.5-2.7s8.3-4.6 16.3-8.9l.7-.9c-2.2 0-4.3.4-6.4 1.2-2 .8-4.6 2-7.6 3.5-1.7.9-3.6 1.9-5.7 2.8-2 .9-3.9 1.5-5.7 1.7 0 4.9-.2 10.8-.5 17.7-.3 6.6-.5 11.9-.5 15.8.1 1.9.7 2.9 2 2.9zm7.3-54.6c-5.7 3.1-8.5 5-8.5 5.8 0 .6.1.9.2.9.9-.6 2-.9 3.1-.9l16-9.2v-1.2c-1.5 0-5.1 1.5-10.8 4.6zm-4 78.4c-.3-.4-.5-.7-.5-1.1 0-.2 1.5-1.1 4.4-3 2.9-1.8 9-5 18.3-9.6l.9-1.2-17.2 5.2c-1.1 0-2.4.2-3.8.5s-2.5.5-3.3.5c-1.4 0-2.1-.3-2.1-.9s.4-1.4 1.2-2.2c.8-.9 1.4-1.5 1.9-1.8l15.1-8.3c.2.2.4.2.7.2.6 0 1.1-.4 1.4-1.2-1.7 0-4.1.4-7 1.1s-4.8 1.1-5.8 1.3c-3.8 1.1-6.3 1.7-7.6 1.7l-.9 3.1v21.7l17.2-7.3v-1.4c-1.9 0-3.8.6-5.7 1.7-.3.2-1.1.5-2.4.9-1.3.5-2.5.7-3.8.7-.3 0-.7-.2-1-.6zm21.8 11.4c.7-.8 1.1-1.4 1.3-1.9 0-1.3-.3-2.1-.9-2.5s-1.5-.6-2.6-.6h-1.4c-1.6 0-5.5.8-11.7 2.4s-9.8 2.8-10.7 3.8h24.5c.3 0 .8-.4 1.5-1.2zm.4-42.7-19.4 7.3 3.5.2c2.2 0 5.3-.6 9.4-1.9.9-.2 2.1-.4 3.4-.7s2.3-.5 3-.5v-4.4zm-4 35.5c3.5-1 5.2-3.3 5.2-7-.6 0-1 .1-1.2.2-1.6.8-3.8 1.7-6.6 2.6-2.5.8-4.6 1.6-6.4 2.4-1.7.8-3.5 1.9-5.4 3.3h1.2c5.3 0 9.7-.5 13.2-1.5zm-8.8-17.8c9.3-1.9 13.9-3.5 13.9-4.7 0-2.4-.8-3.5-2.4-3.5l-15.1 8.3-1.2.9zm12.3-34.7-.9-.2c-1.4 0-3.9.9-7.6 2.6-3.6 1.7-5.4 2.7-5.4 2.8 1.7 0 4.1-.3 7.1-.8s4.8-1.3 5.4-2.2zm-1.5 12.7c.9-.8 1.3-1.7 1.3-2.6-.9 0-5.1 1.6-12.5 4.7l8.7-.9c.8 0 1.6-.4 2.5-1.2zm-3.6-17.4c1.2-.6 2-1 2.5-1.2v-1.2c-3.1.8-5.2 1.8-6.1 3.1l1.2.2c.4 0 1.2-.3 2.4-.9zm3.3 46.6c2.6-.9 3.9-1.4 3.9-1.5l-.7-2.8c-1.1.6-2.7 1.6-4.8 2.9s-3.3 2.2-3.4 2.7c.7 0 2.4-.4 5-1.3zm-3.9-72.3 2.1.9c-.2-.9 2.6-2.6 8.3-4.8 5.7-2.3 9.2-3.4 10.6-3.4s3.2-.6 5.4-1.8 4.2-2.6 6.1-4.1c-3.3 0-6.4.6-9.3 1.7s-5.7 2.3-8.4 3.7c-2.7 1.3-4.6 2.2-5.7 2.7l-.7.2c0-.2-.4-.4-1.1-.8s-1.1-.8-1.3-1.3c-.8 1.8-2.8 4.1-6 7zm15-15c-7.2 2.4-11.7 4.2-13.6 5.3 4.4-.5 8.3-1.2 11.6-2.1s5.3-1.5 5.9-1.7c6.6-1.9 12.3-3 17.2-3.3-.6-.3-1.5-.7-2.5-1.1s-1.9-.7-2.5-.8c-3.5 0-8.9 1.2-16.1 3.7zm.8 16.5c7.7-3.1 13.6-5.6 17.7-7.7l-1.7-.2c-3.5 0-8.8 1.5-15.9 4.4-7.2 2.9-11.8 5.6-13.8 8.1h1.4c.5 0 4.6-1.5 12.3-4.6zm9.7.3c5.2-.8 10.6-2 16.2-3.8 5.6-1.7 8.9-2.8 9.8-3.1l6.6-2.1c-2.4-1.4-5.1-2.1-8.3-2.1l-11.6 4.7c-1.6.6-4.2 1.7-7.9 3.1s-6.3 2.2-7.9 2.4c0 .5.2 1 .5 1.5.3.6.6.8.9.8 1.2-.4 1.7-.9 1.7-1.4zm7.3 4.6c1.7.6 2.8 1 3.1 1.3l13-8.7-1.2-.2c-.9 0-4 .7-9.1 2.1s-8.1 2.4-9.1 3.1c.5 1.1 1.6 1.9 3.3 2.4zm13.1-20.4c-.6-.3-1.4-.5-2.5-.5-1.9.2-3.7.7-5.5 1.5-1.8.9-3.3 2.1-4.4 3.7 3.8-1.9 8.5-2.8 14.2-2.8-.6-.9-1.2-1.6-1.8-1.9zm-3.2 27.2c.3 0 3.6-1.5 9.8-4.4s9.4-4.5 9.6-4.8h-7.1c-.8 0-2.6.8-5.4 2.4-1.4.9-2.9 1.8-4.5 2.5s-3.1 1.1-4.5 1.1c0 2.1.7 3.2 2.1 3.2zm4.1 11.5c1.4 2.8 2.4 4.4 3.1 4.7l18.3-9.1c-.5 0-2.6.5-6.4 1.4-4.7 1.1-7.6 1.7-8.5 1.7-.3 0-.7-.3-1.3-.8s-1-1.1-1.3-1.5c0-.3.9-1.1 2.8-2.5 1.9-1.3 4-2.6 6.4-3.7s4.4-1.7 6.1-1.7l.9-.9c-2.8 0-7.3.8-13.3 2.5-6.1 1.7-9.1 3.1-9.1 4.4.1.8.8 2.7 2.3 5.5zm5.6 11.8c1.3 0 3.3-.7 6.1-2s4.6-2.2 5.2-2.5c2.4-1.4 4.2-2.3 5.4-2.6v-1.1c-3 0-6.8.5-11.4 1.4s-7 2-7 3.3c.1 2.4.6 3.5 1.7 3.5zm10.6-39c-.5-.4-1.1-.6-1.9-.6-1.3 0-3 .6-5.2 1.8s-3.3 2.3-3.3 3.4c1.1 0 2.9-.3 5.4-.9 2-.8 4.1-1.2 6.1-1.2-.2-1.3-.6-2.1-1.1-2.5zm-10.1 43c1.4 3.9 2.1 12.7 2.1 26.4l14.2-7.1 1.2-.9c-.9 0-2.5.2-4.6.5s-3.8.5-5.1.5c-1.1 0-1.7-.6-1.7-1.9 0-.3.1-.7.4-1.2.2-.5.4-.8.6-.9l13.2-8h-16.3c-.2-.6-.4-1.3-.6-2s-.4-1.4-.4-2 .9-1.1 2.6-1.4 3.4-.7 5-1.2 2.8-1.4 3.5-2.8zm12.2-30c2.3-.9 3.4-2.2 3.4-3.9-2.4 0-5 .4-7.9 1.2s-4.8 2-5.5 3.5c.6.3 1.6.5 2.8.5 2.5 0 4.9-.5 7.2-1.3zm-3.9 59.3c-4.1.5-6.1.9-6.1 1.4l.9 18.2c4.2-4.2 10.7-7.9 19.4-11.1v-.9c-1.6.2-6.7 1.1-15.3 2.8h-.9v-2.8c1.3-1.1 3.6-2.7 7.1-4.7 3-1.7 5.3-3.3 7.1-4.7.2 0 .6-.3 1.2-.9-2.7.7-7.2 1.6-13.4 2.7zm3.5 26c1.7-.2 3.1-.3 4-.5 2.8-.5 5.7-.7 8.5-.7l-.7-1.4h-20.5l2.6 2.6c.3.2.8.2 1.4.2 1.4 0 3-.1 4.7-.2zm5.7-80.7c-.5 0-2.2.6-5.3 1.7s-5.5 2.1-7.2 3.1c1.4 0 3.7-.4 6.8-1.3s5-1.6 5.7-2.2zm-3.1 69c-3.3 1.5-5.7 3.3-7.3 5.3 2.7 0 5.3-.2 7.8-.7.9-.2 2.3-.3 4-.5s3.3-.2 4.7-.2v-6.1c-2.8-.1-5.9.7-9.2 2.2zm5.9-43.6c-3.3 1.6-7.4 2.9-12.3 4l3.8.2c5.7 0 8.5-.4 8.5-1.2zm-2.8-17.4c-.5 0-3.2 1.1-8.3 3.3 1.1 0 3.1-.1 5.9-.4s4.2-.7 4.2-1.3c0-1.1-.6-1.6-1.8-1.6zm-1.5 39.9c-.5.2-1.2.4-2.1.7s-1.9.5-2.8.5c0 .5.2.9.5 1.3s.6.6.9.6c5.7 0 8.5-1.4 8.5-4.2-1.4-.1-3.1.3-5 1.1zm6.4-30.9c-2.2 0-4.4.4-6.7 1.2s-3.7 1.9-4.4 3.3h11.1zm-.2 22.8c-.2-.5-.5-1-.9-1.7-.5-.6-.8-1.1-.9-1.4-1.1.3-2.4.9-3.9 1.8s-2.6 1.6-3.2 2.2c.3 0 .9.1 1.8.2.9.2 2.2.2 3.9.2 2.1.2 3.2-.3 3.2-1.3zm-5.1 18.8c-1.8.6-3.1 1.4-3.9 2.5.9-.3 2.4-.5 4.2-.6 1.9-.1 3.5-.2 5-.4v-2.4c-1.7.1-3.5.4-5.3.9z"/><path d="m341.9 214.7c-.7-.7-1.1-1.5-1.1-2.5 3.6-10.9 6.7-19.3 9.2-25.3l2.8-7.1 1.4-3.5 4.2-9.7c4.4-10.2 7.4-17.2 9-21 0-2.7-1-5.7-3.1-9.2-.6-.9-1.4-2.5-2.4-4.7-1.9-4.7-4.1-10.7-6.7-17.8-2.6-7.2-4.8-13.1-6.5-17.8-1.9-2.7-4.2-6.9-6.8-12.7-2.7-5.8-4.2-9.3-4.7-10.4-4.6-9.8-8-17-10.4-21.8s-4.9-9-7.6-12.6c0-1.6 1.2-2.4 3.5-2.4 1.4 0 3.7.2 6.8.5s5.5.5 7.1.5c2.8 0 5.8-.4 9-1.2 3.8-.6 6.5-.9 8.3-.9.9 0 2.6 2.4 5 7.3.5 1.1 1.6 3.4 3.4 7 1.8 3.5 3.4 6.3 4.8 8.4 2.2 3.1 4.4 6.8 6.7 11s3.4 7.2 3.4 9.1c3.6 8.3 6.1 14 7.3 16.9 1.3 2.9 2 4.4 2.1 4.6.6 0 1.2-.2 1.7-.6s.8-.9.9-1.5l13.5-29.3c0-2.2 1.2-7 3.7-14.5 2.4-7.5 4.5-12.7 6.3-15.7 0-1.1.4-2 1.3-2.6s1.8-.9 3-.9h26.4c.8 0 2.4.4 4.7 1.3 2.4.9 3.5 1.5 3.5 1.8 0 3.3-.6 6.6-1.8 10s-2.9 7.4-5.3 12.2l-2.1 4.5c-6 10.9-11.2 22.5-15.6 34.9-2.5 6.8-4.5 11.6-5.9 14.6-1.7 3.9-3.1 6.7-4 8.3-2 3.9-3.6 7.3-4.7 10.1s-1.9 5.9-2.4 9.2l-25.5 55.7c-.2.5-.7 2.5-1.7 6.1-1.9 9.6-4 14.4-6.4 14.4-.2 0-1.9-.5-5.2-1.4h-26.4c-1-.3-2-.6-2.7-1.3zm-9.4-170.2c.6 1.3 1.3 2.2 2.1 2.7l9.2-5h-12.3c.1.2.4 1 1 2.3zm9.5 1.5-5.2 3.3.9.2c.9 0 2.3-.4 4-1.2s2.9-1.2 3.5-1.2c.9 0 1.4.4 1.4 1.2l7.3-2.1c-.2-1.1-.6-2.2-1.3-3.4s-1.5-1.8-2.2-1.8c-1.8.9-4.6 2.5-8.4 5zm-4.4 11.4c.5.9 1.5 1.4 2.7 1.4 1.4 0 3.3-.7 5.5-2 2.3-1.3 4.4-2.8 6.4-4.5s3-2.7 3-3.2c-3.3 0-7.2.6-11.7 1.7s-6.7 2.2-6.7 3.3c0 1.2.3 2.3.8 3.3zm11.1.3c-4.6 2.3-7.3 3.9-7.9 4.8 2.5 0 6.3-.4 11.2-1.3 5-.9 7.7-1.8 8.1-3 0-.2-.2-.9-.5-2.1-.3-1.3-1-1.9-2.1-1.9-1.2.1-4.1 1.3-8.8 3.5zm-6.7 11.6c.6 1.2 1.3 2 1.9 2.5 1.3-1.1 3.8-2.4 7.6-3.8 4.6-1.7 7.1-3.1 7.6-4.2l-8.5-.2c-5.8 0-9 1-9.7 3.1.1.5.5 1.4 1.1 2.6zm5.4 10.7c.9 1.3 1.8 1.9 2.6 1.9.6 0 3.3-1.2 7.9-3.7 4.6-2.4 7.4-4.1 8.1-5.1-1.6-.3-2.9-.5-4-.5-2.5 0-5.8.4-9.9 1.3s-6.1 1.8-6.1 2.7c0 1.1.5 2.2 1.4 3.4zm17 130.5c2.2 0 5.5.2 9.9.5.5 0 .9-1.3 1.4-3.8s.7-4.6.7-6.4h-.9l-15.3 7.3-1.9.2c-1.3 0-2-.5-2.1-1.4.8-.8 2-1.7 3.7-2.8s2.8-1.8 3.4-2.1l-4.2-2.4-9 5.2-2.1 4c3.5 1.2 9 1.7 16.4 1.7zm-14.4-138.7c2.5 0 4.6-.2 6.1-.6 1.6-.4 3.2-.9 5-1.7 1.7-.7 3.1-1.3 4.2-1.8 0-1.1-.4-2.2-1.2-3.3-6.4 2.7-11.1 5.2-14.1 7.4zm10.4 11.1c.5-.2 1.6-.5 3.4-1.2 1.8-.6 3.7-.9 5.5-.9l2.4.2c0-1.7-.8-3.8-2.4-6.1l-17.2 10.1c2.4 0 5.1-.7 8.3-2.1zm.7 114.3c4.4-1.8 6.8-3 7.1-3.4-3 .6-6.1.9-9.4.9-1.7 0-3-.1-3.8-.2 1.1-2 3.6-3.1 7.6-3.1 1.4 0 2.6.2 3.5.5.9 0 2.6-.8 5-2.4s6.2-4.2 11.6-8c0-.3-.1-.6-.4-.7-.2-.2-.4-.2-.6-.2l-2.1.9c-1.1.3-3.1.6-5.9.9-6.6.9-11.8 2.4-15.7 4.4s-5.8 5.6-5.8 11v2.1c1.5 0 4.5-.9 8.9-2.7zm-6.1-104c7.4-3.3 12.5-6.8 15.3-10.4-3.9.8-7.8 1.9-11.7 3.3s-5.8 2.5-5.8 3.3c0 1.2.8 2.4 2.2 3.8zm2.1 2.9c.2-.2 2.2-.5 6.1-1.2 8.2-1.1 12.3-2.4 12.3-3.8 0-.8-.4-2.5-1.2-5.2-7.8 2.7-13.6 6.1-17.2 10.2zm1.9 8.2c1.3-1.1 3.6-2.6 7.1-4.5 3.8-2.2 6.2-3.8 7.3-4.7-.9.2-3.5.6-7.8 1.4-4.2.8-7.1 1.7-8.5 2.6.5 1 1.1 2.7 1.9 5.2zm2.3 75.3c1.3 0 4.4-1.2 9.4-3.5 5-2.4 8.7-4.2 10.9-5.7-2.4 0-6.6.8-12.6 2.4-6.1 1.6-9.1 3.1-9.1 4.7 0 1.4.5 2.1 1.4 2.1zm-1.1-72.4c.2.2.7.2 1.7.2 2.5 0 6.1-.5 10.7-1.5s7.7-1.9 9.1-2.7l-3.3-6.1-9 4c-2.2 2-5.3 4-9.2 6.1zm4 8.2 7.1-4 6.1-4.2c-2 0-5 .6-8.7 1.8-3.8 1.2-5.7 2.3-5.7 3.4 0 1.2.4 2.2 1.2 3zm-1 52.9c1.7-.5 4.9-1.6 9.4-3.3 4.6-1.7 8.9-3.4 13-5l.9-.7-2.1-.9-20.1 7.8zm11.2 29.5c.2.8.7 1.2 1.3 1.2 1.1 0 2.2-1 3.3-3s1.7-3.5 1.7-4.6c-.6 0-2.2.5-4.6 1.4s-4.3 1.7-5.5 2.1c-2.2.9-4.6 1.9-7.3 2.8 1.3 0 2.9-.2 4.8-.6 2-.4 3.4-.6 4.4-.6 1 .1 1.7.5 1.9 1.3zm11-25c-2.5 1.4-6.1 2.8-10.9 4-3.6.9-6.3 1.8-7.9 2.6-1.7.8-2.5 1.9-2.5 3.3 2.4-2.2 7.9-3.5 16.8-3.8l4.7-.5c1.7-.2 3.6-2.7 5.7-7.6 2-4.9 4.3-11.2 6.8-18.9.5-1.1.8-2.1 1.1-2.9.2-.9.5-1.6.8-2.2-.6 0-2.9.9-6.7 2.8-3.9 1.9-5.8 3.1-5.8 3.5l-18.2 6.8c2.2 0 5.7-.6 10.4-1.9 4.2-1.4 7.9-2.1 10.9-2.1 1.1 0 1.9.1 2.4.4.5.2.7.8.7 1.8s-1.6 2.2-4.8 3.7-7.9 3.4-14 5.8c-1.1.5-2.6 1.1-4.5 1.9s-2.9 1.3-3.1 1.4c2.7 0 6.4-.8 11.1-2.4.6-.2 2.1-.6 4.4-1.2s4.4-.9 6.5-.9c-.1 2.8-1.4 5-3.9 6.4zm-17.7-47c2.7 0 7-1.7 13-5.2s10-6.2 12-8.3c-.8.2-5.4 1.4-13.9 3.7s-12.7 4.3-12.7 6c0 2.6.5 3.8 1.6 3.8zm15.5 22.1c-3.9 1-7.2 2.3-9.9 3.9-2.8 1.6-4.4 3.4-5.1 5.4 8.5-2.2 14.6-4.2 18.4-6.1 1.1-.6 2.7-2 4.7-4 1.4-1.6 2.6-2.8 3.7-3.5 1-.8 2.1-1.2 3.2-1.2 1.3 0 2.4.6 3.5 1.7 2-6.4 5.8-15.3 11.3-26.7-.2.2-.9.6-2.1 1.2-1.3.6-3.2 1.3-5.9 1.9-.2.5-.4 1.1-.8 1.8s-.8 1.2-1.3 1.5l-22.4 11.1 18.4-2.8v1.9l-8.3 5c-.6-.2-3.6 1.2-9 4.1s-8 4.7-8 5.3l.7.7 13.2-4 3.1.9c-1.1.2-3.6.9-7.4 1.9zm-11-11.9c.6-.5 1.8-1.2 3.4-2.2 1.7-1 3.3-2.1 4.8-3.2.8-.5 2.3-1 4.5-1.7 3.9-.9 6.5-2.4 7.8-4.5 2-3.6 8.7-6.9 20.1-9.9l1.2-1.2c-.8 0-1.9.2-3.3.7s-2.6.7-3.5.7-1.5-.2-1.8-.5c-.2-.3-.4-1-.4-2.1l4.5.2c3.5 0 5.7-1 6.6-3.1l6.1-13.2c-.3-.2-.6-.2-.7-.2-1.3 0-3.5.4-6.8 1.2s-6.2 1.8-8.7 3.1c.5 0 1.5-.2 3.2-.5s3.3-.5 4.8-.5c.9 0 2.4.3 4.2.9 0 1.6-2.3 3.8-6.8 6.6-4.6 2.8-7.9 4.2-10.1 4.2 1.1-1.6 4.3-4.2 9.7-7.8l-5.9-.9c-.6 1.4-1.8 2.1-3.5 2.1-1.4 0-3.4-.7-5.9-2.1 3-1.9 7.6-3.7 13.9-5.4 6-1.6 10.2-3.1 12.7-4.7-1.4 0-3.2.2-5.4.5-1.9.5-3.9.7-5.9.7-1.1 0-1.7-.4-1.9-1.2 1.7-.9 3.5-1.5 5.3-1.7s3.1-.3 3.9-.5c3.5-.3 6.5-2.4 9.1-6.3s3.9-7.8 3.9-11.9l-14.2 5-1.9-.2c-.5 0-.9.1-1.4.4-.5.2-1 .5-1.7.8-4.2 1.7-7 3.1-8.1 4.1-1.2 1-2.4 3-3.7 6-.2.8-1 2.8-2.6 6.1-.3.9-.9 2.2-1.9 3.9-.9 1.7-1.7 2.7-2.1 3.2l-3.1 1.2c.5.2.7.4.8.8s.1.8.1 1.3c0 .8-.2 1.8-.5 3.1s-.5 2.6-.5 4c.9-.6 1.9-1.1 2.8-1.5s1.7-.7 2.1-.8c1.1 0 2.2.5 3.3 1.4-.8 2.5-2.4 4.4-4.7 5.8-2.4 1.3-5.8 2.8-10.4 4.4-3.5 1.1-6.1 2.2-7.9 3.2s-2.7 2.4-2.7 4.1c1.4 0 3.1-.4 5-1.2.5-.2 1.3-.4 2.4-.7s2.1-.5 3.1-.5l-1.9 2.1c-.6 0-2.8.6-6.6 1.8s-5.7 1.9-5.7 2.2l1.9 4.2h1zm12-27.2c-1.7 0-4.3.9-7.8 2.7s-5.2 3-5.2 3.7c.2.2.4.3.8.5s.7.2 1.1.2c2 0 4.6-.7 7.7-2s4.6-3 4.6-4.8c-.1-.2-.5-.3-1.2-.3zm-1.6 31.2c0 .2.2.4.6.6s.7.4 1.1.4c.6-.5 1.7-1.5 3.2-3s2.2-2.6 2.2-3.4c-1.9 0-5 .9-9.4 2.6s-7.1 3.3-8 4.7l2.1 2.1zm-2.6 49.8c1.9 0 3.5-1.7 5-5.2-1.1 0-2.3.3-3.5.8-1.3.5-3.1 1.6-5.4 3.2.5.8 1.8 1.2 3.9 1.2zm7.5-66.3 4 .2c-.2.6-.9 1.1-2.1 1.4-1.3.3-2.2.5-2.8.5-.3 0-.6-.1-.7-.4-.2-.2-.2-.5-.2-.8-.1-.6.6-.9 1.8-.9zm26.8-44.4c5.1-.9 8.5-1.4 10-1.4 1.4 0 2.1.8 2.1 2.4l-.2.9-17.2 9c-.8 1.9-2.6 2.8-5.4 2.8 0-1.9.8-3.1 2.4-3.8l14.2-7.3h-15.2c1.1-.8 4.2-1.7 9.3-2.6zm-6.1-11.3c-2.3 3.5-3.4 6-3.4 7.6 0 .8.4 1.3 1.2 1.4l5.9-1.2c4.7-.8 8.7-1.7 11.8-2.7s5.4-2.4 6.8-4.1c-8 0-13.9-.3-17.7-.9.2-1.1 1.1-2.2 2.8-3.4s4.3-2.8 7.8-4.8l5-3.1c-1.7.6-3.5.9-5.2.9h-3.1c-1.9 0-3.6.5-5.2 1.4-2.2 2.4-4.4 5.4-6.7 8.9zm7.7-21.9c-.9 1.3-1.6 3-2 5s-.7 3.5-1.1 4.6c2.8-1.3 8.3-3 16.3-5.2 5.3-1.4 8.4-2.4 9.2-2.8-.6.2-1.7.2-3.3.2-1.1 0-2.4-.4-3.8-1.3s-2.6-1.3-3.5-1.3c-.6 0-1.1.1-1.4.2l2.1-2.1 16 1.2c.5 0 .9-.6 1.3-1.8s.7-2 .8-2.5h-23.8c.8 1.1 1.2 2 1.2 2.6s-.4.9-1.2.9c-.6 0-1.2-.2-1.7-.5-2.5.6-4.2 1.5-5.1 2.8zm8.2 16.3c-3.1 2-5.8 3.4-8 4.4l2.8.2c1.1 0 3.4-.4 6.8-1.2 2.4-.8 4.4-1.2 6.1-1.2 1.6 0 2.8.4 3.5 1.2l5-11.3c-1.7.5-3.5 1.3-5.2 2.6-2.8 1.6-4.8 2.4-5.9 2.4v-.9c-.2.6-1.9 1.8-5.1 3.8z"/><path d="m673.9 36.8c2.9 1.9 4.4 4.6 4.4 8 0 6.5-2.8 17.7-8.3 33.9-5.5 16.1-10.9 30.4-16.3 42.8-.9 6.1-2.6 12.7-5 19.8s-4.9 10.6-7.6 10.6c-1.3 0-3.5-.7-6.8-2.1h-18.2l-1.9-2.1c-.5-1.1-1.3-3-2.5-5.7s-2.2-5.2-2.9-7.6c-.5-1.3-.8-3-1.1-5.2-.2-2.2-.4-3.7-.6-4.5-.6-5.5-1.4-9.4-2.4-11.6-.6-1.6-1.2-2.9-1.7-4.1s-.9-2.2-1.2-3.2c-1.4-5-3.5-9.4-6.1-13-1.4 1.4-2.1 2.4-2.1 3.1.2.3.5.7.9 1.2.5.5.9.7 1.2.7h-3.1c-.2 0-1.9 5.1-5.2 15.3-.2.6-.4 1.4-.6 2.2-.2.9-.5 1.9-.8 3-2.5 9.9-5.1 18.5-7.8 25.7s-5.7 10.9-9 10.9l-21-5.4-6.4.2c-2-1.3-4-4.6-5.9-10s-3.5-11.2-4.7-17.5c-1.3-6.2-1.9-10.6-1.9-13.1 0-.9.1-1.7.2-2.1l-11.3-43.7c-.2-1.6-.5-4.6-1.1-9s-1.4-8.6-2.6-12.6-2.7-6-4.6-6l-.9.2c.2-.8.5-1.5 1.2-2.2.6-.7 1.3-1.1 1.9-1.1.3 0 3.1.5 8.3 1.4s9.9 1.6 14.2 1.9c.3.2.9 1.2 1.7 3.2s1.3 3.3 1.7 4.1c.6 2 1.3 4 2.1 5.8s1.4 2.8 1.9 2.9l9 19.6c1.7 18.6 3.4 29.7 5 33.3l3.3-2.8 2.6-5.9c.9-2 2.7-5.9 5.3-11.6s4-9.4 4.4-11.1c-1.1-.2-1.7-1.3-1.7-3.3 1.3 0 2.3-.7 3.2-2.2s1.3-2.9 1.3-4.1c0-1.4.6-3.9 1.9-7.3 1.9-5.7 3.3-11.2 4.2-16.5 0-1.7.6-3.2 1.8-4.4s3.9-1.8 8.1-1.8c6.8 0 11.6.7 14.4 2.1.6 2.2 1.9 5 3.8 8.3 3.1 5.7 4.7 10 4.7 13 0 .9-.1 1.7-.2 2.1l6.1 15.1c-.2.5-.2 1.4-.2 2.8 0 2 .8 7 2.5 15 1.7 7.9 3.3 12.9 4.8 14.8.6-1.1.9-2.4.9-4l-.2-3.1c0-2.2.8-3.9 2.4-5 2.5-17.1 7.6-33.8 15.1-50 0-.8.2-2.6.6-5.3.4-2.8.7-4.7.8-5.8h15.1c5.7.2 10 1.2 12.9 3zm-144.3 8c-1.9.6-3.9 1.1-5.9 1.5 2.4 1.1 4.3 1.9 5.8 2.4s3.3.7 5.3.7c-.8-2.4-1.2-4-1.2-5 0-.5.1-.9.2-1.2-.9.5-2.3 1-4.2 1.6zm-5.9 8.8c2.2 0 3.9-.8 5-2.4-1.4-.6-3.1-.9-5-.9zm1.9 14.2c.6-1.1 1.3-1.9 2.1-2.4s1.8-1 3.1-1.5 2.3-1.1 3.1-1.5l-2.1-1.9h-7.3c-.2.3-.2.9-.2 1.9-.1 2.3.3 4.1 1.3 5.4zm11.8-12.2c-1.1-1.3-2-2.5-2.6-3.4-.9.2-1.9.6-2.7 1.2-.9.6-1.5 1-1.8 1.2-2.2 1.3-3.7 1.9-4.5 1.9-.6 0-1-.1-1.2-.2v1.2c0 .2.7.3 2 .5s2.5.3 3.4.5l5.9 1.2 3.1.2c0-1.6-.5-3-1.6-4.3zm-4.5 18.4c1.6-.4 2.6-.8 3.1-1.3-.9-.6-2.5-1.2-4.6-1.8-2.1-.5-3.7-1.4-4.6-2.5-.3.9-.5 1.7-.5 2.1 0 1.4.8 2.8 2.4 4 1.2.1 2.6-.1 4.2-.5zm-1.2 11c.8-.3 2-.6 3.5-.9 1.6-.3 2.8-.7 3.5-1.2-2.2-.5-4.9-1.2-8-2.1-.3.3-.5.8-.5 1.4.1 1.4.6 2.3 1.5 2.8zm4.6-20.3c-2.1.6-4 1.3-5.5 1.9.5.9 2.3 1.9 5.4 2.8 2 .6 3.5 1.2 4.5 1.7.9.5 1.4 1.3 1.4 2.4 0 .6-1.5 1.5-4.6 2.6s-5 1.7-5.8 1.7l12.3 3.1.9.9 1.2-.9c0-2.2-.5-5.2-1.5-8.9s-2.4-6.5-4.1-8.4c-.7.1-2 .5-4.2 1.1zm5.7 19.8c-1.5.6-2.5 1-3 1.2-2.8 1.3-5 2-6.4 2.1 1.4.6 3.6 1.3 6.6 2.1s5.3 1.2 6.8 1.2v-7.6c-1.1.1-2.5.4-4 1zm-3.5 7.1c-1.7-.5-3.3-.7-5.1-.7 0 3 .5 5 1.4 6.1.5-1.1 1.5-1.9 3-2.4s3-.7 4.4-.7c-.9-1-2.1-1.8-3.7-2.3zm-3.7 8.5c1.4.6 3.6 1.1 6.6 1.4s5.2.9 6.6 1.7l.2-2.8c0-1.7-.2-3-.5-3.9s-.9-1.3-1.7-1.3-1.6.5-2.5 1.4-1.5 1.4-1.8 1.4l-3.5-.2c-1.4-.1-2.6.7-3.4 2.3zm9.2 8.3c-1.9 0-3.4.2-4.6.6s-1.8 1.2-1.8 2.5l.2.9c.2-.2.5-.4.9-.7.5-.3.9-.5 1.2-.5.6 0 1.9.4 3.9 1.2s3.3 1.2 4.1 1.2l.9-.2c-.2 1.1-.8 2-2 2.6s-1.9 1.5-2 2.6c.8.2 1.8.4 3.1.6s2.3.4 3.1.4c.6 0 1.1-.2 1.5-.6s.6-.9.6-1.5c-.6-.6-2-5-4.2-13.2l-2.8 3.1c0-1.1-.7-1.8-2.2-2.1s-3.4-.5-5.8-.5l-2.1.2v1.4zm-4 5.9-2.1.2v2.1c3 0 5-.4 6.1-1.2-.9-.8-2.3-1.1-4-1.1zm30.4 10.1-17.2-4-2.1.5h-13.2c.2.9.7 2.3 1.5 4.1.9 1.8 1.4 2.7 1.5 2.7zm-19.8 17c2.8 0 8.1-1.2 15.8-3.5-2.4 0-6-.3-10.9-.8s-9.1-1.4-12.7-2.5v1.7c0 1.1.3 2.7.9 4.7s1.4 3.1 2.4 3.1c1.4 0 2.1-.2 2.1-.7 0-.3-.1-.7-.4-1.2-.2-.5-.4-.9-.4-1.2 1.4.2 2.4.4 3.2.4zm26-13-8.7-.2c-9.1 0-16.8.8-22.9 2.4 1.3.5 2.4.8 3.4.9 1 .2 1.8.3 2.5.5 4.2 1.1 7.1 2 8.5 2.6 0 .2.1.4.4.7.2.3.4.5.6.5l1.9-1.2c1.7 0 3.3.2 4.7.7.5 0 1.3.1 2.4.4 1.1.2 2 .4 2.8.4l2.4-.2zm-5.1 15.9c.5-1.7.9-2.9 1.1-3.7-2.7 0-6.5.5-11.6 1.4-5 .9-8 1.9-9 2.8 1.9 0 4.7.3 8.5.9 4.1.6 7.2.9 9.2.9.6.2 1.2-.6 1.8-2.3zm-11.8-34.3c-.6 1.7-.8 3.3-.8 4.7 1.1 0 2.3-.7 3.7-2 1.3-1.3 2.3-2.2 2.9-2.5l-.2 1.7c0 .6.4 1.1 1.2 1.4s1.8.5 3.1.5c1.9 0 4-.3 6.3-.8s3.9-1.1 4.8-1.8c-1.6-.2-3.3-.5-5.1-1.1-1.8-.5-3.1-.9-3.9-1.1-4.4-1.3-7.6-1.9-9.4-1.9-1.2.2-2.1 1.2-2.6 2.9zm21.8 5.4c-1.7 0-4.5.3-8.3.9s-6.4.9-7.8.9c-.3 0-.6-.1-.8-.4-.2-.2-.4-.4-.4-.6l-4 2.1c3 .3 9 2 18.2 5zm-15.3-14.6.2 1.4 12-3.1v-.9c-.9-.2-2.6-.4-5.1-.8-2.4-.4-4.4-.8-6-1.3-.7 1.6-1.1 3.1-1.1 4.7zm18.7 4.1c.4-1.3.7-2.2.8-2.7l-.2-1.2c-1.9.5-4.2.9-6.8 1.2-6 .6-9.8 1.6-11.3 2.8l16.3 3.3c.4-.9.9-2 1.2-3.4zm-13.3-13.8c1.6-.5 3.9-.9 7.1-1.2 2.7 0 5-.3 6.8-.9l-11.8-6.1zm16.5 2.6c0-.9-.1-1.6-.2-1.9h-5.2l-1.2 2.1c-1.1-.6-2.1-.9-3.1-.9-1.3 0-2.6.3-4 .9l12.3 4c1-.7 1.4-2.1 1.4-4.2zm8.6-18.5c1.7.4 3 .6 3.9.6 2.4 0 3.8-1 4.2-3.1l-2.1.9h-17.2c-1.4 0-2.1.2-2.1.7l.2 1.2c0 .8-.7 1.2-2.1 1.3s-2.6.2-3.7.4c-1 .2-1.5.9-1.5 2.1 0 .2.4.6 1.2 1.4 5.7 3.5 9.7 5.2 12 5.2.9 0 1.4-.7 1.4-2.1 0-.6-.2-1.5-.7-2.6s-.7-1.9-.7-2.4c0-1.1.3-2.1.9-3s1.4-1.3 2.4-1.3c1 .1 2.3.3 3.9.7zm-.5-9.3c-.9.2-3.1.6-6.5 1.2s-6 1.2-7.9 1.8-3 1.1-3.3 1.8l31.6 1.2c0-3.6-.9-7.6-2.6-12s-3.1-6.6-4-6.6c-3.1 0-6.7.6-10.7 1.9s-7.8 2.8-11.2 4.5h21l3.5 4c0 .3-3.3 1.1-9.9 2.2zm-13.5-2.6c-2.2.8-3.3 1.9-3.3 3.3 2.4 0 5.2-.5 8.5-1.7.8-.2 1.8-.4 3-.7s2.6-.5 4.1-.7l-1.2-1.2-4.2-.2c-2.4 0-4.7.4-6.9 1.2zm-.5-8.3.9.5c1.3-.3 3.3-.9 6.3-1.7 2.9-.8 5.4-1.6 7.4-2.4l-4.5-.7c-5.7.1-9.1 1.5-10.1 4.3zm.5-16c.2.5.4 1.7.8 3.5.4 1.9 1 2.8 1.8 2.8 1.9 0 4.4-.7 7.6-2 3.1-1.3 4.8-2.8 5-4.4h-15.2zm19.6 5.5c-.5-1-1.3-1.5-2.4-1.5l-13.2 6.4c1.4 0 3-.1 4.7-.2 1.7-.2 3.1-.3 4-.5 2.4-.5 4.9-.7 7.6-.7 0-1.3-.2-2.5-.7-3.5zm-2.6 42c1.4.9 3.1 1.3 5 1.3.9 0 2.4-.6 4.5-1.9 2-1.3 3.4-2 4-2.1v-.9c0-.8-2-1.2-6.1-1.2-2.4 0-5.7.4-10.1 1.2.3 1.5 1.3 2.8 2.7 3.6zm2.4-7.6c.8.6 1.7.9 2.8.9.6 0 1.8-.2 3.4-.6 1.7-.4 3-.6 3.9-.6v-2.1c-4.4 0-7.8.8-10.1 2.4zm.9 14.7c.3.2.9.4 1.9.4 3.1-.2 5.6-.5 7.3-.9-2.7-.9-5-1.4-6.8-1.4-1.4 0-2.5.1-3.3.2.3.9.6 1.5.9 1.7zm8.7 3.3c-2 .4-3.9.7-5.7 1.1.5.2 2 .6 4.6 1.3s4.4 1.1 5.5 1.1v-4.5c-.8.3-2.3.6-4.4 1zm-.7 8.1c1.6 0 3.3-.3 5.2-.9-1.6-.3-3.1-.6-4.6-.8s-2.5-.4-3-.4c.1 1.4.8 2.1 2.4 2.1zm-.9 4.3c6.8 2 10.2 3.1 10.4 3.3 0-1.3-.4-3.1-1.2-5.4-4.4 0-7.5.7-9.2 2.1zm4.9 12.3c.8 0 2-.5 3.7-1.4s2.6-1.7 2.7-2.1c0-1.9-3.1-2.8-9.4-2.8 0 4.1 1 6.3 3 6.3zm31.9 4.7c-3 0-5.4.5-7.3 1.4.3.3.5.7.5 1.2 0 .6-.5 1.1-1.5 1.3s-1.7.4-2 .4l6.1 2.1c0 1.1-.5 2-1.4 2.7s-2.4 1.5-4.2 2.4c-1.9.9-2.8 1.6-2.8 2.2l.2 1.9h-12c-.5 0-1.1-.3-2-.9s-1.3-1.2-1.3-1.7c0-1.4 2.6-2.4 7.8-3.1 3.3-.6 5-1.2 5-1.7 0-.6-.8-1.3-2.4-1.9h-12.3c-.2-1.6-1-2.4-2.6-2.4 0 3 .9 6.2 2.6 9.7s3.5 5.2 5.2 5.2l3.8-.2c3 0 5.9.2 8.6.7 2.8.5 4.4 1.2 4.8 2.1 4.8-10.2 7.2-17.3 7.2-21.4zm-17.7-3.8c-1.6.2-2.8.2-3.8.2v-1.7c-1.3 0-4.7 1.5-10.4 4.5l9 .2c3.8 0 6.9-.5 9.4-1.4.2.2.3.4.5.7s.5.5 1.2.5c2.8-1.4 5.3-2.1 7.6-2.1-1.7-.8-4.3-1.2-7.8-1.2-2.2.1-4.1.2-5.7.3zm-5 7.1c1.4.3 2.9.6 4.6.7 1.7.2 2.8.2 3.4.2.8 0 1.5-.3 2.1-.9zm5.2-15.1c.8.6 1.9.9 3.3.9.9 0 2.3-.1 4-.2 1.7-.2 3.4-.4 5-.7zm3.8-8c6.4 0 10.9-1.1 13.5-3.3h-12.3c-.8 1.1-1.2 2.2-1.2 3.3zm21.5-6.6c1.1-.8 2.5-3.1 4.2-6.8-3 0-7.5.6-13.6 1.7s-9.3 2.2-9.8 3.3c.8 1.1 2.6 1.9 5.3 2.4 2.8.5 5.6.7 8.6.7 2.5-.2 4.2-.6 5.3-1.3zm-5.9 17.4c-1.7 0-4 .3-6.7.9-2.8.6-4.6 1.1-5.5 1.4l-.9-.2.9.9h12.3v-3zm-9.3-26.6c-2 .5-3 1.3-3 2.6 1.3 0 3.9-.4 7.8-1.3s6.4-1.5 7.3-2c-6.1-.1-10.2.2-12.1.7zm12.7 19.4c.5-.9.8-2.2.8-3.9-6.9 0-11.7.7-14.4 2.1l-.9.9c2 .9 3.7 1.5 5.1 1.8 1.3.2 3.1.4 5.3.4s3.6-.4 4.1-1.3zm9.7-25c.5-2 .9-3.4 1.1-4.4l-24.3 5c6.6.9 11.9 1.4 15.8 1.4 2 0 3.5-.1 4.5-.2.5.8.9 1.2 1.4 1.2.4 0 .9-1 1.5-3zm-7.7-5.8c4.2-.8 7.2-1.3 8.7-1.7-9.6-1.4-17.4-2.1-23.4-2.1v7.3c3.7-1.5 8.6-2.7 14.7-3.5zm-12.5-9.4c1.4 0 3.7-.4 6.8-1.2s7.2-1.9 12.3-3.3l.2-1.2c-3.6 0-6.7-.2-9.3-.5s-4.3-1-5.1-2.1l2.1-2.1 16.3-5.2c-1.4-.6-3.2-1.1-5.3-1.4s-3.4-.5-3.9-.7v-.9l-8.3.9c-.6 1.7-1.8 4.6-3.4 8.7-1.7 4.1-2.5 6.4-2.5 6.8v2.2zm24.3-1.4c-3.8 0-7.8.4-12.2 1.1-4.3.7-8.1 1.8-11.2 3.2l3.1.9h19.4zm-3.1-27.9c3.5-.3 6.5-.5 9.2-.5-1.3-.9-2.7-1.5-4.2-1.8-1.6-.2-3.6-.4-6.1-.4-1.1 0-2.2.2-3.3.5s-2 .5-2.6.5c-.8 0-2.1-.2-4-.6s-3.3-.6-4.2-.6v1.9c1.6 0 2.4 2.2 2.4 6.6 1.4 0 3.5-.3 6.3-.9s4.7-1.3 5.8-2.1h-6.1v-2.4zm8.8 6.6c.3-2.2.5-3.5.5-4-1.3 1.1-2.7 1.9-4.2 2.2-1.6.4-3.7.7-6.4 1.1-3.6.3-6.5.9-8.7 1.9.2.3 1.4.7 3.8 1.1s3.9.7 4.7.8c5 .6 8.3 1.3 9.9 1.9-.1-1.1.1-2.8.4-5zm-2.6 9.7c-1.6 0-4.6.6-9.1 1.8s-6.9 2.2-7.2 3l4-.2c1.7 0 3.7.2 5.8.5s3.7.6 4.6.7c1.2-2 1.9-3.9 1.9-5.8z"/><path d="m789.1 127.7c1.8.6 4.2 1 7.2 1.2 2.8.2 4.8.5 6 1.1s1.8 1.9 1.8 3.9c0 .9-.2 2.5-.5 4.6s-.5 5.7-.5 10.7l-.9 1.2h-11.3c-.6.8-2.3 1.2-5 1.2-2.4 0-4.4 0-6.1-.1s-3.6-.4-5.7-1.1c-1.7-.5-4.1-2-7.1-4.7-.3-.3-1-.9-2.1-1.8s-2.1-1.5-3-2-1.8-.7-2.7-.7c-2.2 1.9-6 4.1-11.3 6.5-5.4 2.4-9.6 3.7-12.7 3.7-6.9 0-13.1-.6-18.6-1.9-.9-.2-3-.5-6-1.1-3.1-.6-5.8-1.4-8.1-2.6s-4-2.7-5-4.6c-2.4-4.6-4.1-8.4-5.2-11.6-1.1-3.1-2-7-2.8-11.6-.9-1.3-1.4-2.6-1.4-4 0-6.4 1-11.3 3.1-14.6 2-3.3 5.2-6.7 9.4-10.1 2-1.6 4.1-3.4 6.1-5.4 3.9-3.3 8.1-5.6 12.6-7 4.5-1.3 9.6-2 15.2-2l5.4.5c2.7 0 4.7.2 6.1.5v-2.1c0-4.6-.2-7.9-.7-10.1s-1.7-3.9-3.5-5.2c-1.9-1.3-5-1.9-9.4-1.9-4.7 0-8.9.6-12.5 1.8s-8.4 3.2-14.4 6c-1.9 1.1-3.2 1.7-4 1.7-.9 0-1.7-.4-2.1-1.2l.2-3.1c0-2-.3-5.1-.9-9.2-.8-3.5-1.2-6.5-1.2-9.2 0-2.4 1.6-4.3 4.8-5.9s6.3-2.5 9.1-2.8l18.4-3.8c.9.2 2.1.5 3.5.9s2.5.8 3.3.9c1.3.2 4 .6 8.4 1.4 4.3.8 8.2 1.8 11.7 3s6.9 2.6 10.4 4.4c3.9 4.7 7.2 11.4 9.9 20.1s4 16.1 4 22.4c0 1.4-.2 2.9-.5 4.5s-.6 2.7-.7 3.3c-.8 2.7-1.2 5.1-1.2 7.3 0 1.9.3 3.9.8 6s1.2 4.2 2 6.3c1.9 5.5 3 9.5 3.3 12 1.1 2.2 2.6 3.7 4.4 4.3zm-88.5-7.5c2-1.9 3-3.2 3.2-4-.8 1.1-2.3 2.2-4.6 3.2s-3.5 1.6-3.7 1.8l.7 2.1c1-.2 2.4-1.3 4.4-3.1zm-3.2-11c-.9 1.7-1.4 2.8-1.4 3.4l.2 2.4c3.6-1.3 5.4-2.6 5.4-4-1.6 0-2.4-.5-2.4-1.4 0-.5.2-.9.7-1.4s.7-.9.7-1.4c-1.2-.1-2.3.7-3.2 2.4zm5.3 20.2c1.2-1.1 2.8-2.3 4.8-3.5 3-2.2 5-3.9 5.9-5.2h-2.8c2.2-1.1 3.9-2.4 5-3.9s2.3-3.6 3.5-6.3c.9-2.2 2.1-4.3 3.5-6.4 1.3-1.7 4.3-4.5 9.2-8.3-.5-.2-.9-.4-1.3-.8s-.7-.7-.8-1.1c.6-.9 2.4-2.9 5.4-5.9 1.4-1.1 2.9-2.5 4.5-4.2-3.1.9-6.7 2.6-10.6 4.8-3.9 2.3-6.8 4.4-8.5 6.3-1.3 1.4-3 2.8-5.2 4-2.2 1.4-3.8 2.8-4.7 4 1.4 0 2.4.4 2.8 1.2 1.1-1.6 2.5-3 4.2-4.2 1.7-1.3 3.4-1.9 5-1.9.2 0 .4.2.6.6s.4.7.4 1.1c-.6.6-2.4 1.9-5.2 3.8-3.8 2.8-5.7 4.3-5.7 4.5l-1.4-1.9-3.8 1.9h2.6c0 .2.1.3.2.5.2.2.2.4.2.7-.6.5-1.4.9-2.4 1.4-.9.5-1.7 1-2.1 1.5-.5.6-.7 1.2-.7 2l4.5-1.9c.6 0 1.1.3 1.4.9 2.2-2.5 4.2-3.8 5.9-3.8 0 1.1-1 2.5-3.1 4.1-2 1.7-4.8 3.7-8.3 6-4.6 3.1-7.4 5.4-8.5 6.6.6 0 1.9-.6 3.9-1.8s4.4-2.6 7.2-4.4c0 .9-.4 1.8-1.2 2.5s-2 1.5-3.5 2.5c-3.3 2-5.1 3.8-5.4 5.2 0 .2.2.7.6 1.7.4.9.9 1.4 1.5 1.4.5-1.4 1.2-2.6 2.4-3.7zm-3.4-26.5 3.1 1.4c.6 0 1.7-.6 3.2-1.8s2.5-2 2.9-2.5c1.9-1.3 3.4-2.3 4.5-3.2s2.1-1.9 3.1-3.2c.6-.9 2.1-2.6 4.5-5l.9 2.1 1.2-5.2c-1.9 0-4.7.9-8.5 2.6s-7.7 3.9-11.8 6.6c.2.6.5.9 1.2.9l1.7-.2c0 .8-.4 2-1.3 3.5-.9 1.6-1.9 2.4-3 2.4-.6 0-1.2-.2-1.7-.7zm3.6-55.9c.4.3.7.5 1.1.5.5 0 2.6-1.1 6.3-3.4s5.5-3.9 5.5-4.8c-.8 0-2.9.4-6.4 1.3s-5.8 1.5-7.1 2c0 .2.1.4.4.6.2.2.5.4.8.4-.2.2-.4.4-.7.6s-.5.7-.5 1.3c.1.6.3 1.2.6 1.5zm12.7 90.7c2.8-3.1 4.2-5.5 4.2-7.4 0-.9-.6-1.5-1.7-1.7s-1.7-.5-1.7-1.2c0-.2.1-.4.4-.8.2-.4.4-.6.6-.6l-2.1-4-3.8 3.3c-2.8 2.2-4.2 3.8-4.2 4.7l.2 1.2c.9-.5 2-.9 3.1-1.2s2-.9 2.8-1.9c0 1.3-.4 2.2-1.3 3-.9.7-2.1 1.5-3.7 2.2-1.9.9-3.2 1.8-4 2.6s-1.2 1.9-1.2 3.3l.2.9c.6.5 1.4.9 2.4 1.3.9.4 1.8.7 2.6.8 2 .1 4.3-1.4 7.2-4.5zm23.1-95c-7.9 4.7-12.3 7.1-13.2 7.1h-2.1c-.5-.5-.7-.9-.7-1.4 0-.8.6-1.7 1.8-2.8s1.9-1.8 2.2-2.1h-1.2l-9 5.2-1.4-.2c-1.4 0-3.1.4-5.2 1.2-.5.2-1.3.4-2.5.7s-2.2.5-3 .5v9c2.2-.6 5.2-1.9 9-3.8 2.8-1.4 5.2-2.5 7.2-3.2s4.1-1.1 6.5-1.1l2.6.2zm-13.9 37.4c2-.9 3.1-1.6 3.1-2.2-3.3.5-6 1.3-8 2.5s-4.9 3-8.5 5.3l9.9-4c.2-.2 1.4-.7 3.5-1.6zm-1.8-41.3c-2.1 1-3.9 2.1-5.4 3.2s-2.5 2.3-2.9 3.5c5-1.4 10.8-4.1 17.2-8-1.3-.6-2.7-.9-4.2-.9-1 .5-2.6 1.2-4.7 2.2zm4.7 105.5c.5-.5.9-1 1.1-1.3 0-.3-.2-.6-.5-.9s-.5-.5-.5-.7c.9 0 2.6-1.1 4.8-3.4 2.3-2.3 3.4-3.9 3.4-4.8-.5 0-1.2.1-2.2.4-1 .2-2.2.4-3.4.4 0-.9.1-1.4.2-1.4-.3 0-1.1-.2-2.4-.6s-2.4-.6-3.3-.6c-1.6 0-3.1.9-4.6 2.7s-2.5 3.6-2.9 5.3c1.1-.6 2.6-.9 4.5-.9h2.6c-.3.2-.9.7-1.9 1.7-.9.9-1.7 1.7-2.1 2.4 0 .9.2 1.5.6 1.8.4.2 1.1.4 2 .4 1.6 0 2.8-.5 3.5-1.4v2.1c.2-.3.6-.6 1.1-1.2zm21.9-37.4.2-5.7c0-4.4-1.3-6.6-4-6.6-3 0-6.3 1.3-9.8 3.8s-6.5 5.6-9 9.3c-2.4 3.7-3.7 7.1-3.7 10.3 0 3.8.9 6.2 2.6 7.3s4.1 1.7 7.1 1.7c3.1 0 6.3-.6 9.6-1.8 3.2-1.2 5.5-2.9 7-5.3l.2-6.4zm-24.1-20.5c.9 0 2.5-.6 4.7-1.9 3-1.6 5.8-2.8 8.5-3.7s6-1.3 9.9-1.3c-3-.9-6.2-1.4-9.7-1.4-6.6 0-11.1 2.8-13.4 8.3zm5.2-44.6c-1.7 2.2-2.6 3.8-2.6 4.7.8-.8 2.6-2 5.4-3.8 2.8-1.7 4.5-2.8 5-3.1-.3-.2-.9-.4-1.9-.6-.9-.2-1.7-.4-2.1-.6-.8.1-2.1 1.2-3.8 3.4zm30.8 89.4c.5-.2.9-.4 1.2-.8.2-.4.6-1.1 1.1-2.2-1.3.8-3 1.4-5.2 1.9s-4.1.7-5.7.7v-4c-.6-.5-1.4-.7-2.4-.7-1.9 0-3.8.9-5.8 2.6s-3.8 3.6-5.4 5.5c-1.7 2-2.6 3-2.7 3 1.1 0 3.2-1 6.3-3.1 3.1-2 5.3-3.7 6.7-5 .9.3 1.4 1.1 1.4 2.4-6.1 5.2-12.5 9.8-19.1 13.7l4.7.2c3.3 0 6.8-.7 10.6-2.2s6.6-3.5 8.5-6c.6-.8 1.2-1.6 1.7-2.5s1.3-1.7 2.4-2.5c.5-.5 1.1-.8 1.7-1zm6.6-69.9c-.6.6-2.1.8-4.6.8-.2 0-.4-.1-.7-.2l.9-2.1c0-.2-.1-.4-.4-.6-.2-.2-.4-.4-.6-.4-2.4 1.4-4.8 2.3-7.2 2.7s-3.7.7-3.9 1.1c0 .9.4 2.1 1.1 3.4s1.2 2 1.5 2c.5-.5 1.5-1.3 3.2-2.5s2.8-1.8 3.4-1.8c.3.2.7.4 1.1.6s.7.4.8.4c-1.4 0-2.1.6-2.1 1.9l.2 1.2c.8-.6 1.7-1.2 2.8-1.7s2-.7 2.8-.7c.2 0 .4.4.7 1.2s.5 1.5.5 2.1c-1.6 1.3-3.7 2.9-6.5 4.8-2.8 2-4.8 3.4-6.3 4.4 1.9 0 3.8-.2 5.7-.7 2.5-.3 4.4-.5 5.7-.5 1.6 0 2.7.4 3.3 1.2-.9 1.6-2.3 2.6-4 3.1v-1.4c-4.9 0-8.2.5-9.9 1.4-.5.2-1.9 1.3-4.1 3.4-2.3 2.1-3.7 3.2-4.4 3.2-.5 0-.7-.2-.7-.7.2 0 .4-.3.7-.8s.5-.9.7-1.1c-6.8 2.8-11.5 5.8-14.2 9 4.1-2.7 8.1-4 12-4 .3 0 .7.1 1.3.2.5.2 1.1.4 1.5.7 1.3-.2 3.9-1.2 8-3.1 5-2.5 8.5-3.8 10.4-3.8.3.2 1.3.4 3.1.6 1.7.2 2.6.6 2.6 1.1 0 .9-.2 1.7-.7 2.2-.5.6-1.4 1.3-2.7 2.1-1.3.9-2.1 1.9-2.2 2.9.3-.2.9-.2 1.7-.2 1.4 0 2.4.4 3.1 1.2 1.1-1.3 1.8-2.7 2-4.2.2-1.6.4-3.5.4-5.9 0-2.8-.6-7.4-1.7-13.8s-2.1-9.6-3.1-9.6c-.2 0-.7.3-1.2.9zm-25.7-9.5c.9-.5 1.3-1.2 1.3-2-.3 0-1.3.1-3.1.4-1.7.2-2.8.8-3.1 1.8.5.5 1.2.7 2.1.7s1.9-.3 2.8-.9zm10.5-7.2c-.5.3-1.1 1-1.9 2s-1.3 1.8-1.7 2.2c-1.4 2.5-2.6 4-3.5 4.5l.7.5 14.4-6.4c0 .2.1.4.4.7.2.3.4.5.6.5.3-.2.7-.4 1.1-.6s.7-.4.8-.6c0-.6-1.9-1.9-5.8-3.9s-6.2-3-7-3h-2.4l-9 5.9-.9 2.1c1.3-.9 3.3-1.9 6-2.8 2.8-.9 4.9-1.4 6.5-1.4zm-11.4-4c-.9.8-1.6 1.7-1.9 2.8l.9.2c1.1 0 2-.5 2.8-1.4s1.2-1.9 1.2-2.8c-1 0-2 .4-3 1.2zm13.8 14.9c2.6-1.6 4.4-2.8 5.5-3.5l-1.2-.2c-.9 0-3.2.7-6.7 2s-5.3 2.3-5.3 3c0 1.4.6 2.1 1.9 2.1 1.3-.7 3.2-1.8 5.8-3.4zm4.9 14.4c-.6.2-2.4.8-5.3 2s-4.4 2.1-4.4 2.7c0 .3.1.6.4.9.2.3.4.5.6.5 1.7 0 4.2-.9 7.6-2.7 3.3-1.8 5.5-3.7 6.6-5.5-.3.1-2.1.8-5.5 2.1zm-3 24.8c1.2-1.1 2.2-1.7 3.2-1.7.3 0 .6.3.8.8.2.6.4.9.6 1.1.3-1.1 1-2.3 2.1-3.7 1.1-1.3 2.1-2.2 3.1-2.5-2.5 0-5.3.7-8.4 2.1s-4.6 3.2-4.6 5.4c1 .1 2-.4 3.2-1.5zm9-42.6c-.4-1-.8-1.8-1.3-2.2l-2.1.7c.6.2.9.6.9 1.4 0 .5-.1.9-.2 1.2-.2.3-.2.6-.2.9l-2.4-.5c-.2.2-1.1 1-2.8 2.5s-2.6 2.4-2.6 2.7c1.3-.3 3.3-1 6.1-2s4.6-1.9 5.4-2.7c-.1-.3-.4-1-.8-2zm-3.1 44.9c-2.1.5-3.9 1.1-5.3 1.8s-2.1 1.8-2.1 3.2c0 3.1.3 5.5.9 7.1l10.4-10.2.7-3.1c-.9.4-2.5.8-4.6 1.2zm-.2 27.2c1.8-1.1 4-2.8 6.7-5.2 3-2.5 4.6-3.9 4.7-4l-8.3 1.9c-4.6.9-7.3 1.7-8.3 2.4-.9.6-1.4 2-1.4 4v2.8c2.6-.2 4.8-.8 6.6-1.9zm-1.1-14c-1.6.5-3.3.7-5.2.7v5.2c1.1-1.3 2.3-2.2 3.7-2.8 1.3-.6 2.7-1.1 4-1.5s2.2-.7 2.7-.8v-1.2c-1.2 0-3 .1-5.2.4zm6.5-3.6c2.3-.9 3.4-1.9 3.4-3.2 0-2.7-.3-4.2-.9-4.5-.5 0-1.2.2-2.2.6s-1.5.9-1.5 1.5c0 .3.2.6.7.9l-5 5.9c1.4.1 3.2-.4 5.5-1.2zm-1.3 29.6c.9-1.4 1.6-2.4 1.9-3.1-.2 0-1.1.2-2.7.7-1.7.5-2.5 1.3-2.5 2.4 0 1.4.5 2.1 1.7 2.1.1 0 .7-.7 1.6-2.1zm.7-23.1h2.4c1.3 0 2.2-.2 2.9-.6s1.1-1.2 1.1-2.5c-2.5.5-4.6 1.5-6.4 3.1zm7.7 5.5c-.7.4-1.1.6-1.3.6l.7-2.1c-.8.3-2 1.2-3.7 2.6s-2.8 2.6-3.4 3.5c.6-.3 1.6-.8 2.8-1.4 1.3-.6 2.4-.9 3.5-.9l.7.2 1.2 4.2-8.3 3.8v.9c.5-.2 1.1-.3 1.9-.5s1.5-.3 2.1-.5l2.4.2c0 .3.1.7.4 1.3.2.6.4 1 .4 1.3 0 .5-.7 1.1-2 1.9s-2 1.5-2 2.1c.2 0 1.2-.4 3.1-1.2s5.5-2.4 10.9-4.7c-.8-.8-1.9-1.8-3.3-3s-2.6-2.4-3.4-3.7c-.9-1.3-1.3-2.6-1.3-4l.2-1.4c-.4.2-.9.4-1.6.8zm-1.3 4.6c-.9.2-2.4 1.1-4.5 2.8zm.7 16.1-5.2 1.9c.2.2.5.5.9 1.1.5.6 1.2.8 2.1.8zm-2.1-31.4v-.9l-1.9.9zm6.6 30.2c-1.1 1.7-1.7 4.2-1.7 7.3l7.6-7.8c.5-.5.7-1.1.7-1.9s-.2-1.2-.7-1.2c-2.8.7-4.8 1.9-5.9 3.6zm18 2.6c.4-3 .7-5.3.8-6.8-1.3 0-4.3 2.3-9.2 6.8-2.4 2.4-4 3.9-5 4.5h12c.6 0 1.1-1.5 1.4-4.5zm-8.6-5c-.3.8-.6 1.5-.7 2.1.3 0 1.1-.6 2.5-1.8 1.3-1.2 2.2-1.9 2.7-2.2-.3-.3-1.1-.8-2.5-1.4-1.3-.6-2.1-1-2.2-1.2.5.9.7 1.8.7 2.6 0 .5-.2 1.1-.5 1.9z"/><path d="m847.5 80c3.8 2 10 4.5 18.6 7.3 8 2.5 14.6 4.9 19.6 7.2s9.4 5.5 13 9.7 5.4 9.6 5.4 16.2c0 6.8-2.1 12.9-6.4 18.5-4.2 5.6-9.7 9.6-16.3 12.2-1.1.5-2.8 1.3-5.2 2.5s-4.6 1.8-6.8 1.8c-2.4 0-5.7.2-10.1.5l-10.4.2c-3.3 0-6.5-.4-9.4-1.1-3-.7-6.7-1.9-11.1-3.4-4.1-1.4-7.6-2.5-10.4-3.2s-5.7-1.1-8.7-1.3l-.9-1.2v-22.4c0-.6 1-.9 3.1-.9 3.3 0 8.6 1.5 15.8 4.5 4.4 1.6 8.1 2.8 11 3.7s5.7 1.3 8.4 1.3c1.7 0 3.4-.2 5.1-.6s3.5-1 5.5-1.8c-.2-.3-.2-.8-.2-1.4 0-1.4.5-3.1 1.7-5 1.3-2.5 1.9-4.5 1.9-5.9 0-3.6-1.3-6.2-4-7.8s-6.6-2.9-11.8-4c-4.7-.9-8-2-9.9-3.3-.9-.6-2.5-1.6-4.6-2.8-2.1-1.3-3.9-2.4-5.3-3.5s-2.1-2-2.1-2.8c-2.4-.6-4.9-3.1-7.6-7.6-2.7-4.4-4.6-8.3-5.9-11.8l-.9-5.9c0-10.1 3.5-18.2 10.4-24.5s15.6-9.4 26-9.4c1.3.2 2.9.4 5 .8 2 .4 4.2.7 6.6 1.1 16 3 26.4 4.5 31.2 4.5 1.4 0 2.7 2.3 3.9 6.8 1.2 4.6 1.8 9.1 1.8 13.7 0 6.1-1.1 9.2-3.3 9.2l-.9-.2c-1.7-3-4-5.1-6.8-6.3s-5.8-2-8.8-2.6c-3.1-.5-4.6-1-4.6-1.3h-3.3c-5.7 0-11 .8-15.9 2.4-5 1.6-7.4 4.6-7.4 9.2-.7 3.7 1.2 6.7 5 8.7zm-33 61.9c4.7-.8 8.5-2.8 11.3-6.1-.5 0-.9-.1-1.3-.4-.4-.2-.7-.4-.8-.4-1.4 0-3.4.5-5.9 1.4s-3.9 2.1-4.2 3.5c-.1.9.2 1.5.9 2zm0-73.2h2.1c.6 0 5-1.7 13.2-5.2s14.3-6.1 18.4-8c2.5-1.4 5.7-3.2 9.7-5.4 3.9-2.2 7.2-4.1 9.7-5.7-.8-.6-2.7-1.1-5.7-1.4-.3 0-1 0-2-.1s-1.9-.3-2.5-.6-1-.7-1.2-1.2l-20.3 10.1c2.2 0 4.4-.5 6.7-1.4s3.7-1.5 4.1-1.7c4.1-2 7.6-3.1 10.4-3.1.6 0 1.2.2 1.7.5s.7.7.7 1.2c0 .3-9.2 4.6-27.6 12.7h-2.1l-15.3 8.3zm4.3-10.7c-2.9 1.8-4.4 3.7-4.4 5.5 7.7-1.9 12.8-4.6 15.3-8l-2.1-.2c-2.9 0-5.9.9-8.8 2.7zm14.1 6.5c-4.2 1.7-7.8 3.3-10.5 4.8-2.8 1.5-5.1 3.3-7 5.5 1.9 0 3.9-.6 5.9-1.8s3.3-1.9 3.8-2.2c3.9-2.7 7.1-4 9.4-4 0 .6-.7 1.4-2.1 2.4s-2.3 1.6-2.6 1.9c-2.5 1.6-4.2 2.8-5 3.8.6-.2 1.8-.6 3.5-1.3s3.5-1.3 5.4-1.8c.2 0 1.1-1.5 2.7-4.4 1.7-2.9 3.5-4.8 5.5-5.8v-1.2c-2.4 1.5-5.4 2.8-9 4.1zm-7.1-18.7c-2.7 1.1-4.8 2.1-6.3 3.1-1.5.9-2.2 2.4-2.2 4.5h1.4c1.9 0 8.1-2.4 18.6-7.1l4.7-1.9c-1.6-.2-2.4-.4-2.4-.7s1-1 3.1-2c2-1 3.1-2.1 3.3-3.2-6.3 0-10.4.9-12.3 2.6l-3.1 2.1c-.2.8-1.8 1.7-4.8 2.6zm1.8 33.8c2.8-1.7 4.8-3.3 6.3-4.7-1.9.8-4.6 1.5-8 2.1-3.8.6-6.5 1.3-8.3 1.9.2 2.2 1.2 3.3 3.1 3.3 1.8 0 4.1-.9 6.9-2.6zm-6.8 63.4c3.8 0 12.2-1.4 25.3-4.2-2.8-2-8.3-3.1-16.3-3.1-1.3.9-3.3 2.3-6 4.1-2.8 1.8-4.1 2.8-4.1 2.9zm5.3-53.5c.4.9.7 1.6 1.1 1.9.8 0 2.6-1.1 5.5-3.3s4.4-3.6 4.4-4.2c-.2-.2-.5-.2-.9-.2-1.3 0-3.3.5-6 1.5-2.8 1-4.5 1.6-5.3 1.8.4.7.8 1.5 1.2 2.5zm4.4 57.1c1.9.3 3.3.5 4.2.5l10.1-4.5c-.2 0-.4-.1-.8-.4-.4-.2-.7-.4-1.1-.4-2.4.3-5.3.8-8.7 1.4-3.5.6-6.3 1.2-8.5 1.7 1.3.8 2.9 1.4 4.8 1.7zm4.1-64.3c2.4-.4 3.6-.8 3.4-1.3l-2.1-3.3-9.2 5.2h1.7c1.7 0 3.8-.2 6.2-.6zm-2.7 12.5c2 .9 3.4 1.3 4 1.3l11.1-6.1c-.8.2-3.6.6-8.5 1.3s-8.1 1.3-9.7 1.8c.1.2 1.1.8 3.1 1.7zm6.5-7.9c-1.8.9-3.3 1.7-4.6 2.1l2.1.9c.2-.3 1.4-.7 3.8-1.1s4.1-.7 5.2-1.1l1.2-.9c-.6-.3-1.3-.7-2-1.2s-1.3-.8-1.8-.9c-.8.5-2.1 1.2-3.9 2.2zm8 5.6c-2.4 1.1-4.3 2.6-5.5 4.5 4.6 0 11.4-.9 20.5-2.8l7.1-1.2c-5.7-1.4-10.5-2.1-14.6-2.1-2.6 0-5 .5-7.5 1.6zm45.9 42.5c1.1-1.6 1.7-3.1 1.7-4.5-1.6 0-3.8.5-6.6 1.4l-9.9 2.8c-21.9 5.2-34.1 9.5-36.6 13 1.9 0 8-1 18.3-2.9 10.3-2 20.2-4 29.6-6 1.3-.9 2.4-2.2 3.5-3.8zm-31.6-35.1c2.7-1.7 5-2.6 6.8-2.6v-1.2c-.3.2-3.5.6-9.7 1.2-5.4.3-9.4.7-12 1.1-2.7.4-3.9 1-3.8 1.8 5 1.4 9.1 2.1 12.3 2.1 1.8-.1 3.9-.9 6.4-2.4zm16.8 47.2-2.8-.2c-1.1 0-2.7.2-4.7.5s-3.5.5-4.5.5c.6 0 .9-.6.9-1.9l-14.2 4c.5.5 1 .8 1.5.9.5.2 1.1.2 1.8.2 7.4 0 14.7-1.4 22-4zm5.2-46.1-5.9-1.9c-3.6-1.4-5.7-2.1-6.4-2.1-.5 0-2.4 1.1-5.7 3.2s-5.1 3.5-5.4 4.1c9.1 0 16.9-1.1 23.4-3.3zm-23.4 33.8c.2.3.5.7.9 1.2.5.5.9.7 1.2.7.8-2.5 3.7-4.8 8.7-7 5-2.1 12-4.5 20.8-7.2v-1.2c-5.4 1.7-11.2 2.6-17.5 2.6-1.9 0-4.6-.2-8-.5-.9.5-3 4.3-6.1 11.4zm10.4-90.4c-1.3 0-3.1 1.2-5.4 3.7-2.4 2.4-3.7 3.8-4 4.1h1.2l12.3-7.1c-1.1-.5-2.4-.7-4.1-.7zm4 63.8c3.3-1.5 5.3-2.8 5.9-3.9-2.5 0-5.9.4-10 1.1-4.2.7-6.3 1.7-6.3 3 0 1.4.9 2.1 2.6 2.1 1.9 0 4.5-.8 7.8-2.3zm5.9-61.9c-1.3 0-2.6.3-4.1.9s-2.7 1.2-3.5 1.8c-.9.6-1.5.9-1.8 1.1-3 1.9-5 3-5.9 3.3 2.4.6 4.5.9 6.4.9 3.5 0 6.5-2.7 8.9-8zm.8 66.2c-2 .4-3.4.7-4.4 1.1-3.6.6-6.2 1.3-7.7 1.9s-2.2 1.8-2.2 3.5l.2 2.6 24.5-11.1-1.2-.2c-.6 0-1.3.1-2 .4s-1.4.4-2 .6c-1.4.4-3.2.8-5.2 1.2zm5.3-7.5-16.3 6.1v1.2c1.3-.2 3.7-.4 7.4-.8s6.8-.9 9.2-1.7c2.4-.7 4-1.6 4.8-2.7-1.8-1.3-3.5-2.1-5.1-2.1zm7.1 7.4-19.1 8-1.2 1.2c5 0 10.4-.3 16-.8 5.7-.5 8.5-1.6 8.5-3.2.1-3.5-1.4-5.2-4.2-5.2zm3.9 14.9c.2-.5.4-1.3.4-2.2 0-1.7-.4-2.6-1.2-2.6l-20.3 8v1.4c2.4 0 5.4-.9 9.2-2.6.3-.2 1.6-.6 3.8-1.4s4.3-1.2 6.4-1.2v1.9c.9-.3 1.5-.7 1.7-1.3zm-15.2-80.1c0 1.1-.5 2.2-1.4 3.4s-1.5 1.9-1.7 2.2c0 .2.1.4.2.6.2.2.4.4.7.4.5 0 1.4-.7 2.7-2s2.2-2.2 2.7-2.5c-.5-1.4-1.6-2.1-3.2-2.1zm5.2 6.9c-1.7 0-3.1.1-4.2.4-1.1.2-2 .9-2.8 2 2.7.8 5 1.2 7.1 1.2v-3.6z"/><path d="m990.6 28.2c.2.2.4.8.4 1.8v22.2c0 1.6-.5 2.9-1.4 3.9s-2.2 1.5-3.8 1.5c-.6 0-2.4-.3-5.2-.9-4.2-.8-6.5-1.2-6.8-1.2-1.3 0-2.8.1-4.6.4-1.8.2-3.3.4-4.6.6-1.4 3.1-2.1 6.8-2.1 10.9 0 6.1.5 12.5 1.4 19.2s1.5 10.6 1.7 11.7c1.7 10.1 2.8 18.6 3.1 25.5.3 1.4 1.5 2.1 3.5 2.1 1.4 0 3.1-.2 5.1-.7s3.5-.7 4.6-.7c2.4 0 3.9 1.1 4.5 3.3s.9 5 .9 8.5c0 9.9-1 14.9-3.1 14.9h-5.2c-8 0-14.7-.4-20.1-1.3s-10.6-2.8-15.8-5.8c-5.5-3.1-9.6-8.5-12.2-16.2-2.6-7.6-3.9-15.3-3.9-23 0-2.2.2-5.5.5-9.9s.5-7.7.5-9.9c0-4.1-.2-8-.7-11.8-.3-5-.5-8.9-.5-11.6l.2-4c-.8-.2-1.5-.7-2.1-1.8-.6-1-1.2-1.5-1.7-1.5-3.6 2.7-6.5 4-8.5 4-.8 0-1.2-.7-1.2-2.1 0-2.7.7-4.6 2.1-5.9-1.6-.5-2.4-3.2-2.4-8.3l.2-11.1c1.4-.9 2.9-1.5 4.5-1.8 1.6-.2 3.5-.4 5.9-.4 1.1 0 2.3.2 3.7.5 1.3.3 2.4.5 3.2.5l-.2-10.6c-.3-4.7-.5-8.3-.5-10.6 0-2.7.6-4.5 1.8-5.5s3.9-1.5 8.1-1.5c1.9 0 3.8.2 5.7.7 2.2.3 3.9.5 5.2.5.3 0 1-.4 2-1.1s1.8-1.1 2.5-1.1c4.6 0 7.4.7 8.5 2.2s1.7 4.1 1.7 7.9c0 1.1.2 2.8.5 5 .5 1.9.7 3.9.7 6.1l-.5 7.1 23.1-.9c.7-.1 1.1 0 1.3.2zm-71.4 21.7c.2.2.5.4 1.2.4 1.4 0 4.5-2.1 9.2-6.4 4.7-4.2 7.2-6.8 7.3-7.8-1.9 1.3-4.2 1.9-6.8 1.9v-3h-10.4c-.2.3-.4 1-.6 2.1s-.4 2.1-.4 3.1c0 .6.2 1.7.6 3.2s.6 2.7.6 3.7c0 1.1-.4 1.9-1.2 2.4.2 0 .4.2.5.4zm12.9 3.7c.4.9.7 1.6.8 1.9l11.3-4c1.3-1.7 4.2-3.2 8.7-4.5 2.7-.8 4.9-1.6 6.6-2.5s3.1-2 4-3.4h-3.1l-23.6 6.1-.7-.9c-.5 1.4-1.3 2.1-2.4 2.1-.6 0-1.9-.4-3.8-1.2l-7.1 5h8c.6 0 .9.5 1.3 1.4zm8.1 3.8c-2.7.3-4.6.9-5.8 1.8s-1.8 2.9-1.8 6c0 1.4.1 2.6.2 3.5 1.6-2.4 3.2-4.1 4.8-5.3 1.7-1.2 3.8-2.5 6.5-3.9 2.8-1.1 5.2-2.4 7.1-4h-2.8c-1.8.9-4.5 1.6-8.2 1.9zm2.2 41.7c-2.7.6-4.6 1.5-5.8 2.6s-2.4 3.7-3.7 7.8c3.8-1.9 7.7-4.2 11.7-7.1 4-2.8 6.6-4.6 7.9-5.4v-1.2c-3.3 1.6-6.7 2.7-10.1 3.3zm-7-9.4c-1 1.4-1.5 3.2-1.5 5.4l.2 1.9 16.3-9.2c-1.7 0-3.6.4-5.7 1.2-.5.2-1.3.4-2.4.7s-2.2.5-3.3.5l-2.1-.2 1.2-.9 17.2-6.1v-6.1c-2 .2-4.9 1.5-8.5 4.1s-5.9 4.2-6.8 4.8c-2 1.2-3.6 2.5-4.6 3.9zm7-21.6c-5.4 1.8-8.1 2.6-8.3 2.5v6.1h.9c1.4 0 5-1.8 10.9-5.3 5.8-3.5 8.7-5.9 8.7-7l-.2-.7c-2.7 1.2-6.7 2.6-12 4.4zm-5.3 10.9c-1.3.9-2.3 1.8-3 2.7.8.2 1.2.9 1.2 2.4l-.2 1.9 4-4.2c0 .3.1.6.4.8.2.2.5.4.8.4s.7-.1 1.1-.4c.4-.2.7-.5 1.1-.8 1.9-1.3 4.1-2.8 6.6-4.7s4.3-3.3 5.4-4.2l-13.2 5c-1.5-.2-2.9.2-4.2 1.1zm-2 38.6 14.2-6.1v-1.5c-1.7.3-4.5 1.1-8.4 2.4s-5.8 2-5.8 2.1zm.9-90.7c.2.2.4.4.6.8s.4.7.4 1.1c1.7 0 3.9-.5 6.5-1.4s4.3-2.1 5.1-3.5l-4-.2c-5.8-.1-8.6 1-8.6 3.2zm.2-16.3c.3.5.5.9.7 1.4s.4.9.7 1.2.8.5 1.4.5c1.6 0 3.8-.6 6.6-1.9 2.5-1.4 4.8-2.1 6.8-2.1.3-.2 1.1-.5 2.4-1.2 1.3-.6 2.1-1.3 2.6-1.9-.9.2-2.3.2-4 .2-2.8 0-5.6-.2-8.3-.7-.9 0-2.3-.1-4-.4-1.7-.2-3.4-.4-5-.4v5.3zm.5 115.3c.3 1.2 1.1 1.8 2.4 1.8.8 0 3.9-1.9 9.3-5.7s8.5-6 9.1-6.6c-.8 0-1.5.1-2.2.2-.7.2-1.3.2-1.8.2-1.6 0-4.8.7-9.8 2s-7.4 2.6-7.4 3.7c-.1 1.8.1 3.3.4 4.4zm22-28.9-1.2-.9c-1.3 1.7-2.9 3.3-5 4.7-2 1.4-4.1 2.8-6.1 4-3.8 2.2-6.5 4.1-8.3 5.7 2 0 4.2-.5 6.5-1.4s3.7-1.5 4.1-1.7c4.1-2 7.4-3.1 9.9-3.1v-7.3zm-19.4-30.2c.8 0 2.1-.3 4-.8s3.2-1.1 4-1.5c.2-.8.6-1.4 1.4-1.8s1.7-.7 2.6-1.1c1.7-.6 3-1.3 3.9-2s1.3-1.8 1.3-3.4c-1.7 0-4.8 1.3-9.2 4s-7.3 4.7-8.7 6.1c0 .4.2.5.7.5zm19.2-49.9c.7-1.3 1.4-3.4 2-6.3-2 0-3.9.5-5.7 1.4-1.7.9-3.7 2.3-5.9 4-1.9 1.6-3.6 2.8-5.1 3.7s-3.1 1.3-4.8 1.3v1.7c2 0 5-.6 8.7-1.9 3.5-1.3 6.1-1.9 8-1.9 1.2 0 2.1-.7 2.8-2zm-7.4 14.8c-2.2.9-4.5 1.8-6.8 2.6-2.4.8-4.1 1.4-5.2 1.9v4.5l18.4-10.7v-2.1c-2.1 1.6-4.2 2.8-6.4 3.8zm10.1 3.8c-.5-.4-.7-.9-.8-1.7-.1-.7-.6-1.1-1.5-1.1-1.6 1.7-4.7 3.5-9.4 5.4-5 2-8.5 4.1-10.4 6.1l9.4-2.1.7-1.2 1.2 1.2c1.3-1.1 3.7-2 7.3-2.6 2.5-.6 4.3-1.2 5.3-1.7s1.5-1.1 1.5-1.9c-1.7.2-2.8 0-3.3-.4zm-18.8 99.4c.8.7 1.6 1.1 2.4 1.1 1.6 0 4.8-1.5 9.8-4.6s7.4-5.4 7.4-7h-1.4l-18.2 7.3c-.8.3-1.2.6-1.2.9 0 .8.4 1.6 1.2 2.3zm2.7-103.2c1.5-.5 2.6-.7 3.4-.7l9.9-5c0-.3.2-.8.7-1.5s.7-1.3.7-1.8c-1.6 0-5 1.3-10.1 3.9-5.2 2.6-7.8 4.5-7.8 5.8.6 0 1.7-.3 3.2-.7zm12.6 59.4c0-2.2-.5-3.3-1.4-3.3l-13.9 7.3c1.6 0 3.6-.5 6.1-1.7.5-.2 1.3-.5 2.6-.9 1.3-.5 2.5-.7 3.8-.7 1.6 0 2.4.5 2.6 1.4zm-2 44.4c-6.1 2.5-9.6 4.3-10.5 5.4h15.3c5.3-5.3 8-8.1 8-8.3v-.9h-1.9c-1.2 0-4.8 1.3-10.9 3.8zm-2.5-14.5c-2.7 2-5 4.2-6.8 6.7 1.6-.5 3.4-1.3 5.4-2.6s5.3-3.5 9.9-6.8c0-.6-.1-1.2-.2-1.7-2.8 1-5.6 2.4-8.3 4.4zm6.4-11.7-8.5 3.8 1.4.5c4.7-.6 7.1-1.3 7.1-2.1zm25.2-70.1c-5 1.1-10.4 2.8-16 5.2-5.7 2.4-9.1 4.7-10.4 7.1l2.1-.2c1.1 0 2.1.3 3.1.9 2 0 5.3-.3 9.7-.9 4.7-.6 8.3-.9 10.6-.9zm-22.4 103.6h1.2c1.3 0 3.3-.7 6.1-2s5.4-2.9 7.7-4.8 3.4-3.6 3.4-5.2zm8.6-108.4c-3.1.9-4.6 1.6-4.6 2.2 0 .2.3.6.9 1.3s1.1 1.3 1.4 1.8l-2.1 3.5 17-9.2c-.6-.6-2-.9-4-.9-2.6 0-5.5.4-8.6 1.3zm7 110.4c1.3-.7 1.9-2.7 1.9-6l-13.2 6.1c.5.2 1.1.4 1.9.6s1.5.4 2.1.4c3.6 0 6-.4 7.3-1.1z"/><path d="m1102.4 91c.3.2.5.4.7.4-1.4.6-2.1 1.3-2.1 1.9l.2 1.4c0 1.6-3.7 3-11.1 4.4-7.4 1.3-23 2.8-46.7 4.4-.5.2-1.7.2-3.8.2-2.2 0-3.5-.1-3.8-.2.8 5.5 2.9 9.4 6.4 11.8s7.7 4.2 12.7 5.4c1.3.3 2.4.7 3.4 1.1s1.6.8 1.8 1.3l.9-.7h21.5c2.2 0 4.7-.8 7.6-2.5s4.3-2.8 4.5-3.4c3 0 4.5 2.4 4.5 7.3l-.2 5.9.5 8.5.9.7c-5 5-10 8.3-14.8 9.9s-10.8 2.4-18.1 2.4c-6.3 0-11.6-.4-15.8-1.2-4.9-.3-9.4-1.1-13.7-2.5s-7.6-3.3-10.1-5.8c-2.2 0-4.8-.7-7.7-2.2s-5.4-3.4-7.6-5.7c-2.1-2.3-3.2-4.6-3.2-7l.2-.9c-1.1-1.4-2-3.1-2.7-5s-1.3-3.9-1.8-5.9c-1.3-4.4-2.4-7.6-3.5-9.7v-1.9c-.2-1.1-.2-2.7-.2-4.7 0-5 .2-9.1.5-12.2s1.1-6.7 2.4-11c.5-1.6 1.2-3.1 2.1-4.7 1.1-1.7 2-3.5 2.6-5.4 1.1-3.8 2.7-6.9 4.8-9.4s5.2-5.3 9.1-8.3c.6-.6 2.9-2 7-4 4-2 8.3-3.9 12.9-5.7 4.6-1.7 8.4-2.6 11.6-2.6 4.1 0 10.2 1.5 18.3 4.4s13.9 5.8 17.3 8.6c4.6 3.6 7.7 8.2 9.3 13.8 1.7 5.6 3 12.8 3.9 21.6 0 2.5-.2 4.1-.6 4.8s-.6 1.3-.6 1.8c0 .2.2.4.5.6zm-4 .4c-.8-.2-1.2-.8-1.2-1.9l.2-.9c-1.7.9-3.1 1.5-4.2 1.8-1.1.2-2.5.4-4.2.4l-2.8-.2 1.9-.9-.7-.9-6.6 2.8c-.3-.6-.9-.9-1.9-.9-1.6 0-2.9.4-3.9 1.3s-3.4 1.7-7.2 2.5l-1.2-1.9c0 .8-1.3 1.6-3.8 2.5s-4.6 1.3-6.1 1.3c-1.4 0-2.1-.5-2.1-1.4.2-.3 2.2-1 6.3-2 4-1 6.3-2.1 7-3.2-1.3-.6-2.3-.9-3.1-.9-.6 0-1.4.2-2.4.5-.9.3-1.7.5-2.1.5-.9 0-1.4-.2-1.4-.5s.4-.6 1.2-.8 1.7-.4 2.8-.6c.6-.8 2-1.5 4-2.1s4.2-1.2 6.4-1.7c4.7-.9 7.2-1.8 7.6-2.6-5.7 0-10.6.6-14.9 1.9-.9-.3-1.4-1.3-1.4-2.8h-4.2l-.9 1.7 1.9 1.2-.9 1.9-11.3 5.4h-3.5c.6-.6 1.5-1.2 2.7-1.7s2-.9 2.5-1.2c3.5-1.6 5.7-3.1 6.8-4.5h-2.8c.2-.3.7-.7 1.5-1.2.9-.5 1.3-.9 1.3-1.2s-.2-.6-.5-.8-.5-.4-.5-.6c-1.1.6-5.3.9-12.5.9h-6.1c-.8 0-1.5.3-2.2.8-.7.6-1.2.8-1.5.8-.5 0-1.1-.1-1.9-.4-.8-.2-1.3-.4-1.4-.4-.5.2-2.2.4-5.2.7s-4.5.7-4.5 1.2v1.2c3.6 0 6.4-.4 8.3-1.2 1.4 0 2.1.5 2.1 1.4s-.5 1.8-1.4 2.5-1.9 1.1-2.8 1.1c-.3 0-.8-.2-1.4-.5l-11.3 6.6c-.3-.6-.8-1-1.4-1.1s-1.1-.4-1.4-.8c.6-.9 1.6-1.7 3-2.2 1.3-.5 2.2-.9 2.7-1.1 2-.5 3.6-1.2 4.7-2.1l-3.8-.2c-.9 0-2.3.2-4 .6s-3.1.6-4.2.6c-.8 0-1.4-.1-1.9-.2l-1.9 6.6c.8.3 1.2.9 1.3 1.7s.2 1.5.4 2c.2.6.9.8 2.1.8 2.4 0 6.4-2 12.3-5.9.6-.3 1.9-1.1 3.9-2.2 2-1.2 3.7-2.1 5.1-2.7s2.7-.9 3.8-.9c1.3 0 2.3.4 3.1 1.2 0 .6-1 1.3-3 2.1s-3.5 1.5-4.6 2.1c.6.2.9 1 .9 2.6 0 .9-1.2 1.8-3.5 2.5-2.4.7-3.7 1.2-4 1.5v-1.3c-1.4 0-2.1.6-2.1 1.9l.2.9c1.9 0 4.1-.6 6.6-1.9 1.7-1.1 3.5-1.7 5.2-1.7 0-1.3.6-2.2 1.9-2.9s2.6-1.1 4-1.1v.9l2.8-.9-.9-.9c.2-.2.4-.4.8-.6s.7-.4 1.1-.4c.2 0 .4.1.6.4.2.2.4.4.4.6 1.7-.6 4-1.1 6.8-1.4s4.9-.5 6.1-.5c-2 1.3-5.8 2.5-11.3 3.8-4.6 1.1-7.3 2-8.3 2.8v1.2c3 0 7.5-.2 13.5-.5 4.7-.5 9.6-.7 14.6-.7l3.8.9c2.2-1.1 3.9-1.8 5.2-2.1s2.8-.5 4.6-.5 3.4-.1 4.8-.2c2-.2 4.4-.5 7-.9 2.6-.5 4.4-.8 5.3-.9zm-83.2 14.9c2.3-.7 3.9-1.3 4.8-1.8l.9-1.2c-2.2.3-3.8.6-4.7.9-3.9.8-6.4 1.2-7.3 1.2v2.8c1.9-.5 4-1.1 6.3-1.9zm-5.6-28.9c1.4-.8 3.4-1.7 5.9-2.7s4.5-1.8 5.9-2.2c0-1.7-1.8-2.6-5.4-2.6-1.7 0-3.2.4-4.5 1.3s-1.9 2-1.9 3.4zm3 46.2c1.3 4 2.8 6 4.4 6 2.2 0 4.6-.6 7.1-1.8s4.9-2.5 7.1-3.9 3.8-2.4 4.7-2.8c-1.7-.6-3.9-.9-6.6-.9-1.6 0-3.9.2-7.1.5-2.8.3-5 .5-6.6.5-1.3 0-1.9-.4-1.9-1.2 0-1.1 2.6-2.9 7.7-5.3s8.4-3.7 9.8-3.7h-15.6l-1.2-1.9c-.2.9-.8 1.9-2 2.7-1.2.9-1.8 1.8-1.8 2.7 0 2 .6 5.1 2 9.1zm12.1-50.9c-1.6.8-3.5 2-5.9 3.5-3.8 2.5-6.5 3.9-8 4h2.1c3.5 0 5.9-.1 7.4-.2 1.5-.2 3.6-.7 6.3-1.7l1.9.9c.6-3.1.9-5.7.9-7.8-1.5.1-3.1.5-4.7 1.3zm-6.8-11.1c-2 1.1-3.2 2-3.5 2.6l1.9.2c.9 0 2.1-.5 3.4-1.5s2-2 2-3c-.5.1-1.8.6-3.8 1.7zm11.4 5.7c.7.2 1.3.7 1.8 1.7l6.6-6.4c-2.7 0-6.6.7-11.9 2.2s-8.1 2.6-8.4 3.2l1.9.2c.8 0 1.8-.2 3.2-.6 1.3-.4 2.4-.6 3.2-.6 1.7.1 2.9.1 3.6.3zm25.2 71.5c-1.1.3-2.6 1-4.6 2s-3.8 1.5-5.5 1.5v-4.2c.5-.5 1.7-1.7 3.7-3.7s3.5-3.9 4.6-5.8c-2.4 1.6-6.1 3.1-11.1 4.5-2.4.5-4.6 1.2-6.6 2.1 0-.3-.1-.6-.2-.8-.2-.2-.4-.4-.7-.4l-1.7 1.2c-.3 0-.7-.2-1.2-.5s-.8-.6-.9-.9c0-1.7 1-3.1 3-4.2s3-1.7 3.2-1.9c-2 0-5 .6-8.9 1.9s-6 1.9-6.5 1.9c-.2 0-.4-.1-.6-.4-.2-.2-.4-.4-.4-.6l-.2 1.4c0 1.6 1.9 3.3 5.7 5.3s8 3.7 12.6 5.1 7.5 2.1 8.6 2.1c3 .1 5.6-1.8 7.7-5.6zm-34.5-81.9h1.9l17.7-7.3.9-1.2c-.3.2-1.3.2-2.8.2-1.6 0-2.6-.4-3.2-1.1s-1.1-1.1-1.5-1.1c-.5 0-1.4.7-2.7 2s-2.3 2-3 2c-.3 0-.6-.1-.7-.2zm13 55.7-1.9 1.2v-1.2c-.9.5-2.7 1.3-5.3 2.6s-4.5 2.4-5.8 3.3l8.7-.5 7.1-.5 1.2-.9zm-2.2-7.6c-.4-1.3-.6-2.1-.6-2.6l.2-.9c-.9.5-2.4 1.4-4.2 2.7-1.9 1.3-3.6 2-5.2 2l1.9 1.9v.9c1.3-.8 3-1.2 5.2-1.2h3.3c-.1-.5-.3-1.5-.6-2.8zm20.1-53.1c-4.1.9-7.1 1.4-9 1.4-1.4 0-2.2-.4-2.4-1.2 0 .8-.1 1.3-.4 1.5-.2.2-.7.4-1.3.4-1.1 0-1.8-.3-2.1-.9 0 2.5-2.2 3.8-6.6 3.8l1.2-.7c-1.7 0-3.6 1.2-5.7 3.5 3.8 0 5.7.3 5.7.9 1.3-.6 2.6-.9 4-.9.5 0 .8.1.9.2.3.3.5.6.5.7-.2.2-.4.4-.7.6s-.7.4-1.2.4l.9.2c1.3 0 2.9-.6 5.1-1.9 2.1-1.3 3.3-2.5 3.4-3.8 8.2 0 13.8-2 16.8-5.9-2.4.1-5.5.6-9.1 1.7zm-16 71.8c-2.2.5-3.9 1-5.2 1.5-1.3.6-2.3 1.4-3.1 2.5l.7.2c1.7 0 4.2-1 7.6-3.1v.9c.3 0 1.2-.3 2.6-.9s4-1.5 7.8-2.6c-1.6-.8-2.5-1.4-2.8-1.9-1.3 1.3-3.8 2.4-7.6 3.4zm12-59.6c-3.3 1.2-6.1 2.8-8.5 4.8s-3.5 4.2-3.5 6.6h35.4c0-4.4-1.4-7.7-4.2-9.9s-6.4-3.3-10.6-3.3c-2.4 0-5.3.6-8.6 1.8zm5.7 20.9c.2-.2-2.4.6-7.6 2.1l-5.4 1.4v-.9c0-.2.9-.7 2.7-1.8 1.8-1 3.1-1.7 3.9-2l.7 1.2c.2-.9.6-1.7 1.4-2.2s1.6-.8 2.4-.8v1.9h1.9zm-1.3 39.4c-.6-.2-1-.2-1.3-.2-1.6 0-3.4.5-5.4 1.4s-3.4 2-4 3.1l1.9.9c1.3 0 3.3-.7 6-2.2 2.8-1.5 4.1-2.3 4.1-2.5-.3-.2-.8-.3-1.3-.5zm-4.6-64c1.1-.2 1.8-.4 2.1-.7-.2-.2-.6-.4-1.2-.6s-1.1-.4-1.4-.4-.7.2-1.1.7-.6.9-.6 1.2c.4.1 1.1 0 2.2-.2zm2.3-19.5c-1.6.5-2.5.9-2.8 1.2.2 0 .4 0 .7.1s.7.1 1.2.1c3 0 4.8-.7 5.4-2.1h-.9-.9c-.2-.1-1.1.2-2.7.7zm10.4 87.3c-2.5 1.1-4.2 1.9-5 2.4-1.6 3.5-3.5 6-5.7 7.6h1.2l11.1-6.6c.2 0 1.5-.7 3.9-2.2s4-2.3 4.6-2.5c-.6-.2-2-.2-4.2-.2-1.4-.2-3.4.4-5.9 1.5zm-1.4-82.4c-3.1 1.4-5.3 2.1-6.4 2.1v1.7l11.3-1.9c0-.5.1-.9.4-1.2.2-.3.4-.5.6-.7.2 0 .4.2.7.5l7.6-.5-1.9-1.9-7.3-1.9c-.2 1.1-1.8 2.4-5 3.8zm28 78.1c-2.8.6-4.7 1.1-5.8 1.4-5 1.4-8 2.2-9 2.4-.5 1.6-1.5 3.1-3.1 4.5s-3.3 2.4-5.2 3.1l-1.4-1.9c0 2.7.4 4 1.2 4 1.4 0 5.8-2.1 13.2-6.4l4.7-2.6c0 .8-2.7 3.3-8 7.6-5.4 4.2-8.3 6.4-8.7 6.4-.6 0-1.9-.7-3.9-2s-3.2-2.1-3.7-2.2l.7 1.9c0 1.4-.4 2.5-1.2 3.2s-2.2 1.5-4.2 2.2c.6.8 2.4 1.2 5.4 1.2l5.9-.2.9-1.9c.2.6.5.9.9.9l1.7-.2v1.4c.3 0 .7-.2 1.2-.6s.9-.6 1.2-.6c.5 0 .9.2 1.4.5s1 .5 1.7.5c2.7 0 5.3-1 7.9-2.9 2.6-2 3.9-4.3 3.9-7-1.9 0-3.5 1.2-5 3.5v-1.2l-1.9 1.9c0-1.3.1-2.2.4-2.7.2-.5.7-1.1 1.5-1.8l.9.9c.8-1.1 2-2.4 3.5-3.8 1.6-1.4 2.9-2.4 4-2.8l.7 3.5c0 .8-.8 2.6-2.5 5.3-1.7 2.8-2.6 4.4-2.9 5.1l5.4-2.6-.7-1.2c1.4-2 4.2-4.9 8.3-8.5-.3-2.5-1.3-3.8-2.8-3.8-.6 0-1.2.5-1.7 1.4s-1.2 1.5-2.1 1.7v-2.4c.8 0 1.7-.6 2.7-1.9s2-2 3-2.4c-.2-.3-.4-.7-.8-1.1s-.7-.7-1.1-.8c-1.6.1-3.9.4-6.6 1zm-13.8-68.9h-.9l-10.1 1.9c-.5.2-1 .2-1.7.2l-1.4-.2c-.5 0-1.3.3-2.6.9 1.4.6 3.1.9 5.2.9h2.1c4.5.1 7.6-1.2 9.4-3.7zm11.8-4.9c-3.5-2.4-6.3-3.5-8.5-3.5-1.3 0-2.4.4-3.4 1.2s-2.5 2-4.4 3.5c-1.9 1.9-3.1 2.8-3.8 2.8h.7c.9 0 2.4-.5 4.5-1.7 2-1.1 3.2-2 3.5-2.8v2.4h1.4l6.6-1.7c1.3 0 1.9.4 1.9 1.2 0 .6-.1 1.1-.2 1.5-.2.4-.2.7-.2.8-.2 0-.5-.1-.9-.4-.5-.2-.9-.4-1.4-.4-.3 0-1.2.8-2.7 2.4s-2.5 2.7-3 3.3l6.6-1.9c-.3.5-1.3 1.1-2.8 1.9 2.4 0 4.2-.5 5.7-1.4 1.4-.9 2.4-1.4 3.1-1.4.8 0 1.3.1 1.4.2l-.7.7h2.6c-.6-2.1-2.6-4.4-6-6.7zm-13.7 11.8c0 .5.3 1.1.8 1.9s.9 1.3 1.1 1.7l11.3-5.7h-1.9c-6.3.9-10.1 1.6-11.3 2.1zm2.8 25.4c-1.9.8-2.8 1.5-2.8 2.1l11.6-2.8-5.7-.5c-.2.1-1.2.5-3.1 1.2zm1.9 52.7c0 1.1-.4 2-1.1 2.8s-1.6 1.3-2.7 1.7c.8-1.6 2.1-3.1 3.8-4.5zm1.3-72.6c-.9.2-1.6.7-2.2 1.5 0 .3.2.7.7 1.1s.9.7 1.2.8c.5 0 1.6-.5 3.3-1.7 1.7-1.1 2.8-1.7 3.3-1.9l-2.8-.2c-1.5.1-2.6.2-3.5.4zm6.7-4.6c-2.5 1.1-4.2 1.7-5.2 1.7-.5 0-.8-.1-.9-.2v1.7c1.3 0 2.7-.3 4.2-.8 1.6-.5 2.9-.8 4-.8.3 0 .5.1.7.4.2.2.2.5.2.8h6.6c-1.3.2-4.2 1.4-9 3.7-4.7 2.3-7.1 3.8-7.1 4.6h6.8l-.9-.9h.9c.3 0 1 .1 2 .4 1 .2 2.2.4 3.4.6 5.2-1.1 7.8-2.4 7.8-3.8 0-4.1-1.7-7.2-5.2-9.4-1.7-.4-4.5.4-8.3 2zm14.4 15.6c0-.5-.3-1.2-.9-2.2s-.9-1.8-.9-2.5c-1.7.8-3.9 1.7-6.6 2.6s-4.8 1.7-6.4 2.1h1.9c2.4 0 3.9-.3 4.5-.9.3 0 .7.1 1.1.2.4.2.7.4.8.7 0-.9.2-1.5.6-1.8.4-.2 1-.4 1.8-.4s1.3.1 1.4.2l-.9.9c0 .2.2.4.5.7s.5.6.5.7l-7.3 2.4c.2 0 .5 0 1.1.1.5.1 1.3.1 2.2.1 4.3.1 6.6-.9 6.6-2.9zm-1.4 7.1c-.8-.6-1.3-1.2-1.4-1.7-.2 1.1-.7 1.9-1.8 2.5-1 .6-2.3 1-3.9 1.3h4.7c1.1 0 2.4-.2 4-.7-.3-.3-.8-.8-1.6-1.4zm-.5 54.5c-.6-.6-.9-1.5-.9-2.6v-1.2c0 .6-.5 1.3-1.4 2.1s-1.4 1.3-1.4 1.7c0 1.1.3 1.7.9 1.9 1.3-.7 2.2-1.3 2.8-1.9z"/></g><path d="m148 53.5c-5.7 0-11.4 0-17.1 0"/><path d="m149.4 51.7c-5.7 0-11.4 0-17.1 0-1.2 0-2.3.7-3.1 1.6-.4.6-.8 2 .4 2h17.1c1.2 0 2.3-.7 3.1-1.6.4-.6.8-2-.4-2z"/><path d="m130.4 53.7c2.9 9.5 4.9 19.3 5.9 29.3.4 4.2.6 8.4.9 12.6.8 13.9 1.5 27.8 2.3 41.7"/><path d="m128.2 54.8c3.1 10.2 5.2 20.8 6.1 31.5.9 11.1 1.3 22.2 1.9 33.3.3 6.3.7 12.6 1 18.9.1 1.1 1.8.6 2.4.3.9-.5 2-1.4 1.9-2.6-.6-11.2-1.2-22.3-1.8-33.5-.6-10.9-1-21.8-2.9-32.6-1.1-5.9-2.5-11.8-4.3-17.5-.6-2.1-4.8.5-4.3 2.2z"/><path d="m139.8 138.5c2.8.5 5.7.1 8.3-1.2"/><path d="m138.5 140.3c3.4.6 6.8-.1 9.8-1.6.5-.3 1.1-.7 1.5-1.2.2-.3.6-.9.5-1.3-.3-1.1-1.7-.7-2.4-.3-.2.1-.4.1-.5.2.3-.1.4-.2.2-.1-.1 0-.1.1-.2.1-.3.1-.6.2-.9.3-.2.1-.4.1-.6.2-.4.1.4-.1 0 0-.3.1-.7.1-1 .2-.3 0-.7.1-1 .1-.1 0-.3 0-.4 0 .2 0 .3 0 0 0-.1 0-.2 0-.3 0-.7 0-1.3-.1-2-.2-.5-.1-1.1.2-1.6.4-.5.3-1.1.7-1.5 1.2-.5.7-.8 1.8.4 2z"/><path d="m148.7 137.2c0-27.3 0-54.6 0-81.8"/><path d="m150.8 136.1c0-21.3 0-42.6 0-63.9 0-6 0-12 0-18 0-1.1-1.9-.6-2.4-.3-1 .5-1.9 1.4-1.9 2.6v63.9 18c0 1.1 1.9.6 2.4.3 1-.5 1.9-1.4 1.9-2.6z"/><path d="m105.6 44.4c23.1-.6 46.1-2 69.1-4.2"/><path d="m104.7 46.2c18-.4 35.9-1.4 53.8-2.9 5.1-.4 10.2-.9 15.3-1.4 1.1-.1 2.4-1 2.9-2.1.4-1-.1-1.6-1.1-1.5-17.9 1.8-35.8 3-53.8 3.8-5.1.2-10.2.4-15.3.5-1.8.1-4.7 3.7-1.8 3.6z"/><path d="m103.5 45.9c5.4 34 11.7 67.9 18.9 101.5"/><path d="m101.4 47c4.2 26.5 9 53 14.3 79.3 1.5 7.4 3 14.8 4.6 22.3.4 2 4.7-.5 4.3-2.3-5.6-26.3-10.7-52.6-15.2-79.1-1.3-7.5-2.5-14.9-3.7-22.4-.3-2-4.6.5-4.3 2.2z"/><path d="m122.7 148.3c13.3-.5 26.6-1.3 39.9-2.4"/><path d="m121.8 150.1c13.3-.5 26.6-1.3 39.9-2.4 1.1-.1 2.4-1.1 2.9-2.1.4-1-.1-1.6-1.1-1.5-13.3 1.1-26.6 1.9-39.9 2.4-1.1 0-2.4 1.1-2.9 2.1-.5.9.1 1.5 1.1 1.5z"/><path d="m161.9 147.9c1.2 0 2.3-.7 3.1-1.6.4-.6.8-2-.4-2s-2.3.7-3.1 1.6c-.3.6-.8 2 .4 2z"/><path d="m176 40.2c.8 12.1-1.7 24.1-3.5 36.1-3.5 23.1-4.3 46.5-5.1 69.9"/><path d="m173.8 41.3c.9 14-2.5 27.7-4.3 41.5-1.8 13.6-2.7 27.3-3.4 41-.4 7.8-.6 15.6-.9 23.4 0 1.1 1.9.6 2.4.3 1-.5 1.9-1.4 1.9-2.6.5-13.9 1-27.8 2-41.7.5-6.8 1.2-13.7 2-20.5.9-6.8 2-13.6 3-20.4 1.1-7.7 1.9-15.5 1.5-23.3-.1-1.1-1.8-.6-2.4-.3-.7.5-1.8 1.5-1.8 2.6z"/><path d="m121.7 54.5c-2.4 0-4.9 0-7.3 0"/><path d="m123.1 52.6c-2.4 0-4.9 0-7.3 0-1.2 0-2.4.6-3.1 1.6-.2.4-.6.9-.5 1.3s.4.7.8.7h7.3c1.2 0 2.4-.6 3.1-1.6.2-.4.6-.9.5-1.3-.1-.3-.4-.7-.8-.7z"/><path d="m114.1 55.7c4.1 28.1 8.2 56.3 12.2 84.4"/><path d="m113.1 56.6c3.2 21.9 6.3 43.8 9.5 65.6.9 6.3 1.8 12.5 2.7 18.8.1.7.9.4 1.2.1.5-.5.8-1.2.7-1.9-3.2-21.9-6.3-43.8-9.5-65.6-.9-6.3-1.8-12.5-2.7-18.8-.1-.7-.9-.4-1.2-.1-.5.5-.8 1.2-.7 1.9z"/><path d="m132.1 139.8-5.6.3c1.7.1 3.4 0 5-.2.2 0 .4-.1.6-.1z"/><path d="m132.6 138.4c-1.6.1-3.3.2-4.9.3-.2 0-.5 0-.7 0-.7 0-1.2.8-1.4 1.3-.1.4-.3 1.4.4 1.4 1 .1 1.9.1 2.9 0 1 0 2-.1 3-.4.3-.1.6-.4.8-.6.2-.3.4-.7.5-1.1.1-.5 0-1.2-.7-1-.1 0-.2.1-.3.1h-.1c-.2 0-.5.1-.7.1-.5 0-.9.1-1.4.1-.9 0-1.9 0-2.8 0-.3.9-.7 1.8-1 2.7 1.6-.1 3.3-.2 4.9-.3h.7c.7 0 1.2-.8 1.4-1.3-.1-.2.1-1.3-.6-1.3z"/><path d="m122.7 55.8c3.7 12.5 4.6 25.6 5.4 38.6 1 15.1 2 30.3 3 45.4"/><path d="m121.7 56.7c3 10.4 4.2 21.1 5 31.9.8 11 1.5 22.1 2.2 33.1.4 6.3.8 12.5 1.2 18.8.1 1.7 2.1-.3 2-1.3-.7-11.2-1.5-22.4-2.2-33.6-.7-10.9-1.2-21.9-2.6-32.8-.8-6.1-1.9-12.1-3.6-17.9-.4-1.4-2.3.8-2 1.8z"/><path d="m168 52.3c-3.7-.1-7.4-.3-11.1-.4"/><path d="m168.5 50.9c-3.7-.1-7.4-.3-11.1-.4-1.1 0-2.2 2.7-1 2.7 3.7.1 7.4.3 11.1.4 1.1.1 2.2-2.6 1-2.7z"/><path d="m156.9 52.2c-.8 28.1-1.6 56.2-2.4 84.4"/><path d="m155.9 52.9c-.6 22-1.3 43.9-1.9 65.9-.2 6.2-.4 12.3-.5 18.5 0 .6.5.8 1 .6.6-.3 1-1.2 1-1.9.6-22 1.3-43.9 1.9-65.9.2-6.2.4-12.3.5-18.5 0-.6-.5-.8-1-.6-.5.4-.9 1.2-1 1.9z"/><path d="m154.7 138.2h6"/><path d="m154.2 139.6h6c.7 0 1.2-.8 1.4-1.3.1-.4.3-1.4-.4-1.4-2 0-4 0-6 0-.7 0-1.2.8-1.4 1.3-.1.3-.3 1.4.4 1.4z"/><path d="m167.3 53.9c-5.3 27.7-7.9 55.8-7.6 84"/><path d="m166.4 54.2c-4.2 21.6-6.7 43.5-7.4 65.5-.2 6.3-.3 12.5-.2 18.8 0 .6.5.9 1 .6.6-.3 1-1.2 1-1.9-.2-21.9 1.3-43.7 4.5-65.4.9-6.1 1.9-12.2 3.1-18.3.1-.5-.1-1.1-.7-1-.7.2-1.2 1.1-1.3 1.7z"/><path d="m121.4 55.3c-3.3.6-5.9 3.3-6.8 6.4-.2.7-.1 1.8.9 1.2 2.5-1.5 5.3-2.2 8.2-2.2.1-.8.2-1.6.3-2.4-2.5 2.4-5 4.7-7.8 6.7-.5.4-1.8 2.3-.5 2.6 2.4.5 4.8.4 7.1-.4-.1-.7-.1-1.4-.2-2.1-1.4 1.6-2.7 3.2-4.1 4.9-.4.4-1 2 0 2.1 3 .4 6 .6 9.1.6.2-.9.4-1.7.5-2.6-3.3 2-6.7 3.7-10.3 5-.6.2-1 .9-1.2 1.5-.1.3-.2 1.3.4 1.2 2.3-.3 4.4.1 6.4 1.3.2-.8.3-1.5.5-2.3-1.7 1.9-3.4 3.8-5.2 5.7-.4.4-1.4 2.2-.3 2.4 2.1.4 4.2.4 6.4.1 0-.7 0-1.4 0-2.1-1.3 1.5-2.5 3.1-3.8 4.6-.4.4-1 1.9 0 2.1 1.9.3 3.6.9 5.3 1.7 0-.6 0-1.1 0-1.7-2.1 3.3-4.2 6.7-6.3 10-.2.4-.6 1.7.2 1.8 1.6.1 3.1-.1 4.6-.7-.2-.3-.5-.7-.7-1-.2 1.2-.7 2.1-1.6 2.9-.3.3-1.4 2.5-.3 2.4 1.8-.2 3.5-.3 5.3-.5-.1-.6-.1-1.2-.2-1.8-1.4 2.3-2.7 4.7-4.1 7-.4.7-.5 2.2.7 1.6.6-.3 1.4.5 1.6 1 .3.9-.5 1.6-1 2.2-1.1 1.3-2.1 2.6-2.4 4.4-.1.3-.1 1.1.5 1 1.6-.2 3.2-.5 4.8-.7-.2-.3-.3-.7-.5-1-.9 3.1-2.3 5.9-4.3 8.4-.3.4-1 2.1 0 2.1 1.2 0 2.5.1 3.7.1-.2-.2-.3-.5-.5-.7-.1 1.4-.4 2.6-1 3.8-.2.4-.6 1.4 0 1.7 1.4.6 2.8.9 4.4.8-.1-.5-.2-.9-.4-1.4-.5 1.3-1.4 2.3-2.5 3.2-.4.4-1.3 1.9-.5 2.3s1.5.8 2.3 1.3c1 .5 2.4-2.1 1.5-2.6-.8-.4-1.5-.8-2.3-1.3-.2.8-.3 1.5-.5 2.3 1.7-1.4 2.9-3.1 3.7-5.2.1-.3.3-1.5-.4-1.4-1.4.1-2.7-.1-3.9-.7v1.7c1-1.9 1.5-3.8 1.6-5.9 0-.3-.1-.7-.5-.7-1.2 0-2.5-.1-3.7-.1v2.1c2.4-3.2 4.1-6.7 5.2-10.5.1-.3 0-1.1-.5-1-1.6.2-3.2.5-4.8.7.2.3.3.7.5 1 .2-1.3 1.4-2.2 2.1-3.2s1.3-2.2 1.4-3.5c.1-2.1-1.7-3.7-3.7-2.7.2.5.5 1.1.7 1.6 1.4-2.3 2.7-4.7 4.1-7 .2-.3.7-1.8-.2-1.8-1.8.2-3.5.3-5.3.5-.1.8-.2 1.6-.3 2.4 1.6-1.5 2.7-3.4 3.1-5.5.1-.4 0-1.3-.7-1-1.3.5-2.7.7-4.1.6.1.6.1 1.2.2 1.8 2.1-3.3 4.2-6.7 6.3-10 .2-.4.6-1.4 0-1.7-1.8-.9-3.8-1.5-5.8-1.8v2.1c1.3-1.5 2.5-3.1 3.8-4.6.2-.3 1-2.3 0-2.1-2.1.3-4.2.3-6.4-.1-.1.8-.2 1.6-.3 2.4 1.7-1.9 3.4-3.8 5.2-5.7.4-.4 1.3-1.8.5-2.3-2.1-1.2-4.4-1.7-6.8-1.4-.3.9-.5 1.8-.8 2.7 3.8-1.4 7.4-3.1 10.9-5.2.5-.3 1.8-2.6.5-2.6-3 .1-6.1-.1-9.1-.6v2.1c1.4-1.6 2.7-3.2 4.1-4.9.3-.4 1-2.5-.2-2.1-2.2.7-4.4.8-6.6.3-.2.9-.4 1.7-.5 2.6 2.9-2.2 5.7-4.6 8.3-7.2.3-.3 1.4-2.4.3-2.4-3.3 0-6.4.9-9.2 2.6.3.4.6.8.9 1.2.6-2.1 2.4-3.4 4.5-3.8 1-.1 1.9-2.8.5-2.6z"/><path d="m143.7 57.4c1.1 0 2.2-2.7 1-2.7-1 0-2.2 2.7-1 2.7z"/><path d="m144.2 54.5c-2.8 1.9-5.4 4.1-7.8 6.5-.4.4-.8 1-.8 1.7 0 .4.3.9.7.7 3.2-1.4 6.5-2.1 10-2.3.3-.9.5-1.8.8-2.7-4.5 1.7-8.3 4.5-11.5 8.1-.3.3-1 2.1 0 2.1 3.6.1 7.3.1 10.9.2.2-.9.4-1.7.5-2.6-3.5 1.9-7.1 3.8-10.6 5.6-.7.4-1.7 2.8-.3 2.5 3.6-.7 7.3-1 11-.8.2-.9.4-1.7.5-2.6-3.7 2.3-7.1 4.8-10.4 7.7-.4.3-1.4 2.4-.3 2.4 3.2-.1 6.4.1 9.6.8.1-.8.2-1.6.3-2.4-3.4 2.8-7 5.3-10.7 7.7-.4.3-1.8 2.7-.5 2.6 2.7-.3 5.4-.6 8.2-.9-.1-.5-.2-.9-.4-1.4-1 2.6-2.4 5-4.2 7.1-.4.4-1.4 2.2-.3 2.4 2.5.3 5 .4 7.6.2.1-.8.2-1.6.3-2.4-2.2 1.9-4.4 3.8-6.5 5.7-.4.3-1.4 2.4-.3 2.4 1.5-.1 3.1-.1 4.6-.2 0-.7 0-1.4 0-2.1-2.1 3.1-4.3 6-6.8 8.7-.3.3-1.4 2-.5 2.3 2.7.9 5.5 1.1 8.3.5-.1-.7-.1-1.4-.2-2.1-3.2 4.7-6.5 9.3-9.9 13.8-.4.5-1 2.4.2 2.1 3.2-.8 6.4-1.2 9.7-1.4 0-.7 0-1.4 0-2.1-1.7 2.2-3.3 4.5-5 6.7-.3.4-1 2.1 0 2.1 1.9 0 3.7.1 5.6.1 0-.7 0-1.4 0-2.1-1.5 1.9-3.1 3.8-4.6 5.7-.3.4-.8 1.4-.4 1.9s1.1-.1 1.4-.4c1.5-1.9 3.1-3.8 4.6-5.7.3-.4 1-2.1 0-2.1-1.9 0-3.7-.1-5.6-.1v2.1c1.7-2.2 3.3-4.5 5-6.7.2-.3 1.1-2.2 0-2.1-3.4.2-6.8.7-10.2 1.5.1.7.1 1.4.2 2.1 3.5-4.5 6.8-9.1 9.9-13.8.3-.5 1-2.3-.2-2.1-2.5.5-5 .3-7.4-.5-.2.8-.3 1.5-.5 2.3 2.6-2.9 5.1-6 7.3-9.3.2-.3 1.1-2.1 0-2.1-1.5.1-3.1.1-4.6.2-.1.8-.2 1.6-.3 2.4 2.2-1.9 4.4-3.8 6.5-5.7.4-.3 1.4-2.4.3-2.4-2.5.2-5 .1-7.6-.2-.1.8-.2 1.6-.3 2.4 2.4-2.7 4.3-5.7 5.5-9 .1-.3.3-1.5-.4-1.4-2.7.3-5.4.6-8.2.9-.2.9-.4 1.7-.5 2.6 3.9-2.5 7.6-5.2 11.2-8.1.5-.4 1.3-2.1.3-2.4-3.2-.7-6.4-.9-9.6-.8-.1.8-.2 1.6-.3 2.4 3.1-2.7 6.4-5.1 9.9-7.3.5-.3 1.8-2.5.5-2.6-3.9-.2-7.7.1-11.5.8-.1.8-.2 1.7-.3 2.5 3.5-1.9 7.1-3.8 10.6-5.6.5-.3 1.8-2.6.5-2.6-3.6-.1-7.3-.1-10.9-.2v2.1c2.7-3.1 6.1-5.4 10-6.9.6-.2 2.1-2.7.8-2.7-3.6.1-7.2.9-10.5 2.3v2.3c2.2-2.3 4.7-4.3 7.3-6.1.6-.4 1-1.1 1-1.9.3-.4-.1-.7-.7-.3z"/><path d="m166.9 52.1c-3.3.3-6.5 1.4-9.3 3.2-.5.3-1.8 2.5-.5 2.6 2.7.1 5.5.3 8.2.4.2-.9.4-1.7.5-2.6-3.4 1.9-6.4 4.2-9.1 6.9-.4.4-.8 1-.8 1.7 0 .4.3.9.7.7 2.3-1 4.6-1.3 7.1-1.1.1-.8.2-1.6.3-2.4-2.4 2.3-4.8 4.6-7.2 7-.3.3-1.4 2.5-.3 2.4 1.9-.2 3.7-.5 5.6-.7-.2-.3-.3-.7-.5-1-.3 2-1.5 3.7-3.3 4.6-.5.2-2.1 2.3-1 2.6 1.5.4 3 .8 4.5 1.3.1-.7.2-1.4.2-2-1.9 2.5-3.8 5.1-5.8 7.6-.2.3-1 1.7-.2 2 1.6.6 3.3 1 5 1.1 0-.7 0-1.4 0-2.1-1.5 2-3.1 4.1-4.6 6.1-.3.4-1 2.1 0 2.1s2 .1 2.9.1c-.1-.6-.1-1.2-.2-1.8-.9 1.4-2 2.6-3.1 3.7-.4.4-1.3 1.9-.5 2.3s1.7.8 2.5 1.2c0-.4-.1-.9-.1-1.3-.1.4-.2.7-.5 1-.4.4-1.3 1.8-.5 2.3.9.6 1.8.9 2.8 1 .2-.9.4-1.7.5-2.6-3.3 2.4-5.5 6.6-6.4 10.5-.4 1.7-.3 3.8 1.3 4.8 1.4.9 2.9.4 3.9-.8-.3-.5-.7-1-1-1.5-1.1 1.7-2.3 3.5-3.4 5.2-.3.4-.9 1.6-.2 2 1.2.7 2.5 1.5 3.7 2.2.1-.7.2-1.4.2-2-1.2 1.6-2.5 3.2-3.7 4.7-.3.4-.8 1.4-.4 1.9.7.9 1.5 1.5 2.6 1.9-.1-.3-.2-.7-.3-1-.3 1.4-1 2.7-2.1 3.7-.4.4-1.4 2.3-.3 2.4 1 0 1.9.4 2.5 1.3.5.7.8 1.8 0 2.4-.6.4-1.1 1.1-1 1.9 0 .6.5 1 1 .6 1.6-1.2 2.8-3.3 2.5-5.4-.3-2-2-3.4-4-3.5-.1.8-.2 1.6-.3 2.4 1.8-1.8 3-3.9 3.6-6.4.1-.3.1-.9-.3-1-.9-.3-1.6-.8-2.2-1.6-.1.6-.3 1.3-.4 1.9 1.2-1.6 2.5-3.2 3.7-4.7.3-.4.9-1.6.2-2-1.2-.7-2.5-1.5-3.7-2.2-.1.7-.2 1.4-.2 2 1.1-1.7 2.3-3.5 3.4-5.2.3-.4.8-1.4.4-1.9s-1.1.1-1.4.4c-.1.2-.9-.1-1.1-.2-.4-.2-.8-.5-1-.8-.7-1.2-.1-2.7.3-3.8.8-2.2 1.9-4.4 3.9-5.9.5-.4 1.8-2.4.5-2.6-.9-.1-1.6-.4-2.4-.9-.2.8-.3 1.5-.5 2.3.8-.9 1.4-1.8 1.8-3 .1-.3.3-1.1-.1-1.3-.8-.4-1.7-.8-2.5-1.2-.2.8-.3 1.5-.5 2.3 1.6-1.5 2.9-3.1 4.1-4.9.2-.4.6-1.7-.2-1.8-1 0-2-.1-2.9-.1v2.1c1.5-2 3.1-4.1 4.6-6.1.3-.4 1-2.1 0-2.1-1.6-.1-3.1-.4-4.6-1-.1.7-.2 1.4-.2 2 1.9-2.5 3.8-5.1 5.8-7.6.2-.3 1-1.8.2-2-1.5-.4-3-.8-4.5-1.3-.3.9-.7 1.8-1 2.6 3.1-1.5 5.3-4.4 5.8-7.9 0-.3.1-1.1-.5-1-1.9.2-3.7.5-5.6.7-.1.8-.2 1.6-.3 2.4 2.4-2.3 4.8-4.6 7.2-7 .4-.4 1.4-2.3.3-2.4-2.6-.2-5.1.2-7.5 1.2v2.3c2.6-2.6 5.4-4.8 8.6-6.5.5-.3 1.8-2.5.5-2.6-2.7-.1-5.5-.3-8.2-.4-.2.9-.4 1.7-.5 2.6 2.5-1.6 5.3-2.6 8.3-2.9 1.3.1 2.4-2.6 1.2-2.5z"/><path d="m160.3 103.7c-2.3.4-4.3 2.2-5.3 4.3-.2.3-.3.7-.3 1 0 .2.1.6.3.7.6.3 1.2-.5 1.4-.9.1-.2.2-.4.3-.6s-.2.3-.1.1c0 0 .1-.1.1-.1.1-.1.1-.2.2-.3 0 0 .1-.1.1-.1.1-.2-.2.2-.1.1s.2-.2.2-.3c.1-.1.2-.1.2-.2 0 0 .1-.1.1-.1.2-.1-.2.2-.1.1.2-.1.4-.3.6-.4.1-.1.2-.1.3-.2.1 0 .3-.1 0 0 0 0 .1 0 .1-.1.4-.2.9-.3 1.3-.4.3-.1.6-.4.8-.6.2-.3.4-.7.5-1.1 0-.3.1-.6-.1-.8 0-.1-.2-.1-.5-.1z"/><path d="m149.6 33.4c11.3-.6 22.7-1.1 34-1.3 1.8 0 3.7-4.6 1.7-4.6-11.4.2-22.7.7-34 1.3-1.1.1-2 1.3-2.3 2.2-.2.7-.5 2.5.6 2.4z"/><path d="m94.9 38c16.1-1.8 32.3-3.2 48.5-4.2 1.1-.1 2-1.3 2.3-2.2.2-.6.5-2.4-.6-2.3-16.2 1-32.4 2.4-48.5 4.2-1.1.1-1.9 1.2-2.3 2.2-.2.5-.5 2.4.6 2.3z"/><path d="m140.2 25c3.6-.2 7.3-.2 10.9-.2-.2-.8-.4-1.6-.6-2.3-1.4 3.2-1.9 6.7-1.5 10.1.2 1.2 1.5.6 2.1.1.9-.8 1.4-2 1.2-3.2 0 0-.1-.6 0-.3 0-.1 0-.3 0-.4 0-.4 0-.7 0-1.1 0-.3 0-.6 0-1 0-.1 0-.4 0-.1 0-.2 0-.4.1-.6 0-.3.1-.6.2-1 0-.2.1-.3.1-.5.1-.2.1-.4 0-.1.1-.7.5-1.4.8-2s.5-2.3-.6-2.3c-3.6 0-7.3 0-10.9.2-1.1.1-2 1.3-2.3 2.2-.3.7-.7 2.5.5 2.5z"/><path d="m101.9 49.8c1.1 0 2.2-2.7 1-2.7-1.1 0-2.2 2.7-1 2.7z"/><path d="m101.3 48.7c7.9 32.5 14 65.4 18.2 98.5"/><path d="m98.8 50.6c7.9 32.5 14 65.4 18.2 98.5.4 3.2 5.3-1.6 5-3.9-4.2-33.2-10.3-66-18.2-98.5-.9-3.3-5.6 1.6-5 3.9z"/><path d="m119.9 147.8c15.1.1 30.2-.3 45.2-1.1"/><path d="m118.5 150.9c15.1 0 30.2-.3 45.2-1.1 2.5-.1 5.5-6.3 2.9-6.2-15.1.8-30.2 1.2-45.2 1.1-2.5 0-5.6 6.2-2.9 6.2z"/><path d="m102.2 45.9c24.1.2 48.2-.2 72.3-1.1"/><path d="m100.7 49c24.1.2 48.2-.2 72.3-1.1 2.5-.1 5.5-6.3 2.9-6.2-24.1.9-48.2 1.2-72.3 1.1-2.5 0-5.5 6.2-2.9 6.2z"/><path d="m177.4 41.4c-1.9 35.2-5.9 70.3-10 105.3"/><path d="m174.9 42.7c-1.9 35.2-5.9 70.3-10 105.3-.5 3.9 4.7-.2 5-2.6 4.1-35 8.1-70.1 10-105.3.2-4-4.9.2-5 2.6z"/><path d="m96.7 36.1c29-1.9 58.1-3.2 87.1-3.9"/><path d="m95.2 39.1c29-1.8 58.1-3.1 87.1-3.9 2.5-.1 5.5-6.2 2.9-6.2-29.1.7-58.1 2-87.1 3.9-2.5.2-5.4 6.4-2.9 6.2z"/><path d="m124.1 25.8c.1 2.3.7 4.7 1.9 6.7"/><path d="m121.6 27.8c.1 2.6.8 5 2 7.3 1.3 2.4 5.8-2.8 4.6-5-1.1-2-1.6-4-1.7-6.2-.1-1.7-2.1-1-2.8-.4-1.3 1-2.2 2.6-2.1 4.3z"/><path d="m127.5 27.9c.4-2.8-.1-5.5-1.4-8-1.3-2.4-5.8 2.8-4.6 5 .9 1.8 1.3 3.6 1 5.6-.2 1.5 1 2.1 2.2 1.5 1.5-.8 2.5-2.5 2.8-4.1z"/><path d="m122.3 25.5c9.9.2 19.8-.1 29.7-1.1 2.3-.2 5.2-6.4 1.8-6.1-9.5.9-19 1.3-28.6 1-2.5 0-5.6 6.1-2.9 6.2z"/><path d="m151.1 22.2c-.7 3-1.2 6.1-1.2 9.2 0 1.4.8 2.2 2.2 1.5 1.3-.6 2.8-2.6 2.8-4.1 0-2.6.2-5.2.9-7.7.3-1.2.1-2.7-1.4-2.5s-3 2.2-3.3 3.6z"/><path d="m142.2 25c2.4 0 6.7-4.9 2.7-4.9-2.4 0-6.7 4.9-2.7 4.9z"/><path d="m134.1 23.2c-1.7 1-3.4 2.3-4.6 3.9-.5.7-.9 1.7 0 2.2.7.4 1.8.2 2.6.1 1.8-.3 3.4-1.1 4.9-1.9 1.4-.8 2.9-1.7 4.5-2-.3-.3-.7-.6-1-.9-1 3.1-2 6.1-3 9.2-.5 1.4 1.8.7 2.3.4 3.7-2.4 7.3-4.7 11-7.1.5-.3 1.5-1.3 1.1-2s-1.8-.1-2.3.2c-3.7 2.4-7.3 4.7-11 7.1.8.1 1.6.3 2.3.4 1-3.1 2-6.1 3-9.2.2-.6-.4-1-1-.9-2.1.3-4 1.2-5.9 2.2-.9.5-1.7.9-2.6 1.3-.4.2-.8.3-1.2.4-.2 0-.4.1-.5.1s-.2 0-.3 0c-.2 0-.2.1 0 .3-.1.2-.3.5-.4.7.8-1.1 2-1.9 3.1-2.6.6-.3 1.5-1.3 1.1-2-.3-.9-1.6-.2-2.1.1z"/></svg>