<?xml version="1.0" encoding="utf-8"?>
<!-- Generator: Adobe Illustrator 25.0.1, SVG Export Plug-In . SVG Version: 6.00 Build 0)  -->
<svg version="1.1" id="Layer_1" xmlns="http://www.w3.org/2000/svg" xmlns:xlink="http://www.w3.org/1999/xlink" x="0px" y="0px"
	 viewBox="0 0 1143.5 250.6" style="enable-background:new 0 0 1143.5 250.6;" xml:space="preserve">
<style type="text/css">
	.st0{fill:#eeeeee;}
</style>
<g>
	<path class="st0" d="M83.8,45.7c0.3,0.3,0.4,0.9,0.4,1.9v24.1c0,1.7-0.5,3.1-1.5,4.2c-1,1.1-2.4,1.7-4.1,1.7c-0.7,0-2.6-0.3-5.6-1
		c-4.6-0.9-7.1-1.3-7.4-1.3c-1.4,0-3,0.1-5,0.4c-2,0.3-3.6,0.5-5,0.6c-1.5,3.4-2.3,7.3-2.3,11.8c0,6.7,0.5,13.6,1.5,20.9
		c1,7.3,1.6,11.5,1.8,12.7c1.9,10.9,3,20.1,3.3,27.6c0.3,1.5,1.6,2.3,3.8,2.3c1.5,0,3.4-0.3,5.5-0.8c2.1-0.5,3.8-0.8,5-0.8
		c2.6,0,4.2,1.2,4.9,3.6c0.7,2.4,1,5.5,1,9.2c0,10.8-1.1,16.1-3.3,16.1h-5.6c-8.7,0-16-0.5-21.8-1.4c-5.8-0.9-11.5-3-17.2-6.3
		c-6-3.4-10.4-9.3-13.2-17.5c-2.8-8.3-4.2-16.6-4.2-25c0-2.4,0.2-6,0.5-10.8c0.3-4.8,0.5-8.4,0.5-10.8c0-4.4-0.3-8.7-0.8-12.8
		c-0.3-5.5-0.5-9.6-0.5-12.5l0.3-4.4c-0.9-0.2-1.6-0.8-2.3-1.9c-0.7-1.1-1.3-1.7-1.8-1.7c-3.9,2.9-7,4.4-9.2,4.4
		c-0.9,0-1.3-0.8-1.3-2.3c0-2.9,0.8-5,2.3-6.4c-1.7-0.5-2.6-3.5-2.6-9l0.3-12c1.5-1,3.2-1.7,4.9-1.9c1.7-0.3,3.8-0.4,6.4-0.4
		c1.2,0,2.5,0.2,4,0.5c1.4,0.3,2.6,0.5,3.5,0.5l-0.3-11.5c-0.3-5.1-0.5-9-0.5-11.5c0-2.9,0.6-4.9,1.9-6c1.3-1.1,4.2-1.7,8.8-1.7
		c2,0,4.1,0.3,6.1,0.8c2.4,0.3,4.3,0.5,5.6,0.5c0.3,0,1.1-0.4,2.2-1.2c1.1-0.8,2-1.2,2.7-1.2c4.9,0,8,0.8,9.2,2.4
		c1.2,1.6,1.8,4.5,1.8,8.6c0,1.2,0.2,3,0.5,5.4c0.5,2,0.8,4.3,0.8,6.7l-0.5,7.7l25.1-1C83.1,45.3,83.6,45.4,83.8,45.7z M6.4,69.2
		c0.2,0.3,0.6,0.4,1.3,0.4c1.5,0,4.9-2.3,10-6.9c5.1-4.6,7.8-7.4,7.9-8.4c-2,1.4-4.5,2-7.4,2V53H6.9c-0.2,0.3-0.4,1.1-0.6,2.3
		c-0.3,1.2-0.4,2.3-0.4,3.3c0,0.7,0.2,1.8,0.6,3.5C7,63.7,7.2,65,7.2,66c0,1.2-0.4,2-1.3,2.6C6.1,68.8,6.2,69,6.4,69.2z M20.4,73.2
		c0.4,1,0.7,1.7,0.9,2l12.3-4.4c1.4-1.9,4.5-3.5,9.5-4.9c2.9-0.9,5.3-1.7,7.2-2.7c1.9-0.9,3.3-2.2,4.4-3.7h-3.3l-25.6,6.7l-0.8-1
		c-0.5,1.5-1.4,2.3-2.6,2.3c-0.7,0-2-0.4-4.1-1.3l-7.7,5.4h8.7C19.5,71.7,19.9,72.2,20.4,73.2z M29.2,77.3c-2.9,0.3-5,1-6.3,1.9
		c-1.3,0.9-1.9,3.1-1.9,6.5c0,1.5,0.1,2.8,0.3,3.8c1.7-2.6,3.5-4.5,5.2-5.8c1.8-1.3,4.1-2.7,7-4.2c3.1-1.2,5.6-2.6,7.7-4.4h-3.1
		C36.1,76.3,33.1,77,29.2,77.3z M31.5,122.6c-2.9,0.7-5,1.6-6.3,2.8c-1.3,1.2-2.6,4-4,8.4c4.1-2,8.3-4.6,12.7-7.7
		c4.4-3.1,7.2-5,8.6-5.9V119C38.9,120.7,35.2,121.9,31.5,122.6z M23.9,112.4c-1.1,1.5-1.7,3.5-1.7,5.9l0.3,2l17.7-10
		c-1.9,0-3.9,0.4-6.1,1.3c-0.5,0.2-1.4,0.4-2.6,0.8c-1.2,0.3-2.4,0.5-3.6,0.5l-2.3-0.3l1.3-1l18.7-6.7v-6.7
		c-2.2,0.2-5.3,1.7-9.2,4.5c-3.9,2.8-6.4,4.6-7.4,5.2C26.7,109.4,25,110.8,23.9,112.4z M31.5,89c-5.8,2-8.8,2.9-9,2.7v6.7h1
		c1.5,0,5.5-1.9,11.8-5.8c6.3-3.8,9.5-6.4,9.5-7.6l-0.3-0.8C41.6,85.4,37.3,87,31.5,89z M25.7,100.7c-1.5,0.9-2.5,1.9-3.2,2.9
		c0.9,0.2,1.3,1,1.3,2.6l-0.3,2l4.4-4.6c0,0.3,0.1,0.6,0.4,0.9c0.3,0.3,0.6,0.4,0.9,0.4c0.3,0,0.7-0.1,1.2-0.4
		c0.4-0.3,0.8-0.6,1.2-0.9c2-1.4,4.4-3.1,7.2-5.1c2.7-2,4.7-3.6,5.9-4.6l-14.3,5.4C28.7,99.3,27.2,99.8,25.7,100.7z M23.6,142.6
		l15.4-6.7v-1.5c-1.9,0.3-4.9,1.2-9.1,2.6c-4.2,1.4-6.3,2.1-6.3,2.3V142.6z M24.6,44.3c0.2,0.2,0.4,0.5,0.6,0.9
		c0.3,0.4,0.4,0.8,0.4,1.2c1.9,0,4.2-0.5,7-1.5c2.8-1,4.6-2.3,5.5-3.8l-4.4-0.3C27.6,40.7,24.6,41.9,24.6,44.3z M24.8,26.6
		c0.3,0.5,0.6,1,0.8,1.5c0.2,0.5,0.4,0.9,0.8,1.3c0.3,0.3,0.9,0.5,1.5,0.5c1.7,0,4.1-0.7,7.2-2c2.7-1.5,5.2-2.3,7.4-2.3
		c0.3-0.2,1.2-0.6,2.6-1.3c1.4-0.7,2.3-1.4,2.8-2c-1,0.2-2.5,0.3-4.4,0.3c-3.1,0-6.1-0.3-9-0.8c-1,0-2.5-0.1-4.4-0.4
		c-1.9-0.3-3.7-0.4-5.4-0.4V26.6z M25.3,151.7c0.3,1.3,1.2,1.9,2.6,1.9c0.9,0,4.2-2,10.1-6.1c5.9-4.1,9.2-6.5,9.9-7.2
		c-0.9,0-1.7,0.1-2.4,0.3c-0.8,0.2-1.4,0.3-1.9,0.3c-1.7,0-5.2,0.7-10.6,2.2c-5.4,1.5-8.1,2.8-8.1,4C24.8,148.8,25,150.4,25.3,151.7
		z M49.2,120.3l-1.3-1c-1.4,1.9-3.2,3.6-5.4,5.1c-2.2,1.5-4.4,3-6.7,4.4c-4.1,2.4-7.1,4.4-9,6.1c2.2,0,4.6-0.5,7-1.5
		c2.5-1,4-1.6,4.5-1.8c4.4-2.2,8-3.3,10.8-3.3V120.3z M28.2,87.6c0.9,0,2.3-0.3,4.4-0.9c2-0.6,3.5-1.2,4.4-1.7
		c0.2-0.9,0.7-1.5,1.5-1.9c0.9-0.4,1.8-0.8,2.8-1.2c1.9-0.7,3.3-1.4,4.2-2.2c0.9-0.8,1.4-2,1.4-3.7c-1.9,0-5.2,1.5-10,4.4
		c-4.8,2.9-7.9,5.1-9.5,6.7C27.4,87.4,27.6,87.6,28.2,87.6z M49,33.4c0.8-1.4,1.5-3.7,2.2-6.8c-2.2,0-4.3,0.5-6.1,1.5
		c-1.9,1-4,2.5-6.4,4.4c-2,1.7-3.9,3-5.5,4c-1.6,0.9-3.4,1.4-5.2,1.4v1.8c2.2,0,5.4-0.7,9.5-2c3.8-1.4,6.7-2,8.7-2
		C47.3,35.6,48.3,34.9,49,33.4z M41,49.4c-2.4,1-4.9,2-7.4,2.8c-2.6,0.9-4.4,1.5-5.6,2v4.9l20-11.5v-2.3C45.7,47,43.3,48.4,41,49.4z
		 M52,53.6c-0.5-0.4-0.8-1-0.9-1.8c-0.1-0.8-0.6-1.2-1.7-1.2c-1.7,1.9-5.1,3.8-10.2,5.9c-5.5,2.2-9.2,4.4-11.3,6.7l10.2-2.3l0.8-1.3
		l1.3,1.3c1.4-1.2,4-2.1,7.9-2.8c2.7-0.7,4.6-1.3,5.8-1.8c1.1-0.5,1.7-1.2,1.7-2C53.7,54.3,52.5,54.1,52,53.6z M31.5,161.4
		c0.9,0.8,1.7,1.2,2.6,1.2c1.7,0,5.2-1.7,10.6-5s8.1-5.8,8.1-7.6h-1.5L31.5,158c-0.9,0.3-1.3,0.7-1.3,1
		C30.2,159.8,30.6,160.6,31.5,161.4z M34.4,49.4c1.6-0.5,2.9-0.8,3.7-0.8l10.8-5.4c0-0.3,0.3-0.9,0.8-1.7c0.5-0.8,0.8-1.4,0.8-1.9
		c-1.7,0-5.4,1.4-11,4.2S31,48.8,31,50.2C31.7,50.2,32.8,49.9,34.4,49.4z M48.1,113.9c0-2.4-0.5-3.6-1.5-3.6l-15.1,7.9
		c1.7,0,3.9-0.6,6.7-1.8c0.5-0.2,1.4-0.5,2.8-1c1.4-0.5,2.7-0.8,4.1-0.8c1.7,0,2.6,0.5,2.8,1.5L48.1,113.9z M46,162
		c-6.6,2.7-10.4,4.7-11.4,5.9h16.6c5.8-5.8,8.7-8.8,8.7-9v-1h-2C56.5,158,52.5,159.3,46,162z M43.3,146.3c-2.9,2.1-5.4,4.6-7.4,7.3
		c1.7-0.5,3.7-1.4,5.9-2.8c2.2-1.4,5.8-3.8,10.8-7.4c0-0.7-0.1-1.3-0.3-1.8C49.2,142.6,46.2,144.2,43.3,146.3z M50.2,133.6l-9.2,4.1
		l1.5,0.5c5.1-0.7,7.7-1.4,7.7-2.3V133.6z M77.6,57.6c-5.5,1.2-11.3,3.1-17.4,5.6c-6.1,2.6-9.9,5.1-11.3,7.7l2.3-0.3
		c1.2,0,2.3,0.3,3.3,1c2.2,0,5.7-0.3,10.5-1c5.1-0.7,9-1,11.5-1L77.6,57.6z M53.2,170h1.3c1.4,0,3.6-0.7,6.7-2.2
		c3.1-1.4,5.8-3.2,8.3-5.2c2.5-2,3.7-3.9,3.7-5.6L53.2,170z M62.6,52.4c-3.3,0.9-5,1.8-5,2.4c0,0.2,0.3,0.6,1,1.4
		c0.7,0.8,1.2,1.4,1.5,1.9L57.9,62l18.4-10c-0.7-0.7-2.1-1-4.4-1C69,50.9,65.9,51.4,62.6,52.4z M70.1,172.2c1.4-0.8,2-2.9,2-6.5
		l-14.3,6.7c0.5,0.2,1.2,0.4,2,0.6c0.9,0.3,1.6,0.4,2.3,0.4C66.1,173.3,68.8,172.9,70.1,172.2z"/>
	<path class="st0" d="M135.2,136.1c0.3,4.4,0.6,7.5,0.8,9.3c1.2,9.9,1.8,19.2,1.8,27.9c0,1-0.3,2-0.8,2.9c-0.5,0.9-1.2,1.4-2,1.4
		c-4.1,0-9.2-0.2-15.4-0.5c-6.1-0.3-11.5-0.5-16.1-0.5c-1.4-0.5-2-1.3-2-2.3c0-0.7,0.2-1.4,0.5-2.2c0.3-0.8,0.5-1.5,0.5-2.2
		c0-1.9,0.6-9.6,1.8-23.3c1.2-13.7,2-22.8,2.6-27.4l-1.3-12c0-5.6,0.3-12.5,0.8-20.7c0.3-3.4,0.5-5.7,0.5-6.9c0-4.1-0.7-10-2-17.7
		c0.9-0.5,1.3-1,1.3-1.5c0-0.5-0.5-1.2-1.4-1.9c-0.9-0.8-1.4-1.3-1.4-1.7c0.7-0.7,1.5-1.6,2.4-2.8c0.9-1.2,2-2,3.3-2.6
		c1.3-0.5,3.1-0.8,5.5-0.8h17.7c1.5,0,2.5,1.3,2.9,4c0.4,2.6,0.7,6.7,0.9,12.2c0,4.3,0.3,8.1,0.8,11.5l-0.5,11.5
		c-1,13.3-1.5,24.7-1.5,34C134.7,127.7,134.8,131.7,135.2,136.1z M107,24.1c0-2.4-0.2-6.3-0.5-11.8l-0.3-7.9c0-1.9,0.9-3.3,2.8-4.4
		h18.7c3.1,0,5,1.6,5.8,4.7c0.8,3.2,1.2,7.7,1.4,13.7c0,3.9,0.2,6.2,0.5,6.9c0,1.4,0,2.5-0.1,3.5c-0.1,0.9-0.4,1.7-0.9,2.2l-3.8-0.3
		c-2.6,0-4.3,0.4-5.1,1.3c-1-0.9-3.8-1.3-8.2-1.3l-8.2,0.3l-2.3-2L107,24.1z M109.8,56.6c0.2,1.2,0.6,2.9,1.2,5.2
		c0.6,2.3,1.2,3.5,1.9,3.5c1.2,0,3.7-1.5,7.4-4.6c0.3-0.3,1.2-1.1,2.7-2.2c1.4-1.1,2.6-1.7,3.5-1.9H109.8z M110.1,164.6
		c1.4-2.2,3.5-4.1,6.3-5.5c2.8-1.4,4.4-2.3,4.7-2.4l-1-1c-1,0.5-2.4,1.1-4.2,1.7c-1.8,0.6-3.2,1.3-4.4,2c-1.1,0.8-1.7,1.8-1.7,2.9
		C109.8,163.7,109.9,164.4,110.1,164.6z M128.8,67.6c-3.4,0.7-7.1,1.7-11.1,2.9c-4,1.3-6.1,2.4-6.3,3.5c0,3.9,0.5,5.9,1.5,5.9
		C116,79.9,121.3,75.8,128.8,67.6z M111.4,130.3l0.8,3.3c5.6-2.2,9.7-5.2,12.3-9C116.6,127.9,112.2,129.8,111.4,130.3z M116.7,141.4
		c-3.6,0.8-5.4,1.5-5.4,2.2v7.7c0.3-0.2,2.4-1.6,6.1-4.2c3.8-2.6,6.7-4.9,9-6.8l-2-0.3C122.9,140.2,120.3,140.7,116.7,141.4z
		 M120.6,161.5c-4.4,1.9-7.5,4-9.2,6.4c2.2,0,6.1-0.7,11.5-2.2c5.5-1.4,8.2-2.9,8.2-4.2l-2.3-5.9
		C127.9,157.4,125.2,159.3,120.6,161.5z M119.8,88.3c2.9-1.7,5.1-3.5,6.7-5.4l-1.5-0.3c-2.9,0-5.8,0.8-8.7,2.3
		c-2.9,1.5-4.4,3.5-4.4,5.9C114.3,90.9,116.9,90,119.8,88.3z M112.1,115.6c-0.2,2-0.3,4-0.3,6h1.5c1,0,3.5-1.3,7.4-4
		c3.9-2.6,6.6-4.6,7.9-6c-0.2-0.2-0.5-0.4-1-0.8c-0.5-0.3-0.9-0.5-1.3-0.5c-0.9,0-2.4,0.4-4.7,1.2c-2.3,0.8-4,1.2-5,1.2
		c-0.5-0.2-1.1-0.4-1.8-0.6c-0.7-0.3-1.2-0.4-1.5-0.4C112.7,112.3,112.3,113.6,112.1,115.6z M112.1,7.9c0,1.4,0.4,2.8,1.3,4.4
		l6.7-6.7l-3.3-0.3C113.7,5.4,112.1,6.2,112.1,7.9z M130,85c-3.2,1.2-6.7,2.8-10.2,4.9s-6.1,4.2-7.7,6.4h1.3c0.3-0.3,2.4-1,6.1-1.9
		c3.8-0.9,6.8-1.4,9.2-1.4L130,85z M112.3,105.3c0.1,1.5,0.5,2.4,1.2,2.9c1.5-1.9,4.2-3.9,7.9-6.1c3.6-1.9,6.1-3.8,7.4-5.9l-1.5-0.3
		c-1.7,0-4.4,0.5-7.9,1.5c-3.6,1-6,1.6-7.2,1.8C112.1,101.9,112.2,103.9,112.3,105.3z M130.3,125.7c-1.7,0-5,2-9.9,6.1
		c-4.9,4.1-7.3,6.7-7.3,7.7C124.6,139.5,130.3,134.9,130.3,125.7z M128.8,59.4c-1.4,0-4.1,1.5-8.3,4.6c-4.2,3.1-6.5,5-7,5.6
		c2.6-0.5,5.7-1.3,9.5-2.4c3.8-1.1,5.7-1.7,5.9-1.9V59.4z M115.2,17.2c0.7,0,1.2-0.4,1.5-1.3c0.3-0.9,0.5-1.8,0.5-2.8
		c-0.7,0-1.4,0.3-2,0.9c-0.7,0.6-1,1.2-1,1.9C114.2,16,114.5,16.5,115.2,17.2z M127.7,16.6c-0.2-0.2-0.4-0.4-0.8-0.6
		c-0.3-0.3-0.6-0.5-0.8-0.6c-0.9,0.3-2.6,1.1-5.1,2.2c-2.6,1.1-4.8,1.9-6.7,2.4v4.6h13.3V16.6z M114.4,154.9c2,0,4.6-0.5,7.7-1.5
		c3.1-1,5.3-1.7,6.7-2l0.3-5.4c0-1.5-0.4-2.3-1.3-2.3c-0.5,0.5-2.4,1.9-5.6,4.1c-3.2,2.2-5.8,4.2-7.7,5.9V154.9z M130,71.7
		c-5.1,1.9-9.9,5.6-14.3,11.3l13.1-4.6c0.9-0.2,1.3-1.8,1.3-4.9V71.7z M126.8,122.4c2.8-1.7,4.2-4.2,4.2-7.4l-14.3,8.7l-1,1l1,0.3
		C120.7,124.9,124,124.1,126.8,122.4z M124.7,108.4c2.4-0.4,4.2-0.8,5.4-1.2c-1.2-2-2.6-3.1-4.4-3.1c-1.5,0-3.1,0.7-4.6,2.2
		c-1.5,1.5-2.3,2.4-2.3,2.9C120.3,109.1,122.3,108.8,124.7,108.4z M121.6,8.4c-1,1.9-1.5,3.5-1.5,4.9v1.3c1.4-0.3,3.1-1,5.1-1.9
		c2-0.9,3.3-1.7,3.8-2.4c0-0.9-0.4-1.8-1.2-2.9c-0.8-1.1-1.7-1.7-2.7-1.7C123.8,5.6,122.6,6.6,121.6,8.4z M130.4,170.4
		c1.3-0.6,1.9-2,1.9-4.2c-2.2,0-4.1,0.3-5.8,0.9c-1.6,0.6-3.5,1.6-5.5,2.9c1.7,0.9,3,1.3,3.8,1.3C127.3,171.3,129.2,171,130.4,170.4
		z"/>
	<path class="st0" d="M285.4,140.7c0.3,4.2,0.6,7.3,0.8,9.3c1.2,9.6,1.8,17.8,1.8,24.8c0,3.6-0.8,5.4-2.3,5.4
		c-2.6,0-6.1-0.2-10.5-0.5c-4.8-0.3-8.4-0.5-10.8-0.5c-1.2,0-3.1,0.2-5.6,0.5c-2.6,0.3-4.6,0.5-6.1,0.5c-0.5,0-1-0.1-1.5-0.4
		c-0.5-0.3-0.8-0.5-0.8-0.6v-45.3c-1-1.9-1.6-4.5-1.8-7.8c-0.2-3.3-0.3-5.5-0.5-6.5c-1.4-6.1-2.9-11.6-4.7-16.5
		c-1.8-4.9-4.2-9.7-7.3-14.5c-2.7-4.3-9.3-6.4-19.7-6.4c-2.9,0-5,1.5-6.1,4.5c-1.2,3-1.8,6.3-1.8,9.9c0,0.9,0.5,1.4,1.5,1.7
		c1,0.3,1.7,0.6,2,0.9c0,0.3-0.3,0.9-1,1.8c-0.7,0.9-1.2,1.6-1.5,2.3c0,1.4,0.2,2.8,0.5,4.2c0.3,1.5,0.6,2.8,0.8,4
		c0.7,3.4,1,5.5,1,6.1v4.4c0.2,3.1,0.4,7.3,0.6,12.7s0.4,9.6,0.4,12.7v1.8c0,8.7-0.3,15.7-0.8,21c-0.5,5.3-1.7,7.9-3.6,7.9l-8.2-0.3
		c-3.8-0.3-6.6-0.5-8.4-0.5c-3.8,0-7.8,0.4-12,1.2c-4.3,0.8-6.5,1.2-6.7,1.2c-2.6,0-4.1-0.5-4.7-1.5c-0.6-1-0.9-3.7-0.9-7.9v-8.4
		c0-2.6,0.3-7.2,0.8-13.8c0.3-3.1,0.5-5.5,0.5-7.2c0-0.3-0.1-0.8-0.4-1.3c-0.3-0.5-0.5-0.9-0.6-1V61.2l2-12.5
		c10.8,0,18.9-0.3,24.3-1c0.3,1.2,0.7,3.1,1,5.6c0.3,2.6,0.6,4.2,0.8,4.9c4.3-2.9,9.5-5.5,15.6-7.9c6.1-2.4,11.8-3.6,16.9-3.6
		c16.2,0,28.3,3.8,36.4,11.4c8,7.6,13.2,17,15.6,28.3c2.4,11.3,3.8,25.7,4.4,43.3C284.8,132.8,285.1,136.5,285.4,140.7z M174.2,60.3
		c-0.3,2.1-0.4,4-0.4,5.5c0,3.2,0.5,5.4,1.5,6.4c2.4-1,5-2.7,7.9-5.1c2.9-2.4,4.9-4,6.1-4.9v-1.3c-1,0.3-2.9,1.1-5.6,2.3
		c-2.7,1.2-4.5,1.8-5.4,1.8c-0.3,0-0.6-0.1-0.8-0.4c-0.2-0.3-0.3-0.6-0.3-0.9c0-0.9,3.4-3.6,10.2-8.2h-13.1
		C174.6,56.6,174.5,58.2,174.2,60.3z M182.3,80.6c-5.3,1.7-7.9,3-7.9,3.8v5.4c0.3-0.5,2.8-2.3,7.4-5.2c4.6-3,8.4-5.2,11.3-6.8
		l-1.3-0.3l-1,0.3C190.4,78,187.6,78.9,182.3,80.6z M176.4,131.8c0.7,0,4-1.3,10-4c6-2.6,9.2-4.3,9.7-5c-2,0-5,0.9-8.7,2.6
		c-3.8,1.4-6.3,2-7.7,2c-0.7,0-1-0.9-1-2.6l23.3-13.1l0.8-1c-2.4,0.3-5.4,1.2-9,2.6c-5.3,1.9-9.5,2.8-12.5,2.8
		c-0.2,0-0.5-0.1-0.9-0.3c-0.4-0.2-0.6-0.4-0.6-0.8c0-1.9,0.7-3.3,2-4.2c1.4-0.9,3.4-1.8,6.1-2.7c3.9-1,6.4-2.4,7.4-4.1
		c-1.9,0-4.5,0.7-7.9,2c-3.4,1.5-6.3,2.3-8.7,2.3c-1.5,0-2.3-0.3-2.3-1c0-1,4-4,12-8.8c8-4.9,12.5-7.5,13.6-7.8
		c-2,0-4.2,0.5-6.4,1.5c-2.2,1-3.5,1.6-3.8,1.8c-4.1,2.2-7.3,3.3-9.7,3.3c-0.7,0-1.3-0.2-1.8-0.6c-0.5-0.4-0.8-0.8-0.8-1.2
		c0.2-0.2,1.8-1.2,4.9-2.9c3.1-1.8,9-5,17.7-9.6l0.8-1c-2.4,0-4.7,0.4-6.9,1.3c-2.2,0.9-5,2.1-8.2,3.8c-1.9,1-3.9,2-6.1,3.1
		c-2.2,1-4.3,1.6-6.1,1.8c0,5.3-0.2,11.7-0.5,19.2c-0.3,7.2-0.5,12.9-0.5,17.2C174.3,130.7,175,131.8,176.4,131.8z M184.3,72.6
		c-6.1,3.3-9.2,5.4-9.2,6.3c0,0.7,0.1,1,0.3,1c1-0.7,2.1-1,3.3-1l17.4-10v-1.3C194.4,67.6,190.5,69.2,184.3,72.6z M180,157.6
		c-0.3-0.4-0.5-0.8-0.5-1.2c0-0.2,1.6-1.2,4.7-3.2c3.2-2,9.8-5.4,19.8-10.4l1-1.3l-18.7,5.6c-1.2,0-2.6,0.2-4.1,0.5
		c-1.5,0.3-2.7,0.5-3.6,0.5c-1.5,0-2.3-0.3-2.3-1c0-0.7,0.4-1.5,1.3-2.4c0.9-0.9,1.5-1.6,2-1.9l16.4-9c0.2,0.2,0.4,0.3,0.8,0.3
		c0.7,0,1.2-0.4,1.5-1.3c-1.9,0-4.4,0.4-7.6,1.2c-3.2,0.8-5.2,1.2-6.3,1.4c-4.1,1.2-6.8,1.8-8.2,1.8l-1,3.3v23.6l18.7-7.9v-1.5
		c-2,0-4.1,0.6-6.1,1.8c-0.3,0.2-1.2,0.5-2.6,1c-1.4,0.5-2.7,0.8-4.1,0.8C180.7,158.2,180.3,158,180,157.6z M203.6,170
		c0.8-0.9,1.2-1.5,1.4-2c0-1.4-0.3-2.3-1-2.7c-0.7-0.4-1.6-0.6-2.8-0.6h-1.5c-1.7,0-5.9,0.9-12.7,2.6c-6.7,1.7-10.6,3.1-11.6,4.1
		H202C202.3,171.3,202.9,170.8,203.6,170z M204,123.6l-21,7.9l3.8,0.3c2.4,0,5.8-0.7,10.2-2c1-0.2,2.3-0.4,3.7-0.8
		c1.4-0.3,2.5-0.5,3.2-0.5V123.6z M199.7,162.2c3.8-1.1,5.6-3.6,5.6-7.6c-0.7,0-1.1,0.1-1.3,0.3c-1.7,0.9-4.1,1.8-7.2,2.8
		c-2.7,0.9-5,1.7-6.9,2.6c-1.9,0.9-3.8,2-5.9,3.6h1.3C191.1,163.8,195.9,163.3,199.7,162.2z M190.2,142.8c10.1-2,15.1-3.8,15.1-5.1
		c0-2.6-0.9-3.8-2.6-3.8l-16.4,9l-1.3,1L190.2,142.8z M203.5,105.2l-1-0.3c-1.5,0-4.3,0.9-8.2,2.8c-3.9,1.9-5.9,2.9-5.9,3.1
		c1.9,0,4.4-0.3,7.7-0.9c3.2-0.6,5.2-1.4,5.9-2.4L203.5,105.2z M201.9,119c0.9-0.9,1.4-1.8,1.4-2.8c-1,0-5.5,1.7-13.6,5.1l9.5-1
		C200,120.3,200.9,119.9,201.9,119z M198,100.1c1.3-0.7,2.2-1.1,2.7-1.3v-1.3c-3.4,0.9-5.6,2-6.7,3.3l1.3,0.3
		C195.8,101.1,196.7,100.8,198,100.1z M201.6,150.7c2.8-0.9,4.2-1.5,4.2-1.7l-0.8-3.1c-1.2,0.7-2.9,1.8-5.2,3.2
		c-2.3,1.5-3.5,2.4-3.7,2.9C196.9,152.1,198.8,151.6,201.6,150.7z M197.4,72.2l2.3,1c-0.2-1,2.8-2.8,9-5.2c6.1-2.5,10-3.7,11.5-3.7
		s3.5-0.6,5.9-1.9c2.4-1.3,4.6-2.8,6.7-4.5c-3.6,0-7,0.6-10.1,1.8c-3.2,1.2-6.2,2.5-9.1,4c-2.9,1.5-5,2.4-6.1,2.9l-0.8,0.3
		c0-0.2-0.4-0.5-1.2-0.9c-0.8-0.4-1.2-0.9-1.4-1.4C203,66.6,200.8,69.1,197.4,72.2z M213.6,55.9c-7.8,2.6-12.7,4.6-14.7,5.8
		c4.8-0.5,9-1.3,12.5-2.3s5.7-1.6,6.4-1.8c7.2-2,13.4-3.2,18.7-3.6c-0.7-0.3-1.6-0.7-2.7-1.2c-1.1-0.4-2-0.7-2.7-0.9
		C227.2,52,221.4,53.3,213.6,55.9z M214.5,73.9c8.4-3.3,14.8-6.1,19.2-8.3l-1.8-0.3c-3.8,0-9.5,1.6-17.3,4.7
		c-7.8,3.2-12.8,6.1-15,8.8h1.5C201.7,78.8,206.2,77.2,214.5,73.9z M225,74.2c5.6-0.9,11.5-2.2,17.5-4.1c6.1-1.9,9.6-3,10.6-3.3
		l7.2-2.3c-2.6-1.5-5.5-2.3-9-2.3l-12.5,5.1c-1.7,0.7-4.6,1.8-8.6,3.3c-4,1.5-6.9,2.4-8.6,2.6c0,0.5,0.2,1.1,0.5,1.7
		c0.3,0.6,0.7,0.9,1,0.9C224.4,75.3,225,74.8,225,74.2z M233,79.2c1.9,0.6,3,1.1,3.3,1.4l14.1-9.5l-1.3-0.3c-1,0-4.3,0.8-9.9,2.3
		c-5.5,1.5-8.8,2.6-9.9,3.3C229.9,77.7,231.1,78.6,233,79.2z M247.2,57.1c-0.6-0.3-1.5-0.5-2.7-0.5c-2,0.2-4.1,0.7-6,1.7
		c-2,0.9-3.5,2.3-4.7,4c4.1-2,9.2-3.1,15.4-3.1C248.4,58.1,247.8,57.4,247.2,57.1z M243.7,86.5c0.3,0,3.9-1.6,10.6-4.7
		c6.7-3.2,10.2-4.9,10.4-5.2H257c-0.9,0-2.8,0.9-5.9,2.6c-1.5,1-3.2,1.9-4.9,2.7c-1.7,0.8-3.3,1.2-4.9,1.2
		C241.4,85.3,242.2,86.5,243.7,86.5z M248.1,99.1c1.5,3.1,2.6,4.8,3.3,5.1l20-10c-0.5,0-2.8,0.5-6.9,1.5c-5.1,1.2-8.2,1.8-9.2,1.8
		c-0.3,0-0.8-0.3-1.4-0.9c-0.6-0.6-1.1-1.2-1.4-1.7c0-0.3,1-1.2,3.1-2.7c2-1.4,4.4-2.8,6.9-4c2.6-1.2,4.8-1.8,6.7-1.8l1-1
		c-3.1,0-7.9,0.9-14.5,2.7c-6.6,1.8-9.9,3.4-9.9,4.7C245.8,94,246.5,96,248.1,99.1z M254.2,111.9c1.4,0,3.6-0.7,6.7-2.2
		c3.1-1.4,4.9-2.3,5.6-2.7c2.6-1.5,4.5-2.5,5.9-2.8v-1.3c-3.2,0-7.4,0.5-12.4,1.5c-5,1-7.6,2.2-7.6,3.6
		C252.4,110.6,253,111.9,254.2,111.9z M265.7,69.5c-0.5-0.4-1.2-0.6-2-0.6c-1.4,0-3.2,0.6-5.6,1.9c-2.4,1.3-3.6,2.5-3.6,3.7
		c1.2,0,3.2-0.3,5.9-1c2.2-0.9,4.4-1.3,6.7-1.3C266.7,70.8,266.2,69.9,265.7,69.5z M254.7,116.2c1.5,4.3,2.3,13.8,2.3,28.7l15.4-7.7
		l1.3-1c-1,0-2.7,0.2-5,0.5c-2.3,0.3-4.1,0.5-5.5,0.5c-1.2,0-1.8-0.7-1.8-2c0-0.3,0.1-0.8,0.4-1.3c0.3-0.5,0.5-0.9,0.6-1l14.3-8.7
		h-17.7c-0.2-0.7-0.4-1.4-0.6-2.2s-0.4-1.5-0.4-2.2c0-0.7,0.9-1.2,2.8-1.5c1.9-0.3,3.7-0.8,5.4-1.3c1.7-0.5,3-1.5,3.8-3.1
		L254.7,116.2z M267.9,83.6c2.5-0.9,3.7-2.3,3.7-4.2c-2.6,0-5.4,0.4-8.6,1.3c-3.2,0.9-5.2,2.1-6,3.8c0.7,0.3,1.7,0.5,3.1,0.5
		C262.8,85,265.4,84.5,267.9,83.6z M263.7,148c-4.4,0.5-6.7,1-6.7,1.5l1,19.7c4.6-4.6,11.6-8.6,21-12v-1c-1.7,0.2-7.3,1.2-16.6,3.1
		h-1v-3.1c1.4-1.2,3.9-2.9,7.7-5.1c3.2-1.9,5.8-3.6,7.7-5.1c0.2,0,0.6-0.3,1.3-1C275.3,145.8,270.5,146.8,263.7,148z M267.5,176.1
		c1.9-0.2,3.3-0.3,4.4-0.5c3.1-0.5,6.1-0.8,9.2-0.8l-0.8-1.5H258l2.8,2.8c0.3,0.2,0.9,0.3,1.5,0.3
		C263.9,176.4,265.6,176.3,267.5,176.1z M273.7,88.6c-0.5,0-2.4,0.6-5.8,1.8c-3.3,1.2-5.9,2.3-7.8,3.3c1.5,0,4-0.5,7.4-1.4
		c3.4-0.9,5.5-1.7,6.1-2.4V88.6z M270.3,163.5c-3.6,1.6-6.2,3.5-7.9,5.8c2.9,0,5.7-0.3,8.4-0.8c1-0.2,2.5-0.3,4.4-0.5
		c1.9-0.2,3.6-0.3,5.1-0.3V161C277.2,161,273.9,161.8,270.3,163.5z M276.7,116.2c-3.6,1.7-8,3.2-13.3,4.4l4.1,0.3
		c6.1,0,9.2-0.4,9.2-1.3V116.2z M273.7,97.3c-0.5,0-3.5,1.2-9,3.6c1.2,0,3.3-0.1,6.4-0.4c3.1-0.3,4.6-0.7,4.6-1.4
		C275.7,97.9,275,97.3,273.7,97.3z M272.1,140.5c-0.5,0.2-1.3,0.4-2.3,0.8c-1,0.3-2,0.5-3.1,0.5c0,0.5,0.2,1,0.5,1.4
		c0.3,0.4,0.7,0.6,1,0.6c6.1,0,9.2-1.5,9.2-4.6C276,139.3,274.2,139.7,272.1,140.5z M279,107c-2.4,0-4.8,0.4-7.3,1.3
		c-2.5,0.9-4.1,2-4.7,3.6h12V107z M278.8,131.8c-0.2-0.5-0.5-1.1-1-1.8c-0.5-0.7-0.9-1.2-1-1.5c-1.2,0.3-2.6,1-4.2,1.9
		c-1.6,0.9-2.8,1.8-3.5,2.4c0.3,0,1,0.1,1.9,0.3c0.9,0.2,2.3,0.3,4.2,0.3C277.6,133.4,278.8,132.9,278.8,131.8z M273.3,152.2
		c-2,0.6-3.4,1.5-4.2,2.7c1-0.3,2.6-0.6,4.6-0.6c2-0.1,3.8-0.2,5.4-0.4v-2.6C277.2,151.3,275.2,151.6,273.3,152.2z"/>
	<path class="st0" d="M317.8,247.9c-0.8-0.8-1.2-1.7-1.2-2.7c3.9-11.8,7.3-20.9,10-27.4l3.1-7.7l1.5-3.8l4.6-10.5
		c4.8-11.1,8-18.7,9.7-22.8c0-2.9-1.1-6.2-3.3-10c-0.7-1-1.5-2.7-2.6-5.1c-2-5.1-4.5-11.6-7.3-19.3c-2.8-7.8-5.2-14.2-7-19.3
		c-2-2.9-4.5-7.5-7.4-13.8c-2.9-6.3-4.6-10.1-5.1-11.3c-5-10.6-8.7-18.5-11.3-23.7c-2.6-5.2-5.3-9.8-8.2-13.7c0-1.7,1.3-2.6,3.8-2.6
		c1.5,0,4,0.2,7.4,0.5c3.4,0.3,6,0.5,7.7,0.5c3.1,0,6.3-0.4,9.7-1.3c4.1-0.7,7.1-1,9-1c1,0,2.8,2.6,5.4,7.9c0.5,1.2,1.7,3.7,3.7,7.6
		c2,3.8,3.7,6.9,5.2,9.1c2.4,3.4,4.8,7.4,7.3,11.9c2.5,4.5,3.7,7.8,3.7,9.9c3.9,9,6.6,15.1,7.9,18.3c1.4,3.2,2.1,4.8,2.3,5
		c0.7,0,1.3-0.2,1.8-0.6c0.5-0.4,0.9-1,1-1.7L384,88.6c0-2.4,1.3-7.6,4-15.7c2.6-8.1,4.9-13.8,6.8-17c0-1.2,0.5-2.1,1.4-2.8
		c0.9-0.7,2-1,3.2-1H428c0.9,0,2.6,0.5,5.1,1.4c2.6,0.9,3.8,1.6,3.8,1.9c0,3.6-0.6,7.2-1.9,10.9c-1.3,3.7-3.2,8.1-5.8,13.2l-2.3,4.9
		c-6.5,11.8-12.1,24.4-16.9,37.9c-2.7,7.3-4.9,12.6-6.4,15.9c-1.9,4.3-3.3,7.3-4.4,9c-2.2,4.3-3.9,7.9-5.1,11c-1.2,3.1-2,6.4-2.6,10
		L364,228.4c-0.2,0.5-0.8,2.7-1.8,6.7c-2,10.4-4.4,15.6-6.9,15.6c-0.2,0-2-0.5-5.6-1.5H321C319.7,249.1,318.6,248.7,317.8,247.9z
		 M307.7,63.4c0.7,1.5,1.4,2.4,2.3,2.9l10-5.4h-13.3C306.7,61.1,307,61.9,307.7,63.4z M318,65l-5.6,3.6l1,0.3c1,0,2.5-0.4,4.4-1.3
		c1.9-0.9,3.2-1.3,3.8-1.3c1,0,1.5,0.4,1.5,1.3l7.9-2.3c-0.2-1.2-0.6-2.4-1.4-3.7c-0.8-1.3-1.6-1.9-2.4-1.9
		C325.1,60.5,322,62.3,318,65z M313.2,77.3c0.6,1,1.6,1.5,2.9,1.5c1.5,0,3.5-0.7,6-2.2c2.5-1.4,4.8-3.1,6.9-4.9
		c2.1-1.8,3.2-2.9,3.2-3.5c-3.6,0-7.8,0.6-12.7,1.8c-4.9,1.2-7.3,2.4-7.3,3.6C312.3,75.1,312.6,76.3,313.2,77.3z M325.2,77.7
		c-5,2.5-7.9,4.2-8.6,5.2c2.7,0,6.8-0.5,12.2-1.4c5.4-0.9,8.3-2,8.8-3.2c0-0.2-0.2-0.9-0.5-2.3c-0.3-1.4-1.1-2-2.3-2
		C333.5,74,330.3,75.2,325.2,77.7z M318,90.2c0.7,1.3,1.4,2.2,2,2.7c1.4-1.2,4.1-2.6,8.2-4.1c4.9-1.9,7.7-3.4,8.2-4.6l-9.2-0.3
		c-6.3,0-9.8,1.1-10.5,3.3C316.8,88,317.3,89,318,90.2z M323.8,101.9c1,1.4,2,2,2.8,2c0.7,0,3.5-1.3,8.6-4c5-2.6,8-4.5,8.8-5.5
		c-1.7-0.3-3.2-0.5-4.4-0.5c-2.7,0-6.3,0.5-10.8,1.4c-4.4,0.9-6.7,1.9-6.7,2.9C322.3,99.3,322.8,100.5,323.8,101.9z M342.3,243.5
		c2.4,0,6,0.2,10.8,0.5c0.5,0,1-1.4,1.5-4.1c0.5-2.7,0.8-5,0.8-6.9h-1l-16.6,7.9l-2,0.3c-1.4,0-2.1-0.5-2.3-1.5
		c0.9-0.9,2.2-1.9,4-3.1c1.8-1.2,3-2,3.7-2.3l-4.6-2.6l-9.7,5.6l-2.3,4.4C328.3,242.9,334.2,243.5,342.3,243.5z M326.7,92.9
		c2.7,0,4.9-0.2,6.7-0.6c1.7-0.4,3.5-1,5.4-1.8c1.9-0.8,3.4-1.4,4.6-1.9c0-1.2-0.4-2.4-1.3-3.6C335,87.9,329.9,90.5,326.7,92.9z
		 M337.9,105c0.5-0.2,1.7-0.6,3.7-1.3c2-0.7,4-1,6-1l2.6,0.3c0-1.9-0.9-4.1-2.6-6.7l-18.7,11C331.5,107.3,334.5,106.5,337.9,105z
		 M338.7,229c4.8-2,7.3-3.2,7.7-3.7c-3.2,0.7-6.7,1-10.2,1c-1.9,0-3.2-0.1-4.1-0.3c1.2-2.2,3.9-3.3,8.2-3.3c1.5,0,2.8,0.2,3.8,0.5
		c1,0,2.8-0.9,5.4-2.6c2.6-1.7,6.7-4.6,12.5-8.7c0-0.3-0.1-0.6-0.4-0.8c-0.3-0.2-0.5-0.3-0.6-0.3l-2.3,1c-1.2,0.3-3.3,0.7-6.4,1
		c-7.2,1-12.8,2.6-17,4.7c-4.2,2.1-6.3,6.1-6.3,11.9v2.3C330.7,231.9,333.9,231,338.7,229z M332,116.2c8-3.6,13.6-7.3,16.6-11.3
		c-4.3,0.9-8.5,2-12.7,3.6c-4.2,1.5-6.3,2.7-6.3,3.6C329.7,113.3,330.5,114.7,332,116.2z M334.3,119.3c0.2-0.2,2.4-0.6,6.7-1.3
		c8.9-1.2,13.3-2.6,13.3-4.1c0-0.9-0.4-2.7-1.3-5.6C344.5,111.2,338.3,114.9,334.3,119.3z M336.4,128.3c1.4-1.2,3.9-2.8,7.7-4.9
		c4.1-2.4,6.7-4.1,7.9-5.1c-1,0.2-3.8,0.7-8.4,1.5c-4.6,0.9-7.7,1.8-9.2,2.8C334.8,123.6,335.5,125.5,336.4,128.3z M338.9,209.9
		c1.4,0,4.8-1.3,10.2-3.8c5.5-2.6,9.4-4.6,11.8-6.1c-2.6,0-7.1,0.9-13.7,2.6c-6.6,1.7-9.9,3.4-9.9,5.1
		C337.4,209.2,337.9,209.9,338.9,209.9z M337.7,131.3c0.2,0.2,0.8,0.3,1.8,0.3c2.7,0,6.6-0.6,11.6-1.7c5-1.1,8.3-2.1,9.9-2.9
		l-3.6-6.7l-9.7,4.4C345.3,126.9,341.9,129.1,337.7,131.3z M342,140.3l7.7-4.4l6.7-4.6c-2.2,0-5.4,0.6-9.5,1.9
		c-4.1,1.3-6.1,2.5-6.1,3.7C340.7,138.3,341.2,139.4,342,140.3z M341,197.6c1.9-0.5,5.3-1.7,10.2-3.6c4.9-1.9,9.6-3.7,14.1-5.4
		l1-0.8l-2.3-1l-21.8,8.4L341,197.6z M353.2,229.6c0.3,0.9,0.7,1.3,1.4,1.3c1.2,0,2.4-1.1,3.6-3.2c1.2-2.1,1.8-3.8,1.8-5
		c-0.7,0-2.3,0.5-5,1.5c-2.6,1-4.7,1.8-6,2.3c-2.4,1-5,2-7.9,3.1c1.4,0,3.1-0.2,5.2-0.6c2.1-0.4,3.7-0.6,4.7-0.6
		C352.2,228.4,352.9,228.8,353.2,229.6z M365.1,202.5c-2.7,1.5-6.7,3-11.8,4.4c-3.9,1-6.8,2-8.6,2.8c-1.8,0.9-2.7,2-2.7,3.6
		c2.6-2.4,8.6-3.8,18.2-4.1l5.1-0.5c1.9-0.2,3.9-2.9,6.1-8.2c2.2-5.3,4.7-12.1,7.4-20.5c0.5-1.2,0.9-2.3,1.2-3.2
		c0.3-0.9,0.6-1.8,0.9-2.4c-0.7,0-3.1,1-7.3,3.1c-4.2,2-6.3,3.3-6.3,3.8l-19.7,7.4c2.4,0,6.1-0.7,11.3-2c4.6-1.5,8.5-2.3,11.8-2.3
		c1.2,0,2,0.1,2.6,0.4c0.5,0.3,0.8,0.9,0.8,1.9c0,1-1.8,2.3-5.2,4c-3.5,1.6-8.6,3.7-15.2,6.3c-1.2,0.5-2.8,1.2-4.9,2
		c-2,0.9-3.2,1.4-3.3,1.5c2.9,0,6.9-0.9,12-2.6c0.7-0.2,2.3-0.6,4.7-1.3c2.5-0.7,4.8-1,7-1C369.2,198.7,367.8,201,365.1,202.5z
		 M345.9,151.6c2.9,0,7.6-1.9,14.1-5.6c6.5-3.8,10.8-6.7,13.1-9c-0.9,0.2-5.9,1.5-15.1,4c-9.2,2.5-13.8,4.7-13.8,6.5
		C344.1,150.2,344.7,151.6,345.9,151.6z M362.6,175.5c-4.2,1.1-7.8,2.5-10.8,4.2c-3,1.7-4.8,3.7-5.5,5.9c9.2-2.4,15.9-4.6,20-6.7
		c1.2-0.7,2.9-2.1,5.1-4.4c1.5-1.7,2.9-3,4-3.8c1.1-0.9,2.3-1.3,3.5-1.3c1.4,0,2.6,0.6,3.8,1.8c2.2-7,6.3-16.6,12.3-28.9
		c-0.2,0.2-0.9,0.6-2.3,1.3c-1.4,0.7-3.5,1.4-6.4,2c-0.2,0.5-0.5,1.2-0.9,1.9c-0.4,0.8-0.9,1.3-1.4,1.7l-24.3,12l20-3.1v2l-9,5.4
		c-0.7-0.2-3.9,1.3-9.7,4.5c-5.8,3.2-8.7,5.1-8.7,5.8l0.8,0.8l14.3-4.4l3.3,1C369.5,173.7,366.8,174.4,362.6,175.5z M350.7,162.6
		c0.7-0.5,1.9-1.3,3.7-2.4c1.8-1.1,3.5-2.3,5.2-3.5c0.9-0.5,2.5-1.1,4.9-1.8c4.3-1,7.1-2.6,8.4-4.9c2.2-3.9,9.5-7.5,21.8-10.8
		l1.3-1.3c-0.9,0-2,0.3-3.6,0.8s-2.8,0.8-3.8,0.8s-1.7-0.2-1.9-0.5c-0.3-0.3-0.4-1.1-0.4-2.3l4.9,0.3c3.8,0,6.1-1.1,7.2-3.3
		l6.7-14.3c-0.3-0.2-0.6-0.3-0.8-0.3c-1.4,0-3.8,0.4-7.4,1.3c-3.6,0.9-6.7,2-9.5,3.3c0.5,0,1.7-0.2,3.5-0.5c1.8-0.3,3.5-0.5,5.2-0.5
		c1,0,2.6,0.3,4.6,1c0,1.7-2.5,4.1-7.4,7.2c-5,3.1-8.6,4.6-11,4.6c1.2-1.7,4.7-4.5,10.5-8.4l-6.4-1c-0.7,1.5-2,2.3-3.8,2.3
		c-1.5,0-3.7-0.8-6.4-2.3c3.2-2,8.3-4,15.1-5.9c6.5-1.7,11.1-3.4,13.8-5.1c-1.5,0-3.5,0.2-5.9,0.5c-2,0.5-4.2,0.8-6.4,0.8
		c-1.2,0-1.9-0.4-2-1.3c1.9-1,3.8-1.6,5.8-1.8c2-0.2,3.4-0.3,4.2-0.5c3.8-0.3,7-2.6,9.9-6.8c2.8-4.2,4.2-8.5,4.2-12.9l-15.4,5.4
		l-2-0.3c-0.5,0-1,0.1-1.5,0.4c-0.5,0.3-1.1,0.6-1.8,0.9c-4.6,1.9-7.6,3.4-8.8,4.5c-1.3,1.1-2.6,3.3-4,6.5c-0.2,0.9-1.1,3.1-2.8,6.7
		c-0.3,1-1,2.4-2,4.2s-1.8,2.9-2.3,3.5l-3.3,1.3c0.5,0.2,0.8,0.5,0.9,0.9c0.1,0.4,0.1,0.9,0.1,1.4c0,0.9-0.2,2-0.5,3.3
		c-0.3,1.4-0.5,2.8-0.5,4.4c1-0.7,2-1.2,3.1-1.7c1-0.4,1.8-0.7,2.3-0.9c1.2,0,2.4,0.5,3.6,1.5c-0.9,2.7-2.6,4.8-5.1,6.3
		c-2.6,1.5-6.3,3-11.3,4.7c-3.8,1.2-6.6,2.3-8.6,3.5c-2,1.1-2.9,2.6-2.9,4.5c1.5,0,3.3-0.4,5.4-1.3c0.5-0.2,1.4-0.4,2.6-0.8
		c1.2-0.3,2.3-0.5,3.3-0.5l-2,2.3c-0.7,0-3.1,0.6-7.2,1.9c-4.1,1.3-6.1,2.1-6.1,2.4l2,4.6H350.7z M363.8,133.1c-1.9,0-4.7,1-8.4,2.9
		c-3.8,2-5.6,3.3-5.6,4c0.2,0.2,0.5,0.3,0.9,0.5c0.4,0.2,0.8,0.3,1.2,0.3c2.2,0,5-0.7,8.3-2.2c3.3-1.4,5-3.2,5-5.2
		C364.9,133.2,364.5,133.1,363.8,133.1z M362,166.9c0,0.2,0.2,0.4,0.6,0.6c0.4,0.3,0.8,0.4,1.2,0.4c0.7-0.5,1.8-1.6,3.5-3.2
		c1.6-1.6,2.4-2.9,2.4-3.7c-2,0-5.5,0.9-10.2,2.8c-4.8,1.9-7.7,3.6-8.7,5.1l2.3,2.3L362,166.9z M359.2,220.9c2,0,3.8-1.9,5.4-5.6
		c-1.2,0-2.5,0.3-3.8,0.9c-1.4,0.6-3.3,1.7-5.9,3.5C355.5,220.5,356.9,220.9,359.2,220.9z M367.4,149l4.4,0.3
		c-0.2,0.7-0.9,1.2-2.3,1.5c-1.4,0.3-2.4,0.5-3.1,0.5c-0.3,0-0.6-0.1-0.8-0.4c-0.2-0.3-0.3-0.6-0.3-0.9
		C365.3,149.3,366,149,367.4,149z M396.4,100.9c5.5-1,9.2-1.5,10.9-1.5c1.5,0,2.3,0.9,2.3,2.6l-0.3,1l-18.7,9.7
		c-0.9,2-2.8,3.1-5.9,3.1c0-2,0.9-3.4,2.6-4.1l15.4-7.9h-16.4C387.5,102.8,390.9,101.9,396.4,100.9z M389.8,88.6
		c-2.5,3.8-3.7,6.5-3.7,8.2c0,0.9,0.4,1.4,1.3,1.5l6.4-1.3c5.1-0.9,9.4-1.8,12.8-2.9c3.4-1.1,5.9-2.6,7.4-4.5
		c-8.7,0-15.1-0.3-19.2-1c0.2-1.2,1.2-2.4,3.1-3.7c1.9-1.3,4.7-3,8.4-5.2l5.4-3.3c-1.9,0.7-3.8,1-5.6,1h-3.3c-2,0-3.9,0.5-5.6,1.5
		C394.7,81.6,392.2,84.8,389.8,88.6z M398.1,64.9c-1,1.5-1.8,3.2-2.2,5.4c-0.4,2.1-0.8,3.8-1.2,5c3.1-1.4,9-3.2,17.7-5.6
		c5.8-1.5,9.1-2.6,10-3.1c-0.7,0.2-1.9,0.3-3.6,0.3c-1.2,0-2.6-0.5-4.1-1.4c-1.5-0.9-2.8-1.4-3.8-1.4c-0.7,0-1.2,0.1-1.5,0.3
		l2.3-2.3l17.4,1.3c0.5,0,1-0.6,1.4-1.9c0.4-1.3,0.7-2.2,0.9-2.7h-25.9c0.9,1.2,1.3,2.1,1.3,2.8c0,0.7-0.4,1-1.3,1
		c-0.7,0-1.3-0.2-1.8-0.5C401,62.5,399.1,63.4,398.1,64.9z M407,82.6c-3.4,2.1-6.3,3.7-8.7,4.7l3.1,0.3c1.2,0,3.7-0.4,7.4-1.3
		c2.6-0.9,4.8-1.3,6.7-1.3c1.7,0,3,0.4,3.8,1.3l5.4-12.3c-1.9,0.5-3.8,1.5-5.6,2.8c-3.1,1.7-5.2,2.6-6.4,2.6v-1
		C412.3,79,410.5,80.4,407,82.6z"/>
	<path class="st0" d="M678,55c3.2,2,4.7,5,4.7,8.7c0,7-3,19.2-9,36.7c-6,17.5-11.9,33-17.7,46.5c-1,6.7-2.8,13.8-5.4,21.5
		s-5.3,11.5-8.2,11.5c-1.4,0-3.8-0.8-7.4-2.3h-19.7l-2-2.3c-0.5-1.2-1.4-3.2-2.7-6.1c-1.3-2.9-2.3-5.6-3.2-8.2
		c-0.5-1.4-0.9-3.2-1.2-5.6c-0.3-2.4-0.5-4-0.6-4.9c-0.7-6-1.5-10.2-2.6-12.5c-0.7-1.7-1.3-3.2-1.8-4.5c-0.5-1.3-0.9-2.4-1.3-3.5
		c-1.5-5.5-3.8-10.2-6.7-14.1c-1.5,1.5-2.3,2.6-2.3,3.3c0.2,0.3,0.5,0.8,1,1.3c0.5,0.5,0.9,0.8,1.3,0.8h-3.3c-0.2,0-2,5.5-5.6,16.6
		c-0.2,0.7-0.4,1.5-0.6,2.4c-0.3,0.9-0.6,2-0.9,3.2c-2.7,10.8-5.5,20.1-8.4,27.9c-2.9,7.8-6.1,11.8-9.7,11.8l-22.8-5.9l-6.9,0.3
		c-2.2-1.4-4.4-5-6.4-10.9c-2-5.9-3.8-12.2-5.1-18.9c-1.4-6.7-2-11.5-2-14.2c0-1,0.1-1.8,0.3-2.3L509.4,84c-0.2-1.7-0.6-4.9-1.2-9.7
		c-0.6-4.8-1.5-9.3-2.8-13.7c-1.3-4.4-2.9-6.5-5-6.5l-1,0.3c0.2-0.9,0.6-1.7,1.3-2.4c0.7-0.8,1.4-1.2,2-1.2c0.3,0,3.3,0.5,9,1.5
		c5.6,1,10.8,1.7,15.4,2c0.3,0.2,0.9,1.3,1.8,3.5c0.9,2.1,1.4,3.6,1.8,4.5c0.7,2.2,1.4,4.3,2.3,6.3c0.9,2,1.5,3,2,3.2l9.7,21.2
		c1.9,20.1,3.7,32.2,5.4,36.1l3.6-3.1l2.8-6.4c1-2.2,2.9-6.4,5.8-12.5c2.8-6.1,4.4-10.2,4.7-12c-1.2-0.2-1.8-1.4-1.8-3.6
		c1.4,0,2.5-0.8,3.5-2.4c0.9-1.6,1.4-3.1,1.4-4.5c0-1.5,0.7-4.2,2-7.9c2-6.1,3.6-12.1,4.6-17.9c0-1.9,0.6-3.5,1.9-4.7
		c1.3-1.3,4.2-1.9,8.8-1.9c7.3,0,12.5,0.8,15.6,2.3c0.7,2.4,2,5.4,4.1,9c3.4,6.1,5.1,10.8,5.1,14.1c0,1-0.1,1.8-0.3,2.3l6.7,16.4
		c-0.2,0.5-0.3,1.5-0.3,3.1c0,2.2,0.9,7.6,2.7,16.3c1.8,8.6,3.5,14,5.2,16c0.7-1.2,1-2.6,1-4.4l-0.3-3.3c0-2.4,0.9-4.2,2.6-5.4
		c2.7-18.6,8.2-36.7,16.4-54.3c0-0.9,0.2-2.8,0.6-5.8c0.4-3,0.7-5.1,0.9-6.3h16.4C670.2,52,674.8,53,678,55z M521.5,63.6
		c-2,0.6-4.2,1.2-6.4,1.7c2.6,1.2,4.6,2,6.3,2.6c1.6,0.5,3.5,0.8,5.8,0.8c-0.9-2.6-1.3-4.4-1.3-5.4c0-0.5,0.1-0.9,0.3-1.3
		C525,62.5,523.5,63,521.5,63.6z M515.1,73.2c2.4,0,4.2-0.9,5.4-2.6c-1.5-0.7-3.3-1-5.4-1V73.2z M517.1,88.6c0.7-1.2,1.4-2,2.3-2.6
		c0.9-0.5,2-1.1,3.3-1.7c1.4-0.6,2.5-1.2,3.3-1.7l-2.3-2h-7.9c-0.2,0.3-0.3,1-0.3,2C515.6,85.2,516.1,87.2,517.1,88.6z M529.9,75.4
		c-1.2-1.4-2.1-2.7-2.8-3.7c-1,0.2-2,0.6-2.9,1.3c-0.9,0.7-1.6,1.1-1.9,1.3c-2.4,1.4-4,2-4.9,2c-0.7,0-1.1-0.1-1.3-0.3v1.3
		c0,0.2,0.7,0.3,2.2,0.5c1.4,0.2,2.7,0.3,3.7,0.5l6.4,1.3l3.3,0.3C531.7,78.3,531.1,76.8,529.9,75.4z M525,95.4
		c1.7-0.4,2.8-0.9,3.3-1.4c-1-0.7-2.7-1.3-5-1.9c-2.3-0.6-4-1.5-5-2.7c-0.3,1-0.5,1.8-0.5,2.3c0,1.5,0.9,3,2.6,4.4
		C521.8,96,523.3,95.8,525,95.4z M523.8,107.3c0.9-0.3,2.1-0.7,3.8-1c1.7-0.3,3-0.8,3.8-1.3c-2.4-0.5-5.3-1.3-8.7-2.3
		c-0.3,0.3-0.5,0.9-0.5,1.5C522.2,105.7,522.7,106.8,523.8,107.3z M528.8,85.2c-2.3,0.7-4.3,1.4-6,2c0.5,1,2.5,2,5.9,3.1
		c2.2,0.7,3.8,1.3,4.9,1.8c1,0.5,1.5,1.4,1.5,2.6c0,0.7-1.7,1.6-5,2.8c-3.3,1.2-5.4,1.8-6.3,1.8l13.3,3.3l1,1l1.3-1
		c0-2.4-0.6-5.6-1.7-9.6c-1.1-4-2.6-7-4.5-9.1C532.6,84.1,531.1,84.6,528.8,85.2z M534.9,106.8c-1.6,0.7-2.7,1.1-3.2,1.3
		c-3.1,1.4-5.4,2.1-6.9,2.3c1.5,0.7,3.9,1.5,7.2,2.3c3.2,0.9,5.7,1.3,7.4,1.3v-8.2C538,105.7,536.5,106.1,534.9,106.8z M531.1,114.4
		c-1.8-0.5-3.6-0.8-5.5-0.8c0,3.2,0.5,5.5,1.5,6.7c0.5-1.2,1.6-2,3.2-2.6c1.6-0.5,3.2-0.8,4.7-0.8
		C534.2,115.8,532.9,114.9,531.1,114.4z M527.1,123.6c1.5,0.7,3.9,1.2,7.2,1.5c3.2,0.3,5.6,0.9,7.2,1.8l0.3-3.1
		c0-1.9-0.2-3.3-0.5-4.2c-0.3-0.9-0.9-1.4-1.8-1.4c-0.9,0-1.8,0.5-2.7,1.5c-0.9,1-1.6,1.5-1.9,1.5l-3.8-0.3
		C529.2,121.1,527.9,121.9,527.1,123.6z M537.1,132.6c-2,0-3.7,0.2-5,0.6c-1.3,0.4-1.9,1.3-1.9,2.7l0.3,1c0.2-0.2,0.5-0.4,1-0.8
		c0.5-0.3,0.9-0.5,1.3-0.5c0.7,0,2.1,0.4,4.2,1.3c2.1,0.9,3.6,1.3,4.5,1.3l1-0.3c-0.2,1.2-0.9,2.1-2.2,2.8c-1.3,0.7-2,1.6-2.2,2.8
		c0.9,0.2,2,0.4,3.3,0.6c1.4,0.3,2.5,0.4,3.3,0.4c0.7,0,1.2-0.2,1.7-0.6c0.4-0.4,0.6-1,0.6-1.7c-0.7-0.7-2.2-5.5-4.6-14.3l-3.1,3.3
		c0-1.2-0.8-2-2.4-2.3c-1.6-0.3-3.7-0.5-6.3-0.5l-2.3,0.3v1.5L537.1,132.6z M532.7,139l-2.3,0.3v2.3c3.2,0,5.5-0.4,6.7-1.3
		C536.1,139.4,534.6,139,532.7,139z M565.8,150l-18.7-4.4l-2.3,0.5h-14.3c0.2,1,0.7,2.5,1.7,4.5c0.9,2,1.5,2.9,1.7,2.9L565.8,150z
		 M544.2,168.4c3.1,0,8.8-1.3,17.2-3.8c-2.6,0-6.5-0.3-11.8-0.9c-5.3-0.6-9.9-1.5-13.8-2.7v1.8c0,1.2,0.3,2.9,1,5.1
		c0.7,2.2,1.5,3.3,2.6,3.3c1.5,0,2.3-0.3,2.3-0.8c0-0.3-0.1-0.8-0.4-1.3c-0.3-0.5-0.4-0.9-0.4-1.3
		C542.3,168.3,543.4,168.4,544.2,168.4z M572.4,154.4l-9.5-0.3c-9.9,0-18.2,0.9-24.8,2.6c1.4,0.5,2.6,0.9,3.7,1
		c1.1,0.2,2,0.3,2.7,0.5c4.6,1.2,7.7,2.1,9.2,2.8c0,0.2,0.1,0.4,0.4,0.8c0.3,0.3,0.5,0.5,0.6,0.5l2-1.3c1.9,0,3.6,0.3,5.1,0.8
		c0.5,0,1.4,0.1,2.6,0.4c1.2,0.3,2.2,0.4,3.1,0.4l2.6-0.3L572.4,154.4z M566.9,171.6c0.6-1.8,1-3.1,1.2-4c-2.9,0-7.1,0.5-12.5,1.5
		c-5.5,1-8.7,2-9.7,3.1c2,0,5.1,0.3,9.2,1c4.4,0.7,7.8,1,10,1C565.7,174.3,566.3,173.4,566.9,171.6z M554.1,134.4
		c-0.6,1.9-0.9,3.6-0.9,5.1c1.2,0,2.5-0.7,4-2.2c1.4-1.4,2.5-2.3,3.2-2.7l-0.3,1.8c0,0.7,0.4,1.2,1.3,1.5c0.9,0.3,2,0.5,3.3,0.5
		c2,0,4.3-0.3,6.8-0.9c2.5-0.6,4.2-1.2,5.2-1.9c-1.7-0.2-3.5-0.6-5.5-1.2c-2-0.6-3.4-1-4.2-1.2c-4.8-1.4-8.2-2-10.2-2
		C555.6,131.5,554.7,132.5,554.1,134.4z M577.8,140.3c-1.9,0-4.9,0.3-9,1c-4.1,0.7-6.9,1-8.4,1c-0.3,0-0.6-0.1-0.9-0.4
		c-0.3-0.3-0.4-0.5-0.4-0.6l-4.4,2.3c3.2,0.3,9.8,2.1,19.7,5.4L577.8,140.3z M561.1,124.4l0.3,1.5l13.1-3.3v-1
		c-1-0.2-2.9-0.5-5.5-0.9c-2.6-0.4-4.8-0.9-6.5-1.4C561.6,121,561.1,122.7,561.1,124.4z M581.5,128.9c0.4-1.4,0.7-2.4,0.9-2.9
		l-0.3-1.3c-2,0.5-4.5,0.9-7.4,1.3c-6.5,0.7-10.6,1.7-12.3,3.1l17.7,3.6C580.6,131.6,581.1,130.3,581.5,128.9z M567,113.9
		c1.7-0.5,4.3-0.9,7.7-1.3c2.9,0,5.4-0.3,7.4-1l-12.8-6.7L567,113.9z M585,116.7c0-1-0.1-1.7-0.3-2h-5.6l-1.3,2.3
		c-1.2-0.7-2.3-1-3.3-1c-1.4,0-2.8,0.3-4.4,1l13.3,4.4C584.4,120.5,585,119,585,116.7z M594.3,96.6c1.8,0.4,3.2,0.6,4.2,0.6
		c2.6,0,4.1-1.1,4.6-3.3l-2.3,1h-18.7c-1.5,0-2.3,0.3-2.3,0.8l0.3,1.3c0,0.9-0.8,1.3-2.3,1.4c-1.5,0.1-2.9,0.2-4,0.4
		c-1.1,0.2-1.7,0.9-1.7,2.3c0,0.2,0.4,0.7,1.3,1.5c6.1,3.8,10.5,5.6,13.1,5.6c1,0,1.5-0.8,1.5-2.3c0-0.7-0.3-1.6-0.8-2.8
		c-0.5-1.2-0.8-2-0.8-2.6c0-1.2,0.3-2.3,1-3.2c0.7-0.9,1.5-1.4,2.6-1.4S592.5,96.2,594.3,96.6z M593.7,86.5c-1,0.2-3.4,0.6-7,1.3
		c-3.7,0.7-6.5,1.3-8.6,1.9c-2,0.6-3.2,1.2-3.6,1.9l34.3,1.3c0-3.9-0.9-8.3-2.8-13.1c-1.9-4.8-3.3-7.2-4.4-7.2
		c-3.4,0-7.3,0.7-11.6,2c-4.4,1.4-8.4,3-12.2,4.9h22.8l3.8,4.4C604.4,84.5,600.8,85.3,593.7,86.5z M579.1,83.7
		c-2.4,0.9-3.6,2-3.6,3.6c2.6,0,5.6-0.6,9.2-1.8c0.9-0.2,1.9-0.4,3.2-0.8c1.3-0.3,2.8-0.6,4.5-0.8l-1.3-1.3l-4.6-0.3
		C583.9,82.4,581.5,82.9,579.1,83.7z M578.6,74.8l1,0.5c1.4-0.3,3.6-0.9,6.8-1.8c3.2-0.9,5.8-1.7,8.1-2.6l-4.9-0.8
		C583.2,70.1,579.6,71.7,578.6,74.8z M579.1,57.3c0.2,0.5,0.5,1.8,0.9,3.8c0.4,2,1.1,3.1,1.9,3.1c2,0,4.8-0.7,8.2-2.2
		c3.4-1.4,5.2-3,5.4-4.7H579.1z M600.3,63.4c-0.5-1.1-1.4-1.7-2.6-1.7l-14.3,6.9c1.5,0,3.2-0.1,5.1-0.3c1.9-0.2,3.3-0.3,4.4-0.5
		c2.6-0.5,5.3-0.8,8.2-0.8C601.1,65.7,600.8,64.5,600.3,63.4z M597.5,108.9c1.5,0.9,3.3,1.4,5.4,1.4c1,0,2.6-0.7,4.9-2
		c2.2-1.4,3.7-2.1,4.4-2.3v-1c0-0.9-2.2-1.3-6.7-1.3c-2.6,0-6.2,0.4-11,1.3C594.9,106.7,596,108,597.5,108.9z M600.1,100.6
		c0.9,0.7,1.9,1,3.1,1c0.7,0,1.9-0.2,3.7-0.6c1.8-0.4,3.2-0.6,4.2-0.6V98C606.3,98,602.6,98.9,600.1,100.6z M601.1,116.6
		c0.3,0.3,1,0.4,2,0.4c3.4-0.2,6.1-0.5,7.9-1c-2.9-1-5.4-1.5-7.4-1.5c-1.5,0-2.7,0.1-3.6,0.3C600.4,115.7,600.7,116.4,601.1,116.6z
		 M610.6,120.2c-2.2,0.4-4.3,0.8-6.1,1.2c0.5,0.2,2.2,0.6,5,1.4s4.8,1.2,6,1.2V119C614.4,119.4,612.8,119.8,610.6,120.2z M609.8,129
		c1.7,0,3.6-0.3,5.6-1c-1.7-0.3-3.4-0.6-5-0.9c-1.6-0.3-2.7-0.4-3.2-0.4C607.2,128.3,608.1,129,609.8,129z M608.8,133.6
		c7.3,2.2,11.1,3.4,11.3,3.6c0-1.4-0.4-3.3-1.3-5.9C614,131.3,610.6,132.1,608.8,133.6z M614.1,146.9c0.9,0,2.2-0.5,4-1.5
		c1.8-1,2.8-1.8,2.9-2.3c0-2-3.4-3.1-10.2-3.1C610.8,144.6,611.9,146.9,614.1,146.9z M648.7,152.1c-3.2,0-5.9,0.5-7.9,1.5
		c0.3,0.3,0.5,0.8,0.5,1.3c0,0.7-0.6,1.2-1.7,1.4c-1.1,0.3-1.8,0.4-2.2,0.4l6.7,2.3c0,1.2-0.5,2.2-1.5,2.9c-1,0.8-2.6,1.6-4.6,2.6
		c-2,0.9-3.1,1.8-3.1,2.4l0.3,2h-13.1c-0.5,0-1.2-0.3-2.2-1c-0.9-0.7-1.4-1.3-1.4-1.8c0-1.5,2.8-2.6,8.4-3.3
		c3.6-0.7,5.4-1.3,5.4-1.8c0-0.7-0.9-1.4-2.6-2h-13.3c-0.2-1.7-1.1-2.6-2.8-2.6c0,3.2,0.9,6.7,2.8,10.5c1.9,3.8,3.8,5.6,5.6,5.6
		l4.1-0.3c3.2,0,6.4,0.3,9.3,0.8c3,0.5,4.7,1.3,5.2,2.3C646,164.3,648.7,156.5,648.7,152.1z M629.5,148c-1.7,0.2-3.1,0.3-4.1,0.3
		v-1.8c-1.4,0-5.1,1.6-11.3,4.9l9.7,0.3c4.1,0,7.5-0.5,10.2-1.5c0.2,0.2,0.3,0.4,0.5,0.8c0.2,0.3,0.6,0.5,1.3,0.5
		c3.1-1.5,5.8-2.3,8.2-2.3c-1.9-0.9-4.7-1.3-8.4-1.3C633.2,147.7,631.2,147.8,629.5,148z M624.1,155.6c1.5,0.3,3.2,0.6,5,0.8
		c1.8,0.2,3,0.3,3.7,0.3c0.9,0,1.6-0.3,2.3-1H624.1z M629.8,139.3c0.9,0.7,2,1,3.6,1c1,0,2.5-0.1,4.4-0.3c1.9-0.2,3.7-0.4,5.4-0.8
		H629.8z M633.8,130.6c7,0,11.9-1.2,14.6-3.6h-13.3C634.3,128.2,633.8,129.4,633.8,130.6z M657.1,123.4c1.2-0.9,2.7-3.3,4.6-7.4
		c-3.2,0-8.2,0.6-14.7,1.8c-6.6,1.2-10.1,2.4-10.6,3.6c0.9,1.2,2.8,2,5.8,2.6c3,0.5,6.1,0.8,9.3,0.8
		C654.1,124.7,655.9,124.2,657.1,123.4z M650.7,142.3c-1.9,0-4.3,0.3-7.3,1c-3,0.7-5,1.2-6,1.5l-1-0.3l1,1h13.3V142.3z M640.6,113.4
		c-2.1,0.5-3.2,1.5-3.2,2.8c1.4,0,4.2-0.5,8.4-1.4c4.3-0.9,6.9-1.7,7.9-2.2C647.2,112.6,642.8,112.9,640.6,113.4z M654.5,134.5
		c0.6-0.9,0.9-2.3,0.9-4.2c-7.5,0-12.7,0.8-15.6,2.3l-1,1c2.2,1,4.1,1.7,5.5,1.9c1.4,0.3,3.4,0.4,5.8,0.4
		C652.4,135.9,653.9,135.5,654.5,134.5z M665,107.4c0.6-2.1,1-3.7,1.2-4.7l-26.4,5.4c7.2,1,12.9,1.5,17.2,1.5c2.2,0,3.8-0.1,4.9-0.3
		c0.5,0.9,1,1.3,1.5,1.3C663.8,110.6,664.4,109.5,665,107.4z M656.6,101.1c4.6-0.9,7.8-1.4,9.5-1.8c-10.4-1.5-18.9-2.3-25.3-2.3v7.9
		C644.7,103.3,650,102,656.6,101.1z M643.1,90.9c1.5,0,4-0.4,7.4-1.3c3.4-0.9,7.8-2,13.3-3.6l0.3-1.3c-3.9,0-7.3-0.2-10.1-0.5
		c-2.8-0.3-4.7-1.1-5.5-2.3l2.3-2.3l17.7-5.6c-1.5-0.7-3.5-1.2-5.8-1.5c-2.3-0.3-3.7-0.6-4.2-0.8v-1l-9,1c-0.7,1.9-1.9,5-3.7,9.5
		c-1.8,4.4-2.7,6.9-2.7,7.4V90.9z M669.4,89.3c-4.1,0-8.5,0.4-13.2,1.2c-4.7,0.8-8.7,1.9-12.2,3.5l3.3,1h21L669.4,89.3z M666.1,59.1
		c3.8-0.3,7.1-0.5,10-0.5c-1.4-1-2.9-1.7-4.6-1.9c-1.7-0.3-3.9-0.4-6.7-0.4c-1.2,0-2.4,0.2-3.6,0.5c-1.2,0.3-2.1,0.5-2.8,0.5
		c-0.9,0-2.3-0.2-4.4-0.6c-2-0.4-3.6-0.6-4.6-0.6v2c1.7,0,2.6,2.4,2.6,7.2c1.5,0,3.8-0.3,6.8-1c3-0.7,5.1-1.4,6.3-2.3h-6.7v-2.6
		L666.1,59.1z M675.6,66.3c0.3-2.4,0.5-3.8,0.5-4.4c-1.4,1.2-2.9,2-4.6,2.4c-1.7,0.4-4,0.8-6.9,1.2c-3.9,0.3-7.1,1-9.5,2
		c0.2,0.3,1.5,0.7,4.1,1.2c2.6,0.4,4.3,0.7,5.1,0.9c5.5,0.7,9,1.4,10.8,2C675.1,70.5,675.2,68.7,675.6,66.3z M672.8,76.8
		c-1.7,0-5,0.6-9.9,1.9c-4.9,1.3-7.5,2.3-7.8,3.2l4.4-0.3c1.9,0,4,0.2,6.3,0.5c2.3,0.3,4,0.6,5,0.8
		C672.1,80.9,672.8,78.8,672.8,76.8z"/>
	<path class="st0" d="M802.9,153.6c2,0.7,4.6,1.1,7.8,1.3c3.1,0.2,5.2,0.6,6.5,1.2c1.3,0.6,1.9,2,1.9,4.2c0,1-0.2,2.7-0.5,5
		c-0.3,2.3-0.5,6.2-0.5,11.6l-1,1.3h-12.3c-0.7,0.9-2.5,1.3-5.4,1.3c-2.6,0-4.8,0-6.7-0.1c-1.9-0.1-3.9-0.5-6.1-1.2
		c-1.9-0.5-4.4-2.2-7.7-5.1c-0.3-0.3-1.1-1-2.3-1.9c-1.2-0.9-2.3-1.7-3.2-2.2c-0.9-0.5-1.9-0.8-2.9-0.8c-2.4,2-6.5,4.4-12.3,7
		c-5.8,2.6-10.4,4-13.8,4c-7.5,0-14.3-0.7-20.2-2c-1-0.2-3.2-0.6-6.5-1.2c-3.3-0.6-6.3-1.5-8.8-2.8c-2.6-1.3-4.4-2.9-5.4-5
		c-2.6-4.9-4.4-9.1-5.6-12.5c-1.2-3.4-2.2-7.6-3.1-12.5c-1-1.4-1.5-2.8-1.5-4.4c0-7,1.1-12.3,3.3-15.9c2.2-3.6,5.6-7.3,10.2-11
		c2.2-1.7,4.4-3.7,6.7-5.9c4.3-3.6,8.8-6.1,13.7-7.6c4.9-1.4,10.4-2.2,16.5-2.2l5.9,0.5c2.9,0,5.1,0.2,6.7,0.5V95
		c0-4.9-0.3-8.6-0.8-11c-0.5-2.4-1.8-4.3-3.8-5.6c-2-1.4-5.5-2-10.2-2c-5.1,0-9.6,0.6-13.6,1.9c-3.9,1.3-9.1,3.5-15.6,6.5
		c-2,1.2-3.5,1.8-4.4,1.8c-1,0-1.8-0.4-2.3-1.3l0.3-3.3c0-2.2-0.3-5.5-1-10c-0.9-3.8-1.3-7.1-1.3-10c0-2.6,1.7-4.7,5.2-6.4
		c3.5-1.7,6.8-2.7,9.9-3.1l20-4.1c1,0.2,2.3,0.5,3.8,1c1.5,0.5,2.7,0.9,3.6,1c1.4,0.2,4.4,0.7,9.1,1.5c4.7,0.9,8.9,1.9,12.7,3.2
		c3.8,1.3,7.5,2.9,11.3,4.7c4.3,5.1,7.8,12.4,10.8,21.8c2.9,9.4,4.4,17.5,4.4,24.3c0,1.5-0.2,3.2-0.5,4.9c-0.3,1.7-0.6,2.9-0.8,3.6
		c-0.9,2.9-1.3,5.5-1.3,7.9c0,2,0.3,4.2,0.9,6.5c0.6,2.3,1.3,4.6,2.2,6.8c2,6,3.2,10.3,3.6,13.1C799.4,151.3,801,152.9,802.9,153.6z
		 M706.9,145.4c2.1-2,3.3-3.5,3.5-4.4c-0.9,1.2-2.5,2.3-5,3.5c-2.5,1.1-3.8,1.8-4,1.9l0.8,2.3C703.2,148.6,704.8,147.5,706.9,145.4z
		 M703.5,133.5c-1,1.8-1.5,3-1.5,3.7l0.3,2.6c3.9-1.4,5.9-2.8,5.9-4.4c-1.7,0-2.6-0.5-2.6-1.5c0-0.5,0.3-1,0.8-1.5
		c0.5-0.5,0.8-1,0.8-1.5C705.7,130.8,704.5,131.7,703.5,133.5z M709.2,155.4c1.3-1.2,3-2.5,5.2-3.8c3.2-2.4,5.4-4.3,6.4-5.6h-3.1
		c2.4-1.2,4.2-2.6,5.4-4.2c1.2-1.6,2.5-3.9,3.8-6.8c1-2.4,2.3-4.7,3.8-6.9c1.4-1.9,4.7-4.9,10-9c-0.5-0.2-1-0.5-1.4-0.9
		c-0.4-0.4-0.7-0.8-0.9-1.2c0.7-1,2.6-3.2,5.9-6.4c1.5-1.2,3.2-2.7,4.9-4.6c-3.4,1-7.3,2.8-11.5,5.2c-4.3,2.5-7.3,4.7-9.2,6.8
		c-1.4,1.5-3.2,3-5.6,4.4c-2.4,1.5-4.1,3-5.1,4.4c1.5,0,2.6,0.4,3.1,1.3c1.2-1.7,2.7-3.2,4.6-4.6c1.9-1.4,3.7-2,5.4-2
		c0.2,0,0.4,0.2,0.6,0.6c0.3,0.4,0.4,0.8,0.4,1.2c-0.7,0.7-2.6,2-5.6,4.1c-4.1,3.1-6.1,4.7-6.1,4.9l-1.5-2l-4.1,2h2.8
		c0,0.2,0.1,0.3,0.3,0.5c0.2,0.2,0.3,0.4,0.3,0.8c-0.7,0.5-1.5,1-2.6,1.5c-1,0.5-1.8,1.1-2.3,1.7c-0.5,0.6-0.8,1.3-0.8,2.2l4.9-2
		c0.7,0,1.2,0.3,1.5,1c2.4-2.7,4.5-4.1,6.4-4.1c0,1.2-1.1,2.7-3.3,4.5c-2.2,1.8-5.2,4-9,6.5c-5,3.4-8,5.8-9.2,7.2
		c0.7,0,2.1-0.6,4.2-1.9c2.1-1.3,4.7-2.9,7.8-4.7c0,1-0.4,1.9-1.3,2.7c-0.9,0.8-2.1,1.7-3.8,2.7c-3.6,2.2-5.5,4.1-5.9,5.6
		c0,0.2,0.2,0.8,0.6,1.8c0.4,1,1,1.5,1.7,1.5C707.1,158,708,156.6,709.2,155.4z M705.5,126.7l3.3,1.5c0.7,0,1.8-0.6,3.5-1.9
		c1.6-1.3,2.7-2.2,3.2-2.7c2-1.4,3.7-2.5,4.9-3.5c1.2-0.9,2.3-2.1,3.3-3.5c0.7-1,2.3-2.8,4.9-5.4l1,2.3l1.3-5.6
		c-2,0-5.1,0.9-9.2,2.8c-4.1,1.9-8.4,4.3-12.8,7.2c0.2,0.7,0.6,1,1.3,1l1.8-0.3c0,0.9-0.5,2.1-1.4,3.8c-0.9,1.7-2,2.6-3.2,2.6
		c-0.7,0-1.3-0.3-1.8-0.8V126.7z M709.5,66c0.4,0.3,0.8,0.5,1.2,0.5c0.5,0,2.8-1.2,6.8-3.7c4-2.5,6-4.2,6-5.2
		c-0.9,0-3.2,0.5-6.9,1.4c-3.8,0.9-6.3,1.7-7.7,2.2c0,0.2,0.1,0.4,0.4,0.6c0.3,0.3,0.6,0.4,0.9,0.4c-0.2,0.2-0.4,0.4-0.8,0.6
		c-0.3,0.3-0.5,0.7-0.5,1.4C708.9,65.1,709.1,65.7,709.5,66z M723.2,164.5c3.1-3.3,4.6-6,4.6-8.1c0-1-0.6-1.6-1.8-1.8
		c-1.2-0.2-1.8-0.6-1.8-1.3c0-0.2,0.1-0.5,0.4-0.9c0.3-0.4,0.5-0.6,0.6-0.6l-2.3-4.4l-4.1,3.6c-3.1,2.4-4.6,4.1-4.6,5.1l0.3,1.3
		c1-0.5,2.1-0.9,3.3-1.3c1.2-0.3,2.2-1,3.1-2c0,1.4-0.5,2.4-1.4,3.2c-0.9,0.8-2.3,1.6-4,2.4c-2,1-3.5,2-4.4,2.8
		c-0.9,0.9-1.3,2-1.3,3.6l0.3,1c0.7,0.5,1.5,1,2.6,1.4c1,0.4,2,0.7,2.8,0.9C717.6,169.5,720.1,167.8,723.2,164.5z M748.3,61.4
		c-8.5,5.1-13.3,7.7-14.3,7.7h-2.3c-0.5-0.5-0.8-1-0.8-1.5c0-0.9,0.6-1.9,1.9-3.1c1.3-1.2,2.1-2,2.4-2.3h-1.3l-9.7,5.6l-1.5-0.3
		c-1.5,0-3.4,0.4-5.6,1.3c-0.5,0.2-1.4,0.4-2.7,0.8c-1.3,0.3-2.3,0.5-3.2,0.5v9.7c2.4-0.7,5.6-2,9.7-4.1c3.1-1.5,5.7-2.7,7.8-3.5
		c2.1-0.8,4.5-1.2,7-1.2l2.8,0.3L748.3,61.4z M733.2,102c2.2-0.9,3.3-1.7,3.3-2.4c-3.6,0.5-6.5,1.4-8.7,2.7
		c-2.2,1.3-5.3,3.2-9.2,5.8l10.8-4.4C729.7,103.5,731,103,733.2,102z M731.3,57.2c-2.3,1.1-4.3,2.3-5.9,3.5
		c-1.6,1.2-2.7,2.5-3.2,3.8c5.5-1.5,11.7-4.4,18.7-8.7c-1.4-0.7-2.9-1-4.6-1C735.2,55.3,733.6,56.1,731.3,57.2z M736.4,171.6
		c0.6-0.6,1-1.1,1.2-1.4c0-0.3-0.2-0.7-0.5-1c-0.3-0.3-0.5-0.6-0.5-0.8c1,0,2.8-1.2,5.2-3.7c2.5-2.5,3.7-4.2,3.7-5.2
		c-0.5,0-1.3,0.1-2.4,0.4c-1.1,0.3-2.3,0.4-3.7,0.4c0-1,0.1-1.5,0.3-1.5c-0.3,0-1.2-0.2-2.6-0.6c-1.4-0.4-2.6-0.6-3.6-0.6
		c-1.7,0-3.4,1-5,2.9c-1.6,2-2.7,3.9-3.2,5.8c1.2-0.7,2.8-1,4.9-1h2.8c-0.3,0.2-1,0.8-2,1.8c-1,1-1.8,1.9-2.3,2.6
		c0,1,0.2,1.7,0.6,1.9c0.4,0.3,1.2,0.4,2.2,0.4c1.7,0,3-0.5,3.8-1.5v2.3C735.4,172.5,735.8,172.2,736.4,171.6z M760.1,131.1l0.3-6.1
		c0-4.8-1.5-7.2-4.4-7.2c-3.2,0-6.8,1.4-10.6,4.1c-3.8,2.7-7.1,6.1-9.7,10.1c-2.6,4-4,7.7-4,11.1c0,4.1,0.9,6.7,2.8,7.9
		c1.9,1.2,4.4,1.8,7.7,1.8c3.4,0,6.9-0.6,10.4-1.9c3.5-1.3,6-3.2,7.6-5.8l0.3-6.9L760.1,131.1z M733.9,108.8c1,0,2.7-0.7,5.1-2
		c3.2-1.7,6.3-3,9.2-4c2.9-0.9,6.5-1.4,10.8-1.4c-3.2-1-6.7-1.5-10.5-1.5C741.4,99.8,736.5,102.8,733.9,108.8z M739.6,60.4
		c-1.9,2.4-2.8,4.1-2.8,5.1c0.9-0.9,2.8-2.2,5.9-4.1c3.1-1.9,4.9-3,5.4-3.3c-0.3-0.2-1-0.4-2-0.6c-1-0.3-1.8-0.5-2.3-0.6
		C742.8,56.8,741.5,58,739.6,60.4z M773,157.4c0.6-0.2,1-0.5,1.3-0.9c0.3-0.4,0.6-1.2,1.2-2.4c-1.4,0.9-3.2,1.5-5.6,2
		c-2.4,0.5-4.4,0.8-6.1,0.8v-4.4c-0.7-0.5-1.5-0.8-2.6-0.8c-2,0-4.1,0.9-6.3,2.8c-2.1,1.9-4.1,3.9-5.9,6c-1.8,2.1-2.8,3.2-2.9,3.2
		c1.2,0,3.5-1.1,6.8-3.3c3.3-2.2,5.8-4,7.3-5.4c1,0.3,1.5,1.2,1.5,2.6c-6.7,5.6-13.6,10.6-20.7,14.8l5.1,0.3c3.6,0,7.4-0.8,11.5-2.4
		c4.1-1.6,7.2-3.8,9.2-6.5c0.7-0.9,1.3-1.7,1.8-2.7c0.5-0.9,1.4-1.8,2.6-2.7C771.7,158,772.4,157.6,773,157.4z M780.2,81.5
		c-0.6,0.6-2.3,0.9-5,0.9c-0.2,0-0.4-0.1-0.8-0.3l1-2.3c0-0.2-0.1-0.4-0.4-0.6s-0.5-0.4-0.6-0.4c-2.6,1.5-5.2,2.5-7.8,2.9
		c-2.6,0.4-4.1,0.8-4.2,1.2c0,1,0.4,2.3,1.2,3.7c0.8,1.5,1.3,2.2,1.7,2.2c0.5-0.5,1.7-1.4,3.5-2.7c1.8-1.3,3-1.9,3.7-1.9
		c0.3,0.2,0.7,0.4,1.2,0.6c0.4,0.3,0.7,0.4,0.9,0.4c-1.5,0-2.3,0.7-2.3,2l0.3,1.3c0.9-0.7,1.9-1.3,3.1-1.8c1.2-0.5,2.2-0.8,3.1-0.8
		c0.2,0,0.4,0.4,0.8,1.3c0.3,0.9,0.5,1.6,0.5,2.3c-1.7,1.4-4.1,3.1-7,5.2c-3,2.1-5.2,3.7-6.8,4.7c2,0,4.1-0.3,6.1-0.8
		c2.7-0.3,4.8-0.5,6.1-0.5c1.7,0,2.9,0.4,3.6,1.3c-1,1.7-2.5,2.8-4.4,3.3v-1.5c-5.3,0-8.9,0.5-10.8,1.5c-0.5,0.2-2,1.4-4.5,3.7
		c-2.5,2.3-4.1,3.5-4.7,3.5c-0.5,0-0.8-0.3-0.8-0.8c0.2,0,0.4-0.3,0.8-0.9c0.3-0.6,0.6-1,0.8-1.2c-7.3,3.1-12.5,6.3-15.4,9.7
		c4.4-2.9,8.8-4.4,13.1-4.4c0.3,0,0.8,0.1,1.4,0.3c0.6,0.2,1.2,0.4,1.7,0.8c1.4-0.2,4.3-1.3,8.7-3.3c5.5-2.7,9.2-4.1,11.3-4.1
		c0.3,0.2,1.4,0.4,3.3,0.6c1.9,0.3,2.8,0.6,2.8,1.2c0,1-0.3,1.8-0.8,2.4c-0.5,0.6-1.5,1.4-2.9,2.3c-1.5,0.9-2.3,2-2.4,3.2
		c0.3-0.2,0.9-0.3,1.8-0.3c1.5,0,2.6,0.4,3.3,1.3c1.2-1.4,1.9-2.9,2.2-4.6c0.3-1.7,0.4-3.8,0.4-6.4c0-3.1-0.6-8.1-1.8-15
		c-1.2-6.9-2.3-10.4-3.3-10.4C781.2,80.6,780.8,80.9,780.2,81.5z M752.2,71.3c0.9-0.6,1.4-1.3,1.4-2.2c-0.3,0-1.5,0.1-3.3,0.4
		c-1.9,0.3-3,0.9-3.3,1.9c0.5,0.5,1.3,0.8,2.3,0.8S751.3,71.9,752.2,71.3z M763.6,63.5c-0.5,0.3-1.2,1.1-2,2.2
		c-0.9,1.1-1.5,1.9-1.8,2.4c-1.5,2.7-2.8,4.4-3.8,4.9l0.8,0.5l15.6-6.9c0,0.2,0.1,0.4,0.4,0.8c0.3,0.3,0.5,0.5,0.6,0.5
		c0.3-0.2,0.7-0.4,1.2-0.6c0.4-0.3,0.7-0.5,0.9-0.6c0-0.7-2.1-2.1-6.3-4.2c-4.2-2.1-6.7-3.2-7.6-3.2H759l-9.7,6.4l-1,2.3
		c1.4-1,3.5-2,6.5-3.1c3-1,5.3-1.5,7-1.5L763.6,63.5z M751.4,59.1c-1,0.9-1.7,1.9-2,3.1l1,0.3c1.2,0,2.2-0.5,3.1-1.5
		c0.9-1,1.3-2,1.3-3.1C753.5,57.9,752.4,58.3,751.4,59.1z M766.3,75.3c2.8-1.7,4.8-3,6-3.8l-1.3-0.3c-1,0-3.5,0.7-7.3,2.2
		c-3.8,1.5-5.8,2.5-5.8,3.2c0,1.5,0.7,2.3,2,2.3C761.4,78.2,763.5,77,766.3,75.3z M771.6,90.9c-0.7,0.2-2.6,0.9-5.8,2.2
		c-3.2,1.3-4.7,2.3-4.7,2.9c0,0.3,0.1,0.7,0.4,1c0.3,0.3,0.5,0.5,0.6,0.5c1.9,0,4.6-1,8.2-2.9c3.6-2,6-4,7.2-6
		C777.3,88.7,775.3,89.5,771.6,90.9z M768.4,117.8c1.3-1.2,2.4-1.8,3.5-1.8c0.3,0,0.6,0.3,0.9,0.9c0.3,0.6,0.5,1,0.6,1.2
		c0.3-1.2,1.1-2.5,2.3-4c1.2-1.4,2.3-2.3,3.3-2.7c-2.7,0-5.8,0.8-9.1,2.3c-3.3,1.5-5,3.5-5,5.9C765.9,119.6,767.1,119,768.4,117.8z
		 M778.1,71.6c-0.4-1.1-0.9-1.9-1.4-2.4l-2.3,0.8c0.7,0.2,1,0.7,1,1.5c0,0.5-0.1,0.9-0.3,1.3c-0.2,0.3-0.3,0.7-0.3,1l-2.6-0.5
		c-0.2,0.2-1.2,1.1-3.1,2.7c-1.9,1.6-2.8,2.6-2.8,2.9c1.4-0.3,3.6-1.1,6.7-2.2c3.1-1.1,5-2.1,5.9-2.9
		C778.8,73.4,778.5,72.7,778.1,71.6z M774.8,120.3c-2.3,0.5-4.2,1.2-5.8,1.9c-1.5,0.8-2.3,1.9-2.3,3.5c0,3.4,0.3,6,1,7.7l11.3-11
		l0.8-3.3C778.7,119.4,777.1,119.8,774.8,120.3z M774.5,149.8c2-1.2,4.4-3.1,7.3-5.6c3.2-2.7,4.9-4.2,5.1-4.4l-9,2
		c-5,1-7.9,1.9-9,2.6c-1,0.7-1.5,2.1-1.5,4.4v3.1C770.2,151.6,772.6,151,774.5,149.8z M773.4,134.7c-1.7,0.5-3.6,0.8-5.6,0.8v5.6
		c1.2-1.4,2.5-2.4,4-3.1c1.4-0.7,2.9-1.2,4.4-1.7c1.4-0.4,2.4-0.7,2.9-0.9v-1.3C777.6,134.1,775.8,134.3,773.4,134.7z M780.4,130.7
		c2.5-0.9,3.7-2.1,3.7-3.5c0-2.9-0.3-4.5-1-4.9c-0.5,0-1.3,0.2-2.4,0.6c-1.1,0.4-1.7,1-1.7,1.7c0,0.3,0.3,0.7,0.8,1l-5.4,6.4
		C775.9,132.1,777.9,131.6,780.4,130.7z M779,162.8c1-1.5,1.7-2.6,2-3.3c-0.2,0-1.2,0.3-2.9,0.8c-1.8,0.5-2.7,1.4-2.7,2.6
		c0,1.5,0.6,2.3,1.8,2.3C777.4,165.1,778,164.4,779,162.8z M779.8,137.7h2.6c1.4,0,2.4-0.2,3.2-0.6c0.8-0.4,1.2-1.3,1.2-2.7
		C784,134.9,781.6,136,779.8,137.7z M788.1,143.7c-0.8,0.4-1.2,0.6-1.4,0.6l0.8-2.3c-0.9,0.3-2.2,1.3-4,2.8c-1.8,1.5-3,2.8-3.7,3.8
		c0.7-0.3,1.7-0.9,3.1-1.5c1.4-0.7,2.6-1,3.8-1l0.8,0.3l1.3,4.6l-9,4.1v1c0.5-0.2,1.2-0.3,2-0.5c0.9-0.2,1.6-0.3,2.3-0.5l2.6,0.3
		c0,0.3,0.1,0.8,0.4,1.4c0.3,0.6,0.4,1.1,0.4,1.4c0,0.5-0.7,1.2-2.2,2c-1.5,0.9-2.2,1.6-2.2,2.3c0.2,0,1.3-0.4,3.3-1.3
		c2-0.9,6-2.6,11.8-5.1c-0.9-0.9-2-1.9-3.6-3.2c-1.5-1.3-2.8-2.6-3.7-4c-0.9-1.4-1.4-2.8-1.4-4.4l0.3-1.5
		C789.4,143.1,788.9,143.3,788.1,143.7z M786.7,148.7c-1,0.2-2.6,1.2-4.9,3.1L786.7,148.7z M787.5,166.1l-5.6,2
		c0.2,0.2,0.5,0.6,1,1.2c0.5,0.6,1.3,0.9,2.3,0.9L787.5,166.1z M785.1,132.1v-1l-2,1H785.1z M792.3,164.9c-1.2,1.9-1.8,4.5-1.8,7.9
		l8.2-8.4c0.5-0.5,0.8-1.2,0.8-2c0-0.9-0.3-1.3-0.8-1.3C795.6,161.7,793.5,163,792.3,164.9z M811.9,167.7c0.4-3.2,0.7-5.7,0.9-7.4
		c-1.4,0-4.7,2.5-10,7.4c-2.6,2.6-4.4,4.2-5.4,4.9h13.1C811,172.5,811.5,170.9,811.9,167.7z M802.6,162.3c-0.3,0.9-0.6,1.6-0.8,2.3
		c0.3,0,1.2-0.6,2.7-1.9c1.4-1.3,2.4-2.1,2.9-2.4c-0.3-0.3-1.2-0.9-2.7-1.5c-1.5-0.7-2.3-1.1-2.4-1.3c0.5,1,0.8,2,0.8,2.8
		C803.1,160.8,802.9,161.5,802.6,162.3z"/>
	<path class="st0" d="M866.3,101.9c4.1,2.2,10.8,4.9,20.2,7.9c8.7,2.7,15.8,5.3,21.2,7.8c5.5,2.5,10.2,6,14.1,10.5
		c3.9,4.5,5.9,10.4,5.9,17.5c0,7.3-2.3,14-6.9,20.1c-4.6,6.1-10.5,10.5-17.7,13.2c-1.2,0.5-3.1,1.4-5.6,2.7c-2.6,1.3-5,1.9-7.4,1.9
		c-2.6,0-6.2,0.2-11,0.5l-11.3,0.3c-3.6,0-7-0.4-10.2-1.2c-3.2-0.8-7.3-2-12-3.7c-4.4-1.5-8.2-2.7-11.3-3.5
		c-3.1-0.8-6.2-1.2-9.5-1.4l-1-1.3V149c0-0.7,1.1-1,3.3-1c3.6,0,9.3,1.6,17.2,4.9c4.8,1.7,8.7,3,11.9,4c3.2,0.9,6.2,1.4,9.1,1.4
		c1.9,0,3.7-0.2,5.5-0.6c1.8-0.4,3.8-1.1,6-1.9c-0.2-0.3-0.3-0.9-0.3-1.5c0-1.5,0.6-3.3,1.8-5.4c1.4-2.7,2-4.9,2-6.4
		c0-3.9-1.5-6.7-4.4-8.4c-2.9-1.7-7.2-3.2-12.8-4.4c-5.1-1-8.7-2.2-10.8-3.6c-1-0.7-2.7-1.7-5-3.1c-2.3-1.4-4.2-2.6-5.8-3.8
		c-1.5-1.2-2.3-2.2-2.3-3.1c-2.6-0.7-5.3-3.4-8.2-8.2c-2.9-4.8-5-9-6.4-12.8l-1-6.4c0-10.9,3.8-19.8,11.3-26.6
		c7.5-6.8,16.9-10.2,28.2-10.2c1.4,0.2,3.2,0.5,5.4,0.9c2.2,0.4,4.6,0.8,7.2,1.2c17.4,3.2,28.7,4.9,33.8,4.9c1.5,0,2.9,2.5,4.2,7.4
		c1.3,5,1.9,9.9,1.9,14.8c0,6.7-1.2,10-3.6,10l-1-0.3c-1.9-3.2-4.4-5.5-7.4-6.8c-3.1-1.3-6.3-2.2-9.6-2.8c-3.3-0.6-5-1.1-5-1.4h-3.6
		c-6.1,0-11.9,0.9-17.3,2.6c-5.4,1.7-8.1,5-8.1,10C860.2,96.4,862.2,99.7,866.3,101.9z M830.5,169c5.1-0.9,9.2-3.1,12.3-6.7
		c-0.5,0-1-0.1-1.4-0.4c-0.4-0.3-0.7-0.4-0.9-0.4c-1.5,0-3.7,0.5-6.4,1.5c-2.7,1-4.3,2.3-4.6,3.8C829.4,167.8,829.8,168.4,830.5,169
		z M830.5,89.6h2.3c0.7,0,5.5-1.9,14.3-5.6c8.9-3.8,15.5-6.7,20-8.7c2.7-1.5,6.2-3.5,10.5-5.9c4.3-2.4,7.8-4.4,10.5-6.1
		c-0.9-0.7-2.9-1.2-6.1-1.5c-0.3,0-1.1,0-2.2-0.1c-1.1-0.1-2-0.3-2.7-0.6c-0.7-0.3-1.1-0.8-1.3-1.3l-22,11c2.4,0,4.8-0.5,7.3-1.5
		c2.5-1,4-1.6,4.5-1.8c4.4-2.2,8.2-3.3,11.3-3.3c0.7,0,1.3,0.2,1.8,0.5c0.5,0.3,0.8,0.8,0.8,1.3c0,0.3-10,5-30,13.8h-2.3l-16.6,9
		V89.6z M835.2,78c-3.2,2-4.7,4-4.7,6c8.4-2,13.9-4.9,16.6-8.7l-2.3-0.3C841.5,75,838.3,76,835.2,78z M850.4,85
		c-4.6,1.9-8.4,3.6-11.4,5.2c-3,1.6-5.5,3.6-7.6,6c2,0,4.2-0.6,6.4-1.9c2.2-1.3,3.6-2.1,4.1-2.4c4.3-2.9,7.7-4.4,10.2-4.4
		c0,0.7-0.8,1.5-2.3,2.6c-1.5,1-2.5,1.7-2.8,2c-2.7,1.7-4.5,3.1-5.4,4.1c0.7-0.2,2-0.6,3.8-1.4c1.9-0.8,3.8-1.4,5.9-1.9
		c0.2,0,1.2-1.6,2.9-4.7c1.8-3.2,3.8-5.2,6-6.3v-1.3C857.7,82.2,854.3,83.6,850.4,85z M842.7,64.8c-2.9,1.2-5.2,2.3-6.8,3.3
		c-1.6,1-2.4,2.6-2.4,4.9h1.5c2,0,8.8-2.6,20.2-7.7l5.1-2c-1.7-0.2-2.6-0.4-2.6-0.8c0-0.3,1.1-1.1,3.3-2.2c2.2-1.1,3.4-2.3,3.6-3.5
		c-6.8,0-11.3,0.9-13.3,2.8l-3.3,2.3C847.8,62.8,846,63.7,842.7,64.8z M844.7,101.4c3-1.9,5.2-3.6,6.8-5.1c-2,0.9-5,1.6-8.7,2.3
		c-4.1,0.7-7.1,1.4-9,2c0.2,2.4,1.3,3.6,3.3,3.6C839.2,104.2,841.7,103.3,844.7,101.4z M837.4,170.2c4.1,0,13.2-1.5,27.4-4.6
		c-3.1-2.2-9-3.3-17.7-3.3c-1.4,1-3.5,2.5-6.5,4.5c-3,2-4.5,3-4.5,3.2L837.4,170.2z M843.1,112.1c0.4,1,0.8,1.7,1.2,2
		c0.9,0,2.9-1.2,6-3.6c3.2-2.4,4.7-3.9,4.7-4.6c-0.2-0.2-0.5-0.3-1-0.3c-1.4,0-3.5,0.6-6.5,1.7c-3,1.1-4.9,1.8-5.8,1.9
		C842.2,110.2,842.7,111.1,843.1,112.1z M847.9,174.1c2,0.3,3.6,0.5,4.6,0.5l11-4.9c-0.2,0-0.5-0.1-0.9-0.4
		c-0.4-0.3-0.8-0.4-1.2-0.4c-2.6,0.3-5.7,0.9-9.5,1.5c-3.8,0.7-6.8,1.3-9.2,1.8C844.1,173.1,845.8,173.7,847.9,174.1z M852.3,104.3
		c2.6-0.4,3.9-0.9,3.7-1.4l-2.3-3.6l-10,5.6h1.8C847.4,105,849.7,104.7,852.3,104.3z M849.4,117.9c2.2,0.9,3.7,1.4,4.4,1.4l12-6.7
		c-0.9,0.2-3.9,0.6-9.2,1.4c-5.3,0.8-8.8,1.4-10.5,1.9C846.1,116.3,847.2,117,849.4,117.9z M856.4,109.3c-2,1-3.6,1.8-5,2.3l2.3,1
		c0.2-0.3,1.5-0.7,4.1-1.2c2.6-0.4,4.4-0.8,5.6-1.2l1.3-1c-0.7-0.3-1.4-0.8-2.2-1.3c-0.8-0.5-1.4-0.9-1.9-1
		C859.8,107.5,858.4,108.3,856.4,109.3z M865.1,115.5c-2.6,1.2-4.7,2.8-6,4.9c4.9,0,12.4-1,22.3-3.1l7.7-1.3
		c-6.1-1.5-11.4-2.3-15.9-2.3C870.5,113.7,867.8,114.3,865.1,115.5z M914.9,161.5c1.2-1.7,1.8-3.3,1.8-4.9c-1.7,0-4.1,0.5-7.2,1.5
		l-10.8,3.1c-23.7,5.6-37,10.3-39.7,14.1c2,0,8.7-1.1,19.8-3.2c11.2-2.1,21.9-4.3,32.1-6.5C912.5,164.6,913.7,163.2,914.9,161.5z
		 M880.6,123.4c2.9-1.9,5.4-2.8,7.4-2.8v-1.3c-0.3,0.2-3.8,0.6-10.5,1.3c-5.8,0.3-10.2,0.7-13.1,1.2c-2.9,0.4-4.3,1.1-4.1,1.9
		c5.5,1.5,9.9,2.3,13.3,2.3C875.6,126,877.9,125.1,880.6,123.4z M898.8,174.6l-3.1-0.3c-1.2,0-2.9,0.2-5.1,0.5
		c-2.2,0.3-3.8,0.5-4.9,0.5c0.7,0,1-0.7,1-2l-15.4,4.4c0.5,0.5,1.1,0.9,1.7,1c0.6,0.2,1.2,0.3,1.9,0.3
		C883,178.9,891,177.5,898.8,174.6z M904.4,124.7l-6.4-2c-3.9-1.5-6.2-2.3-6.9-2.3c-0.5,0-2.6,1.2-6.1,3.5c-3.6,2.3-5.5,3.8-5.9,4.5
		C889,128.3,897.4,127.1,904.4,124.7z M879.1,161.3c0.2,0.3,0.5,0.8,1,1.3c0.5,0.5,0.9,0.8,1.3,0.8c0.9-2.7,4-5.2,9.5-7.6
		c5.5-2.3,13-4.9,22.5-7.8v-1.3c-5.8,1.9-12.1,2.8-18.9,2.8c-2,0-5-0.2-8.7-0.5C884.7,149.5,882.5,153.6,879.1,161.3z M890.4,63.2
		c-1.4,0-3.3,1.3-5.9,4c-2.6,2.6-4,4.1-4.4,4.5h1.3l13.3-7.7C893.7,63.5,892.2,63.2,890.4,63.2z M894.7,132.5c3.6-1.6,5.7-3,6.4-4.2
		c-2.7,0-6.4,0.4-10.9,1.2c-4.5,0.8-6.8,1.8-6.8,3.2c0,1.5,0.9,2.3,2.8,2.3C888.3,134.9,891.1,134.1,894.7,132.5z M901.1,65.3
		c-1.4,0-2.9,0.3-4.5,1c-1.6,0.7-2.9,1.3-3.8,1.9c-0.9,0.6-1.6,1-1.9,1.2c-3.2,2-5.4,3.2-6.4,3.6c2.6,0.7,4.9,1,6.9,1
		C895.3,74,898.6,71.1,901.1,65.3z M902,137.1c-2.1,0.4-3.7,0.8-4.7,1.2c-3.9,0.7-6.7,1.4-8.3,2c-1.6,0.7-2.4,2-2.4,3.8l0.3,2.8
		l26.6-12l-1.3-0.3c-0.7,0-1.4,0.1-2.2,0.4c-0.8,0.3-1.5,0.5-2.2,0.6C906.1,136.2,904.1,136.7,902,137.1z M907.8,129l-17.7,6.7v1.3
		c1.4-0.2,4.1-0.5,8.1-0.9c4-0.4,7.3-1,10-1.8c2.6-0.8,4.4-1.7,5.2-2.9C911.4,129.8,909.5,129,907.8,129z M915.5,137l-20.7,8.7
		l-1.3,1.3c5.5,0,11.3-0.3,17.4-0.9c6.1-0.6,9.2-1.7,9.2-3.5C920.1,138.8,918.5,137,915.5,137z M919.7,153.2
		c0.3-0.6,0.4-1.4,0.4-2.4c0-1.9-0.4-2.8-1.3-2.8l-22,8.7v1.5c2.6,0,5.9-0.9,10-2.8c0.3-0.2,1.7-0.7,4.1-1.5
		c2.4-0.9,4.7-1.3,6.9-1.3v2C918.8,154.3,919.4,153.8,919.7,153.2z M903.2,66.3c0,1.2-0.5,2.4-1.5,3.7c-1,1.3-1.6,2.1-1.8,2.4
		c0,0.2,0.1,0.4,0.3,0.6c0.2,0.3,0.4,0.4,0.8,0.4c0.5,0,1.5-0.7,2.9-2.2c1.4-1.4,2.4-2.3,2.9-2.7C906.1,67.1,904.9,66.3,903.2,66.3z
		 M908.8,73.7c-1.9,0-3.4,0.1-4.6,0.4c-1.2,0.3-2.2,1-3.1,2.2c2.9,0.9,5.5,1.3,7.7,1.3V73.7z"/>
	<path class="st0" d="M1021.6,45.7c0.3,0.3,0.4,0.9,0.4,1.9v24.1c0,1.7-0.5,3.1-1.5,4.2c-1,1.1-2.4,1.7-4.1,1.7
		c-0.7,0-2.6-0.3-5.6-1c-4.6-0.9-7.1-1.3-7.4-1.3c-1.4,0-3,0.1-5,0.4c-2,0.3-3.6,0.5-5,0.6c-1.5,3.4-2.3,7.3-2.3,11.8
		c0,6.7,0.5,13.6,1.5,20.9c1,7.3,1.6,11.5,1.8,12.7c1.9,10.9,3,20.1,3.3,27.6c0.3,1.5,1.6,2.3,3.8,2.3c1.5,0,3.4-0.3,5.5-0.8
		c2.1-0.5,3.8-0.8,5-0.8c2.6,0,4.2,1.2,4.9,3.6c0.7,2.4,1,5.5,1,9.2c0,10.8-1.1,16.1-3.3,16.1h-5.6c-8.7,0-16-0.5-21.8-1.4
		c-5.8-0.9-11.5-3-17.2-6.3c-6-3.4-10.4-9.3-13.2-17.5c-2.8-8.3-4.2-16.6-4.2-25c0-2.4,0.2-6,0.5-10.8c0.3-4.8,0.5-8.4,0.5-10.8
		c0-4.4-0.3-8.7-0.8-12.8c-0.3-5.5-0.5-9.6-0.5-12.5l0.3-4.4c-0.9-0.2-1.6-0.8-2.3-1.9c-0.7-1.1-1.3-1.7-1.8-1.7
		c-3.9,2.9-7,4.4-9.2,4.4c-0.9,0-1.3-0.8-1.3-2.3c0-2.9,0.8-5,2.3-6.4c-1.7-0.5-2.6-3.5-2.6-9l0.3-12c1.5-1,3.2-1.7,4.9-1.9
		c1.7-0.3,3.8-0.4,6.4-0.4c1.2,0,2.5,0.2,4,0.5c1.4,0.3,2.6,0.5,3.5,0.5l-0.3-11.5c-0.3-5.1-0.5-9-0.5-11.5c0-2.9,0.6-4.9,1.9-6
		c1.3-1.1,4.2-1.7,8.8-1.7c2,0,4.1,0.3,6.1,0.8c2.4,0.3,4.3,0.5,5.6,0.5c0.3,0,1.1-0.4,2.2-1.2c1.1-0.8,2-1.2,2.7-1.2
		c4.9,0,8,0.8,9.2,2.4c1.2,1.6,1.8,4.5,1.8,8.6c0,1.2,0.2,3,0.5,5.4c0.5,2,0.8,4.3,0.8,6.7l-0.5,7.7l25.1-1
		C1020.8,45.3,1021.3,45.4,1021.6,45.7z M944.1,69.2c0.2,0.3,0.6,0.4,1.3,0.4c1.5,0,4.9-2.3,10-6.9c5.1-4.6,7.8-7.4,7.9-8.4
		c-2,1.4-4.5,2-7.4,2V53h-11.3c-0.2,0.3-0.4,1.1-0.6,2.3c-0.3,1.2-0.4,2.3-0.4,3.3c0,0.7,0.2,1.8,0.6,3.5c0.4,1.6,0.6,2.9,0.6,4
		c0,1.2-0.4,2-1.3,2.6C943.8,68.8,944,69,944.1,69.2z M958.1,73.2c0.4,1,0.7,1.7,0.9,2l12.3-4.4c1.4-1.9,4.5-3.5,9.5-4.9
		c2.9-0.9,5.3-1.7,7.2-2.7c1.9-0.9,3.3-2.2,4.4-3.7h-3.3l-25.6,6.7l-0.8-1c-0.5,1.5-1.4,2.3-2.6,2.3c-0.7,0-2-0.4-4.1-1.3l-7.7,5.4
		h8.7C957.3,71.7,957.6,72.2,958.1,73.2z M966.9,77.3c-2.9,0.3-5,1-6.3,1.9c-1.3,0.9-1.9,3.1-1.9,6.5c0,1.5,0.1,2.8,0.3,3.8
		c1.7-2.6,3.5-4.5,5.2-5.8c1.8-1.3,4.1-2.7,7-4.2c3.1-1.2,5.6-2.6,7.7-4.4h-3.1C973.8,76.3,970.8,77,966.9,77.3z M969.2,122.6
		c-2.9,0.7-5,1.6-6.3,2.8c-1.3,1.2-2.6,4-4,8.4c4.1-2,8.3-4.6,12.7-7.7c4.4-3.1,7.2-5,8.6-5.9V119
		C976.6,120.7,973,121.9,969.2,122.6z M961.7,112.4c-1.1,1.5-1.7,3.5-1.7,5.9l0.3,2l17.7-10c-1.9,0-3.9,0.4-6.1,1.3
		c-0.5,0.2-1.4,0.4-2.6,0.8c-1.2,0.3-2.4,0.5-3.6,0.5l-2.3-0.3l1.3-1l18.7-6.7v-6.7c-2.2,0.2-5.3,1.7-9.2,4.5
		c-3.9,2.8-6.4,4.6-7.4,5.2C964.4,109.4,962.8,110.8,961.7,112.4z M969.2,89c-5.8,2-8.8,2.9-9,2.7v6.7h1c1.5,0,5.5-1.9,11.8-5.8
		c6.3-3.8,9.5-6.4,9.5-7.6l-0.3-0.8C979.4,85.4,975,87,969.2,89z M963.5,100.7c-1.5,0.9-2.5,1.9-3.2,2.9c0.9,0.2,1.3,1,1.3,2.6
		l-0.3,2l4.4-4.6c0,0.3,0.1,0.6,0.4,0.9c0.3,0.3,0.6,0.4,0.9,0.4c0.3,0,0.7-0.1,1.2-0.4c0.4-0.3,0.8-0.6,1.2-0.9
		c2-1.4,4.4-3.1,7.2-5.1c2.7-2,4.7-3.6,5.9-4.6l-14.3,5.4C966.4,99.3,964.9,99.8,963.5,100.7z M961.3,142.6l15.4-6.7v-1.5
		c-1.9,0.3-4.9,1.2-9.1,2.6c-4.2,1.4-6.3,2.1-6.3,2.3V142.6z M962.3,44.3c0.2,0.2,0.4,0.5,0.6,0.9c0.3,0.4,0.4,0.8,0.4,1.2
		c1.9,0,4.2-0.5,7-1.5c2.8-1,4.6-2.3,5.5-3.8l-4.4-0.3C965.4,40.7,962.3,41.9,962.3,44.3z M962.6,26.6c0.3,0.5,0.6,1,0.8,1.5
		c0.2,0.5,0.4,0.9,0.8,1.3c0.3,0.3,0.9,0.5,1.5,0.5c1.7,0,4.1-0.7,7.2-2c2.7-1.5,5.2-2.3,7.4-2.3c0.3-0.2,1.2-0.6,2.6-1.3
		c1.4-0.7,2.3-1.4,2.8-2c-1,0.2-2.5,0.3-4.4,0.3c-3.1,0-6.1-0.3-9-0.8c-1,0-2.5-0.1-4.4-0.4c-1.9-0.3-3.7-0.4-5.4-0.4V26.6z
		 M963.1,151.7c0.3,1.3,1.2,1.9,2.6,1.9c0.9,0,4.2-2,10.1-6.1c5.9-4.1,9.2-6.5,9.9-7.2c-0.9,0-1.7,0.1-2.4,0.3
		c-0.8,0.2-1.4,0.3-1.9,0.3c-1.7,0-5.2,0.7-10.6,2.2c-5.4,1.5-8.1,2.8-8.1,4C962.6,148.8,962.7,150.4,963.1,151.7z M986.9,120.3
		l-1.3-1c-1.4,1.9-3.2,3.6-5.4,5.1c-2.2,1.5-4.4,3-6.7,4.4c-4.1,2.4-7.1,4.4-9,6.1c2.2,0,4.6-0.5,7-1.5c2.5-1,4-1.6,4.5-1.8
		c4.4-2.2,8-3.3,10.8-3.3V120.3z M965.9,87.6c0.9,0,2.3-0.3,4.4-0.9c2-0.6,3.5-1.2,4.4-1.7c0.2-0.9,0.7-1.5,1.5-1.9
		c0.9-0.4,1.8-0.8,2.8-1.2c1.9-0.7,3.3-1.4,4.2-2.2c0.9-0.8,1.4-2,1.4-3.7c-1.9,0-5.2,1.5-10,4.4c-4.8,2.9-7.9,5.1-9.5,6.7
		C965.1,87.4,965.4,87.6,965.9,87.6z M986.7,33.4c0.8-1.4,1.5-3.7,2.2-6.8c-2.2,0-4.3,0.5-6.1,1.5c-1.9,1-4,2.5-6.4,4.4
		c-2,1.7-3.9,3-5.5,4c-1.6,0.9-3.4,1.4-5.2,1.4v1.8c2.2,0,5.4-0.7,9.5-2c3.8-1.4,6.7-2,8.7-2C985,35.6,986,34.9,986.7,33.4z
		 M978.7,49.4c-2.4,1-4.9,2-7.4,2.8c-2.6,0.9-4.4,1.5-5.6,2v4.9l20-11.5v-2.3C983.4,47,981.1,48.4,978.7,49.4z M989.7,53.6
		c-0.5-0.4-0.8-1-0.9-1.8c-0.1-0.8-0.6-1.2-1.7-1.2c-1.7,1.9-5.1,3.8-10.2,5.9c-5.5,2.2-9.2,4.4-11.3,6.7l10.2-2.3l0.8-1.3l1.3,1.3
		c1.4-1.2,4-2.1,7.9-2.8c2.7-0.7,4.6-1.3,5.8-1.8c1.1-0.5,1.7-1.2,1.7-2C991.4,54.3,990.2,54.1,989.7,53.6z M969.2,161.4
		c0.9,0.8,1.7,1.2,2.6,1.2c1.7,0,5.2-1.7,10.6-5s8.1-5.8,8.1-7.6h-1.5l-19.7,7.9c-0.9,0.3-1.3,0.7-1.3,1
		C967.9,159.8,968.4,160.6,969.2,161.4z M972.2,49.4c1.6-0.5,2.9-0.8,3.7-0.8l10.8-5.4c0-0.3,0.3-0.9,0.8-1.7s0.8-1.4,0.8-1.9
		c-1.7,0-5.4,1.4-11,4.2s-8.4,4.9-8.4,6.3C969.4,50.2,970.5,49.9,972.2,49.4z M985.9,113.9c0-2.4-0.5-3.6-1.5-3.6l-15.1,7.9
		c1.7,0,3.9-0.6,6.7-1.8c0.5-0.2,1.4-0.5,2.8-1c1.4-0.5,2.7-0.8,4.1-0.8c1.7,0,2.6,0.5,2.8,1.5L985.9,113.9z M983.7,162
		c-6.6,2.7-10.4,4.7-11.4,5.9h16.6c5.8-5.8,8.7-8.8,8.7-9v-1h-2C994.2,158,990.2,159.3,983.7,162z M981,146.3
		c-2.9,2.1-5.4,4.6-7.4,7.3c1.7-0.5,3.7-1.4,5.9-2.8c2.2-1.4,5.8-3.8,10.8-7.4c0-0.7-0.1-1.3-0.3-1.8
		C986.9,142.6,983.9,144.2,981,146.3z M987.9,133.6l-9.2,4.1l1.5,0.5c5.1-0.7,7.7-1.4,7.7-2.3V133.6z M1015.3,57.6
		c-5.5,1.2-11.3,3.1-17.4,5.6c-6.1,2.6-9.9,5.1-11.3,7.7l2.3-0.3c1.2,0,2.3,0.3,3.3,1c2.2,0,5.7-0.3,10.5-1c5.1-0.7,9-1,11.5-1
		L1015.3,57.6z M991,170h1.3c1.4,0,3.6-0.7,6.7-2.2c3.1-1.4,5.8-3.2,8.3-5.2c2.5-2,3.7-3.9,3.7-5.6L991,170z M1000.3,52.4
		c-3.3,0.9-5,1.8-5,2.4c0,0.2,0.3,0.6,1,1.4c0.7,0.8,1.2,1.4,1.5,1.9l-2.3,3.8l18.4-10c-0.7-0.7-2.1-1-4.4-1
		C1006.8,50.9,1003.6,51.4,1000.3,52.4z M1007.9,172.2c1.4-0.8,2-2.9,2-6.5l-14.3,6.7c0.5,0.2,1.2,0.4,2,0.6
		c0.9,0.3,1.6,0.4,2.3,0.4C1003.9,173.3,1006.5,172.9,1007.9,172.2z"/>
	<path class="st0" d="M1142.8,113.8c0.3,0.3,0.6,0.4,0.8,0.4c-1.5,0.7-2.3,1.4-2.3,2l0.3,1.5c0,1.7-4,3.3-12,4.7
		c-8,1.5-24.9,3-50.7,4.7c-0.5,0.2-1.9,0.3-4.1,0.3c-2.4,0-3.8-0.1-4.1-0.3c0.9,6,3.2,10.2,6.9,12.8c3.8,2.6,8.4,4.5,13.8,5.9
		c1.4,0.3,2.6,0.7,3.7,1.2c1.1,0.4,1.7,0.9,1.9,1.4l1-0.8h23.3c2.4,0,5.1-0.9,8.2-2.7c3.1-1.8,4.7-3,4.9-3.7c3.2,0,4.9,2.6,4.9,7.9
		l-0.3,6.4l0.5,9.2l1,0.8c-5.5,5.5-10.8,9-16,10.8c-5.2,1.7-11.7,2.6-19.6,2.6c-6.8,0-12.5-0.4-17.2-1.3c-5.3-0.3-10.2-1.2-14.8-2.7
		s-8.3-3.5-11-6.3c-2.4,0-5.2-0.8-8.3-2.4c-3.2-1.6-5.9-3.7-8.2-6.1c-2.3-2.5-3.5-5-3.5-7.6l0.3-1c-1.2-1.5-2.2-3.3-2.9-5.4
		c-0.8-2-1.4-4.2-1.9-6.4c-1.4-4.8-2.6-8.3-3.8-10.5v-2c-0.2-1.2-0.3-2.9-0.3-5.1c0-5.5,0.2-9.9,0.5-13.2c0.3-3.3,1.2-7.3,2.6-11.9
		c0.5-1.7,1.3-3.4,2.3-5.1c1.2-1.9,2.1-3.8,2.8-5.9c1.2-4.1,2.9-7.5,5.2-10.2c2.3-2.7,5.6-5.7,9.9-9c0.7-0.7,3.2-2.1,7.6-4.4
		c4.4-2.2,9-4.3,14-6.1c4.9-1.9,9.1-2.8,12.5-2.8c4.4,0,11,1.6,19.8,4.7c8.8,3.2,15.1,6.3,18.8,9.3c4.9,3.9,8.3,8.9,10.1,15
		c1.8,6.1,3.2,13.9,4.2,23.4c0,2.7-0.2,4.5-0.6,5.2c-0.4,0.8-0.6,1.4-0.6,1.9C1142.3,113.3,1142.4,113.5,1142.8,113.8z
		 M1138.4,114.2c-0.9-0.2-1.3-0.9-1.3-2l0.3-1c-1.9,1-3.4,1.7-4.6,1.9c-1.2,0.3-2.7,0.4-4.6,0.4l-3.1-0.3l2-1l-0.8-1l-7.2,3.1
		c-0.3-0.7-1-1-2-1c-1.7,0-3.1,0.5-4.2,1.4c-1.1,0.9-3.7,1.8-7.8,2.7l-1.3-2c0,0.9-1.4,1.8-4.1,2.7c-2.7,0.9-5,1.4-6.7,1.4
		c-1.5,0-2.3-0.5-2.3-1.5c0.2-0.3,2.4-1.1,6.8-2.2c4.4-1.1,6.9-2.3,7.6-3.5c-1.4-0.7-2.5-1-3.3-1c-0.7,0-1.5,0.2-2.6,0.5
		c-1,0.3-1.8,0.5-2.3,0.5c-1,0-1.5-0.2-1.5-0.5c0-0.3,0.4-0.6,1.3-0.9c0.9-0.3,1.9-0.5,3.1-0.6c0.7-0.9,2.1-1.6,4.4-2.3
		c2.2-0.7,4.5-1.3,6.9-1.8c5.1-1,7.8-2,8.2-2.8c-6.1,0-11.5,0.7-16.1,2c-1-0.3-1.5-1.4-1.5-3.1h-4.6l-1,1.8l2,1.3l-1,2l-12.3,5.9
		h-3.8c0.7-0.7,1.7-1.3,2.9-1.8c1.3-0.5,2.2-0.9,2.7-1.3c3.8-1.7,6.2-3.3,7.4-4.9h-3.1c0.2-0.3,0.7-0.8,1.7-1.3
		c0.9-0.5,1.4-0.9,1.4-1.3c0-0.3-0.2-0.6-0.5-0.9c-0.3-0.3-0.5-0.5-0.5-0.6c-1.2,0.7-5.7,1-13.6,1h-6.7c-0.9,0-1.7,0.3-2.4,0.9
		c-0.8,0.6-1.3,0.9-1.7,0.9c-0.5,0-1.2-0.1-2-0.4c-0.9-0.3-1.4-0.4-1.5-0.4c-0.5,0.2-2.4,0.4-5.6,0.8c-3.2,0.3-4.9,0.8-4.9,1.3v1.3
		c3.9,0,6.9-0.4,9-1.3c1.5,0,2.3,0.5,2.3,1.5s-0.5,1.9-1.5,2.7s-2,1.2-3.1,1.2c-0.3,0-0.9-0.2-1.5-0.5l-12.3,7.2
		c-0.3-0.7-0.9-1.1-1.5-1.2c-0.7-0.1-1.2-0.4-1.5-0.9c0.7-1,1.7-1.8,3.2-2.4c1.4-0.6,2.4-1,2.9-1.2c2.2-0.5,3.9-1.3,5.1-2.3
		l-4.1-0.3c-1,0-2.5,0.2-4.4,0.6c-1.9,0.4-3.4,0.6-4.6,0.6c-0.9,0-1.5-0.1-2-0.3l-2,7.2c0.9,0.3,1.3,0.9,1.4,1.8
		c0.1,0.9,0.2,1.6,0.4,2.2c0.2,0.6,0.9,0.9,2.3,0.9c2.6,0,7-2.1,13.3-6.4c0.7-0.3,2.1-1.2,4.2-2.4c2.1-1.3,4-2.3,5.5-2.9
		c1.5-0.7,2.9-1,4.1-1c1.4,0,2.5,0.4,3.3,1.3c0,0.7-1.1,1.5-3.2,2.3c-2.1,0.9-3.8,1.6-5,2.3c0.7,0.2,1,1.1,1,2.8
		c0,1-1.3,1.9-3.8,2.7c-2.6,0.8-4,1.3-4.4,1.7v-1c-1.5,0-2.3,0.7-2.3,2l0.3,1c2,0,4.4-0.7,7.2-2c1.9-1.2,3.8-1.8,5.6-1.8
		c0-1.4,0.7-2.4,2-3.2c1.4-0.8,2.8-1.2,4.4-1.2v1l3.1-1l-1-1c0.2-0.2,0.5-0.4,0.9-0.6c0.4-0.3,0.8-0.4,1.2-0.4
		c0.2,0,0.4,0.1,0.6,0.4c0.3,0.3,0.4,0.5,0.4,0.6c1.9-0.7,4.4-1.2,7.4-1.5c3.1-0.3,5.3-0.5,6.7-0.5c-2.2,1.4-6.3,2.7-12.3,4.1
		c-5,1.2-7.9,2.2-9,3.1v1.3c3.2,0,8.1-0.2,14.6-0.5c5.1-0.5,10.4-0.8,15.9-0.8l4.1,1c2.4-1.2,4.3-2,5.6-2.3c1.4-0.3,3-0.5,5-0.5
		c2,0,3.7-0.1,5.2-0.3c2.2-0.2,4.7-0.5,7.6-1c2.8-0.5,4.7-0.9,5.8-1L1138.4,114.2z M1048.2,130.4c2.5-0.8,4.2-1.4,5.2-1.9l1-1.3
		c-2.4,0.3-4.1,0.7-5.1,1c-4.3,0.9-6.9,1.3-7.9,1.3v3.1C1043.5,131.9,1045.7,131.2,1048.2,130.4z M1042.2,99.1
		c1.5-0.9,3.7-1.8,6.4-2.9c2.7-1.1,4.9-1.9,6.4-2.4c0-1.9-2-2.8-5.9-2.8c-1.9,0-3.5,0.5-4.9,1.4c-1.4,0.9-2,2.2-2,3.7V99.1z
		 M1045.4,149.1c1.4,4.4,3,6.5,4.7,6.5c2.4,0,4.9-0.6,7.7-1.9c2.7-1.3,5.3-2.7,7.7-4.2c2.4-1.5,4.1-2.6,5.1-3.1
		c-1.9-0.7-4.3-1-7.2-1c-1.7,0-4.3,0.2-7.7,0.5c-3.1,0.3-5.5,0.5-7.2,0.5c-1.4,0-2-0.4-2-1.3c0-1.2,2.8-3.1,8.3-5.8
		c5.5-2.6,9.1-4,10.6-4h-16.9l-1.3-2c-0.2,1-0.9,2-2.2,2.9c-1.3,0.9-1.9,1.9-1.9,2.9C1043.2,141.5,1043.9,144.8,1045.4,149.1z
		 M1058.6,94c-1.7,0.9-3.8,2.1-6.4,3.8c-4.1,2.7-7,4.2-8.7,4.4h2.3c3.8,0,6.4-0.1,8.1-0.3c1.6-0.2,3.9-0.8,6.8-1.8l2,1
		c0.7-3.4,1-6.2,1-8.4C1062,92.7,1060.3,93.1,1058.6,94z M1051.1,81.9c-2.2,1.2-3.5,2.1-3.8,2.8l2,0.3c1,0,2.3-0.6,3.7-1.7
		c1.4-1.1,2.2-2.2,2.2-3.2C1054.7,80.1,1053.3,80.7,1051.1,81.9z M1063.5,88.1c0.8,0.2,1.4,0.8,1.9,1.8l7.2-6.9
		c-2.9,0-7.2,0.8-12.9,2.4c-5.7,1.6-8.7,2.8-9.1,3.5l2,0.3c0.9,0,2-0.2,3.5-0.6c1.4-0.4,2.6-0.6,3.5-0.6
		C1061.5,87.8,1062.8,87.9,1063.5,88.1z M1090.8,165.6c-1.2,0.3-2.9,1.1-5,2.2c-2.1,1.1-4.1,1.7-6,1.7v-4.6c0.5-0.5,1.8-1.8,4-4
		c2.1-2.1,3.8-4.2,5-6.3c-2.6,1.7-6.6,3.3-12,4.9c-2.6,0.5-5,1.3-7.2,2.3c0-0.3-0.1-0.6-0.3-0.9c-0.2-0.3-0.4-0.4-0.8-0.4l-1.8,1.3
		c-0.3,0-0.8-0.2-1.3-0.5c-0.5-0.3-0.9-0.7-1-1c0-1.9,1.1-3.4,3.2-4.6c2.1-1.2,3.3-1.9,3.5-2c-2.2,0-5.4,0.7-9.6,2
		c-4.2,1.4-6.5,2-7,2c-0.2,0-0.4-0.1-0.6-0.4s-0.4-0.5-0.4-0.6l-0.3,1.5c0,1.7,2,3.6,6.1,5.8c4.1,2.1,8.7,4,13.7,5.5
		c5,1.5,8.1,2.3,9.3,2.3C1085.8,171.8,1088.6,169.7,1090.8,165.6z M1053.4,76.8h2l19.2-7.9l1-1.3c-0.3,0.2-1.4,0.3-3.1,0.3
		c-1.7,0-2.9-0.4-3.5-1.2c-0.6-0.8-1.2-1.2-1.7-1.2s-1.5,0.7-2.9,2.2c-1.5,1.5-2.5,2.2-3.2,2.2c-0.3,0-0.6-0.1-0.8-0.3L1053.4,76.8z
		 M1067.5,137.2l-2,1.3v-1.3c-1,0.5-2.9,1.5-5.8,2.8c-2.8,1.4-4.9,2.6-6.3,3.6l9.5-0.5l7.7-0.5l1.3-1L1067.5,137.2z M1065.1,129
		c-0.4-1.4-0.6-2.3-0.6-2.8l0.3-1c-1,0.5-2.6,1.5-4.6,2.9c-2,1.5-3.9,2.2-5.6,2.2l2,2v1c1.4-0.9,3.2-1.3,5.6-1.3h3.6
		C1065.7,131.4,1065.5,130.4,1065.1,129z M1087,71.4c-4.4,1-7.7,1.5-9.7,1.5c-1.5,0-2.4-0.4-2.6-1.3c0,0.9-0.1,1.4-0.4,1.7
		c-0.3,0.3-0.7,0.4-1.4,0.4c-1.2,0-2-0.3-2.3-1c0,2.7-2.4,4.1-7.2,4.1l1.3-0.8c-1.9,0-3.9,1.3-6.1,3.8c4.1,0,6.1,0.3,6.1,1
		c1.4-0.7,2.8-1,4.4-1c0.5,0,0.9,0.1,1,0.3c0.3,0.3,0.5,0.6,0.5,0.8c-0.2,0.2-0.4,0.4-0.8,0.6c-0.3,0.3-0.8,0.4-1.3,0.4l1,0.3
		c1.4,0,3.2-0.7,5.5-2c2.3-1.4,3.5-2.7,3.7-4.1c8.9,0,14.9-2.1,18.2-6.4C1094.2,69.6,1090.9,70.2,1087,71.4z M1069.6,149.2
		c-2.4,0.5-4.3,1.1-5.6,1.7c-1.4,0.6-2.5,1.5-3.3,2.7l0.8,0.3c1.9,0,4.6-1.1,8.2-3.3v1c0.3,0,1.3-0.3,2.8-1c1.5-0.7,4.4-1.6,8.4-2.8
		c-1.7-0.9-2.7-1.5-3.1-2C1076.4,147,1073.7,148.2,1069.6,149.2z M1082.6,84.6c-3.6,1.3-6.7,3-9.2,5.2c-2.6,2.2-3.8,4.6-3.8,7.2
		h38.4c0-4.8-1.5-8.4-4.6-10.8c-3.1-2.4-6.9-3.6-11.5-3.6C1089.3,82.7,1086.2,83.3,1082.6,84.6z M1088.8,107.3
		c0.2-0.2-2.6,0.6-8.2,2.3l-5.9,1.5v-1c0-0.2,1-0.8,2.9-1.9c2-1.1,3.4-1.8,4.2-2.2l0.8,1.3c0.2-1,0.7-1.8,1.5-2.4
		c0.9-0.6,1.7-0.9,2.6-0.9v2h2V107.3z M1087.4,150c-0.6-0.2-1.1-0.3-1.4-0.3c-1.7,0-3.7,0.5-5.9,1.5c-2.2,1-3.7,2.1-4.4,3.3l2,1
		c1.4,0,3.5-0.8,6.5-2.4c3-1.6,4.5-2.5,4.5-2.7C1088.4,150.4,1088,150.2,1087.4,150z M1082.4,80.6c1.2-0.2,2-0.4,2.3-0.8
		c-0.2-0.2-0.6-0.4-1.3-0.6c-0.7-0.3-1.2-0.4-1.5-0.4c-0.3,0-0.7,0.3-1.2,0.8c-0.4,0.5-0.6,0.9-0.6,1.3
		C1080.4,80.9,1081.2,80.8,1082.4,80.6z M1084.9,59.4c-1.7,0.5-2.7,0.9-3.1,1.3c0.2,0,0.4,0,0.8,0.1c0.3,0.1,0.8,0.1,1.3,0.1
		c3.2,0,5.2-0.8,5.9-2.3h-1h-1C1087.6,58.6,1086.6,58.9,1084.9,59.4z M1096.2,154.1c-2.7,1.2-4.5,2-5.4,2.6
		c-1.7,3.8-3.8,6.5-6.1,8.2h1.3l12-7.2c0.2,0,1.6-0.8,4.2-2.4c2.6-1.6,4.3-2.5,5-2.7c-0.7-0.2-2.2-0.3-4.6-0.3
		C1101.1,152.3,1098.9,152.9,1096.2,154.1z M1094.7,64.8c-3.4,1.5-5.7,2.3-6.9,2.3v1.8l12.3-2c0-0.5,0.1-0.9,0.4-1.3
		c0.3-0.3,0.5-0.6,0.6-0.8c0.2,0,0.4,0.2,0.8,0.5l8.2-0.5l-2-2l-7.9-2C1099.9,61.9,1098.1,63.2,1094.7,64.8z M1125,149.5
		c-3,0.7-5.1,1.2-6.3,1.5c-5.5,1.5-8.7,2.4-9.7,2.6c-0.5,1.7-1.6,3.3-3.3,4.9c-1.7,1.5-3.6,2.6-5.6,3.3l-1.5-2
		c0,2.9,0.4,4.4,1.3,4.4c1.5,0,6.3-2.3,14.3-6.9l5.1-2.8c0,0.9-2.9,3.6-8.7,8.2c-5.8,4.6-9,6.9-9.5,6.9c-0.7,0-2.1-0.7-4.2-2.2
		c-2.1-1.4-3.5-2.3-4-2.4l0.8,2c0,1.5-0.4,2.7-1.3,3.5c-0.9,0.8-2.4,1.6-4.6,2.4c0.7,0.9,2.6,1.3,5.9,1.3l6.4-0.3l1-2
		c0.2,0.7,0.5,1,1,1l1.8-0.3v1.5c0.3,0,0.8-0.2,1.3-0.6c0.5-0.4,0.9-0.6,1.3-0.6c0.5,0,1,0.2,1.5,0.5c0.5,0.3,1.1,0.5,1.8,0.5
		c2.9,0,5.8-1.1,8.6-3.2c2.8-2.1,4.2-4.6,4.2-7.6c-2,0-3.8,1.3-5.4,3.8v-1.3l-2,2c0-1.4,0.1-2.3,0.4-2.9c0.3-0.6,0.8-1.2,1.7-1.9
		l1,1c0.9-1.2,2.1-2.6,3.8-4.1c1.7-1.5,3.2-2.6,4.4-3.1l0.8,3.8c0,0.9-0.9,2.8-2.7,5.8c-1.8,3-2.9,4.8-3.2,5.5l5.9-2.8l-0.8-1.3
		c1.5-2.2,4.5-5.3,9-9.2c-0.3-2.7-1.4-4.1-3.1-4.1c-0.7,0-1.3,0.5-1.8,1.5c-0.5,1-1.3,1.6-2.3,1.8v-2.6c0.9,0,1.8-0.7,2.9-2
		c1.1-1.4,2.2-2.2,3.2-2.6c-0.2-0.3-0.5-0.7-0.9-1.2c-0.4-0.4-0.8-0.7-1.2-0.9C1130.4,148.5,1128,148.8,1125,149.5z M1110,74.8h-1
		l-11,2c-0.5,0.2-1.1,0.3-1.8,0.3l-1.5-0.3c-0.5,0-1.5,0.3-2.8,1c1.5,0.7,3.4,1,5.6,1h2.3C1104.7,78.8,1108.1,77.5,1110,74.8z
		 M1122.8,69.4c-3.8-2.6-6.8-3.8-9.2-3.8c-1.4,0-2.6,0.4-3.7,1.3c-1.1,0.9-2.7,2.1-4.7,3.8c-2,2-3.4,3.1-4.1,3.1h0.8
		c1,0,2.6-0.6,4.9-1.8c2.2-1.2,3.5-2.2,3.8-3.1v2.6h1.5l7.2-1.8c1.4,0,2,0.4,2,1.3c0,0.7-0.1,1.2-0.3,1.7c-0.2,0.4-0.3,0.7-0.3,0.9
		c-0.2,0-0.5-0.1-1-0.4c-0.5-0.3-1-0.4-1.5-0.4c-0.3,0-1.3,0.9-2.9,2.6c-1.6,1.7-2.7,2.9-3.2,3.6l7.2-2c-0.3,0.5-1.4,1.2-3.1,2
		c2.6,0,4.6-0.5,6.1-1.5s2.6-1.5,3.3-1.5c0.9,0,1.4,0.1,1.5,0.3l-0.8,0.8h2.8C1128.7,74.4,1126.6,71.9,1122.8,69.4z M1108,82.2
		c0,0.5,0.3,1.2,0.9,2c0.6,0.9,1,1.5,1.2,1.8l12.3-6.1h-2C1113.4,80.9,1109.3,81.7,1108,82.2z M1111,109.8c-2,0.9-3.1,1.6-3.1,2.3
		l12.5-3.1l-6.1-0.5C1114.2,108.5,1113.1,109,1111,109.8z M1113.1,166.9c0,1.2-0.4,2.2-1.2,3.1c-0.8,0.9-1.8,1.5-2.9,1.8
		C1109.8,170.1,1111.2,168.4,1113.1,166.9z M1114.5,88.2c-0.9,0.3-1.8,0.8-2.4,1.7c0,0.3,0.3,0.7,0.8,1.2c0.5,0.4,0.9,0.7,1.3,0.9
		c0.5,0,1.7-0.6,3.6-1.8c1.9-1.2,3.1-1.9,3.6-2l-3.1-0.3C1116.7,87.8,1115.4,87.9,1114.5,88.2z M1121.8,83.2
		c-2.7,1.2-4.6,1.8-5.6,1.8c-0.5,0-0.9-0.1-1-0.3v1.8c1.4,0,2.9-0.3,4.6-0.9c1.7-0.6,3.2-0.9,4.4-0.9c0.3,0,0.6,0.1,0.8,0.4
		c0.2,0.3,0.3,0.6,0.3,0.9h7.2c-1.4,0.2-4.6,1.5-9.7,4c-5.1,2.5-7.7,4.1-7.7,5h7.4l-1-1h1c0.3,0,1.1,0.1,2.2,0.4
		c1.1,0.3,2.3,0.5,3.7,0.6c5.6-1.2,8.4-2.6,8.4-4.1c0-4.4-1.9-7.8-5.6-10.2C1129,80.6,1125.9,81.5,1121.8,83.2z M1137.4,100.1
		c0-0.5-0.3-1.3-1-2.4c-0.7-1.1-1-2-1-2.7c-1.9,0.9-4.3,1.8-7.2,2.8c-2.9,1-5.2,1.8-6.9,2.3h2c2.6,0,4.2-0.3,4.9-1
		c0.3,0,0.7,0.1,1.2,0.3c0.4,0.2,0.7,0.4,0.9,0.8c0-1,0.2-1.7,0.6-1.9c0.4-0.3,1.1-0.4,1.9-0.4c0.9,0,1.4,0.1,1.5,0.3l-1,1
		c0,0.2,0.2,0.4,0.5,0.8c0.3,0.3,0.5,0.6,0.5,0.8l-7.9,2.6c0.2,0,0.6,0,1.2,0.1c0.6,0.1,1.4,0.1,2.4,0.1
		C1134.9,103.4,1137.4,102.3,1137.4,100.1z M1135.9,107.8c-0.9-0.7-1.4-1.3-1.5-1.8c-0.2,1.2-0.8,2.1-1.9,2.7
		c-1.1,0.6-2.5,1.1-4.2,1.4h5.1c1.2,0,2.6-0.3,4.4-0.8C1137.3,109,1136.7,108.5,1135.9,107.8z M1135.4,166.9c-0.7-0.7-1-1.6-1-2.8
		v-1.3c0,0.7-0.5,1.5-1.5,2.3c-1,0.9-1.5,1.5-1.5,1.8c0,1.2,0.3,1.9,1,2C1133.6,168.3,1134.7,167.6,1135.4,166.9z"/>
</g>
</svg>
